<?xml version="1.0" encoding="utf-8"?>
<!-- Generator: Adobe Illustrator 19.1.0, SVG Export Plug-In . SVG Version: 6.00 Build 0)  -->
<svg version="1.1" id="data_Text" xmlns="http://www.w3.org/2000/svg" xmlns:xlink="http://www.w3.org/1999/xlink" x="0px" y="0px"
	 viewBox="0 0 1526 3719.7" style="enable-background:new 0 0 1526 3719.7;" xml:space="preserve">
<style type="text/css">
	.st0{fill:#333333;}
	.st1{font-family:'Roboto-Regular';}
	.st2{font-size:18px;}
</style>
<style>@import url('../svg_styles.css')</style>
<g id="January">
	
		<image style="overflow:visible;" width="6000" height="4000" xlink:href="Links/P&amp;J_Jan-Cans.png"  transform="matrix(6.367606e-02 0 0 6.367606e-02 -0.1973 31.8818)">
	</image>
	
		<image style="overflow:visible;" width="6000" height="4000" xlink:href="Links/P&amp;J-Jan-glass.png"  transform="matrix(6.367606e-02 0 0 6.367606e-02 188 32.734)">
	</image>
	
		<image style="overflow:visible;" width="6000" height="4000" xlink:href="Links/P&amp;J-Jan-plastic.png"  transform="matrix(6.367606e-02 0 0 6.367606e-02 340 33.1818)">
	</image>
	<g>
		<text transform="matrix(1 0 0 1 39.8588 51.4203)" class="st0 st1 st2">January</text>
	</g>
	<g>
		<text transform="matrix(1 0 0 1 39.8588 275.5898)" class="st0 st1 st2">$3891.50</text>
	</g>
</g>
<g id="February">
	
		<image style="overflow:visible;" width="6000" height="4000" xlink:href="Links/P&amp;J-Feb-glass.png"  transform="matrix(6.367606e-02 0 0 6.367606e-02 227 340.9593)">
	</image>
	
		<image style="overflow:visible;" width="6000" height="4000" xlink:href="Links/P&amp;J-feb-cans.png"  transform="matrix(6.367606e-02 0 0 6.367606e-02 1 341.1072)">
	</image>
	
		<image style="overflow:visible;" width="6000" height="4000" xlink:href="Links/P&amp;J-feb-plastic.png"  transform="matrix(6.367606e-02 0 0 6.367606e-02 417.0282 340.9593)">
	</image>
	<g>
		<text transform="matrix(1 0 0 1 41.0557 360.6456)" class="st0 st1 st2">February</text>
	</g>
	<g>
		<text transform="matrix(1 0 0 1 41.0557 584.8152)" class="st0 st1 st2">$4273.70</text>
	</g>
</g>
<g id="March">
	
		<image style="overflow:visible;" width="6000" height="4000" xlink:href="Links/P&amp;J-mar-cans.png"  transform="matrix(6.367606e-02 0 0 6.367606e-02 -1 650.1846)">
	</image>
	
		<image style="overflow:visible;" width="6000" height="4000" xlink:href="Links/P&amp;J-mar-glass.png"  transform="matrix(6.367606e-02 0 0 6.367606e-02 264 650.0367)">
	</image>
	
		<image style="overflow:visible;" width="6000" height="4000" xlink:href="Links/P&amp;J-mar-plastic.png"  transform="matrix(6.367606e-02 0 0 6.367606e-02 454 650.4846)">
	</image>
	<g>
		<text transform="matrix(1 0 0 1 41.1832 669.7231)" class="st0 st1 st2">March</text>
	</g>
	<g>
		<text transform="matrix(1 0 0 1 41.1832 893.8926)" class="st0 st1 st2">$4696.50</text>
	</g>
</g>
<g id="April">
	
		<image style="overflow:visible;" width="6000" height="4000" xlink:href="Links/P&amp;J-apr-glass.png"  transform="matrix(6.367606e-02 0 0 6.367606e-02 227.5064 959.9626)">
	</image>
	
		<image style="overflow:visible;" width="6000" height="4000" xlink:href="Links/P&amp;J-apr-plastic.png"  transform="matrix(6.367606e-02 0 0 6.367606e-02 417.5064 959.4105)">
	</image>
	
		<image style="overflow:visible;" width="6000" height="4000" xlink:href="Links/P&amp;J-apr-cans.png"  transform="matrix(6.367606e-02 0 0 6.367606e-02 0 959.1142)">
	</image>
	<g>
		<text transform="matrix(1 0 0 1 39.0564 978.6528)" class="st0 st1 st2">April</text>
	</g>
	<g>
		<text transform="matrix(1 0 0 1 39.0564 1202.8224)" class="st0 st1 st2">$4378.60</text>
	</g>
</g>
<g id="May">
	
		<image style="overflow:visible;" width="6000" height="4000" xlink:href="Links/P&amp;J-May-Glass.png"  transform="matrix(6.367606e-02 0 0 6.367606e-02 266 1268.1917)">
	</image>
	
		<image style="overflow:visible;" width="6000" height="4000" xlink:href="Links/P&amp;J-May-Plastic.png"  transform="matrix(6.367606e-02 0 0 6.367606e-02 495 1268.6395)">
	</image>
	
		<image style="overflow:visible;" width="6000" height="4000" xlink:href="Links/P&amp;J-may-cans.png"  transform="matrix(6.367606e-02 0 0 6.367606e-02 0.8027 1268.8162)">
	</image>
	<g>
		<text transform="matrix(1 0 0 1 39.8588 1284.816)" class="st0 st1 st2">May</text>
	</g>
	<g>
		<text transform="matrix(1 0 0 1 39.8588 1510.9855)" class="st0 st1 st2">$4928.40</text>
	</g>
</g>
<g id="June">
	
		<image style="overflow:visible;" width="6000" height="4000" xlink:href="Links/P&amp;J-June-cans.png"  transform="matrix(6.367606e-02 0 0 6.367606e-02 0 1577.8936)">
	</image>
	
		<image style="overflow:visible;" width="6000" height="4000" xlink:href="Links/P&amp;J-June-Glass.png"  transform="matrix(6.367606e-02 0 0 6.367606e-02 266 1577.2692)">
	</image>
	
		<image style="overflow:visible;" width="6000" height="4000" xlink:href="Links/P&amp;J-June-Plastic.png"  transform="matrix(6.367606e-02 0 0 6.367606e-02 494.0282 1577.2692)">
	</image>
	<g>
		<text transform="matrix(1 0 0 1 38.0557 1593.8934)" class="st0 st1 st2">June</text>
	</g>
	<g>
		<text transform="matrix(1 0 0 1 38.0557 1820.0629)" class="st0 st1 st2">$5308.30</text>
	</g>
</g>
<g id="July">
	
		<image style="overflow:visible;" width="6000" height="4000" xlink:href="Links/P&amp;J-July-Glass.png"  transform="matrix(6.367606e-02 0 0 6.367606e-02 303 1886.7222)">
	</image>
	
		<image style="overflow:visible;" width="6000" height="4000" xlink:href="Links/P&amp;J-July-plastic.png"  transform="matrix(6.367606e-02 0 0 6.367606e-02 531 1887.17)">
	</image>
	
		<image style="overflow:visible;" width="6000" height="4000" xlink:href="Links/P&amp;J-July-cans.png"  transform="matrix(6.367606e-02 0 0 6.367606e-02 0 1886.3467)">
	</image>
	<g>
		<text transform="matrix(1 0 0 1 44.1832 1902.3466)" class="st0 st1 st2">July</text>
	</g>
	<g>
		<text transform="matrix(1 0 0 1 44.1832 2128.5159)" class="st0 st1 st2">$5828.20</text>
	</g>
</g>
<g id="August">
	
		<image style="overflow:visible;" width="6000" height="4000" xlink:href="Links/P&amp;J_aug-cans_1.png"  transform="matrix(6.367606e-02 0 0 6.367606e-02 0 2196.0486)">
	</image>
	
		<image style="overflow:visible;" width="6000" height="4000" xlink:href="Links/P&amp;J-aug-cans-2.png"  transform="matrix(6.367606e-02 0 0 6.367606e-02 303.0282 2196.4241)">
	</image>
	
		<image style="overflow:visible;" width="6000" height="4000" xlink:href="Links/P&amp;J-Aug-Glass.png"  transform="matrix(6.367606e-02 0 0 6.367606e-02 342.0282 2195.4241)">
	</image>
	
		<image style="overflow:visible;" width="6000" height="4000" xlink:href="Links/P&amp;J-Aug-Plastic.png"  transform="matrix(6.367606e-02 0 0 6.367606e-02 608.0282 2195.4241)">
	</image>
	<g>
		<text transform="matrix(1 0 0 1 42.0564 2212.0483)" class="st0 st1 st2">August</text>
	</g>
	<g>
		<text transform="matrix(1 0 0 1 42.0564 2438.2178)" class="st0 st1 st2">$6220.75</text>
	</g>
</g>
<g id="September">
	
		<image style="overflow:visible;" width="6000" height="4000" xlink:href="Links/P&amp;J-sept-Glass.png"  transform="matrix(6.367606e-02 0 0 6.367606e-02 266 2505.0679)">
	</image>
	
		<image style="overflow:visible;" width="6000" height="4000" xlink:href="Links/P&amp;J-Sept-Plastic.png"  transform="matrix(6.367606e-02 0 0 6.367606e-02 494 2505.5159)">
	</image>
	
		<image style="overflow:visible;" width="6000" height="4000" xlink:href="Links/P&amp;J-Sept-Cans.png"  transform="matrix(6.367606e-02 0 0 6.367606e-02 -0.1973 2505.1689)">
	</image>
	<g>
		<text transform="matrix(1 0 0 1 40.8588 2519.8999)" class="st0 st1 st2">September</text>
	</g>
	<g>
		<text transform="matrix(1 0 0 1 40.8588 2747.0693)" class="st0 st1 st2">$5264.15</text>
	</g>
</g>
<g id="October">
	
		<image style="overflow:visible;" width="6000" height="4000" xlink:href="Links/P&amp;J-Oct-Cans.png"  transform="matrix(6.367606e-02 0 0 6.367606e-02 0 2814.2463)">
	</image>
	
		<image style="overflow:visible;" width="6000" height="4000" xlink:href="Links/P&amp;J-Oct-Glass.png"  transform="matrix(6.367606e-02 0 0 6.367606e-02 227.0282 2815.1455)">
	</image>
	
		<image style="overflow:visible;" width="6000" height="4000" xlink:href="Links/P&amp;J-Oct-Plastic.png"  transform="matrix(6.367606e-02 0 0 6.367606e-02 455.0282 2815.1455)">
	</image>
	<g>
		<text transform="matrix(1 0 0 1 43.0557 2828.9773)" class="st0 st1 st2">October</text>
	</g>
	<g>
		<text transform="matrix(1 0 0 1 43.0557 3056.1467)" class="st0 st1 st2">$5019.80</text>
	</g>
</g>
<g id="November">
	
		<image style="overflow:visible;" width="6000" height="4000" xlink:href="Links/P&amp;J-nov-Cans.png"  transform="matrix(6.367606e-02 0 0 6.367606e-02 0.9154 3123.324)">
	</image>
	
		<image style="overflow:visible;" width="6000" height="4000" xlink:href="Links/P&amp;J-nov-glass.png"  transform="matrix(6.367606e-02 0 0 6.367606e-02 267 3123.2229)">
	</image>
	
		<image style="overflow:visible;" width="6000" height="4000" xlink:href="Links/P&amp;J-Nov-Plastic.png"  transform="matrix(6.367606e-02 0 0 6.367606e-02 458 3123.6707)">
	</image>
	<g>
		<text transform="matrix(1 0 0 1 43.0987 3138.0549)" class="st0 st1 st2">November</text>
	</g>
	<g>
		<text transform="matrix(1 0 0 1 43.0987 3365.2244)" class="st0 st1 st2">$4844.90</text>
	</g>
</g>
<g id="December">
	
		<image style="overflow:visible;" width="6000" height="4000" xlink:href="Links/P&amp;J-dec-cans.png"  transform="matrix(6.367606e-02 0 0 6.367606e-02 0.1127 3432.835)">
	</image>
	
		<image style="overflow:visible;" width="6000" height="4000" xlink:href="Links/P&amp;J-Dec-Glass.png"  transform="matrix(6.367606e-02 0 0 6.367606e-02 265.0282 3431.7339)">
	</image>
	
		<image style="overflow:visible;" width="6000" height="4000" xlink:href="Links/P&amp;J-dec-plastic.png"  transform="matrix(6.367606e-02 0 0 6.367606e-02 455.0282 3431.7339)">
	</image>
	<g>
		<text transform="matrix(1 0 0 1 43.1691 3447.5659)" class="st0 st1 st2">December</text>
	</g>
	<g>
		<text transform="matrix(1 0 0 1 43.1691 3674.7354)" class="st0 st1 st2">$4417.15</text>
	</g>
</g>
</svg>
