<?xml version="1.0" encoding="utf-8"?>
<!-- Generator: Adobe Illustrator 19.1.0, SVG Export Plug-In . SVG Version: 6.00 Build 0)  -->
<svg version="1.1" xmlns="http://www.w3.org/2000/svg" xmlns:xlink="http://www.w3.org/1999/xlink" x="0px" y="0px"
	 viewBox="0 0 389.8 1080" style="enable-background:new 0 0 389.8 1080;" xml:space="preserve">
<style type="text/css">
	.st0{fill:#999999;}
	.st1{font-family:'AmaticSC-Regular';}
	.st2{font-size:32px;}
	.st3{font-family:'Roboto-BoldItalic';}
	.st4{font-size:12px;}
	.st5{font-family:'Roboto-Bold';}
	.st6{font-size:10px;}
	.st7{fill:none;stroke:#000000;stroke-width:2;}
	.st8{opacity:0.5;}
	.st9{opacity:0.1797;fill:#883AB5;}
	.st10{opacity:0.1797;fill:#2AC0FF;}
	.st11{fill:none;stroke:#000000;stroke-width:2;stroke-linejoin:round;}
	.st12{fill:none;stroke:#7C7C7C;stroke-miterlimit:10;stroke-dasharray:1,2;}
	.st13{fill:#D7DED5;}
	.st14{font-size:16px;}
	.st15{stroke:#999999;stroke-width:0.75;stroke-miterlimit:10;}
	.st16{font-family:'Roboto-Regular';}
	.st17{font-size:13.1545px;}
</style>
<style>@import url('../svg_styles.css')</style>
<g id="header">
	
		<image style="overflow:visible;" width="4189" height="2793" xlink:href="Links/PedroYJosefa.png"  transform="matrix(-8.951800e-02 0 0 8.951800e-02 378.9906 80.0002)">
	</image>
	<polygon class="st0" points="42,444 67,457 42,469.9 	"/>
	<text transform="matrix(1 0 0 1 77.3324 469.9994)" class="st1 st2">Meet Pablo y Violeta</text>
	
		<image style="overflow:visible;" width="602" height="79" xlink:href="Links/Soundcloud.png"  transform="matrix(0.459 0 0 0.3578 40.9966 398.0013)">
	</image>
</g>
<g id="legend_icons">
	<g>
		<text transform="matrix(1 0 0 1 102.6715 710.8654)" class="st3 st4">1 Glass</text>
	</g>
	<g>
		<text transform="matrix(1 0 0 1 260.4123 710.8654)" class="st3 st4">1 Plastic</text>
	</g>
	<g>
		<text transform="matrix(1 0 0 1 260.4123 778.8654)"><tspan x="0" y="0" class="st3 st4">Trash bag</tspan><tspan x="0" y="14.4" class="st3 st4">= 150 items</tspan></text>
	</g>
	<g>
		<text transform="matrix(1 0 0 1 102.6715 779.3234)" class="st3 st4">1 Can</text>
	</g>
	<g>
		<text transform="matrix(1 0 0 1 102.6715 870.629)" class="st3 st4">Ground</text>
	</g>
	<g>
		<text transform="matrix(1 0 0 1 102.6715 908.9757)" class="st3 st4">Bin</text>
	</g>
	<g>
		<text transform="matrix(1 0 0 1 102.6715 947.3234)" class="st3 st4">Bag</text>
	</g>
	<g>
		<text transform="matrix(1 0 0 1 102.6714 1004.8993)"><tspan x="0" y="0" class="st3 st4">Connected</tspan><tspan x="0" y="14.4" class="st3 st4">to residence</tspan></text>
	</g>
	<g>
		<text transform="matrix(1 0 0 1 260.4121 1004.8993)"><tspan x="0" y="0" class="st3 st4">Connected</tspan><tspan x="0" y="14.4" class="st3 st4">to business</tspan></text>
	</g>
	<g>
		<text transform="matrix(1 0 0 1 260.4121 947.3235)"><tspan x="0" y="0" class="st3 st4">Needs someone</tspan><tspan x="0" y="14.4" class="st3 st4">to get in</tspan></text>
	</g>
	<g>
		<text transform="matrix(1 0 0 1 260.4123 870.6287)" class="st3 st4">Private</text>
	</g>
	<g>
		<text transform="matrix(1 0 0 1 260.4123 908.9754)" class="st3 st4">Public</text>
	</g>
	<text transform="matrix(1 0 0 1 102.6712 599.0924)"><tspan x="0" y="0" class="st3 st4">Pablo y Violeta’s</tspan><tspan x="0" y="14.4" class="st3 st4">comments</tspan></text>
	<text transform="matrix(1 0 0 1 102.6712 533.0924)" class="st3 st4">Observations</text>
	<g>
		<text transform="matrix(1 0 0 1 260.4122 599.092)"><tspan x="0" y="0" class="st3 st4">Pablo y Violeta’s</tspan><tspan x="0" y="14.4" class="st3 st4">encounters</tspan></text>
	</g>
	
		<image style="overflow:visible;" width="1030" height="1252" xlink:href="Links/Hand.png"  transform="matrix(3.433536e-02 0 0 3.433536e-02 213.002 577.2153)">
	</image>
	
		<image style="overflow:visible;" width="1058" height="750" xlink:href="Links/Comment.png"  transform="matrix(4.988544e-02 0 0 4.988544e-02 36.998 579.9979)">
	</image>
	<text transform="matrix(1 0 0 1 40 664)" class="st5 st6">ITEMS</text>
	<text transform="matrix(1 0 0 1 41 847)" class="st5 st6">LOCATIONS</text>
	
		<image style="overflow:visible;" width="194" height="592" xlink:href="Links/Glass.png"  transform="matrix(9.918400e-02 0 0 9.918400e-02 45.0025 678.0572)">
	</image>
	
		<image style="overflow:visible;" width="243" height="375" xlink:href="Links/Can.png"  transform="matrix(9.595800e-02 0 0 9.595800e-02 42.9625 757.8248)">
	</image>
	
		<image style="overflow:visible;" width="216" height="551" xlink:href="Links/Plastic.png"  transform="matrix(0.1091 0 0 0.1091 215.0018 677.3534)">
	</image>
	
		<image style="overflow:visible;" width="973" height="1198" xlink:href="Links/trash_bag-5.png"  transform="matrix(4.293000e-02 0 0 4.293000e-02 206.0016 746.0017)">
	</image>
	<g>
		<text transform="matrix(1 0 0 1 260.4123 532.8654)"><tspan x="0" y="0" class="st3 st4">Visual notes</tspan><tspan x="0" y="13" class="st0 st3 st6">CLICK TO VIEW</tspan></text>
	</g>
	<polyline class="st7" points="85.2,895.1 85.2,906.1 44,906.1 44.1,895.1 	"/>
	<g class="st8">
		<path class="st9" d="M212.6,1007.2c11.3,0.1,22.7-0.1,34,0.2c0.8,0,0.6-1,0.5-1.4c-0.2-0.6-1.5-2.1-2.2-2.1
			c-5.7-0.4-11.4-0.3-17.1-0.3c-5.6,0-11.1-0.1-16.7-0.2C209.2,1003.4,211.3,1007.2,212.6,1007.2z"/>
		<path class="st9" d="M212.8,1005.9c11.4,0.1,22.7-0.1,34.1,0.2c0.5,0,0.7-0.9,0.6-1.3c-0.2-0.5-1.1-1-1.6-1
			c-11.4-0.5-22.8-0.1-34.2-0.3c-0.5,0-0.9,1-0.7,1.4C211.1,1005.4,212.3,1005.8,212.8,1005.9z"/>
		<path class="st9" d="M217,1010.5c11.4,0,22.9,0,34.3,0c1.6,0-0.5-2.2-0.6-2.2c-1.2-1.1-2.9-2.7-4.6-2.9
			c-5.5-0.5-11.2-0.3-16.7-0.3c-5.6,0-11.2,0-16.8-0.2c-1.6-0.1,0.2,2.1,0.3,2.3c0.8,0.9,1.6,1.7,2.5,2.4
			C215.8,1010.1,216.4,1010.4,217,1010.5z"/>
		<path class="st9" d="M215.7,1007.8c11.4,0.1,22.8-0.1,34.2,0.1c0.9,0,1.2-0.7,0.7-1.4c-0.6-0.5-1.3-0.9-2.1-1.2
			c-0.7-0.4-1.5-0.7-2.3-0.9c-5.6-0.4-11.2-0.2-16.9-0.2c-5.6,0-11.3,0-16.9-0.2c-0.9,0-1.3,0.5-0.8,1.3c0.6,0.5,1.2,1,1.9,1.4
			C214.3,1007.2,215,1007.5,215.7,1007.8z"/>
		<path class="st9" d="M212.1,1006.2c11.4-0.1,22.8,0,34.2,0c0.5,0,1.1-1.5,1.3-1.5c-11.4,0-22.8,0-34.2,0
			C212.8,1004.7,212.3,1006.2,212.1,1006.2z"/>
		<path class="st9" d="M213.3,1010.1c11.4,0.1,22.8-0.1,34.1,0.1c2,0-1-4.4-2.2-4.5c-5.5-0.5-11-0.2-16.5-0.2
			c-5.6,0-11.1,0-16.7-0.2c-1.1,0-1,1-0.7,1.7C211.6,1007.7,212.4,1010.1,213.3,1010.1z"/>
		<path class="st9" d="M211.4,1007.7c6,0.1,12.1,0.1,18.1,0.1c5.1,0,10.3-0.1,15.4,0.2c1.1,0.1,1.9-1.9,0.6-1.9
			c-11.2,0.1-22.4,0.1-33.6,0.1c-0.5,0-1.2,0.2-1.3,0.7C210.6,1007.3,210.9,1007.7,211.4,1007.7z"/>
	</g>
	<g class="st8">
		<path class="st10" d="M55,1006.6c10.4,0.1,20.8,0,31.2,0.1c1,0,0.6-1.3,0.3-1.7c-0.6-0.8-1.4-1.8-2.4-2c-2.3-0.3-4.7-0.1-7-0.1
			c-3.3,0-6.6,0-9.8,0c-4.6,0-9.2-0.1-13.7-0.2C51.6,1002.7,53.8,1006.6,55,1006.6z"/>
		<path class="st10" d="M55.3,1005.2c10.4,0.1,20.8-0.1,31.2,0.1c0.6,0,0.8-1.1,0.6-1.4c-0.3-0.6-1.5-0.9-2.1-0.9
			c-5.1-0.2-10.3,0-15.5,0c-5.1,0-10.3,0-15.4-0.1c-0.5,0-0.9,1-0.7,1.4C53.6,1004.7,54.7,1005.2,55.3,1005.2z"/>
		<path class="st10" d="M59.5,1009.9c10.4,0,20.9,0,31.3,0c1.6,0-0.4-2.1-0.5-2.2c-1.1-1.1-2.8-2.8-4.4-3.1
			c-1.5-0.2-3.2-0.1-4.8-0.1c-3.6,0-7.1,0-10.7,0c-5.1,0-10.2-0.1-15.4-0.2c-1.6-0.1,0.2,2.1,0.3,2.3c0.8,0.9,1.6,1.7,2.5,2.4
			C58.3,1009.5,58.8,1009.8,59.5,1009.9z"/>
		<path class="st10" d="M58.2,1007.1c10.4,0.1,20.8,0,31.3,0.1c0.9,0,1.3-0.7,0.7-1.4c-0.6-0.5-1.3-0.9-2-1.3
			c-0.7-0.4-1.5-0.7-2.2-0.9c-1.6-0.1-3.2,0-4.8-0.1c-3.6,0-7.2,0-10.7,0c-5.1,0-10.3-0.1-15.4-0.2c-0.9,0-1.3,0.5-0.8,1.3
			c0.6,0.5,1.2,1,1.9,1.4C56.8,1006.5,57.5,1006.9,58.2,1007.1z"/>
		<path class="st10" d="M54.5,1005.5c10.4,0,20.8,0,31.2,0c0.5,0,1.1-1.5,1.3-1.5c-10.4,0-20.8,0-31.2,0
			C55.3,1004,54.7,1005.5,54.5,1005.5z"/>
		<path class="st10" d="M55.8,1009.4c10.4,0.1,20.8-0.1,31.2,0.1c2.1,0-0.7-4.5-1.9-4.7c-1.5-0.2-3.2,0-4.7,0c-3.6,0-7.1,0-10.7,0
			c-5.1,0-10.1,0-15.2-0.2c-1.1,0-1,1-0.7,1.7C54,1007,54.9,1009.4,55.8,1009.4z"/>
		<path class="st10" d="M53.9,1007c5.1,0.1,10.1,0.1,15.2,0.1c3.6,0,7.2,0,10.7,0c1.6,0,3.3-0.1,4.9,0.1c0.4,0,1.3-0.3,1.4-0.7
			c0.1-0.3-0.1-1.1-0.5-1c-2.3,0.2-4.8,0-7.1,0c-3.3,0-6.6,0-9.8,0c-4.7,0-9.4,0-14.1,0c-0.5,0-1.2,0.2-1.3,0.7
			C53,1006.7,53.4,1007,53.9,1007z"/>
	</g>
	<g>
		<path d="M206.7,869.3c7.4,0,14.9,0,22.3,0c1.8,0,4.8-0.6,5.7-2.5c0.8-1.8-0.7-2.9-2.4-2.9c-7.4,0-14.9,0-22.3,0
			c-1.8,0-4.8,0.6-5.7,2.5C203.5,868.2,205,869.3,206.7,869.3L206.7,869.3z"/>
	</g>
	<g>
		<path d="M207.8,907.1c7.4,0,14.9,0,22.3,0c1.2,0,3-1.8,1.1-1.8c-7.4,0-14.9,0-22.3,0C207.7,905.3,205.9,907.1,207.8,907.1
			L207.8,907.1z"/>
	</g>
	<line class="st7" x1="44" y1="866.9" x2="85" y2="866.9"/>
	<path class="st11" d="M78.6,935.7c3.1,0,5.7,2.5,5.7,5.7s-2.5,5.7-5.7,5.7l-30-0.2c-3.1,0-5.7-2.5-5.7-5.7c0-3.1,2.5-5.7,5.7-5.7"
		/>
	<line class="st12" x1="44.5" y1="996" x2="44.5" y2="1015"/>
	<line class="st12" x1="203.5" y1="996" x2="203.5" y2="1015"/>
	<path d="M65.7,1004c-7.2,0-14.5,0-21.7,0v1.8c6.9,0,13.8,0,20.6,0C65.8,1005.8,67.7,1004,65.7,1004z"/>
	<path d="M224.7,1004.4c-7.2,0-14.5,0-21.7,0v1.8c6.9,0,13.8,0,20.6,0C224.8,1006.2,226.7,1004.4,224.7,1004.4z"/>
	<g>
		<path d="M227.8,961.5h-14.7v-16.2h14.7V961.5z M220.5,951.3c-1.2,0-2.1,0.9-2.1,2.1c0,1.2,0.9,2.1,2.1,2.1c1.2,0,2.1-0.9,2.1-2.1
			C222.6,952.2,221.6,951.3,220.5,951.3z"/>
		<g>
			<path d="M227.8,945.2h-2c0-5-2.5-9.2-5.4-9.2c-2.9,0-5.4,4.2-5.4,9.2h-2c0-6.3,3.2-11.2,7.4-11.2
				C224.6,934,227.8,939,227.8,945.2z"/>
		</g>
	</g>
	<rect x="42" y="517" class="st13" width="48" height="35"/>
	
		<image style="overflow:visible;" width="1709" height="1318" xlink:href="Links/Camera.png"  transform="matrix(2.695100e-02 0 0 2.695100e-02 203.9989 516.9988)">
	</image>
	<g>
		<text transform="matrix(1 0 0 1 42.6502 489.8654)"><tspan x="0" y="0" class="st0 st3 st14">&gt;</tspan><tspan x="8.5" y="0" class="st0 st3 st6"> OPEN SCRIPT</tspan></text>
	</g>
	<line class="st15" x1="42.2" y1="492" x2="353.2" y2="492"/>
</g>
<g id="data_legend_icons">
	<text transform="matrix(1 0 0 1 85.3453 550.2094)" class="st16 st17">Cans</text>
	<text transform="matrix(1 0 0 1 85.3451 603.7245)" class="st16 st17">Glass</text>
	<text transform="matrix(1 0 0 1 85.3453 657.239)" class="st16 st17">Plastic</text>
	<text transform="matrix(1 0 0 1 85.3456 714.6341)"><tspan x="0" y="0" class="st16 st17">10 unsorted items</tspan><tspan x="0" y="15.8" class="st16 st17">Each one can be redeemed for 5 cents</tspan></text>
	<text transform="matrix(1 0 0 1 85.3453 782.6341)"><tspan x="0" y="0" class="st16 st17">10 sorted items</tspan><tspan x="0" y="15.8" class="st16 st17">Each one can be redeemed for 6 or 6.5 cents</tspan></text>
	
		<image style="overflow:visible;" width="243" height="375" xlink:href="2688570F06D77268.png"  transform="matrix(9.488724e-02 0 0 9.488724e-02 41.4293 517)">
	</image>
	
		<image style="overflow:visible;" width="194" height="592" xlink:href="2688570F06D7726F.png"  transform="matrix(8.958174e-02 0 0 8.958174e-02 44.2687 557.772)">
	</image>
	
		<image style="overflow:visible;" width="216" height="551" xlink:href="../../01_Working/PyJ_data_page_Folder/Links/Plastic.png"  transform="matrix(9.272574e-02 0 0 9.272574e-02 42.9437 615.3964)">
	</image>
	
		<image style="overflow:visible;" width="158" height="726" xlink:href="../../01_Working/PyJ_data_page_Folder/Links/DataViz_legend_dots.png"  transform="matrix(0.1217 -9.739679e-03 9.739679e-03 0.1217 42.9466 705.5184)">
	</image>
</g>
</svg>
