<?xml version="1.0" encoding="utf-8"?>
<!-- Generator: Adobe Illustrator 19.1.0, SVG Export Plug-In . SVG Version: 6.00 Build 0)  -->
<svg version="1.1" xmlns="http://www.w3.org/2000/svg" xmlns:xlink="http://www.w3.org/1999/xlink" x="0px" y="0px"
	 viewBox="0 0 1368 951.7" style="enable-background:new 0 0 1368 951.7;" xml:space="preserve">
<style type="text/css">
	.st0{fill:#333333;}
	.st1{font-family:'Roboto-Regular';}
	.st2{font-size:18px;}
</style>
<style>@import url('../svg_styles.css')</style>
<g id="data_illustrations">
	<g>
		
			<image style="overflow:visible;" width="6000" height="4000" xlink:href="../../img/maria/data_page/Morena-2017-January.png"  transform="matrix(6.367606e-02 0 0 6.367606e-02 -21.8616 30.8798)">
		</image>
		
			<image style="overflow:visible;" width="6000" height="4000" xlink:href="../../img/maria/data_page/Morena-2017-February.png"  transform="matrix(6.367606e-02 0 0 6.367606e-02 360.1948 30.8798)">
		</image>
		
			<image style="overflow:visible;" width="6000" height="4000" xlink:href="../../img/maria/data_page/Morena-2017-March.png"  transform="matrix(6.367606e-02 0 0 6.367606e-02 742.2512 30.8798)">
		</image>
		
			<image style="overflow:visible;" width="6000" height="4000" xlink:href="../../img/maria/data_page/Morena-2017-April.png"  transform="matrix(6.367606e-02 0 0 6.367606e-02 1124.3075 30.8798)">
		</image>
	</g>
	<g>
		
			<image style="overflow:visible;" width="6000" height="4000" xlink:href="../../img/maria/data_page/Morena-2017-May.png"  transform="matrix(6.367606e-02 0 0 6.367606e-02 -21.8616 334.3564)">
		</image>
		
			<image style="overflow:visible;" width="6000" height="4000" xlink:href="../../img/maria/data_page/Morena-2017-June.png"  transform="matrix(6.367606e-02 0 0 6.367606e-02 360.1948 334.3564)">
		</image>
		
			<image style="overflow:visible;" width="6000" height="4000" xlink:href="../../img/maria/data_page/Morena-2017-July.png"  transform="matrix(6.367606e-02 0 0 6.367606e-02 742.2512 334.3564)">
		</image>
		
			<image style="overflow:visible;" width="6000" height="4000" xlink:href="../../img/maria/data_page/Morena-2017-August_.png"  transform="matrix(6.367606e-02 0 0 6.367606e-02 1124.3075 334.3564)">
		</image>
	</g>
	<g>
		
			<image style="overflow:visible;" width="6000" height="4000" xlink:href="../../img/maria/data_page/Morena-2017-September_.png"  transform="matrix(6.367606e-02 0 0 6.367606e-02 -21.8616 637.833)">
		</image>
		
			<image style="overflow:visible;" width="6000" height="4000" xlink:href="../../img/maria/data_page/Morena-2017-October_.png"  transform="matrix(6.367606e-02 0 0 6.367606e-02 360.1948 637.833)">
		</image>
		
			<image style="overflow:visible;" width="6000" height="4000" xlink:href="../../img/maria/data_page/Morena-2017-November_.png"  transform="matrix(6.367606e-02 0 0 6.367606e-02 742.2512 637.833)">
		</image>
		
			<image style="overflow:visible;" width="6000" height="4000" xlink:href="../../img/maria/data_page/Morena-2017-December_.png"  transform="matrix(6.367606e-02 0 0 6.367606e-02 1124.3075 637.833)">
		</image>
	</g>
</g>
<g id="data_Text">
	<g>
		<text transform="matrix(1 0 0 1 21.1946 50.4184)" class="st0 st1 st2">January</text>
	</g>
	<g>
		<text transform="matrix(1 0 0 1 403.2505 50.4184)" class="st0 st1 st2">February</text>
	</g>
	<g>
		<text transform="matrix(1 0 0 1 787.4344 50.4184)" class="st0 st1 st2">March</text>
	</g>
	<g>
		<text transform="matrix(1 0 0 1 1167.3639 50.4184)" class="st0 st1 st2">April</text>
	</g>
	<g>
		<text transform="matrix(1 0 0 1 21.1946 350.3563)" class="st0 st1 st2">May</text>
	</g>
	<g>
		<text transform="matrix(1 0 0 1 403.2505 350.3563)" class="st0 st1 st2">June</text>
	</g>
	<g>
		<text transform="matrix(1 0 0 1 787.4344 350.3563)" class="st0 st1 st2">July</text>
	</g>
	<g>
		<text transform="matrix(1 0 0 1 1167.3639 350.3563)" class="st0 st1 st2">August</text>
	</g>
	<g>
		<text transform="matrix(1 0 0 1 21.1946 652.5641)" class="st0 st1 st2">September</text>
	</g>
	<g>
		<text transform="matrix(1 0 0 1 403.2505 652.5641)" class="st0 st1 st2">October</text>
	</g>
	<g>
		<text transform="matrix(1 0 0 1 787.4344 652.5641)" class="st0 st1 st2">November</text>
	</g>
	<g>
		<text transform="matrix(1 0 0 1 1167.3639 652.5641)" class="st0 st1 st2">December</text>
	</g>
	<g>
		<text transform="matrix(1 0 0 1 21.1946 274.5878)" class="st0 st1 st2">$234.60</text>
	</g>
	<g>
		<text transform="matrix(1 0 0 1 403.2505 274.5878)" class="st0 st1 st2">$252.60</text>
	</g>
	<g>
		<text transform="matrix(1 0 0 1 787.4344 274.5878)" class="st0 st1 st2">$331.80</text>
	</g>
	<g>
		<text transform="matrix(1 0 0 1 1167.3639 274.5878)" class="st0 st1 st2">$340.75</text>
	</g>
	<g>
		<text transform="matrix(1 0 0 1 21.1946 576.5258)" class="st0 st1 st2">$410.70</text>
	</g>
	<g>
		<text transform="matrix(1 0 0 1 403.2505 576.5258)" class="st0 st1 st2">$398.40</text>
	</g>
	<g>
		<text transform="matrix(1 0 0 1 787.4344 576.5258)" class="st0 st1 st2">$536.20</text>
	</g>
	<g>
		<text transform="matrix(1 0 0 1 1167.3639 576.5258)" class="st0 st1 st2">$608.35</text>
	</g>
	<g>
		<text transform="matrix(1 0 0 1 21.1946 879.7335)" class="st0 st1 st2">$342.80</text>
	</g>
	<g>
		<text transform="matrix(1 0 0 1 403.2505 879.7335)" class="st0 st1 st2">$240.60</text>
	</g>
	<g>
		<text transform="matrix(1 0 0 1 787.4344 879.7335)" class="st0 st1 st2">$175.50</text>
	</g>
	<g>
		<text transform="matrix(1 0 0 1 1167.3639 879.7335)" class="st0 st1 st2">$176.70</text>
	</g>
</g>
</svg>
