<?xml version="1.0" encoding="utf-8"?>
<!-- Generator: Adobe Illustrator 19.1.0, SVG Export Plug-In . SVG Version: 6.00 Build 0)  -->
<svg version="1.1" xmlns="http://www.w3.org/2000/svg" xmlns:xlink="http://www.w3.org/1999/xlink" x="0px" y="0px"
	 viewBox="0 0 1368 936" style="enable-background:new 0 0 1368 936;" xml:space="preserve">
<style type="text/css">
	.st0{fill:#333333;}
	.st1{font-family:'Roboto-Regular';}
	.st2{font-size:18px;}
	.st3{font-family:'Roboto-Light';}
	.st4{font-size:13.1545px;}
</style>
<style>@import url('../svg_styles.css')</style>
<g id="data_illustrations">
	<g>
		
			<image style="overflow:visible;" width="6000" height="4000" xlink:href="../../img/ma/data_page/Morena-2017-January.png"  transform="matrix(6.367606e-02 0 0 6.367606e-02 -22.1127 27.0148)">
		</image>
		
			<image style="overflow:visible;" width="6000" height="4000" xlink:href="../../img/ma/data_page/Morena-2017-February.png"  transform="matrix(6.367606e-02 0 0 6.367606e-02 359.9436 27.0148)">
		</image>
	</g>
	<g>
		
			<image style="overflow:visible;" width="6000" height="4000" xlink:href="../../img/ma/data_page/Morena-2017-May.png"  transform="matrix(6.367606e-02 0 0 6.367606e-02 -22.1127 330.4914)">
		</image>
		
			<image style="overflow:visible;" width="6000" height="4000" xlink:href="../../img/ma/data_page/Morena-2017-June.png"  transform="matrix(6.367606e-02 0 0 6.367606e-02 359.9436 330.4914)">
		</image>
		
			<image style="overflow:visible;" width="6000" height="4000" xlink:href="../../img/ma/data_page/Morena-2017-July.png"  transform="matrix(6.367606e-02 0 0 6.367606e-02 742 330.4914)">
		</image>
		
			<image style="overflow:visible;" width="6000" height="4000" xlink:href="../../img/ma/data_page/Morena-2017-August_.png"  transform="matrix(6.367606e-02 0 0 6.367606e-02 1124.0564 330.4914)">
		</image>
	</g>
	<g>
		
			<image style="overflow:visible;" width="6000" height="4000" xlink:href="../../img/ma/data_page/Morena-2017-September_.png"  transform="matrix(6.367606e-02 0 0 6.367606e-02 -22.1127 633.968)">
		</image>
		
			<image style="overflow:visible;" width="6000" height="4000" xlink:href="../../img/ma/data_page/Morena-2017-October_.png"  transform="matrix(6.367606e-02 0 0 6.367606e-02 359.9436 633.968)">
		</image>
		
			<image style="overflow:visible;" width="6000" height="4000" xlink:href="../../img/ma/data_page/Morena-2017-November_.png"  transform="matrix(6.367606e-02 0 0 6.367606e-02 742 633.968)">
		</image>
		
			<image style="overflow:visible;" width="6000" height="4000" xlink:href="../../img/ma/data_page/Morena-2017-December_.png"  transform="matrix(6.367606e-02 0 0 6.367606e-02 1124.0564 633.968)">
		</image>
	</g>
</g>
<g id="data_Text">
	<g>
		<text transform="matrix(1 0 0 1 20.9434 46.5534)" class="st0 st1 st2">January</text>
	</g>
	<g>
		<text transform="matrix(1 0 0 1 402.9993 46.5534)" class="st0 st1 st2">February</text>
	</g>
	<g>
		<text transform="matrix(1 0 0 1 787.1832 46.5534)" class="st0 st1 st2">March</text>
	</g>
	<g>
		<text transform="matrix(1 0 0 1 1167.1128 46.5534)" class="st0 st1 st2">April</text>
	</g>
	<g>
		<text transform="matrix(1 0 0 1 20.9434 346.4913)" class="st0 st1 st2">May</text>
	</g>
	<g>
		<text transform="matrix(1 0 0 1 402.9993 346.4913)" class="st0 st1 st2">June</text>
	</g>
	<g>
		<text transform="matrix(1 0 0 1 787.1832 346.4913)" class="st0 st1 st2">July</text>
	</g>
	<g>
		<text transform="matrix(1 0 0 1 1167.1128 346.4913)" class="st0 st1 st2">August</text>
	</g>
	<g>
		<text transform="matrix(1 0 0 1 20.9434 648.6991)" class="st0 st1 st2">September</text>
	</g>
	<g>
		<text transform="matrix(1 0 0 1 402.9993 648.6991)" class="st0 st1 st2">October</text>
	</g>
	<g>
		<text transform="matrix(1 0 0 1 787.1832 648.6991)" class="st0 st1 st2">November</text>
	</g>
	<g>
		<text transform="matrix(1 0 0 1 1167.1128 648.6991)" class="st0 st1 st2">December</text>
	</g>
	<g>
		<text transform="matrix(1 0 0 1 20.9434 270.7228)" class="st0 st1 st2">$43.45</text>
	</g>
	<g>
		<text transform="matrix(1 0 0 1 402.9993 270.7228)" class="st0 st1 st2">$53.45</text>
	</g>
	<g>
		<text transform="matrix(1 0 0 1 787.1832 270.7228)" class="st0 st1 st2">$0.00</text>
	</g>
	<g>
		<text transform="matrix(1 0 0 1 1167.1128 270.7228)" class="st0 st1 st2">$0.00</text>
	</g>
	<g>
		<text transform="matrix(1 0 0 1 20.9434 572.6608)" class="st0 st1 st2">$55.60</text>
	</g>
	<g>
		<text transform="matrix(1 0 0 1 402.9993 572.6608)" class="st0 st1 st2">$44.85</text>
	</g>
	<g>
		<text transform="matrix(1 0 0 1 787.1832 572.6608)" class="st0 st1 st2">$169.30</text>
	</g>
	<g>
		<text transform="matrix(1 0 0 1 1167.1128 572.6608)" class="st0 st1 st2">$89.85</text>
	</g>
	<g>
		<text transform="matrix(1 0 0 1 20.9434 875.8685)" class="st0 st1 st2">$69.50</text>
	</g>
	<g>
		<text transform="matrix(1 0 0 1 402.9993 875.8685)" class="st0 st1 st2">$110.10</text>
	</g>
	<g>
		<text transform="matrix(1 0 0 1 787.1832 875.8685)" class="st0 st1 st2">$14.70</text>
	</g>
	<g>
		<text transform="matrix(1 0 0 1 1167.1128 875.8685)" class="st0 st1 st2">$28.95</text>
	</g>
	<text transform="matrix(1 0 0 1 788.8818 138.8471)" class="st3 st4">Does not can during the winter</text>
	<text transform="matrix(1 0 0 1 1166.8818 138.8471)" class="st3 st4">Does not can during the winter</text>
</g>
</svg>
