<?xml version="1.0" encoding="utf-8"?>
<!-- Generator: Adobe Illustrator 19.1.0, SVG Export Plug-In . SVG Version: 6.00 Build 0)  -->
<svg version="1.1" id="mile_marks" xmlns="http://www.w3.org/2000/svg" xmlns:xlink="http://www.w3.org/1999/xlink" x="0px" y="0px"
	 viewBox="0 0 1920 635.6" style="enable-background:new 0 0 1920 635.6;" xml:space="preserve">
<style type="text/css">
	.st0{font-family:'Roboto-Bold';}
	.st1{font-size:18px;}
	.st2{fill:none;}
	.st3{font-size:36px;}
	.st4{font-family:'Roboto-Regular';}
</style>
<style>@import url('../svg_styles.css')</style>
<g id="content">
	<path id="path" d=""/>
</g>

<g>
	<text transform="matrix(1 0 0 1 1240.9397 461.5351)" class="st0 st1">Baseball cap she found on the street</text>
</g>
<g>
	<rect x="746" y="436.6" class="st2" width="244" height="50"/>
	<text transform="matrix(1 0 0 1 773.041 451.9573)"><tspan x="0" y="0" class="st0 st1">Cart with bag lined with </tspan><tspan x="39.2" y="21.6" class="st0 st1">flowery fabric</tspan></text>
</g>
<text transform="matrix(1 0 0 1 74.8378 192.9819)" class="st0 st3">Canning with Ma</text>
<g>
	<rect x="74.8" y="254.4" class="st2" width="455.3" height="233.6"/>
	<text transform="matrix(1 0 0 1 74.8382 269.8042)"><tspan x="0" y="0" class="st4 st1">Ma was born in 84 years ago in Beijing and arrived in NY </tspan><tspan x="0" y="21.6" class="st4 st1">in the early nineties. She collects cans and bottles at </tspan><tspan x="0" y="43.2" class="st4 st1">night, around the baseball field next to the buildings </tspan><tspan x="0" y="64.8" class="st4 st1">where she lives. She does it sneakily, because her </tspan><tspan x="0" y="86.4" class="st4 st1">neighbors wouldn’t like the idea to have bags filled with </tspan><tspan x="0" y="108" class="st4 st1">street trash stored in their building. They will never </tspan><tspan x="0" y="129.6" class="st4 st1">guess: the plastic bag she uses for canning is lined with </tspan><tspan x="0" y="151.2" class="st4 st1">a romantic flowery fabric. It looks like she goes in and </tspan><tspan x="0" y="172.8" class="st4 st1">out to do her laundry. Apart from canning, Ma loves </tspan><tspan x="0" y="194.4" class="st4 st1">singing Chinese songs and dancing to Latino music.</tspan></text>
</g>
<image style="overflow:visible;" width="1024" height="1750" xlink:href="../../img/ma/Ma_cart.png"  transform="matrix(0.2019 0 0 0.2019 775.5092 64.7109)">
</image>
<image style="overflow:visible;" width="637" height="743" xlink:href="../../img/ma/Ma_cap.png"  transform="matrix(0.2983 0 0 0.2983 1281.7028 198.2487)">
</image>
</svg>
