<?xml version="1.0" encoding="utf-8"?>
<!-- Generator: Adobe Illustrator 19.1.0, SVG Export Plug-In . SVG Version: 6.00 Build 0)  -->
<svg version="1.1" xmlns="http://www.w3.org/2000/svg" xmlns:xlink="http://www.w3.org/1999/xlink" x="0px" y="0px"
	 viewBox="0 0 1368 936" style="enable-background:new 0 0 1368 936;" xml:space="preserve">
<style type="text/css">
	.st0{fill:#333333;}
	.st1{font-family:'Roboto-Regular';}
	.st2{font-size:18px;}
</style>
<g id="data_illustrations">
	<g>
		
			<image style="overflow:visible;" width="6000" height="4000" xlink:href="../../img/pedro/data_page/Morena-2017-January.png"  transform="matrix(6.367606e-02 0 0 6.367606e-02 -27.1127 27.0148)">
		</image>
		
			<image style="overflow:visible;" width="6000" height="4000" xlink:href="../../img/pedro/data_page/Morena-2017-February.png"  transform="matrix(6.367606e-02 0 0 6.367606e-02 354.9436 27.0148)">
		</image>
		
			<image style="overflow:visible;" width="6000" height="4000" xlink:href="../../img/pedro/data_page/Morena-2017-March.png"  transform="matrix(6.367606e-02 0 0 6.367606e-02 737 27.0148)">
		</image>
		
			<image style="overflow:visible;" width="6000" height="4000" xlink:href="../../img/pedro/data_page/Morena-2017-April.png"  transform="matrix(6.367606e-02 0 0 6.367606e-02 1119.0564 27.0148)">
		</image>
	</g>
	<g>
		
			<image style="overflow:visible;" width="6000" height="4000" xlink:href="../../img/pedro/data_page/Morena-2017-May.png"  transform="matrix(6.367606e-02 0 0 6.367606e-02 -27.1127 330.4914)">
		</image>
		
			<image style="overflow:visible;" width="6000" height="4000" xlink:href="../../img/pedro/data_page/Morena-2017-June.png"  transform="matrix(6.367606e-02 0 0 6.367606e-02 354.9436 330.4914)">
		</image>
		
			<image style="overflow:visible;" width="6000" height="4000" xlink:href="../../img/pedro/data_page/Morena-2017-July.png"  transform="matrix(6.367606e-02 0 0 6.367606e-02 737 330.4914)">
		</image>
		
			<image style="overflow:visible;" width="6000" height="4000" xlink:href="../../img/pedro/data_page/Morena-2017-August_.png"  transform="matrix(6.367606e-02 0 0 6.367606e-02 1119.0564 330.4914)">
		</image>
	</g>
	<g>
		
			<image style="overflow:visible;" width="6000" height="4000" xlink:href="../../img/pedro/data_page/Morena-2017-September_.png"  transform="matrix(6.367606e-02 0 0 6.367606e-02 -27.1127 633.968)">
		</image>
		
			<image style="overflow:visible;" width="6000" height="4000" xlink:href="../../img/pedro/data_page/Morena-2017-October_.png"  transform="matrix(6.367606e-02 0 0 6.367606e-02 354.9436 633.968)">
		</image>
		
			<image style="overflow:visible;" width="6000" height="4000" xlink:href="../../img/pedro/data_page/Morena-2017-November_.png"  transform="matrix(6.367606e-02 0 0 6.367606e-02 737 633.968)">
		</image>
		
			<image style="overflow:visible;" width="6000" height="4000" xlink:href="../../img/pedro/data_page/Morena-2017-December_.png"  transform="matrix(6.367606e-02 0 0 6.367606e-02 1119.0564 633.968)">
		</image>
	</g>
</g>
<g id="data_Text">
	<g>
		<text transform="matrix(1 0 0 1 15.9434 46.5534)" class="st0 st1 st2">January</text>
	</g>
	<g>
		<text transform="matrix(1 0 0 1 397.9993 46.5534)" class="st0 st1 st2">February</text>
	</g>
	<g>
		<text transform="matrix(1 0 0 1 782.1832 46.5534)" class="st0 st1 st2">March</text>
	</g>
	<g>
		<text transform="matrix(1 0 0 1 1162.1128 46.5534)" class="st0 st1 st2">April</text>
	</g>
	<g>
		<text transform="matrix(1 0 0 1 15.9434 346.4913)" class="st0 st1 st2">May</text>
	</g>
	<g>
		<text transform="matrix(1 0 0 1 397.9993 346.4913)" class="st0 st1 st2">June</text>
	</g>
	<g>
		<text transform="matrix(1 0 0 1 782.1832 346.4913)" class="st0 st1 st2">July</text>
	</g>
	<g>
		<text transform="matrix(1 0 0 1 1162.1128 346.4913)" class="st0 st1 st2">August</text>
	</g>
	<g>
		<text transform="matrix(1 0 0 1 15.9434 648.6991)" class="st0 st1 st2">September</text>
	</g>
	<g>
		<text transform="matrix(1 0 0 1 397.9993 648.6991)" class="st0 st1 st2">October</text>
	</g>
	<g>
		<text transform="matrix(1 0 0 1 782.1832 648.6991)" class="st0 st1 st2">November</text>
	</g>
	<g>
		<text transform="matrix(1 0 0 1 1162.1128 648.6991)" class="st0 st1 st2">December</text>
	</g>
	<g>
		<text transform="matrix(1 0 0 1 15.9434 270.7228)" class="st0 st1 st2">$698.15</text>
	</g>
	<g>
		<text transform="matrix(1 0 0 1 397.9993 270.7228)" class="st0 st1 st2">$621.58</text>
	</g>
	<g>
		<text transform="matrix(1 0 0 1 782.1832 270.7228)" class="st0 st1 st2">$537.33</text>
	</g>
	<g>
		<text transform="matrix(1 0 0 1 1162.1128 270.7228)" class="st0 st1 st2">$558.26</text>
	</g>
	<g>
		<text transform="matrix(1 0 0 1 15.9434 572.6608)" class="st0 st1 st2">$610.65</text>
	</g>
	<g>
		<text transform="matrix(1 0 0 1 397.9993 572.6608)" class="st0 st1 st2">$645.48</text>
	</g>
	<g>
		<text transform="matrix(1 0 0 1 782.1832 572.6608)" class="st0 st1 st2">$741.53</text>
	</g>
	<g>
		<text transform="matrix(1 0 0 1 1162.1128 572.6608)" class="st0 st1 st2">$689.90</text>
	</g>
	<g>
		<text transform="matrix(1 0 0 1 15.9434 875.8685)" class="st0 st1 st2">$566.31</text>
	</g>
	<g>
		<text transform="matrix(1 0 0 1 397.9993 875.8685)" class="st0 st1 st2">$721.78</text>
	</g>
	<g>
		<text transform="matrix(1 0 0 1 782.1832 875.8685)" class="st0 st1 st2">$601.84</text>
	</g>
	<g>
		<text transform="matrix(1 0 0 1 1162.1128 875.8685)" class="st0 st1 st2">$589.36</text>
	</g>
</g>
</svg>
