<?xml version="1.0" encoding="utf-8"?>
<!-- Generator: Adobe Illustrator 22.1.0, SVG Export Plug-In . SVG Version: 6.00 Build 0)  -->
<svg version="1.1" id="Layer_1" xmlns="http://www.w3.org/2000/svg" xmlns:xlink="http://www.w3.org/1999/xlink" x="0px" y="0px"
	 viewBox="0 0 1270 1206" style="enable-background:new 0 0 1270 1206;" xml:space="preserve">
<style type="text/css">
	.st0{fill:#333333;}
	.st1{font-family:'Roboto-Regular';}
	.st2{font-size:18px;}
</style>
<style>@import url('../svg_styles.css')</style>

<g id="data_illustrations">
	<g>
		
			<image style="overflow:visible;enable-background:new    ;" width="6000" height="4000" xlink:href="../../img/pedro/data_page/Pedro_data_jan1_2017.png"  transform="matrix(6.367606e-02 0 0 6.367606e-02 -7.1127 27.0148)">
		</image>
		
			<image style="overflow:visible;enable-background:new    ;" width="6000" height="4000" xlink:href="../../img/pedro/data_page/Pedro-data-feb1-2017.png"  transform="matrix(6.367606e-02 0 0 6.367606e-02 421.9436 27.0148)">
		</image>
		
			<image style="overflow:visible;enable-background:new    ;" width="6000" height="4000" xlink:href="../../img/pedro/data_page/Pedro-data-March-2017.png"  transform="matrix(6.367606e-02 0 0 6.367606e-02 853 27.0148)">
		</image>
		
			<image style="overflow:visible;enable-background:new    ;" width="6000" height="4000" xlink:href="../../img/pedro/data_page/Pedro-data-April-2017.png"  transform="matrix(6.367606e-02 0 0 6.367606e-02 2.0564 333.0148)">
		</image>
		
			<image style="overflow:visible;enable-background:new    ;" width="6000" height="4000" xlink:href="../../img/pedro/data_page/Pedro-data-jan2-2017.png"  transform="matrix(6.367606e-02 0 0 6.367606e-02 295.3979 26.5303)">
		</image>
		
			<image style="overflow:visible;enable-background:new    ;" width="6000" height="4000" xlink:href="../../img/pedro/data_page/Pedro-data-feb2-2017.png"  transform="matrix(6.367606e-02 0 0 6.367606e-02 724.9436 27.0148)">
		</image>
	</g>
	<g>
		
			<image style="overflow:visible;enable-background:new    ;" width="6000" height="4000" xlink:href="../../img/pedro/data_page/Pedro-data-may1-2017.png"  transform="matrix(6.367606e-02 0 0 6.367606e-02 425.8873 330.4914)">
		</image>
		
			<image style="overflow:visible;enable-background:new    ;" width="6000" height="4000" xlink:href="../../img/pedro/data_page/Pedro-June1-2017.png"  transform="matrix(6.367606e-02 0 0 6.367606e-02 856.9436 330.4914)">
		</image>
		
			<image style="overflow:visible;enable-background:new    ;" width="6000" height="4000" xlink:href="../../img/pedro/data_page/Pedro-data-july1-2017.png"  transform="matrix(6.367606e-02 0 0 6.367606e-02 -4 633.4914)">
		</image>
		
			<image style="overflow:visible;enable-background:new    ;" width="6000" height="4000" xlink:href="../../img/pedro/data_page/Pedro-data-aug1-2017.png"  transform="matrix(6.367606e-02 0 0 6.367606e-02 425.0564 633.4914)">
		</image>
		
			<image style="overflow:visible;enable-background:new    ;" width="6000" height="4000" xlink:href="../../img/pedro/data_page/Pedro-data-may2-2017.png"  transform="matrix(6.367606e-02 0 0 6.367606e-02 728.8873 330.1581)">
		</image>
		
			<image style="overflow:visible;enable-background:new    ;" width="6000" height="4000" xlink:href="../../img/pedro/data_page/Pedro-data-june2-2017.png"  transform="matrix(6.367606e-02 0 0 6.367606e-02 1159.277 330.8247)">
		</image>
		
			<image style="overflow:visible;enable-background:new    ;" width="6000" height="4000" xlink:href="../../img/pedro/data_page/Pedro-data-July2-2017.png"  transform="matrix(6.367606e-02 0 0 6.367606e-02 299 633.1581)">
		</image>
		
			<image style="overflow:visible;enable-background:new    ;" width="6000" height="4000" xlink:href="../../img/pedro/data_page/Pedro-data-aug2-2017.png"  transform="matrix(6.367606e-02 0 0 6.367606e-02 727.3897 633.8247)">
		</image>
	</g>
	<g>
		
			<image style="overflow:visible;enable-background:new    ;" width="6000" height="4000" xlink:href="../../img/pedro/data_page/Pedro-data-sept-2017.png"  transform="matrix(6.367606e-02 0 0 6.367606e-02 849.8873 633.968)">
		</image>
		
			<image style="overflow:visible;enable-background:new    ;" width="6000" height="4000" xlink:href="../../../03_Data/Pedro-data-oct2-2017.png"  transform="matrix(6.367606e-02 0 0 6.367606e-02 298.9436 929.968)">
		</image>
		
			<image style="overflow:visible;enable-background:new    ;" width="6000" height="4000" xlink:href="../../img/pedro/data_page/Pedro-data-nov-2017.png"  transform="matrix(6.367606e-02 0 0 6.367606e-02 423 929.968)">
		</image>
		
			<image style="overflow:visible;enable-background:new    ;" width="6000" height="4000" xlink:href="../../img/pedro/data_page/Pedro-data-dec-2017.png"  transform="matrix(6.367606e-02 0 0 6.367606e-02 854.0564 929.968)">
		</image>
		
			<image style="overflow:visible;enable-background:new    ;" width="6000" height="4000" xlink:href="../../img/pedro/data_page/Pedro-data-OCT1-2017.png"  transform="matrix(6.367606e-02 0 0 6.367606e-02 -4.0564 929.968)">
		</image>
	</g>
</g>
<g id="data_Text">
	<g>
		<text transform="matrix(1 0 0 1 35.9434 46.5534)" class="st0 st1 st2">January</text>
	</g>
	<g>
		<text transform="matrix(1 0 0 1 464.9993 46.5534)" class="st0 st1 st2">February</text>
	</g>
	<g>
		<text transform="matrix(1 0 0 1 898.1832 46.5534)" class="st0 st1 st2">March</text>
	</g>
	<g>
		<text transform="matrix(1 0 0 1 45.1128 352.5534)" class="st0 st1 st2">April</text>
	</g>
	<g>
		<text transform="matrix(1 0 0 1 468.9434 346.4913)" class="st0 st1 st2">May</text>
	</g>
	<g>
		<text transform="matrix(1 0 0 1 876.9993 346.4913)" class="st0 st1 st2">June</text>
	</g>
	<g>
		<text transform="matrix(1 0 0 1 41.1832 649.4913)" class="st0 st1 st2">July</text>
	</g>
	<g>
		<text transform="matrix(1 0 0 1 468.1128 649.4913)" class="st0 st1 st2">August</text>
	</g>
	<g>
		<text transform="matrix(1 0 0 1 892.9434 648.6991)" class="st0 st1 st2">September</text>
	</g>
	<g>
		<text transform="matrix(1 0 0 1 36.9993 944.6991)" class="st0 st1 st2">October</text>
	</g>
	<g>
		<text transform="matrix(1 0 0 1 468.1832 944.6991)" class="st0 st1 st2">November</text>
	</g>
	<g>
		<text transform="matrix(1 0 0 1 897.1128 944.6991)" class="st0 st1 st2">December</text>
	</g>
	<g>
		<text transform="matrix(1 0 0 1 35.9434 270.7228)" class="st0 st1 st2">$698.15</text>
	</g>
	<g>
		<text transform="matrix(1 0 0 1 464.9993 270.7228)" class="st0 st1 st2">$621.58</text>
	</g>
	<g>
		<text transform="matrix(1 0 0 1 898.1832 270.7228)" class="st0 st1 st2">$537.33</text>
	</g>
	<g>
		<text transform="matrix(1 0 0 1 45.1128 576.7228)" class="st0 st1 st2">$558.26</text>
	</g>
	<g>
		<text transform="matrix(1 0 0 1 468.9434 572.6608)" class="st0 st1 st2">$610.65</text>
	</g>
	<g>
		<text transform="matrix(1 0 0 1 899.9993 572.6608)" class="st0 st1 st2">$645.48</text>
	</g>
	<g>
		<text transform="matrix(1 0 0 1 41.1832 875.6608)" class="st0 st1 st2">$741.53</text>
	</g>
	<g>
		<text transform="matrix(1 0 0 1 468.1128 875.6608)" class="st0 st1 st2">$689.90</text>
	</g>
	<g>
		<text transform="matrix(1 0 0 1 892.9434 875.8685)" class="st0 st1 st2">$566.31</text>
	</g>
	<g>
		<text transform="matrix(1 0 0 1 36.9993 1171.8685)" class="st0 st1 st2">$721.78</text>
	</g>
	<g>
		<text transform="matrix(1 0 0 1 468.1832 1171.8685)" class="st0 st1 st2">$601.84</text>
	</g>
	<g>
		<text transform="matrix(1 0 0 1 897.1128 1171.8685)" class="st0 st1 st2">$589.36</text>
	</g>
</g>
</svg>
