<svg id="Default" xmlns="http://www.w3.org/2000/svg" viewBox="0 0 951.49 6250.02"><defs><style>.cls-1{fill:none;stroke:#000;stroke-linecap:round;stroke-linejoin:round;}</style></defs><title>Morena_unfolded_path_only</title><path class="cls-1" d="M834.46-1900.39a52.46,52.46,0,0,0,.64,6,18.45,18.45,0,0,1,0,6,4.16,4.16,0,0,1-3.75,3.65,60.31,60.31,0,0,1-6.2.78q-3,.21-6,.48t-6,.4l-6,.28a40.36,40.36,0,0,1-6-.15,11.6,11.6,0,0,0-5.92,1,33.52,33.52,0,0,0-5.48,3.06,21.83,21.83,0,0,0-4.49,4.1,50.22,50.22,0,0,0-3.53,4.85q-1.62,2.54-3.21,5.09t-3,5.19q-1.44,2.64-2.82,5.31t-2.88,5.28q-1.5,2.61-3,5.2t-3,5.21l-3,5.22-3,5.21q-1.5,2.6-3,5.19t-3,5.23q-1.43,2.64-2.74,5.35t-2.4,5.51q-1.09,2.8-2.11,5.63t-2,5.66q-1,2.83-1.86,5.72t-1.54,5.81q-.71,2.92-1.47,5.83l-1.51,5.82-1.51,5.82-1.51,5.82q-.75,2.91-1.52,5.81t-1.42,5.88a10.88,10.88,0,0,1-2.75,5.2,18.53,18.53,0,0,1-4.78,3.66,10.71,10.71,0,0,0-4.25,4.08,24,24,0,0,0-2.4,5.53,48.23,48.23,0,0,0-1.31,5.87,59.25,59.25,0,0,0-.64,6,53.82,53.82,0,0,1-.67,6,18.2,18.2,0,0,1-1.95,5.65,22.84,22.84,0,0,0-2.14,5.58,53.72,53.72,0,0,0-1.07,6,7.64,7.64,0,0,1-2.76,5.08,12.6,12.6,0,0,1-5.34,2.7,20.67,20.67,0,0,1-6,.5q-3-.18-6-.14l-6,.1q-3,.06-6,0t-6-.14l-6-.24-6-.25q-3-.11-6,0t-6,.43q-3,.35-6,.74a22.88,22.88,0,0,0-5.82,1.58,7.72,7.72,0,0,0-4.15,4,28.66,28.66,0,0,0-2,5.74,50.25,50.25,0,0,0-1,5.92q-.31,3-.71,6t-.86,6q-.47,3-1,5.92t-1.28,5.87q-.71,2.92-1.54,5.81t-1.74,5.76q-.92,2.86-1.93,5.69t-2.14,5.62q-1.12,2.79-2.34,5.54T610.9-1612a54.58,54.58,0,0,1-3.11,5.14,58.1,58.1,0,0,1-3.64,4.78q-1.94,2.3-4,4.52t-3.86,4.61q-1.84,2.38-3.5,4.89t-3.22,5.08q-1.56,2.57-3,5.22a22.09,22.09,0,0,1-3.57,4.9,6.65,6.65,0,0,1-5.28,2.13,22.46,22.46,0,0,1-6-1,28.28,28.28,0,0,1-5.48-2.42q-2.62-1.5-5.13-3.15t-5-3.36q-2.47-1.71-5-3.26l-5.18-3.08a19.3,19.3,0,0,0-5.58-2.21,10.14,10.14,0,0,0-5.9.41,8.87,8.87,0,0,0-4.56,3.72,11.09,11.09,0,0,0-1.71,5.67q-.08,3-.28,6t-.3,6q-.11,3-.12,6t-.07,6q-.06,3-.16,6t-.16,6q-.06,3-.06,6t.07,6q.07,3,.2,6t.18,6a43.23,43.23,0,0,0,.56,6.11,5.63,5.63,0,0,1-1.85,5.31,6.49,6.49,0,0,1-5.56,1.75,6.13,6.13,0,0,1-4.75-3.18,12.7,12.7,0,0,1-1.68-5.76q-.13-3-.55-6.06a8.69,8.69,0,0,0-2.62-5.18,9.5,9.5,0,0,0-5.24-2.62,13.6,13.6,0,0,0-6.11.42,5.82,5.82,0,0,1-5.47-.92,9.4,9.4,0,0,1-3.34-4.76,27.26,27.26,0,0,0-2.48-5.57,9.41,9.41,0,0,0-4.37-3.9,12.33,12.33,0,0,0-5.85-1.09,36,36,0,0,1-6-.15,42.28,42.28,0,0,0-6-.23,16.87,16.87,0,0,0-5.85,1.26,11.91,11.91,0,0,0-4.77,3.51,12.91,12.91,0,0,0-2.64,5.32,32,32,0,0,0-.82,6q-.13,3,0,6t.2,6q.09,3,.16,6t.1,6q0,3,.07,6t.07,6l.07,6q0,3,.06,6t0,6q0,3,0,6t0,6q0,3,0,6t0,6q0,3,0,6t.09,6q.06,3,.14,6t.18,6q.1,3,.11,6a26.56,26.56,0,0,1-.14,2.9l.17,29.86q0,1.5,0,3,.07,3,.14,6t.13,6q.06,3,.11,6t.12,6q.06,3,.19,6t0,6q-.12,3-.29,6t-.38,6.11a7,7,0,0,0,1.82,5.38,6,6,0,0,0,5.16,2q3.14-.24,6.1-.56t6-.61q3-.28,6-.45t6-.27q3-.1,6-.14t6,0q3,.06,6,.22t6,.41q3,.25,6,.39a56.49,56.49,0,0,0,6-.06,40.74,40.74,0,0,0,5.89-.8,19.78,19.78,0,0,1,6.41-.19q3.54.42-.49,1.19a48.27,48.27,0,0,1-6.85.89l-5.86.24q-3,.12-6,.05t-6-.23l-6-.34q-3-.18-6-.15l-6,.05q-3,0-6,0t-6,0q-3,.06-6,.2t-6,0q-3-.08-6.14,0a4.56,4.56,0,0,0-4.35,3.12,11.49,11.49,0,0,0-.75,6,32.9,32.9,0,0,1,.32,6q-.12,3-.12,6t0,6q0,3,0,6t0,6l0,6,0,6q0,3,0,6l0,6,0,6,0,6q0,3,0,6l0,6,0,6q0,3,0,6t0,6l0,6,0,6,0,6q0,3,0,6t0,6q0,3,0,6t0,6a42.8,42.8,0,0,0,.49,6,14.89,14.89,0,0,1-.27,5.92,18.9,18.9,0,0,1-2.36,5.5,13.23,13.23,0,0,0-2,5.58q-.35,3-.46,6a11.56,11.56,0,0,0,1.29,5.78,12,12,0,0,0,3.9,4.46q2.5,1.73,4.85,3.6t4.73,3.7l4.76,3.68,4.76,3.68q2.38,1.84,4.72,3.7a55.19,55.19,0,0,0,5,3.55,6.91,6.91,0,0,1,3.24,4.69,7.16,7.16,0,0,1-1.17,5.59,22.7,22.7,0,0,1-4,4.53q-2.28,1.95-4.54,3.93l-4.53,4-4.53,4-4.53,4-4.53,4-4.53,4q-2.27,2-4.56,3.91t-4.67,3.84a10.42,10.42,0,0,0-3.41,4.91,5.59,5.59,0,0,0,.86,5.48,46.7,46.7,0,0,0,4,4.61q2.1,2.13,4.16,4.32l4.13,4.38,4.13,4.37,4.13,4.37,4.13,4.37,4.13,4.37,4.13,4.37q2.06,2.19,4.15,4.35t4.22,4.28q2.14,2.12,4.22,4.28t4.12,4.38l4.09,4.41,4.09,4.41,4.09,4.41,4.09,4.41,4.09,4.41,4.09,4.41,4.09,4.41q2,2.21,4.12,4.38l.93,1q1.61,1.69,3.27,3.34,2.14,2.12,4.35,4.15T537.5-964q2.13,2.12,4.11,4.39l3.95,4.54,3.95,4.54q2,2.27,4,4.51t4,4.46q2,2.21,4.1,4.4l4.12,4.38q2.05,2.19,4.06,4.43t4,4.51q2,2.27,4.14,4.37a22.7,22.7,0,0,0,4.81,3.56,45,45,0,0,0,5.45,2.55q2.81,1.09,5.67,2a48.42,48.42,0,0,1,5.67,2.17,7.77,7.77,0,0,1,4,4.14,11.65,11.65,0,0,1,.92,5.89,45.23,45.23,0,0,0-.21,6q.1,3,.09,6t0,6q0,3,0,6t0,6q0,3,0,6a12.72,12.72,0,0,0,1.3,5.86,6.71,6.71,0,0,0,4.35,3.7,26.92,26.92,0,0,0,6,1q3,.17,6,.62t5.86.94q1.34.23,2.84.41l7.24.84,3.62.42a10.39,10.39,0,0,0,3.62.26,2.78,2.78,0,0,0,.85-.34,2.83,2.83,0,0,0,.37-.26c2.33-2,4.75-3.82,7.22-5.6s4.9-4.1,8.17-5.1c4.22-1.29,5.68.49,8.49,3,4.85,4.24,9.56,8.63,14.19,13.11s9.28,8.93,13.9,13.42c2.31,2.24,4.73,4.37,7,6.68,2.58,2.66,3.58,4.65,7.58,5.71,6.72,1.77,12.92-3.69,17.7-6.22,7-3.72,11.66-2.55,18.84-1.95,6.43.54,12.86.61,19.3.89l19.3.82c12.87.55,25.72,1.24,38.6,1.54,25.75.58,51.49,1.41,77.23,2.14,3.22.09,6.43.17,9.65.28,1.68.06,7.85.4,9.59-.35,2.7-1.16,4.6-5.34,5.33-7.73a83.15,83.15,0,0,1,3-9.18c1.58-3.64,2.67-5.12,6.86-5.65,3.27-.41,6.43.17,9.65.3s6.42.42,9.64.48,6.21,0,8.95-2.56c6.13-5.74,6.63-8.57,14.34-12.82,5.66-3.12,11.65-5.49,17.5-8.18,2.89-1.33,5.73-2.74,8.6-4.1a22.36,22.36,0,0,1,5.21-1.63,21.77,21.77,0,0,0,2.56-.55c.23-.08.69-.28.35-.45a9.12,9.12,0,0,0-4.28-.21,17,17,0,0,0-4.46,1.81c-2.91,1.41-5.94,2.49-8.9,3.76-4.83,2.09-12.91,5.26-17.12,8.8s-9.18,10.52-12,15a69.12,69.12,0,0,0-4.77,8.39,29,29,0,0,0-2.41,9.3c-.32,3.13-.23,16.19-.22,19.31,0,6.44,0,12.88-.18,19.31-.11,3.22-.15,6.43-.55,9.64s-1,6.2-3.56,8.79-5.45,3.07-8.78,3.47-6.41.54-9.58,1.11-6.18,1-8.53,3.89-2.38,5.85-2.91,9c-.7,4.22-.78,5.43-4.86,7.56-2.86,1.49-5.76,2.72-8.11,5.16s-4.25,4.85-6.42,7.24-4.31,4.78-6.47,7.17L888-710.49c-2.16,2.39-4.3,4.79-6.48,7.16s-4.17,4.91-6.43,7.21c-5.72,5.81-25.33,17.39-32.14,21.29s-10.12,5.1-15.9,10.82q-3.44,3.4-6.66,7a28.76,28.76,0,0,0-5.32,8c-2.66,6.25-2.61,12.51-2.89,19s-.28,12.87-.27,19.31q0,19.32.06,38.63.06,38.63.11,77.26.08,57.69.17,115.37,0,28.84.08,57.69c0,4.81-.12,9.62,0,14.42.1,6.42,1.35,8.25,6,12.44,3.57,3.23,7.48,6,11.07,9.23,4.24,3.77,6.09,6.44,6.43,12.32.17,2.94-.31,25.91-.36,28.84l-.53,28.84L833.83-158l-.53,28.84c-.18,9.61-.51,19.22-.51,28.84q0,28.84,0,57.69,0,14.42,0,28.84c0,9.61-.11,19.23.06,28.84,0,2.4.07,4.8.29,7.2s.64,4.76,1,7.14c.54,4,1.61,10.12-2,13.71-2,2-4.15,1.82-6.55,1.93-1.66.07-5.49.05-7,1.35s-2,4.69-2,6.43c-.06,2.42.26,4.81.26,7.23,0,4.81-.22,9.59.41,14.4.31,2.39.93,4.71,1.27,7.09A48.89,48.89,0,0,1,819,88.7c0,2.44-.11,4.88-.06,7.32.05,2.62-.51,4.39-2.81,5.93s-4.4,1.51-6.82,1.58-4.82.11-7.23.09c-19.23-.15-38.46.06-57.68.2l-57.68.42c-19.23.14-38.46.46-57.68.77-2.4,0-4.8.14-7.21.08s-4.68-.54-7.1.47a6.3,6.3,0,0,0-4.31,5,44.66,44.66,0,0,0-.59,7.31c-.1,2.41-.72,4.75-.84,7.16-.1,2.09.35,5.08,1.94,6.74a5.91,5.91,0,0,0,6.66,1.44c1.89-.91,4.41-3.27,1.7-4.24-2.52-.89-4.31-.19-3.51,2.64s4.42,2.18,6.37,1.38c2.18-.89.31-2.46-1-3.39a4.11,4.11,0,0,0-3.85-.79c-3.44,1-6.54,4.89-8.33,7.53a13.13,13.13,0,0,0-2,6.84c-.18,2.4-.29,4.8-.37,7.2-.32,9.49-.24,19-.35,28.48s-.22,19-.33,28.48l-.65,57c-.43,38-.91,76-1.24,113.94-.16,19-.64,38-.48,57,.08,9.49.36,19,.32,28.48s-.18,19-.38,28.48a149.17,149.17,0,0,1-3.12,28.27c-1,4.64-2.29,9.21-3,13.92a103,103,0,0,0-1,14.2q-.31,28.48-.63,57l-.65,57c-.22,19-.62,38,.23,57,.21,4.78.5,9.41-.83,14.17-.66,2.38-1.25,4.38-3.71,5.71a13,13,0,0,1-7,1.34c-4.75-.16-9.49,0-14.24,0s-9.49-.12-14.24-.19l-57-.85-57-.85c-9.49-.14-19-.53-28.48-.38-2.38,0-4.74.16-7.11.43s-4.59.4-6.62,2.12c-3.73,3.18-4.52,8.81-4.87,13.05a138.94,138.94,0,0,0,0,14.23c.1,4.75.15,9.49.17,14.24,0,9.5-.17,19-.32,28.48q-.44,28.48-.88,57c-.07,4.78-.11,9.57-.09,14.36,0,3.62.3,10.64-.66,14.29-1.35,5.07-4.67,8.19-8,11.73s-6.68,6.85-10.09,10.21c-13.61,13.46-27,27.09-40.54,40.67-6.75,6.79-13.65,13.42-20.2,20.41a23.81,23.81,0,0,1-5.53,4.56,15.56,15.56,0,0,1-6.85,1.83c-4.75.38-9.42-.26-14.09,2-5,2.42-6.92,6.13-8.66,10.94a62.15,62.15,0,0,0-3.32,13.93,131.45,131.45,0,0,0-.56,14.33c-.05,4.79-.15,9.57-.28,14.35q-1.52,57.4-3,114.8l-1.51,57.4c-.5,19.13-1.28,38.26-1.4,57.4s.42,38.26-.53,57.41c-.24,4.78-.54,9.55-.88,14.33-.17,2.39-.4,4.77-.49,7.16a34.16,34.16,0,0,1-.67,7.19c-.65,2.56-1.35,4.37-4.42,4.56a68.55,68.55,0,0,1-7.37-.1c-4.78-.23-9.55-.3-14.33-.45l-57.4-1.68c-4.78-.14-9.57-.14-14.35-.36-3.24-.15-11.14-1.6-12.67,3.3-.86,2.74-.32,11.73-.36,14.4-.06,4.78-.2,9.57-.24,14.35,0,2.4,0,4.8-.17,7.2a9,9,0,0,1-2.57,6.38c-1.7,1.72-3.61,3.19-5.34,4.88s-2.78,3.85-4.15,5.8c-4,5.66-6,5.3-12.24,5.79-4.77.37-9.53.8-14.29,1.22s-9.52,1-14.3,1.26a26.8,26.8,0,0,0-7.05.81c-2.45.79-3.78,1.84-3.23,4.64.25,1.29.55,2.58.76,3.88a25,25,0,0,0,.6,3.81,3.22,3.22,0,0,0,2.25,2.26c1.16.41,2.42.14,3.56.84s.94,1.33.59,2.31c-.22.62-.68,1.79-1.52,2-1,.22-2.47-2.36-2.51-.63a10.08,10.08,0,0,0,.59,3.3,15,15,0,0,0,1.56,3.41c1.44,2.34,1.56,4.06-.31,6.23-1.74,2-3.94,2.5-6.23,3.25a68.4,68.4,0,0,0-6.6,2.85c-4.37,2-8.74,4-13.18,5.78-5.1,2.09-6.94,6.33-5.69,11.56.67,2.8,4.58,10.6,6,13,2.4,4.15,5.27,8,7.77,12.07,1.95,3.17,6.29,8.23,6,12.75-.26,4.11-5.37,9.29-7.76,11.74-2.78,2.84-5.81,5.4-8.71,8.11-1.49,1.39-2.69,2.59-2.72,4.87a9.47,9.47,0,0,0,1.82,5.63c1.11,1.67,2.5,3.08,3.72,4.65s2.38,3.15,3.54,4.75c2.32,3.2,4.43,6.54,6.77,9.73s4.56,6.25,5,10.54a118.39,118.39,0,0,1-.35,11.85c-.3,3.94-.77,7.87-1.2,11.79q-.33,2.95-.65,5.89a21.47,21.47,0,0,0-.27,3.08,33.27,33.27,0,0,0,1.11,6.51c2.27,9.73,11.1,38.5,13.91,48.06,3.59,12.22,7.21,24.42,10.07,36.85,1.85,8,3.2,16.18,5.2,24.18,1.28,5.13,2.53,10.12,5.31,14.78a32.09,32.09,0,0,0,7.25,7.92c1.61,1.37,3.46,2.4,5,4,3.05,3.18,3,6.92,3.86,10.69.86,4,1.85,7.89,2.74,11.84s1.63,7.68,2.48,11.51c.9,4,1.91,8,2.89,12,1.89,7.74,3.56,15.52,6,23.14a117,117,0,0,0,11.51,24.62c2,3.39,4.07,6.77,6,10.21,1.39,2.46,4.18,8,6.47,10,3.55,3.08,7.21,2.07,10.85.24s7-3.59,10.65-5.22,6.8-3.59,11.27-2a18.59,18.59,0,0,1,5,3.08,24.7,24.7,0,0,0,2.52,1.67,27.05,27.05,0,0,1,2.67,1.49,4.93,4.93,0,0,1,2.22,4.86c-.15,2.32-1.55,3.31-3.12,4.55-3.12,2.49-5.88,5.36-8.87,8s-6.1,5-8.56,8.16a91.54,91.54,0,0,0-6.42,10c-4.6,7.89-8.43,14.9,2.46,19.29,3.67,1.48,7.27,3.15,10.89,4.75,3.38,1.49,6.8,4.5,6.73,8.68a37.13,37.13,0,0,1-.65,6.09,5.3,5.3,0,0,0,1.41,5.27c2.94,3,6.62,4.3,10.2,6q42.61,20.8,85.25,41.54c3.55,1.73,7.11,3.45,10.66,5.19,1.77.87,3.54,1.76,5.33,2.59a42.13,42.13,0,0,1,5.33,2.59,18.7,18.7,0,0,1,4.54,3.78c1.24,1.51,2,3.35,3.72,4.53s3.65,1.49,5.51,2.15a46.86,46.86,0,0,1,5.47,2.24c3.54,1.78,6.88,3.88,10.35,5.79s6.91,3.83,10.37,5.74l20.75,11.47q83,45.89,166,91.79c4.14,2.29,8.29,4.57,12.43,6.87,2.07,1.15,4.12,2.34,6.2,3.47,1.73.94,4.58,1.82,4.91,4.46.28,2.21-1.11,5-2.55,6.51a29.25,29.25,0,0,0-4.44,5.52c-2.37,4.1-4.59,8.28-7.07,12.32-5,8.07-10.51,15.74-15.67,23.67s-10.25,15.91-15.36,23.87-10.33,15.86-15.25,23.94q-3.7,6.06-7,12.33c-2.22,4.18-4.06,8.53-6.73,12.48-6.17,9.14-14.13,11.46-24,13.35-2.59.5-25,6.22-27.54,6.87-36.69,9.31-73.4,18.52-110.06,27.93-4.58,1.18-9.22,2.05-13.69,3.69-2.23.82-4.55,1.38-6.74,2.36a9.25,9.25,0,0,0-5,4.81c-2.92,6.14,2.63,22.59,4,27.69,4.8,18.32,8.67,36.84,12.86,55.3l6.29,27.68c2.1,9.23,4.27,18.43,5.75,27.79a31,31,0,0,1-.76,14,56.82,56.82,0,0,1-2.54,6.62c-.94,2.17-2,4.21-2.27,6.67a21.07,21.07,0,0,0,.69,7c.55,2.3,1.18,4.59,1.72,6.89,1.08,4.61,2.19,9.21,3.29,13.81l13.17,55.23q3.29,13.81,6.59,27.61c1.1,4.61,2.22,9.21,3.32,13.81a21,21,0,0,1,.34,7,28.31,28.31,0,0,0,.28,7c.71,4.69,2,9.25,3,13.87s2,9.24,3,13.87c2,9.24,4.07,18.48,6.06,27.73,1.32,6.12,2.39,12.28,3.55,18.43,2.55,13.52,5,27.05,7.89,40.52q11.71,55.55,23.37,111.12,2.59,12.33,5.21,24.65c.87,4.12,1.45,8.27,2,12.43s1.59,8.24,2.5,12.34q2.73,12.3,5.47,24.6c1.84,8.2,3.85,16.35,5.62,24.56.88,4.11,1.7,8.22,2.38,12.37s1.15,8.32,1.75,12.47a63.84,63.84,0,0,0,2.8,12.22q.53,1.52,1.17,3a30.73,30.73,0,0,1,1.33,3c.66,2.16-.34,3.73-2.05,4.9-1.95,1.33-3.87,1.12-6,1.09a40.35,40.35,0,0,0-6.31.57,32.66,32.66,0,0,0-6.17,1c-1.34.46-4.66,2.19-5.21,3.84-.62,1.86,2.14,3.42,3.6,3.65,1.83.29,4.5-.81,5.27-2.62s-.37-4.53-1.83-5.66c-1.16-.9-4.32-1.92-5.35-.27-.93,1.48-.14,4.58,1.34,5.47,1.68,1,4.38.38,5.75-.83s2.65-3.41.79-4.78a6.91,6.91,0,0,0-6.47-.71c-.52.26-4.37,3.68-4.79,4-1.61,1.35-3.25,2.66-4.89,4q-4.93,3.93-10,7.69-10.06,7.54-20.34,14.78c-1.11.78-4.14,3.2-4.88,4.45-1.32,2.24,1,3.64,2.33,4.82,3.19,2.91,5.51,6.45,8.15,9.78,5.23,6.57,10.31,13.26,15.38,20,2.55,3.37,5.1,6.73,7.39,10.3.79,1.23,2,3.74,1.93,5.35-.15,2.26-2.74,2.77-4.24,3.33-4,1.48-7.69,3.58-11.51,5.41s-7.56,3.65-11.35,5.48-7.52,3.74-11.38,5.41c-6,2.58-6,2.49-8,8.75-3.34,10.56-3,14.15.25,24.59,2.49,8,5.19,16,7.72,24,1.28,4.06,2.07,7.9,5.91,10.78,3.37,2.53,6.55,5.29,9.81,8q9.74,8,19.46,16c3.24,2.67,6.46,5.37,9.74,8,1.64,1.31,3.31,2.59,5,3.88s3.47,2.16,4.28,4.42c1.33,3.7-1.46,9.16-2.78,12-1.75,3.81-4,7.39-5.29,11.42s-1.72,8.38-2.32,12.62c-1.36,9.58-2.09,16.66.53,26.3,1.13,4.14,2.75,8.09,4.13,12.13q2,5.73,3.76,11.52c2.49,8,4.87,16,7.3,24.08s4.72,16.05,6.61,24.21a60.47,60.47,0,0,0,9.64,21c1.84,2.68,3.66,5.37,5.3,8.19a18.69,18.69,0,0,1,2,4.43q.83,3,1.7,6.07,6.91,24.23,13.75,48.48c2.29,8.08,4.26,16.23,7.36,24.08,1.55,3.91,3.48,7.64,5.17,11.48,1.33,3,3.52,8.48.93,11.88-3.58,4.7-15.93,11.7-20.61,14.46-3.62,2.14-7.26,4.22-10.92,6.3-1.62.92-9.52,5.13-10.82,6.71-1.69,2-.69,3.69,0,5.67s1.71,3.87,2.29,5.92c.45,1.56.91,4.32.1,6a4.62,4.62,0,0,1-2,2.06c-1,.56-2,1-3,1.51-7.49,3.82-14.87,7.82-22.31,11.73-4.2,2.21-8.4,4.43-12.62,6.62-5.35,2.78-7.3,3.74-11.68,8-4.67,4.56-5.4,5.61-8.5,11.33-2.27,4.18-4.33,8.45-6.26,12.79s-3.91,8.66-5.84,13c-2.2,4.95-3.71,8.06-9.41,9.89a52.77,52.77,0,0,0-6.79,2.33c-2.48,1.18-3.22,3.14-4.08,5.43-1.68,4.47-3.86,8.71-5.83,13-3.92,8.65-7.83,17.31-12.08,25.81-1.14,2.29-11.57,23.28-12.58,25.64s-.57,4.5.18,6.85,1.61,4.48,2.48,6.7q2.58,6.64,5.13,13.3c3.41,8.87,6.73,17.77,10.07,26.66q10,26.68,20,53.36c.83,2.22,1.64,4.45,2.48,6.66.54,1.42,1.89,5.22,3.06,6.41,3,3.05,10.47,2.16,13.73,1.81,2.45-.26,4.52-.37,6.68,1.28a14.28,14.28,0,0,1,4.27,5.65c2,4.3,4.15,8.55,6.2,12.84,10.27,21.54,13.08,30.5,21.44,52.78l20,53.37q10,26.68,20,53.37c3.34,8.9,6.72,17.77,10.24,26.6s7.73,17.34,11,26.3c6.44,17.88,13.28,35.6,20,53.39s13.43,35.55,20.08,53.35c1.66,4.45,3.4,8.87,5,13.35a22.37,22.37,0,0,1,1.41,7.08c0,2.8-1.12,4.1-3.57,5.18-4.59,2-9.47,3-8,9.67.56,2.43,2.09,4.26,3.13,6.39s1.92,4.34,2.78,6.55c6.86,17.72,13.51,35.52,20.26,53.28,13.51,35.52,27.16,71,40.48,106.57" transform="translate(-64.26 1900.89)"/></svg>