<?xml version="1.0" encoding="utf-8"?>
<!-- Generator: Adobe Illustrator 19.1.0, SVG Export Plug-In . SVG Version: 6.00 Build 0)  -->
<svg version="1.1" id="Legend_text" xmlns="http://www.w3.org/2000/svg" xmlns:xlink="http://www.w3.org/1999/xlink" x="0px"
	 y="0px" viewBox="0 0 1368 936" style="enable-background:new 0 0 1368 936;" xml:space="preserve">
<style type="text/css">
	.st0{font-family:'Roboto-Light';}
	.st1{font-size:13.1545px;}
	.st2{fill:#333333;}
	.st3{font-family:'Roboto-Regular';}
	.st4{font-size:18px;}
</style>
<style>@import url('../svg_styles.css')</style>
<text transform="matrix(1 0 0 1 15.4775 161.4718)" class="st0 st1">Does not can during the winter</text>
<text transform="matrix(1 0 0 1 399.4775 161.4718)" class="st0 st1">Does not can during the winter</text>
<text transform="matrix(1 0 0 1 783.4775 161.4718)" class="st0 st1">Does not can during the winter</text>
<text transform="matrix(1 0 0 1 1162.4775 161.4718)" class="st0 st1">Does not can during the winter</text>
<g>
	
		<image style="overflow:visible;" width="6000" height="4000" xlink:href="../../img/venzen/data_page/Venzen_May_2017.png"  transform="matrix(6.367606e-02 0 0 6.367606e-02 -27.517 353.1162)">
	</image>
	
		<image style="overflow:visible;" width="6000" height="4000" xlink:href="../../img/venzen/data_page/Venzen-June-2017.png"  transform="matrix(6.367606e-02 0 0 6.367606e-02 354.5393 353.1162)">
	</image>
	
		<image style="overflow:visible;" width="6000" height="4000" xlink:href="../../img/venzen/data_page/Venzen-July-2017.png"  transform="matrix(6.367606e-02 0 0 6.367606e-02 736.5957 353.1162)">
	</image>
	
		<image style="overflow:visible;" width="6000" height="4000" xlink:href="../../img/venzen/data_page/Venzen-August-2017.png"  transform="matrix(6.367606e-02 0 0 6.367606e-02 1118.6521 353.1162)">
	</image>
</g>
<g>
	
		<image style="overflow:visible;" width="6000" height="4000" xlink:href="../../img/venzen/data_page/Venzen-September-2017.png"  transform="matrix(6.367606e-02 0 0 6.367606e-02 -27.517 656.5927)">
	</image>
	
		<image style="overflow:visible;" width="6000" height="4000" xlink:href="../../img/venzen/data_page/Venzen-oct-2017.png"  transform="matrix(6.367606e-02 0 0 6.367606e-02 354.5393 656.5927)">
	</image>
	
		<image style="overflow:visible;" width="6000" height="4000" xlink:href="../../img/venzen/data_page/Venzen-nov-2017.png"  transform="matrix(6.367606e-02 0 0 6.367606e-02 736.5957 656.5927)">
	</image>
	
		<image style="overflow:visible;" width="6000" height="4000" xlink:href="../../img/venzen/data_page/Venzen-dec-2017.png"  transform="matrix(6.367606e-02 0 0 6.367606e-02 1118.6521 656.5927)">
	</image>
</g>
<g>
	<text transform="matrix(1 0 0 1 15.5391 69.1781)" class="st2 st3 st4">January</text>
</g>
<g>
	<text transform="matrix(1 0 0 1 397.595 69.1781)" class="st2 st3 st4">February</text>
</g>
<g>
	<text transform="matrix(1 0 0 1 781.7789 69.1781)" class="st2 st3 st4">March</text>
</g>
<g>
	<text transform="matrix(1 0 0 1 1161.7085 69.1781)" class="st2 st3 st4">April</text>
</g>
<g>
	<text transform="matrix(1 0 0 1 15.5391 369.116)" class="st2 st3 st4">May</text>
</g>
<g>
	<text transform="matrix(1 0 0 1 397.595 369.116)" class="st2 st3 st4">June</text>
</g>
<g>
	<text transform="matrix(1 0 0 1 781.7789 369.116)" class="st2 st3 st4">July</text>
</g>
<g>
	<text transform="matrix(1 0 0 1 1161.7085 369.116)" class="st2 st3 st4">August</text>
</g>
<g>
	<text transform="matrix(1 0 0 1 15.5391 671.3239)" class="st2 st3 st4">September</text>
</g>
<g>
	<text transform="matrix(1 0 0 1 397.595 671.3239)" class="st2 st3 st4">October</text>
</g>
<g>
	<text transform="matrix(1 0 0 1 781.7789 671.3239)" class="st2 st3 st4">November</text>
</g>
<g>
	<text transform="matrix(1 0 0 1 1161.7085 671.3239)" class="st2 st3 st4">December</text>
</g>
<g>
	<text transform="matrix(1 0 0 1 15.5391 293.3476)" class="st2 st3 st4">$0.00</text>
</g>
<g>
	<text transform="matrix(1 0 0 1 397.595 293.3476)" class="st2 st3 st4">$0.00</text>
</g>
<g>
	<text transform="matrix(1 0 0 1 781.7789 293.3476)" class="st2 st3 st4">$0.00</text>
</g>
<g>
	<text transform="matrix(1 0 0 1 1161.7085 293.3476)" class="st2 st3 st4">$0.00</text>
</g>
<g>
	<text transform="matrix(1 0 0 1 15.5391 595.2855)" class="st2 st3 st4">$455.75</text>
</g>
<g>
	<text transform="matrix(1 0 0 1 397.595 595.2855)" class="st2 st3 st4">$570.60</text>
</g>
<g>
	<text transform="matrix(1 0 0 1 781.7789 595.2855)" class="st2 st3 st4">$656.70</text>
</g>
<g>
	<text transform="matrix(1 0 0 1 1161.7085 595.2855)" class="st2 st3 st4">$508.85</text>
</g>
<g>
	<text transform="matrix(1 0 0 1 15.5391 898.4933)" class="st2 st3 st4">$410.05</text>
</g>
<g>
	<text transform="matrix(1 0 0 1 397.595 898.4933)" class="st2 st3 st4">$400.45</text>
</g>
<g>
	<text transform="matrix(1 0 0 1 781.7789 898.4933)" class="st2 st3 st4">$49.95</text>
</g>
<g>
	<text transform="matrix(1 0 0 1 1161.7085 898.4933)" class="st2 st3 st4">$96.30</text>
</g>
</svg>
