<?xml version="1.0" encoding="utf-8"?>
<!-- Generator: Adobe Illustrator 22.1.0, SVG Export Plug-In . SVG Version: 6.00 Build 0)  -->
<svg version="1.1" id="path_container" xmlns="http://www.w3.org/2000/svg" xmlns:xlink="http://www.w3.org/1999/xlink" x="0px"
	 y="0px" viewBox="0 0 1920 6152" style="enable-background:new 0 0 1920 6152;" xml:space="preserve">
<style type="text/css">
	.st0{fill:none;stroke:#999999;stroke-width:2;stroke-linecap:round;stroke-linejoin:round;stroke-dasharray:1,5.6693;}
	.st1{font-family:'Roboto-Bold';}
	.st2{font-size:18px;}
	.st3{font-family:'Roboto-Light';}
	.st4{fill:none;stroke:#000000;stroke-width:1.4173;stroke-linecap:round;stroke-linejoin:round;}
	.st5{fill:none;}
	.st6{font-family:'Roboto-Regular';}
	.st7{font-family:'Roboto-BoldItalic';}
	.st8{opacity:0.5;}
	.st9{opacity:0.1091;fill:#883AB5;enable-background:new    ;}
	.st10{fill:#D7DED5;}
	.st11{fill:#144C5B;}
	.st12{font-family:'ZillaSlab-Medium';}
	.st13{font-size:36px;}
	.st14{font-size:14px;}
	.st15{fill:none;stroke:#000000;stroke-width:0.5;stroke-miterlimit:10;}
</style>
<style>@import url('../svg_styles.css')</style>
<g id="content">
	<line class="st0" x1="26.7" y1="5147.5" x2="1880.3" y2="5147.5"/>
	<line class="st0" x1="26.7" y1="3389.6" x2="1880.3" y2="3389.6"/>
	<line class="st0" x1="26.7" y1="2310.5" x2="1880.3" y2="2310.5"/>
	<line class="st0" x1="26.7" y1="4193.9" x2="1880.3" y2="4193.9"/>
	<text transform="matrix(1 0 0 1 78.09 1187.9678)" class="st1 st2">Start: </text>
	<text transform="matrix(1 0 0 1 127.19 1187.9678)" class="st3 st2">2:40 pm</text>
	<line class="st0" x1="29.7" y1="1165.1" x2="1883.3" y2="1165.1"/>
	<text transform="matrix(1 0 0 1 76.7028 2343.1265)" class="st1 st2">1 Mile: </text>
	<text transform="matrix(1 0 0 1 136.3028 2343.1265)" class="st3 st2">2:48 pm</text>
	<text transform="matrix(1 0 0 1 76.7028 3413.5684)" class="st1 st2">2 Miles: </text>
	<text transform="matrix(1 0 0 1 145.5028 3413.5684)" class="st3 st2">3:05 pm</text>
	<text transform="matrix(1 0 0 1 76.7028 4217.4014)" class="st1 st2">3 Miles: </text>
	<text transform="matrix(1 0 0 1 145.5028 4217.4014)" class="st3 st2">4:33 pm</text>
	<text transform="matrix(1 0 0 1 76.7028 5172.333)" class="st1 st2">4 Miles: </text>
	<text transform="matrix(1 0 0 1 145.5028 5172.333)" class="st3 st2">6:10 pm</text>
	<path id="path" class="st4" d="M1112.5,1166.4c-1,0.3-1.9,0.6-2.9,0.9c-3.4,1-6.9,2.1-10.2,3.1c-3.3,1-6.4,1.9-10.2,3.1
		c-3.9,1.2-8.5,2.5-10.2,3.1c-1.7,0.5-0.4,0.1-1.3,0.4s-3.7,1.1-4.9,1.5c-1.2,0.4-0.7,0.2-2.7,0.8c-2,0.6-6.4,1.9-10.2,3.1
		c-3.8,1.1-6.9,2.1-10.2,3.1c-3.3,1-6.8,2.1-10.2,3.1s-6.8,2.1-10.2,3.1c-3.4,1-6.8,2.1-10.2,3.1c-3.4,1-6.8,2.1-10.2,3.1
		c-3.5,1-7,1.9-10.2,3.1s-6.1,2.6-7,5.3c-0.9,2.8,0.3,6.9,0.9,10.6c0.6,3.8,0.7,7.1,0.9,10.6c0.2,3.5,0.6,7.1,0.9,10.6
		c0.3,3.6,0.6,7.1,0.9,10.6s0.6,7.1,0.9,10.6s0.6,7.1,0.9,10.6s0.6,7.1,0.9,10.6s0.6,7.1,0.9,10.6c0.3,3.6,0.6,7.2,0.9,10.6
		c0.4,3.4,0.9,6.7,0.9,10.6c0.1,3.9-0.2,8.5-1.3,12.4s-3,7.3-4.9,10.4s-3.8,6.1-5.7,9c-1.9,3-3.9,6-5.8,9s-3.9,6-5.8,9s-3.9,6-5.8,9
		s-3.9,6-5.8,9s-3.9,6-5.8,9s-3.9,6-5.8,9s-3.9,6-5.8,9s-3.9,6-5.8,9s-3.9,6-5.8,9s-3.9,6-5.8,9s-3.8,6-5.8,9
		c-1.9,3-3.9,5.9-5.9,8.9s-3.9,5.9-5.9,8.9s-4,5.9-5.9,8.9c-2,3-4,5.9-5.9,8.9c-2,3-4,5.9-5.9,8.9c-2,3-4,5.9-5.9,8.9
		c-2,3-4,5.9-5.9,8.9c-2,3-3.9,6-5.8,8.9c-1.9,3-3.9,6-5.8,9s-3.9,6-5.8,9s-3.9,6-5.8,9s-3.9,6-5.8,9s-3.9,6-5.8,9s-3.9,6-5.8,9
		s-3.9,6-5.9,8.9c-2,3-3.9,5.9-5.9,8.9s-3.9,5.9-5.9,8.9s-3.9,5.9-5.9,8.9s-3.9,6-5.9,8.9c-2,3-3.9,5.9-5.9,8.9s-3.9,6-5.8,8.9
		c-1.9,3-3.9,6-5.8,9s-3.9,6-5.8,9s-3.9,6-5.8,9s-3.9,6-5.8,9s-3.9,6-5.8,9s-3.9,6-5.8,9s-3.9,6-5.8,9s-3.9,6-5.9,8.9
		c-2,3-3.9,6-5.9,8.9c-2,3-3.9,6-5.9,8.9c-2,3-3.9,6-5.9,8.9s-3.9,6-5.9,8.9c-2,3-3.9,6-5.9,8.9c-1.9,3-3.9,6-5.8,9s-3.9,6-5.8,9
		s-3.9,6-5.8,9s-3.9,6-5.8,9s-3.8,6.1-5.8,9s-4,5.7-5.8,9s-3.5,7-3.1,10.8c0.4,3.8,2.9,7.7,5.1,10.9c2.3,3.2,4.4,5.7,6.8,8.2
		s5.1,4.8,4.8,7.7c-0.3,2.9-3.5,6.3-5.8,8.9c-2.3,2.6-3.5,4.5-5.3,7s-4.1,5.6-6.3,8.6c-2.1,3-4.1,5.8-6.2,8.7
		c-2,2.9-4.2,5.8-6.2,8.7c-2,2.9-3.8,5.8-6.2,8.7c-2.4,2.9-5.2,5.7-5.3,8.1c-0.1,2.5,2.6,4.6,5.9,5.4c3.2,0.8,7,0.4,10.7,0.2
		c3.6-0.1,7.1,0.1,10.7,0.2s7.1,0.2,10.7,0.2c3.6,0.1,7.1,0.1,10.7,0.2s7.1,0.2,10.7,0.2s7.1,0.1,10.7,0.2c3.6,0.1,7.1,0.1,10.7,0.2
		c3.6,0.1,7.1,0.1,10.7,0.2s7.1,0.1,10.7,0.2c3.6,0.1,7.1,0.1,10.7,0.2s7.1,0.1,10.7,0.2c3.6,0.1,7.1,0.1,10.7,0.2
		c3.5,0.1,7.1,0.2,10.7,0.2s7.3-0.1,10.7,0.2c3.3,0.3,6.3,1,8,3.5s2.1,6.6,2.4,10.4c0.3,3.8,0.5,7.1,0.5,10.6s-0.1,7.1-0.1,10.7
		c-0.1,3.6-0.1,7.1-0.1,10.7s-0.1,7.1-0.2,10.7c-0.1,3.6-0.1,7.1-0.2,10.7c-0.1,3.6-0.1,7.1-0.2,10.7c-0.1,3.6-0.1,7.1-0.1,10.7
		s-0.1,7.1-0.1,10.7c0,3.6-0.1,7.1-0.1,10.7s0,7.1-0.1,10.7c0,3.6,0,7.1,0,10.7s0.1,7.1,0.1,10.7c0.1,3.6,0.1,7.1,0.2,10.7
		s0.2,7.1,0.4,10.7c0.1,3.6,0.3,7.1,0.5,10.7c0.2,3.6,0.4,7.1,0.7,10.7c0.2,3.6,0.5,7.1,0.8,10.6s0.6,7.1,0.9,10.6s0.6,7.1,1,10.6
		s0.7,7.1,1.1,10.6s0.7,7.1,1.1,10.6s0.7,7.1,1.1,10.6s0.8,7.1,1.2,10.6c0.4,3.5,0.8,7.1,1.2,10.6s0.8,7.1,1.2,10.6
		c0.4,3.5,0.8,7.1,1.2,10.6s0.8,7.1,1.2,10.6c0.4,3.5,0.8,7.1,1.3,10.6c0.4,3.5,0.9,7.1,1.3,10.6s0.9,7.1,1.3,10.6s0.9,7.1,1.3,10.6
		s0.9,7.1,1.3,10.6s0.9,7.1,1.4,10.6s0.9,7.1,1.4,10.6s0.9,7.1,1.4,10.6s0.9,7.1,1.4,10.6c0.4,2.9,0.8,5.7,1.2,8.6
		c3.1,32.8,6.9,65.3,13.4,97.7c0.8,4,1.7,8,2.5,12.1c1.2,5.4,2.7,10.6,3.7,16.1c1.7,9.1,2,18.3,2.4,27.5c0.6,12.1,1.2,24.1,1.5,36.2
		c0.1,2.7,0,5.4,0.4,8.1c0.3,2,1.1,3.4,2.6,4.7c1.5,1.3,3.3,2.1,5,3.1c3.4,2,6.8,3.9,10.1,6.1c1,0.7,2,1.3,3,2
		c0.6,0.4,1.2,0.8,1.8,1.2c0.6,0.4,1.3,0.7,1.9,1.3c1.2,1.3,2.4,2.6,3.6,3.9c1.8,2,3.5,4,5.1,6.1c2.1,2.6,3.9,5.4,5.6,8.3
		c3.4,5.9,3.7,14.7,4.3,21c1,9.9,2,19.8,2.6,29.7c0.4,7.1,0.7,14.2,1,21.3c0.3,9.6,0.6,19.2,0.7,28.9c0.1,9.1-0.9,18.1-0.6,27.1
		c0,1.3-0.1,2.5,0.2,3.8c0,0.1,0,0.1,0.1,0.2c0,0.1,0.1,0.2,0.2,0.3c0.2,0.2,0.4,0.2,0.6,0.2c0.8,0,1.4-0.3,2.2-0.4
		c1.3-0.3,2.7-0.5,4-0.8c1.3-0.3,2.5-0.8,3.9-0.5c2.1,0.4,5,3.4,6.4,4.5c2.1,1.7,4.1,3.4,6.3,5c1.1,0.8,2.1,1.8,3.1,2.8
		c1.2,1.1,2.2,0.9,3.6,0.4c2.1-0.8,4.2-1.2,6.4-1.7c3.6-0.9,7.2-1.8,10.9-2.7c1.8-0.5,3.6-0.9,5.4-1.4s3.5-1.3,5.6-0.8
		c1.9,0.4,4.1,1.9,3.8,4.2c-0.3,2.4-2.4,4.1-4.2,2c-1.9-2.3,0.8-2.4,2.9-2.4c1.9,0,5.4,0.2,4.6-2.6c-0.2-0.6-0.9-2.2-1.8-1.7
		c-0.9,0.6-0.9,2.5-0.7,3.3c0.5,2.4,4.1,6.1,5.5,7.8c0.7,0.8,1.4,1.6,2.3,2.3c0.8,0.6,1.6,1.1,2.4,1.7c1.7,1.3,2,2.8,2.2,4.8
		c0.2,2.3,0.2,4.5,0.1,6.8c-0.1,2.1-0.3,4.2-0.4,6.4c-0.1,0.7-0.1,1.3-0.2,2c-0.1,2.3,0.7,5.4-1.1,7.6c-1.6,1.9-4.6,2.8-6.7,3.2
		c-1.8,0.4-6.8,0.8-8.5,1.6c-2.4,1.1-1.8,4-1.6,5.9c0.3,2.7,0.8,5.5,0.8,8.2c0.1,2.8-0.1,5.5-0.2,8.2c-0.1,2.8,0.3,5.5,0.4,8.3
		c0.1,4.4-1,8.2-2.5,12.2c-1.5,3.9-3.6,7.5-5,11.5c-1.3,4-1.5,8.2-2.5,12.2c-1,4.1-1.7,8.2-1.9,12.3c-0.1,2.1-0.2,4.1,0.1,6.2
		c0.3,2.1,0.6,4.1,0.5,6.2c-0.2,5.4-0.8,7,3.2,11.3c4.2,4.5,4.8,4.1,7.9,9.6c2.1,3.7,4.1,7.1,4.2,11.6c0.1,2.2-0.3,4.1-1.6,6
		c-1.4,2-3.3,2.4-5.4,3c-2,0.6-3.3,1.5-4.2,3.5c-0.7,1.7-1.3,3.4-1.8,5.1c-0.6,1.7-0.9,3.4-0.6,5.2c0.1,1,0.5,3.1,1.9,3.1
		s2.4-1.8,2.8-2.9c0.7-2.1,0.8-3.8-0.1-5.8c-0.8-1.9-2.2-3.5-2.9-5.5c-0.6-1.7-0.7-3.6-2.6-4.8c-1.8-1.1-4-1.1-5.6-2.7
		c-1.3-1.4-1.8-4.1-0.7-5.8c1.2-1.8,4.1-1.5,5.8-1.2c1.6,0.3,4.2,1,5.1,2.8c0.9,1.7-0.3,4.5-0.3,6c-0.1,2.4,2.4,2.7,4,3.1
		c2.8,0.7,2.4,1.6,2.2,4.1c-0.3,2.6,1,4.5,1.8,6.7c0.9,2.3,0.8,4.8,1.2,7.2c0.5,2.5,1.8,4.4,3.1,6.5c2.6,4.2,4.4,8.6,5.5,13.4
		c1.3,5.9,0.3,8.8-1.2,14.3c-1.3,4.7-3.5,9-4.3,13.8c-1.2,6.7-1.4,7.6-3.7,14c-1.6,4.6-2.7,9.3-4.5,13.8c-2.4,6.2-3.4,7.2-4.3,13.8
		c-0.4,2.4-0.6,4.8-1,7.2c-0.5,2.4-1,4.7-1.2,7.2c-0.2,2.4-0.3,4.8-1.1,7.1c-0.8,2.3-1.7,4.5-2.2,7c-0.5,2.3-0.7,4.7-1,7.1
		c-0.4,2.6-1.3,5-1.9,7.5c-0.7,3,0.4,3.6,2.6,5.2c2.1,1.5,2.4,3.1,1.8,5.5c-1,3.4-3.2,5.8-4.9,8.7c-0.9,1.6-1.6,3-1.5,4.9
		c0.2,1.9,1.5,3,2.3,4.5c1.1,2-0.7,3.7-1.9,5c-1.5,1.6-3,3.3-4.7,4.7c-1.6,1.3-3.3,2.2-5.3,2.8c-1.7,0.5-3.3,0.8-4.7,2.1
		c-2.8,2.7-1.3,7.6,0.4,10.2c2,3.1,4.8,5.3,3.5,9.8c-0.6,1.8-1.5,3.5-2.3,5.2s-1.5,3.5-1.9,5.3c-0.9,3.5-1.3,7-1.5,10.6
		c-0.5,8.1-0.3,13.4-3.4,21.2c-3.1,7.8-5.5,10.9-7,19.5c-0.6,3.4-1.1,6.9-2,10.2c-1.2,4.4-3.2,8.4-4.8,12.6c-1.4,3.4-3,8.4,1.4,10.7
		c4.8,2.6,5.4-2.4,6.9-5.5c0.7-1.5,1.4-2.7,3.4-2.2c2.3,0.6,4.7,2.8,6.3,4.2c5.7,5,10.8,10.5,17,14.9c4.4,3.1,11.1,6.3,14.4,11.3
		c2.9,4.4,3.5,7.8,6.7,12.1c2.2,2.9,4.8,5.4,6.9,8.4c2.1,2.9,4.6,7.6,4.7,11.4c0,2-0.5,3.4-2.2,4.5c-1.6,1.1-3.5,1.7-5.1,3
		c-3.2,2.5-4.7,5.8-6.5,9.2c-1.8,3.7-4,7.2-6.3,10.6c-2.1,3.2-4.2,6.1-4.4,10.3c-0.1,4.2,2.2,7.2,3.6,10.7c1.6,4.2,1.3,7.3-1.2,11
		c-1.5,2.2-4.6,5.4-7.8,4.3c-2.8-1-5.2-5-6.7-7c-5.8-7.8-10.5-9.1-18.6-13c-5.5-2.7-15.5-8.6-22.8-6.8c-4,1-6.1,3.8-8.8,6.3
		c-3.1,2.9-5.8,4.3-10.2,2.8c-4.3-1.4-7.8-4.2-11.9-5.9c-4.3-1.8-4.8-0.1-5.3,3.9c-0.8,5.1-1.7,6.8-6.3,9.4c-2.5,1.4-7,2.9-7.1,6.9
		c0,2,0.5,3.8,0.9,5.6s0.7,3.5,0.1,5.4c-1.1,3.7-5.2,6-8.1,7.5c-10.6,5.6-15.9,6.9-24,16.6c-6.2,7.5-10,15.5-12.3,24.9
		c-1.8,7.6-1.6,15-0.8,22.7c0.4,3.5,0.8,7.1,1,10.6c0.2,3.7,0.3,7.3,0.5,11c0.1,2.3,0.3,4.6,0.7,6.9c2.1,14,9.4,26.3,20.4,37.7
		c8,8.3,17.9,16.1,27.6,14.5c4.7-0.8,9.3-3.8,14.4-4.3c7.1-0.7,15.2,3.4,20.8,2.1c6.1-1.4,9.3-9.2,14.8-17.5
		c5-7.6,11.9-15.6,16.5-12.8c3.2,1.9,5.2,8.9,9.2,11.1c3.6,2,8.8,0.1,13.1,0.6c4.7,0.5,8.3,3.9,12.7,6.9c11.5,8,28.7,14,28.4,24.7
		c-0.1,3.1-1.7,6.7-0.5,11c1.4,5,6.5,11,4,11.9c-0.9,0.4-3,0-4.9,0c-6.6,0-10.6,5.1-13.6,10.4c-6.6,11.7-8,24.7-15.2,34.7
		c-3.6,4.9-8.6,9.1-12.6,13.8c-11.7,13.4-15.8,30.9-22.1,48.9c-7.1,20.3-16.9,41.3-11.8,59.2c3.8,13.2,15.7,24.6,29.6,33
		c8.7,5.3,18.2,9.4,21.8,17.2c2.3,5,2.2,11.5,4.3,17c4,10.3,15.6,17.3,27.6,17.6c10.4,0.2,21.2-4.5,28.2,2.4
		c4.5,4.5,7.5,13.9,11.9,13.9c2.9,0,6.4-4,10-6.5c4-2.7,8.1-3.6,12.3-4.2c5.1-0.8,10.4-1.2,15.5-0.7c9,0.9,17.1,4.7,26.3,7.5
		c5.6,1.7,11.6,3,15.2,6.8c2.3,2.4,3.7,5.7,5.4,8.9c1.8,3.3,4,6.4,4.7,9.5c1.2,5.8-2.5,11.7-4.7,18.7c-1.2,3.8-1.9,7.8-4.1,8.7
		c-2.8,1.2-7.9-2.7-12.3-3.4c-6.5-1-11.7,4.6-15.9,10.4c-3.8,5.2-6.8,10.6-6.3,15.9c0.4,5.1,4.1,10,7.5,14.8
		c7,9.5,13.3,18,19.9,26.6c3.6,4.6,7.2,9.3,10.9,14.1c7.4,9.8,15,20.4,17.1,31.7c1.7,9.5-0.5,19.5,0.1,30.5c0.4,7.3,2,15-1.5,20
		c-2.2,3-6.2,5-10.3,6.5c-9.8,3.5-19.4,4-28.8,5.6c-13.1,2.2-25.9,6.6-38.9,11.4c-6.4,2.4-12.9,4.9-18.1,8.8
		c-6.4,4.8-11,11.9-15.8,18.8c-2.8,4.1-5.7,8.1-6.9,12.6c-2.2,8.3,1,18.4-0.6,26.2c-1.6,7.9-7.9,13.4-13.5,22.6
		c-2.6,4.2-5,9.3-7.8,9.3c-2.9,0-6.2-5.4-10-8c-2.6-1.7-5.5-2.1-8.2-2.8c-5.3-1.3-10.4-3.9-15.6-5.9c-11.7-4.4-24.5-5.8-35.1-12.4
		c-6.6-4.1-12.3-10.2-22.1-7.2c-6.3,1.9-14.3,7.7-11.7,9.4c1.4,0.9,5.6,0.7,7.4,2.2c2,1.6,1.3,5.1,0.7,8.4c-1.8,9.9-2.3,17.3-5.9,25
		c-2.6,5.4-6.7,10.9-6.9,16.6c-0.1,3.6,1.3,7.3,2.9,10.8c4.1,8.8,9.7,16.3,17.2,22.4c7.5,6,17,10.6,20.8,19.2c1.2,2.8,1.9,6,3.8,8.2
		c1.5,1.8,3.7,3,5.8,3.8c1.5,0.7,3,1.6,4.1,2.8c1.5,1.5,2.2,3.5,3.7,5.4c0.7,0.9,1.6,1.8,1.7,2.6c0.1,1.1-1.2,2.1-2.5,3.1
		c-0.5,0.4-1,0.8-1.5,0.6c-0.2-0.1-0.4-0.4-0.5-0.6c-0.3-0.6,0.3-0.9,0.8-1.3c2.1-1.3,3.9-3.2,5.6-2.8c0.5,0.1,1,0.5,1.5,0.9
		c1.1,1,2.1,2.5,3.2,4c0.6,0.8,1.1,1.6,1.7,2.3c0.9,1.2,1.8,2.5,2.7,3.7c0.3,0.5,0.7,0.9,1,1.4c7.5,11.5,22.2,23.6,31.4,33.1
		c5.4,5.5,10.5,11.2,15.9,16.7c5.4,5.4,10.9,10.7,16.4,15.9c11,10.6,21.7,21.4,32.8,32c5.5,5.3,11.2,10.3,16.9,15.4
		c6.7,5.9,13.4,12,20,18c29.8,27.3,59.8,54.3,88.2,83.1c8.5,8.6,16.7,17.4,25.1,26c6.9,7.2,13.9,14.3,20.8,21.6
		c6.5,6.9,17.4,18.4,20.8,28c2.8,7.7,0.1,13.4-2.9,20c-3,6.7-5.1,13.6-7.2,20.5c-2.2,7-4.6,14-7.2,20.9c-5,13.7-9.8,27.5-14.8,41.3
		c-4.9,13.7-9.6,27.6-14.5,41.3c-1.7,4.7-3.4,9.4-5,14.1c-1.8,5.1-3.3,10.3-5.6,15.2c-2.8,5.9-6.4,10.5-11.6,14.4
		c-6.8,5.1-14.4,8.2-22.2,11.1c-18.3,6.9-37.1,11.8-55.6,17.7c-17.3,5.4-34.3,11.3-51,18.4c-8,3.4-15.8,7.3-23.7,11
		c-6.9,3.3-13.9,6.4-21,9.5c-14.1,6.2-28.2,12.2-42.2,18.3c-28.2,12.2-56.3,24.3-83.7,38.2c-27.9,14.2-54.7,30-81.6,45.9
		c-26.9,15.9-53.6,32-80.2,48.3c-29.6,18.2-59.3,36.3-87.9,56.1c-14.3,9.9-28.3,20.1-41.9,31c-3.4,2.7-6.7,5.5-10.1,8.3
		c-2,1.7-3.7,3.6-5.4,5.6c-2.2,2.6-4.2,5.3-6,8.1c-3.3,5.2-6.1,10.7-8.5,16.4c-2.7,6.5-5.3,13.1-7,20c-1.1,4.5-1.8,9.1-2.2,13.7
		c-0.5,5.4-0.5,10.7,0.4,16.1c1.1,7,3.4,13.5,5.4,20.2c2.8,9.5,5.6,18.9,7.9,28.6c2.4,10.4,4.8,20.8,7.1,31.2
		c0.7,3.3,2.8,10.4,6.6,12.3c3.9,1.9,8.5-0.7,11.5-2.4c0.3-0.2,0.5-0.3,0.8-0.5c0.2-0.2,0.4-0.3,0.6-0.6c1.9-2.1,0.9-4.1,0.6-6.3
		c-1.5-9.4-3.3-13.9,0.5-19.1c3.8-5.1,13.2-10.9,20.2-14c6.9-3,11.4-3.3,16.9,0.1s12,10.6,18.2,16.8c6.2,6.2,12.1,11.4,18.1,16.9
		s12.1,11.2,18.1,16.9c6.1,5.7,12.1,11.2,18.2,16.8s12.2,11.2,18.2,16.8c6,5.6,12.2,11.1,18.3,16.7s12.2,11.1,18.2,16.8
		c6,5.7,11.9,11.5,17.7,17.3s11.7,11.7,17.5,17.5s11.7,11.6,17.6,17.4c6,5.8,12.1,11.7,19,15.7c2.1,1.2,4.2,2.2,6.4,3.1"/>
	<path id="bkg_path" class="st4" d="M1112.5,1166.4c-1,0.3-1.9,0.6-2.9,0.9c-3.4,1-6.9,2.1-10.2,3.1c-3.3,1-6.4,1.9-10.2,3.1
		c-3.9,1.2-8.5,2.5-10.2,3.1c-1.7,0.5-0.4,0.1-1.3,0.4s-3.7,1.1-4.9,1.5c-1.2,0.4-0.7,0.2-2.7,0.8c-2,0.6-6.4,1.9-10.2,3.1
		c-3.8,1.1-6.9,2.1-10.2,3.1c-3.3,1-6.8,2.1-10.2,3.1s-6.8,2.1-10.2,3.1c-3.4,1-6.8,2.1-10.2,3.1c-3.4,1-6.8,2.1-10.2,3.1
		c-3.5,1-7,1.9-10.2,3.1s-6.1,2.6-7,5.3c-0.9,2.8,0.3,6.9,0.9,10.6c0.6,3.8,0.7,7.1,0.9,10.6c0.2,3.5,0.6,7.1,0.9,10.6
		c0.3,3.6,0.6,7.1,0.9,10.6s0.6,7.1,0.9,10.6s0.6,7.1,0.9,10.6s0.6,7.1,0.9,10.6s0.6,7.1,0.9,10.6c0.3,3.6,0.6,7.2,0.9,10.6
		c0.4,3.4,0.9,6.7,0.9,10.6c0.1,3.9-0.2,8.5-1.3,12.4s-3,7.3-4.9,10.4s-3.8,6.1-5.7,9c-1.9,3-3.9,6-5.8,9s-3.9,6-5.8,9s-3.9,6-5.8,9
		s-3.9,6-5.8,9s-3.9,6-5.8,9s-3.9,6-5.8,9s-3.9,6-5.8,9s-3.9,6-5.8,9s-3.9,6-5.8,9s-3.9,6-5.8,9s-3.8,6-5.8,9
		c-1.9,3-3.9,5.9-5.9,8.9s-3.9,5.9-5.9,8.9s-4,5.9-5.9,8.9c-2,3-4,5.9-5.9,8.9c-2,3-4,5.9-5.9,8.9c-2,3-4,5.9-5.9,8.9
		c-2,3-4,5.9-5.9,8.9c-2,3-3.9,6-5.8,8.9c-1.9,3-3.9,6-5.8,9s-3.9,6-5.8,9s-3.9,6-5.8,9s-3.9,6-5.8,9s-3.9,6-5.8,9s-3.9,6-5.8,9
		s-3.9,6-5.9,8.9c-2,3-3.9,5.9-5.9,8.9s-3.9,5.9-5.9,8.9s-3.9,5.9-5.9,8.9s-3.9,6-5.9,8.9c-2,3-3.9,5.9-5.9,8.9s-3.9,6-5.8,8.9
		c-1.9,3-3.9,6-5.8,9s-3.9,6-5.8,9s-3.9,6-5.8,9s-3.9,6-5.8,9s-3.9,6-5.8,9s-3.9,6-5.8,9s-3.9,6-5.8,9s-3.9,6-5.9,8.9
		c-2,3-3.9,6-5.9,8.9c-2,3-3.9,6-5.9,8.9c-2,3-3.9,6-5.9,8.9s-3.9,6-5.9,8.9c-2,3-3.9,6-5.9,8.9c-1.9,3-3.9,6-5.8,9s-3.9,6-5.8,9
		s-3.9,6-5.8,9s-3.9,6-5.8,9s-3.8,6.1-5.8,9s-4,5.7-5.8,9s-3.5,7-3.1,10.8c0.4,3.8,2.9,7.7,5.1,10.9c2.3,3.2,4.4,5.7,6.8,8.2
		s5.1,4.8,4.8,7.7c-0.3,2.9-3.5,6.3-5.8,8.9c-2.3,2.6-3.5,4.5-5.3,7s-4.1,5.6-6.3,8.6c-2.1,3-4.1,5.8-6.2,8.7
		c-2,2.9-4.2,5.8-6.2,8.7c-2,2.9-3.8,5.8-6.2,8.7c-2.4,2.9-5.2,5.7-5.3,8.1c-0.1,2.5,2.6,4.6,5.9,5.4c3.2,0.8,7,0.4,10.7,0.2
		c3.6-0.1,7.1,0.1,10.7,0.2s7.1,0.2,10.7,0.2c3.6,0.1,7.1,0.1,10.7,0.2s7.1,0.2,10.7,0.2s7.1,0.1,10.7,0.2c3.6,0.1,7.1,0.1,10.7,0.2
		c3.6,0.1,7.1,0.1,10.7,0.2s7.1,0.1,10.7,0.2c3.6,0.1,7.1,0.1,10.7,0.2s7.1,0.1,10.7,0.2c3.6,0.1,7.1,0.1,10.7,0.2
		c3.5,0.1,7.1,0.2,10.7,0.2s7.3-0.1,10.7,0.2c3.3,0.3,6.3,1,8,3.5s2.1,6.6,2.4,10.4c0.3,3.8,0.5,7.1,0.5,10.6s-0.1,7.1-0.1,10.7
		c-0.1,3.6-0.1,7.1-0.1,10.7s-0.1,7.1-0.2,10.7c-0.1,3.6-0.1,7.1-0.2,10.7c-0.1,3.6-0.1,7.1-0.2,10.7c-0.1,3.6-0.1,7.1-0.1,10.7
		s-0.1,7.1-0.1,10.7c0,3.6-0.1,7.1-0.1,10.7s0,7.1-0.1,10.7c0,3.6,0,7.1,0,10.7s0.1,7.1,0.1,10.7c0.1,3.6,0.1,7.1,0.2,10.7
		s0.2,7.1,0.4,10.7c0.1,3.6,0.3,7.1,0.5,10.7c0.2,3.6,0.4,7.1,0.7,10.7c0.2,3.6,0.5,7.1,0.8,10.6s0.6,7.1,0.9,10.6s0.6,7.1,1,10.6
		s0.7,7.1,1.1,10.6s0.7,7.1,1.1,10.6s0.7,7.1,1.1,10.6s0.8,7.1,1.2,10.6c0.4,3.5,0.8,7.1,1.2,10.6s0.8,7.1,1.2,10.6
		c0.4,3.5,0.8,7.1,1.2,10.6s0.8,7.1,1.2,10.6c0.4,3.5,0.8,7.1,1.3,10.6c0.4,3.5,0.9,7.1,1.3,10.6s0.9,7.1,1.3,10.6s0.9,7.1,1.3,10.6
		s0.9,7.1,1.3,10.6s0.9,7.1,1.4,10.6s0.9,7.1,1.4,10.6s0.9,7.1,1.4,10.6s0.9,7.1,1.4,10.6c0.4,2.9,0.8,5.7,1.2,8.6
		c3.1,32.8,6.9,65.3,13.4,97.7c0.8,4,1.7,8,2.5,12.1c1.2,5.4,2.7,10.6,3.7,16.1c1.7,9.1,2,18.3,2.4,27.5c0.6,12.1,1.2,24.1,1.5,36.2
		c0.1,2.7,0,5.4,0.4,8.1c0.3,2,1.1,3.4,2.6,4.7c1.5,1.3,3.3,2.1,5,3.1c3.4,2,6.8,3.9,10.1,6.1c1,0.7,2,1.3,3,2
		c0.6,0.4,1.2,0.8,1.8,1.2c0.6,0.4,1.3,0.7,1.9,1.3c1.2,1.3,2.4,2.6,3.6,3.9c1.8,2,3.5,4,5.1,6.1c2.1,2.6,3.9,5.4,5.6,8.3
		c3.4,5.9,3.7,14.7,4.3,21c1,9.9,2,19.8,2.6,29.7c0.4,7.1,0.7,14.2,1,21.3c0.3,9.6,0.6,19.2,0.7,28.9c0.1,9.1-0.9,18.1-0.6,27.1
		c0,1.3-0.1,2.5,0.2,3.8c0,0.1,0,0.1,0.1,0.2c0,0.1,0.1,0.2,0.2,0.3c0.2,0.2,0.4,0.2,0.6,0.2c0.8,0,1.4-0.3,2.2-0.4
		c1.3-0.3,2.7-0.5,4-0.8c1.3-0.3,2.5-0.8,3.9-0.5c2.1,0.4,5,3.4,6.4,4.5c2.1,1.7,4.1,3.4,6.3,5c1.1,0.8,2.1,1.8,3.1,2.8
		c1.2,1.1,2.2,0.9,3.6,0.4c2.1-0.8,4.2-1.2,6.4-1.7c3.6-0.9,7.2-1.8,10.9-2.7c1.8-0.5,3.6-0.9,5.4-1.4s3.5-1.3,5.6-0.8
		c1.9,0.4,4.1,1.9,3.8,4.2c-0.3,2.4-2.4,4.1-4.2,2c-1.9-2.3,0.8-2.4,2.9-2.4c1.9,0,5.4,0.2,4.6-2.6c-0.2-0.6-0.9-2.2-1.8-1.7
		c-0.9,0.6-0.9,2.5-0.7,3.3c0.5,2.4,4.1,6.1,5.5,7.8c0.7,0.8,1.4,1.6,2.3,2.3c0.8,0.6,1.6,1.1,2.4,1.7c1.7,1.3,2,2.8,2.2,4.8
		c0.2,2.3,0.2,4.5,0.1,6.8c-0.1,2.1-0.3,4.2-0.4,6.4c-0.1,0.7-0.1,1.3-0.2,2c-0.1,2.3,0.7,5.4-1.1,7.6c-1.6,1.9-4.6,2.8-6.7,3.2
		c-1.8,0.4-6.8,0.8-8.5,1.6c-2.4,1.1-1.8,4-1.6,5.9c0.3,2.7,0.8,5.5,0.8,8.2c0.1,2.8-0.1,5.5-0.2,8.2c-0.1,2.8,0.3,5.5,0.4,8.3
		c0.1,4.4-1,8.2-2.5,12.2c-1.5,3.9-3.6,7.5-5,11.5c-1.3,4-1.5,8.2-2.5,12.2c-1,4.1-1.7,8.2-1.9,12.3c-0.1,2.1-0.2,4.1,0.1,6.2
		c0.3,2.1,0.6,4.1,0.5,6.2c-0.2,5.4-0.8,7,3.2,11.3c4.2,4.5,4.8,4.1,7.9,9.6c2.1,3.7,4.1,7.1,4.2,11.6c0.1,2.2-0.3,4.1-1.6,6
		c-1.4,2-3.3,2.4-5.4,3c-2,0.6-3.3,1.5-4.2,3.5c-0.7,1.7-1.3,3.4-1.8,5.1c-0.6,1.7-0.9,3.4-0.6,5.2c0.1,1,0.5,3.1,1.9,3.1
		s2.4-1.8,2.8-2.9c0.7-2.1,0.8-3.8-0.1-5.8c-0.8-1.9-2.2-3.5-2.9-5.5c-0.6-1.7-0.7-3.6-2.6-4.8c-1.8-1.1-4-1.1-5.6-2.7
		c-1.3-1.4-1.8-4.1-0.7-5.8c1.2-1.8,4.1-1.5,5.8-1.2c1.6,0.3,4.2,1,5.1,2.8c0.9,1.7-0.3,4.5-0.3,6c-0.1,2.4,2.4,2.7,4,3.1
		c2.8,0.7,2.4,1.6,2.2,4.1c-0.3,2.6,1,4.5,1.8,6.7c0.9,2.3,0.8,4.8,1.2,7.2c0.5,2.5,1.8,4.4,3.1,6.5c2.6,4.2,4.4,8.6,5.5,13.4
		c1.3,5.9,0.3,8.8-1.2,14.3c-1.3,4.7-3.5,9-4.3,13.8c-1.2,6.7-1.4,7.6-3.7,14c-1.6,4.6-2.7,9.3-4.5,13.8c-2.4,6.2-3.4,7.2-4.3,13.8
		c-0.4,2.4-0.6,4.8-1,7.2c-0.5,2.4-1,4.7-1.2,7.2c-0.2,2.4-0.3,4.8-1.1,7.1c-0.8,2.3-1.7,4.5-2.2,7c-0.5,2.3-0.7,4.7-1,7.1
		c-0.4,2.6-1.3,5-1.9,7.5c-0.7,3,0.4,3.6,2.6,5.2c2.1,1.5,2.4,3.1,1.8,5.5c-1,3.4-3.2,5.8-4.9,8.7c-0.9,1.6-1.6,3-1.5,4.9
		c0.2,1.9,1.5,3,2.3,4.5c1.1,2-0.7,3.7-1.9,5c-1.5,1.6-3,3.3-4.7,4.7c-1.6,1.3-3.3,2.2-5.3,2.8c-1.7,0.5-3.3,0.8-4.7,2.1
		c-2.8,2.7-1.3,7.6,0.4,10.2c2,3.1,4.8,5.3,3.5,9.8c-0.6,1.8-1.5,3.5-2.3,5.2s-1.5,3.5-1.9,5.3c-0.9,3.5-1.3,7-1.5,10.6
		c-0.5,8.1-0.3,13.4-3.4,21.2c-3.1,7.8-5.5,10.9-7,19.5c-0.6,3.4-1.1,6.9-2,10.2c-1.2,4.4-3.2,8.4-4.8,12.6c-1.4,3.4-3,8.4,1.4,10.7
		c4.8,2.6,5.4-2.4,6.9-5.5c0.7-1.5,1.4-2.7,3.4-2.2c2.3,0.6,4.7,2.8,6.3,4.2c5.7,5,10.8,10.5,17,14.9c4.4,3.1,11.1,6.3,14.4,11.3
		c2.9,4.4,3.5,7.8,6.7,12.1c2.2,2.9,4.8,5.4,6.9,8.4c2.1,2.9,4.6,7.6,4.7,11.4c0,2-0.5,3.4-2.2,4.5c-1.6,1.1-3.5,1.7-5.1,3
		c-3.2,2.5-4.7,5.8-6.5,9.2c-1.8,3.7-4,7.2-6.3,10.6c-2.1,3.2-4.2,6.1-4.4,10.3c-0.1,4.2,2.2,7.2,3.6,10.7c1.6,4.2,1.3,7.3-1.2,11
		c-1.5,2.2-4.6,5.4-7.8,4.3c-2.8-1-5.2-5-6.7-7c-5.8-7.8-10.5-9.1-18.6-13c-5.5-2.7-15.5-8.6-22.8-6.8c-4,1-6.1,3.8-8.8,6.3
		c-3.1,2.9-5.8,4.3-10.2,2.8c-4.3-1.4-7.8-4.2-11.9-5.9c-4.3-1.8-4.8-0.1-5.3,3.9c-0.8,5.1-1.7,6.8-6.3,9.4c-2.5,1.4-7,2.9-7.1,6.9
		c0,2,0.5,3.8,0.9,5.6s0.7,3.5,0.1,5.4c-1.1,3.7-5.2,6-8.1,7.5c-10.6,5.6-15.9,6.9-24,16.6c-6.2,7.5-10,15.5-12.3,24.9
		c-1.8,7.6-1.6,15-0.8,22.7c0.4,3.5,0.8,7.1,1,10.6c0.2,3.7,0.3,7.3,0.5,11c0.1,2.3,0.3,4.6,0.7,6.9c2.1,14,9.4,26.3,20.4,37.7
		c8,8.3,17.9,16.1,27.6,14.5c4.7-0.8,9.3-3.8,14.4-4.3c7.1-0.7,15.2,3.4,20.8,2.1c6.1-1.4,9.3-9.2,14.8-17.5
		c5-7.6,11.9-15.6,16.5-12.8c3.2,1.9,5.2,8.9,9.2,11.1c3.6,2,8.8,0.1,13.1,0.6c4.7,0.5,8.3,3.9,12.7,6.9c11.5,8,28.7,14,28.4,24.7
		c-0.1,3.1-1.7,6.7-0.5,11c1.4,5,6.5,11,4,11.9c-0.9,0.4-3,0-4.9,0c-6.6,0-10.6,5.1-13.6,10.4c-6.6,11.7-8,24.7-15.2,34.7
		c-3.6,4.9-8.6,9.1-12.6,13.8c-11.7,13.4-15.8,30.9-22.1,48.9c-7.1,20.3-16.9,41.3-11.8,59.2c3.8,13.2,15.7,24.6,29.6,33
		c8.7,5.3,18.2,9.4,21.8,17.2c2.3,5,2.2,11.5,4.3,17c4,10.3,15.6,17.3,27.6,17.6c10.4,0.2,21.2-4.5,28.2,2.4
		c4.5,4.5,7.5,13.9,11.9,13.9c2.9,0,6.4-4,10-6.5c4-2.7,8.1-3.6,12.3-4.2c5.1-0.8,10.4-1.2,15.5-0.7c9,0.9,17.1,4.7,26.3,7.5
		c5.6,1.7,11.6,3,15.2,6.8c2.3,2.4,3.7,5.7,5.4,8.9c1.8,3.3,4,6.4,4.7,9.5c1.2,5.8-2.5,11.7-4.7,18.7c-1.2,3.8-1.9,7.8-4.1,8.7
		c-2.8,1.2-7.9-2.7-12.3-3.4c-6.5-1-11.7,4.6-15.9,10.4c-3.8,5.2-6.8,10.6-6.3,15.9c0.4,5.1,4.1,10,7.5,14.8
		c7,9.5,13.3,18,19.9,26.6c3.6,4.6,7.2,9.3,10.9,14.1c7.4,9.8,15,20.4,17.1,31.7c1.7,9.5-0.5,19.5,0.1,30.5c0.4,7.3,2,15-1.5,20
		c-2.2,3-6.2,5-10.3,6.5c-9.8,3.5-19.4,4-28.8,5.6c-13.1,2.2-25.9,6.6-38.9,11.4c-6.4,2.4-12.9,4.9-18.1,8.8
		c-6.4,4.8-11,11.9-15.8,18.8c-2.8,4.1-5.7,8.1-6.9,12.6c-2.2,8.3,1,18.4-0.6,26.2c-1.6,7.9-7.9,13.4-13.5,22.6
		c-2.6,4.2-5,9.3-7.8,9.3c-2.9,0-6.2-5.4-10-8c-2.6-1.7-5.5-2.1-8.2-2.8c-5.3-1.3-10.4-3.9-15.6-5.9c-11.7-4.4-24.5-5.8-35.1-12.4
		c-6.6-4.1-12.3-10.2-22.1-7.2c-6.3,1.9-14.3,7.7-11.7,9.4c1.4,0.9,5.6,0.7,7.4,2.2c2,1.6,1.3,5.1,0.7,8.4c-1.8,9.9-2.3,17.3-5.9,25
		c-2.6,5.4-6.7,10.9-6.9,16.6c-0.1,3.6,1.3,7.3,2.9,10.8c4.1,8.8,9.7,16.3,17.2,22.4c7.5,6,17,10.6,20.8,19.2c1.2,2.8,1.9,6,3.8,8.2
		c1.5,1.8,3.7,3,5.8,3.8c1.5,0.7,3,1.6,4.1,2.8c1.5,1.5,2.2,3.5,3.7,5.4c0.7,0.9,1.6,1.8,1.7,2.6c0.1,1.1-1.2,2.1-2.5,3.1
		c-0.5,0.4-1,0.8-1.5,0.6c-0.2-0.1-0.4-0.4-0.5-0.6c-0.3-0.6,0.3-0.9,0.8-1.3c2.1-1.3,3.9-3.2,5.6-2.8c0.5,0.1,1,0.5,1.5,0.9
		c1.1,1,2.1,2.5,3.2,4c0.6,0.8,1.1,1.6,1.7,2.3c0.9,1.2,1.8,2.5,2.7,3.7c0.3,0.5,0.7,0.9,1,1.4c7.5,11.5,22.2,23.6,31.4,33.1
		c5.4,5.5,10.5,11.2,15.9,16.7c5.4,5.4,10.9,10.7,16.4,15.9c11,10.6,21.7,21.4,32.8,32c5.5,5.3,11.2,10.3,16.9,15.4
		c6.7,5.9,13.4,12,20,18c29.8,27.3,59.8,54.3,88.2,83.1c8.5,8.6,16.7,17.4,25.1,26c6.9,7.2,13.9,14.3,20.8,21.6
		c6.5,6.9,17.4,18.4,20.8,28c2.8,7.7,0.1,13.4-2.9,20c-3,6.7-5.1,13.6-7.2,20.5c-2.2,7-4.6,14-7.2,20.9c-5,13.7-9.8,27.5-14.8,41.3
		c-4.9,13.7-9.6,27.6-14.5,41.3c-1.7,4.7-3.4,9.4-5,14.1c-1.8,5.1-3.3,10.3-5.6,15.2c-2.8,5.9-6.4,10.5-11.6,14.4
		c-6.8,5.1-14.4,8.2-22.2,11.1c-18.3,6.9-37.1,11.8-55.6,17.7c-17.3,5.4-34.3,11.3-51,18.4c-8,3.4-15.8,7.3-23.7,11
		c-6.9,3.3-13.9,6.4-21,9.5c-14.1,6.2-28.2,12.2-42.2,18.3c-28.2,12.2-56.3,24.3-83.7,38.2c-27.9,14.2-54.7,30-81.6,45.9
		c-26.9,15.9-53.6,32-80.2,48.3c-29.6,18.2-59.3,36.3-87.9,56.1c-14.3,9.9-28.3,20.1-41.9,31c-3.4,2.7-6.7,5.5-10.1,8.3
		c-2,1.7-3.7,3.6-5.4,5.6c-2.2,2.6-4.2,5.3-6,8.1c-3.3,5.2-6.1,10.7-8.5,16.4c-2.7,6.5-5.3,13.1-7,20c-1.1,4.5-1.8,9.1-2.2,13.7
		c-0.5,5.4-0.5,10.7,0.4,16.1c1.1,7,3.4,13.5,5.4,20.2c2.8,9.5,5.6,18.9,7.9,28.6c2.4,10.4,4.8,20.8,7.1,31.2
		c0.7,3.3,2.8,10.4,6.6,12.3c3.9,1.9,8.5-0.7,11.5-2.4c0.3-0.2,0.5-0.3,0.8-0.5c0.2-0.2,0.4-0.3,0.6-0.6c1.9-2.1,0.9-4.1,0.6-6.3
		c-1.5-9.4-3.3-13.9,0.5-19.1c3.8-5.1,13.2-10.9,20.2-14c6.9-3,11.4-3.3,16.9,0.1s12,10.6,18.2,16.8c6.2,6.2,12.1,11.4,18.1,16.9
		s12.1,11.2,18.1,16.9c6.1,5.7,12.1,11.2,18.2,16.8s12.2,11.2,18.2,16.8c6,5.6,12.2,11.1,18.3,16.7s12.2,11.1,18.2,16.8
		c6,5.7,11.9,11.5,17.7,17.3s11.7,11.7,17.5,17.5s11.7,11.6,17.6,17.4c6,5.8,12.1,11.7,19,15.7c2.1,1.2,4.2,2.2,6.4,3.1"/>
	<g>
		<rect x="1119.5" y="1188.8" class="st5" width="269.3" height="126.9"/>
		<text transform="matrix(1 0 0 1 1119.5072 1202.2817)" class="st6 st2">Venzen stops his car at a deli to </text>
		<text transform="matrix(1 0 0 1 1119.5072 1223.8818)" class="st6 st2">get some cardboard boxes from </text>
		<text transform="matrix(1 0 0 1 1119.5072 1245.4814)" class="st6 st2">a man who works there.</text>
	</g>
	<g>
		<rect x="774.2" y="1809" class="st5" width="266.3" height="69.5"/>
		<text transform="matrix(1 0 0 1 774.1838 1822.5293)" class="st6 st2">Venzen stops at another deli to </text>
		<text transform="matrix(1 0 0 1 774.1838 1844.1289)" class="st6 st2">get cardboard boxes that the </text>
		<text transform="matrix(1 0 0 1 774.1838 1865.7295)" class="st6 st2">owner keeps aside for him.</text>
	</g>
	<g>
		<rect x="1046.7" y="3003.3" class="st5" width="464.8" height="43.5"/>
		<text transform="matrix(1 0 0 1 1046.6704 3016.8369)" class="st6 st2">A latino guy fixing his car. He’s also a local at the park. “I </text>
		<text transform="matrix(1 0 0 1 1046.6704 3038.437)" class="st6 st2">told you!” Vincent scolds me because I shook his hands.</text>
	</g>
	<g>
		<rect x="1072.8" y="3207.1" class="st5" width="375.7" height="79.4"/>
		<text transform="matrix(1 0 0 1 1072.839 3220.6497)" class="st6 st2">An Ecuadorian sells grilled meat and french </text>
		<text transform="matrix(1 0 0 1 1072.839 3242.2495)" class="st6 st2">fries under a tent. He leaves his bag with them, </text>
		<text transform="matrix(1 0 0 1 1072.839 3263.8496)" class="st6 st2">to collect empty bottles from their clients.</text>
	</g>
	<g>
		<rect x="1137.9" y="4004.6" class="st5" width="344.6" height="51.7"/>
		<text transform="matrix(1 0 0 1 1137.9274 4018.1047)" class="st6 st2">Two cops patrol the park. Venzen greets </text>
		<text transform="matrix(1 0 0 1 1137.9274 4039.7048)" class="st6 st2">them and thanks them for their work.</text>
	</g>
	<g>
		<rect x="564" y="4259.1" class="st5" width="387.9" height="68.8"/>
		<text transform="matrix(1 0 0 1 584.5759 4272.6406)" class="st6 st2">While walking back to his car, he bumps into a </text>
		<text transform="matrix(1 0 0 1 588.276 4294.2412)" class="st6 st2">park ranger. They chat like they’re colleagues.</text>
	</g>
	<g>
		<rect x="559.1" y="3300.7" class="st5" width="253.6" height="116.1"/>
		<text transform="matrix(1 0 0 1 563.9644 3314.2039)" class="st6 st2">A group of young men sits on a </text>
		<text transform="matrix(1 0 0 1 607.3645 3335.8037)" class="st6 st2">bench watching a softball </text>
		<text transform="matrix(1 0 0 1 606.7644 3357.4038)" class="st6 st2">game and gives him three </text>
		<text transform="matrix(1 0 0 1 591.3645 3379.0039)" class="st6 st2">empty cans. Venzen says in </text>
		<text transform="matrix(1 0 0 1 577.8645 3400.6038)" class="st6 st2">this park they play for money.</text>
	</g>
	<g>
		<rect x="556.1" y="3514.5" class="st5" width="348.7" height="46.2"/>
		<text transform="matrix(1 0 0 1 612.9656 3528.0237)" class="st6 st2">Venzen chats with a young man who </text>
		<text transform="matrix(1 0 0 1 562.0654 3549.6238)" class="st6 st2">thanks him for help keeping the park clean.</text>
	</g>
	<g>
		<rect x="1027.6" y="3290.5" class="st5" width="398.6" height="64.6"/>
		<text transform="matrix(1 0 0 1 1027.6189 3304.0254)" class="st7 st2">“Completo?</text>
		<text transform="matrix(1 0 0 1 1120.3188 3304.0254)" class="st6 st2">” A group of latino guy rush to finish </text>
		<text transform="matrix(1 0 0 1 1027.6189 3325.6255)" class="st6 st2">their beers and give him four empty bottles. </text>
		<text transform="matrix(1 0 0 1 1027.6189 3347.2253)" class="st6 st2">Venzen tries his best to speak Spanish.</text>
	</g>
	<g>
		<rect x="1102.2" y="3498.6" class="st5" width="381.2" height="64.6"/>
		<text transform="matrix(1 0 0 1 1102.2035 3512.1182)" class="st6 st2">A group of latino men eating grilled meat and </text>
		<text transform="matrix(1 0 0 1 1102.2035 3533.7183)" class="st6 st2">drinking beer next to a temporary tent and a </text>
		<text transform="matrix(1 0 0 1 1102.2035 3555.3181)" class="st6 st2">volleyball field give him two empty bottles.</text>
	</g>

		<image style="overflow:visible;enable-background:new    ;" width="123" height="150" xlink:href="../../img/venzen/Hand.png"  transform="matrix(0.3608 0 0 0.3608 1060.356 1184.3495)">
	</image>

		<image style="overflow:visible;enable-background:new    ;" width="123" height="150" xlink:href="../../img/venzen/Hand.png"  transform="matrix(0.3608 0 0 0.3608 714.0325 1804.5969)">
	</image>

		<image style="overflow:visible;enable-background:new    ;" width="123" height="150" xlink:href="../../img/venzen/Hand.png"  transform="matrix(0.3608 0 0 0.3608 986.5189 2993.9045)">
	</image>

		<image style="overflow:visible;enable-background:new    ;" width="123" height="150" xlink:href="../../img/venzen/Hand.png"  transform="matrix(0.3608 0 0 0.3608 1012.6876 3207.1123)">
	</image>

		<image style="overflow:visible;enable-background:new    ;" width="123" height="150" xlink:href="../../img/venzen/Hand.png"  transform="matrix(0.3608 0 0 0.3608 1077.776 3989.5674)">
	</image>

		<image style="overflow:visible;enable-background:new    ;" width="123" height="150" xlink:href="../../img/venzen/Hand.png"  transform="matrix(0.3608 0 0 0.3608 965.7888 4245.103)">
	</image>

		<image style="overflow:visible;enable-background:new    ;" width="123" height="150" xlink:href="../../img/venzen/Hand.png"  transform="matrix(0.3608 0 0 0.3608 822.4436 3249.6929)">
	</image>

		<image style="overflow:visible;enable-background:new    ;" width="123" height="150" xlink:href="../../img/venzen/Hand.png"  transform="matrix(0.3608 0 0 0.3608 885.6187 3288.3184)">
	</image>

		<image style="overflow:visible;enable-background:new    ;" width="150" height="131" xlink:href="../../img/venzen/Cart.png"  transform="matrix(0.5175 0 0 0.5175 1071.7175 1101.014)">
	</image>

		<image style="overflow:visible;enable-background:new    ;" width="150" height="106" xlink:href="../../img/venzen/Comment.png"  transform="matrix(0.409 0 0 0.409 1005.8063 2833.2891)">
	</image>

		<image style="overflow:visible;enable-background:new    ;" width="150" height="106" xlink:href="../../img/venzen/Comment.png"  transform="matrix(0.409 0 0 0.409 860.7164 2286.9976)">
	</image>

		<image style="overflow:visible;enable-background:new    ;" width="150" height="106" xlink:href="../../img/venzen/Comment.png"  transform="matrix(0.409 0 0 0.409 1001.1344 2658.6853)">
	</image>

		<image style="overflow:visible;enable-background:new    ;" width="150" height="106" xlink:href="../../img/venzen/Comment.png"  transform="matrix(0.409 0 0 0.409 847.8379 3366.9912)">
	</image>

		<image style="overflow:visible;enable-background:new    ;" width="150" height="106" xlink:href="../../img/venzen/Comment.png"  transform="matrix(0.409 0 0 0.409 1004.2838 3673.8645)">
	</image>

		<image style="overflow:visible;enable-background:new    ;" width="150" height="106" xlink:href="../../img/venzen/Comment.png"  transform="matrix(0.409 0 0 0.409 974.4341 4148.3672)">
	</image>

		<image style="overflow:visible;enable-background:new    ;" width="150" height="106" xlink:href="../../img/venzen/Comment.png"  transform="matrix(0.409 0 0 0.409 874.9221 3055.8538)">
	</image>

		<image style="overflow:visible;enable-background:new    ;" width="150" height="106" xlink:href="../../img/venzen/Comment.png"  transform="matrix(0.409 0 0 0.409 874.9221 3138.0073)">
	</image>

		<image style="overflow:visible;enable-background:new    ;" width="59" height="150" xlink:href="../../img/venzen/Plastic.png"  transform="matrix(0.4006 0 0 0.4006 911.3164 2827.4802)">
	</image>

		<image style="overflow:visible;enable-background:new    ;" width="59" height="150" xlink:href="../../img/venzen/Plastic.png"  transform="matrix(0.4006 0 0 0.4006 936.5415 2827.4802)">
	</image>

		<image style="overflow:visible;enable-background:new    ;" width="59" height="150" xlink:href="../../img/venzen/Plastic.png"  transform="matrix(0.4006 0 0 0.4006 977.8732 3051.4702)">
	</image>

		<image style="overflow:visible;enable-background:new    ;" width="59" height="150" xlink:href="../../img/venzen/Plastic.png"  transform="matrix(0.4006 0 0 0.4006 1003.0983 3051.4702)">
	</image>

		<image style="overflow:visible;enable-background:new    ;" width="59" height="150" xlink:href="../../img/venzen/Plastic.png"  transform="matrix(0.4006 0 0 0.4006 1135.8883 3125.9497)">
	</image>

		<image style="overflow:visible;enable-background:new    ;" width="59" height="150" xlink:href="../../img/venzen/Plastic.png"  transform="matrix(0.4006 0 0 0.4006 1161.1133 3125.9497)">
	</image>

		<image style="overflow:visible;enable-background:new    ;" width="59" height="150" xlink:href="../../img/venzen/Plastic.png"  transform="matrix(0.4006 0 0 0.4006 1161.7521 3422.8809)">
	</image>

		<image style="overflow:visible;enable-background:new    ;" width="59" height="150" xlink:href="../../img/venzen/Plastic.png"  transform="matrix(0.4006 0 0 0.4006 1185.3212 3422.8809)">
	</image>

		<image style="overflow:visible;enable-background:new    ;" width="59" height="150" xlink:href="../../img/venzen/Plastic.png"  transform="matrix(0.4006 0 0 0.4006 828.8889 3432.6003)">
	</image>

		<image style="overflow:visible;enable-background:new    ;" width="59" height="150" xlink:href="../../img/venzen/Plastic.png"  transform="matrix(0.4006 0 0 0.4006 901.3164 2983.134)">
	</image>

		<image style="overflow:visible;enable-background:new    ;" width="59" height="150" xlink:href="../../img/venzen/Plastic.png"  transform="matrix(0.4006 0 0 0.4006 926.5415 2983.134)">
	</image>

		<image style="overflow:visible;enable-background:new    ;" width="97" height="150" xlink:href="../../img/venzen/Can.png"  transform="matrix(0.24 0 0 0.24 1029.1205 3072.0312)">
	</image>

		<image style="overflow:visible;enable-background:new    ;" width="97" height="150" xlink:href="../../img/venzen/Can.png"  transform="matrix(0.24 0 0 0.24 1052.4384 3072.0312)">
	</image>

		<image style="overflow:visible;enable-background:new    ;" width="97" height="150" xlink:href="../../img/venzen/Can.png"  transform="matrix(0.24 0 0 0.24 1075.7561 3072.0312)">
	</image>

		<image style="overflow:visible;enable-background:new    ;" width="97" height="150" xlink:href="../../img/venzen/Can.png"  transform="matrix(0.24 0 0 0.24 747.3866 3259.5735)">
	</image>

		<image style="overflow:visible;enable-background:new    ;" width="97" height="150" xlink:href="../../img/venzen/Can.png"  transform="matrix(0.24 0 0 0.24 956.6672 3772.3455)">
	</image>

		<image style="overflow:visible;enable-background:new    ;" width="97" height="150" xlink:href="../../img/venzen/Can.png"  transform="matrix(0.24 0 0 0.24 770.7043 3259.5735)">
	</image>

		<image style="overflow:visible;enable-background:new    ;" width="97" height="150" xlink:href="../../img/venzen/Can.png"  transform="matrix(0.24 0 0 0.24 794.0221 3259.5735)">
	</image>

		<image style="overflow:visible;enable-background:new    ;" width="97" height="150" xlink:href="../../img/venzen/Can.png"  transform="matrix(0.24 0 0 0.24 816.7542 4007.7036)">
	</image>

		<image style="overflow:visible;enable-background:new    ;" width="97" height="150" xlink:href="../../img/venzen/Can.png"  transform="matrix(0.24 0 0 0.24 840.0718 4007.7036)">
	</image>

		<image style="overflow:visible;enable-background:new    ;" width="97" height="150" xlink:href="../../img/venzen/Can.png"  transform="matrix(0.24 0 0 0.24 863.3896 4007.7036)">
	</image>

		<image style="overflow:visible;enable-background:new    ;" width="97" height="150" xlink:href="../../img/venzen/Can.png"  transform="matrix(0.24 0 0 0.24 746.8008 4007.7036)">
	</image>

		<image style="overflow:visible;enable-background:new    ;" width="97" height="150" xlink:href="../../img/venzen/Can.png"  transform="matrix(0.24 0 0 0.24 770.1185 4007.7036)">
	</image>

		<image style="overflow:visible;enable-background:new    ;" width="97" height="150" xlink:href="../../img/venzen/Can.png"  transform="matrix(0.24 0 0 0.24 793.4363 4007.7036)">
	</image>

		<image style="overflow:visible;enable-background:new    ;" width="97" height="150" xlink:href="../../img/venzen/Can.png"  transform="matrix(0.24 0 0 0.24 700.0798 4007.7036)">
	</image>

		<image style="overflow:visible;enable-background:new    ;" width="97" height="150" xlink:href="../../img/venzen/Can.png"  transform="matrix(0.24 0 0 0.24 723.3976 4007.7036)">
	</image>

		<image style="overflow:visible;enable-background:new    ;" width="97" height="150" xlink:href="../../img/venzen/Can.png"  transform="matrix(0.24 0 0 0.24 893.9575 3097.8276)">
	</image>

		<image style="overflow:visible;enable-background:new    ;" width="97" height="150" xlink:href="../../img/venzen/Can.png"  transform="matrix(0.24 0 0 0.24 1004.3187 3136.1704)">
	</image>

		<image style="overflow:visible;enable-background:new    ;" width="49" height="150" xlink:href="../../img/venzen/Glass.png"  transform="matrix(0.3916 0 0 0.3916 979.8724 3115.542)">
	</image>

		<image style="overflow:visible;enable-background:new    ;" width="49" height="150" xlink:href="../../img/venzen/Glass.png"  transform="matrix(0.3916 0 0 0.3916 1092.3562 3126.6311)">
	</image>

		<image style="overflow:visible;enable-background:new    ;" width="49" height="150" xlink:href="../../img/venzen/Glass.png"  transform="matrix(0.3916 0 0 0.3916 1112.4948 3126.6311)">
	</image>

		<image style="overflow:visible;enable-background:new    ;" width="59" height="150" xlink:href="../../img/venzen/Plastic.png"  transform="matrix(0.4006 0 0 0.4006 757.5497 3432.6003)">
	</image>

		<image style="overflow:visible;enable-background:new    ;" width="59" height="150" xlink:href="../../img/venzen/Plastic.png"  transform="matrix(0.4006 0 0 0.4006 733.9807 3432.6003)">
	</image>

		<image style="overflow:visible;enable-background:new    ;" width="59" height="150" xlink:href="../../img/venzen/Plastic.png"  transform="matrix(0.4006 0 0 0.4006 599.0441 3431.9055)">
	</image>

		<image style="overflow:visible;enable-background:new    ;" width="59" height="150" xlink:href="../../img/venzen/Plastic.png"  transform="matrix(0.4006 0 0 0.4006 575.4751 3431.9055)">
	</image>

		<image style="overflow:visible;enable-background:new    ;" width="59" height="150" xlink:href="../../img/venzen/Plastic.png"  transform="matrix(0.4006 0 0 0.4006 551.9061 3431.9055)">
	</image>

		<image style="overflow:visible;enable-background:new    ;" width="59" height="150" xlink:href="../../img/venzen/Plastic.png"  transform="matrix(0.4006 0 0 0.4006 781.1187 3432.6003)">
	</image>

		<image style="overflow:visible;enable-background:new    ;" width="49" height="150" xlink:href="../../img/venzen/Glass.png"  transform="matrix(0.3916 0 0 0.3916 714.8016 3433.2817)">
	</image>

		<image style="overflow:visible;enable-background:new    ;" width="59" height="150" xlink:href="../../img/venzen/Plastic.png"  transform="matrix(0.4006 0 0 0.4006 1238.8883 3125.9497)">
	</image>

		<image style="overflow:visible;enable-background:new    ;" width="59" height="150" xlink:href="../../img/venzen/Plastic.png"  transform="matrix(0.4006 0 0 0.4006 804.6876 3432.6003)">
	</image>

		<image style="overflow:visible;enable-background:new    ;" width="59" height="150" xlink:href="../../img/venzen/Plastic.png"  transform="matrix(0.4006 0 0 0.4006 875.7108 4108.0586)">
	</image>

		<image style="overflow:visible;enable-background:new    ;" width="59" height="150" xlink:href="../../img/venzen/Plastic.png"  transform="matrix(0.4006 0 0 0.4006 805.0038 4108.0586)">
	</image>

		<image style="overflow:visible;enable-background:new    ;" width="59" height="150" xlink:href="../../img/venzen/Plastic.png"  transform="matrix(0.4006 0 0 0.4006 781.2744 4108.0586)">
	</image>

		<image style="overflow:visible;enable-background:new    ;" width="59" height="150" xlink:href="../../img/venzen/Plastic.png"  transform="matrix(0.4006 0 0 0.4006 828.5728 4108.0586)">
	</image>

		<image style="overflow:visible;enable-background:new    ;" width="59" height="150" xlink:href="../../img/venzen/Plastic.png"  transform="matrix(0.4006 0 0 0.4006 852.1417 4108.0586)">
	</image>

		<image style="overflow:visible;enable-background:new    ;" width="59" height="150" xlink:href="../../img/venzen/Plastic.png"  transform="matrix(0.4006 0 0 0.4006 757.7777 4108.0586)">
	</image>

		<image style="overflow:visible;enable-background:new    ;" width="59" height="150" xlink:href="../../img/venzen/Plastic.png"  transform="matrix(0.4006 0 0 0.4006 686.9829 4108.0586)">
	</image>

		<image style="overflow:visible;enable-background:new    ;" width="59" height="150" xlink:href="../../img/venzen/Plastic.png"  transform="matrix(0.4006 0 0 0.4006 662.7639 4108.0586)">
	</image>

		<image style="overflow:visible;enable-background:new    ;" width="59" height="150" xlink:href="../../img/venzen/Plastic.png"  transform="matrix(0.4006 0 0 0.4006 639.1948 4108.0586)">
	</image>

		<image style="overflow:visible;enable-background:new    ;" width="59" height="150" xlink:href="../../img/venzen/Plastic.png"  transform="matrix(0.4006 0 0 0.4006 710.5519 4108.0586)">
	</image>

		<image style="overflow:visible;enable-background:new    ;" width="59" height="150" xlink:href="../../img/venzen/Plastic.png"  transform="matrix(0.4006 0 0 0.4006 734.1208 4108.0586)">
	</image>

		<image style="overflow:visible;enable-background:new    ;" width="49" height="150" xlink:href="../../img/venzen/Glass.png"  transform="matrix(0.3916 0 0 0.3916 1215.4948 3126.6311)">
	</image>

		<image style="overflow:visible;enable-background:new    ;" width="49" height="150" xlink:href="../../img/venzen/Glass.png"  transform="matrix(0.3916 0 0 0.3916 1053.8729 3126.6311)">
	</image>

		<image style="overflow:visible;enable-background:new    ;" width="49" height="150" xlink:href="../../img/venzen/Glass.png"  transform="matrix(0.3916 0 0 0.3916 1073.1146 3126.6311)">
	</image>

		<image style="overflow:visible;enable-background:new    ;" width="49" height="150" xlink:href="../../img/venzen/Glass.png"  transform="matrix(0.3916 0 0 0.3916 1142.573 3423.562)">
	</image>

		<image style="overflow:visible;enable-background:new    ;" width="49" height="150" xlink:href="../../img/venzen/Glass.png"  transform="matrix(0.3916 0 0 0.3916 1104.0897 3423.562)">
	</image>

		<image style="overflow:visible;enable-background:new    ;" width="49" height="150" xlink:href="../../img/venzen/Glass.png"  transform="matrix(0.3916 0 0 0.3916 1123.3314 3423.562)">
	</image>

		<image style="overflow:visible;enable-background:new    ;" width="49" height="150" xlink:href="../../img/venzen/Glass.png"  transform="matrix(0.3916 0 0 0.3916 1064.7095 3423.562)">
	</image>

		<image style="overflow:visible;enable-background:new    ;" width="49" height="150" xlink:href="../../img/venzen/Glass.png"  transform="matrix(0.3916 0 0 0.3916 1084.8481 3423.562)">
	</image>

		<image style="overflow:visible;enable-background:new    ;" width="49" height="150" xlink:href="../../img/venzen/Glass.png"  transform="matrix(0.3916 0 0 0.3916 1026.2262 3423.562)">
	</image>

		<image style="overflow:visible;enable-background:new    ;" width="49" height="150" xlink:href="../../img/venzen/Glass.png"  transform="matrix(0.3916 0 0 0.3916 1045.4678 3423.562)">
	</image>

		<image style="overflow:visible;enable-background:new    ;" width="49" height="150" xlink:href="../../img/venzen/Glass.png"  transform="matrix(0.3916 0 0 0.3916 870.985 4049.3201)">
	</image>

		<image style="overflow:visible;enable-background:new    ;" width="49" height="150" xlink:href="../../img/venzen/Glass.png"  transform="matrix(0.3916 0 0 0.3916 832.5017 4049.3201)">
	</image>

		<image style="overflow:visible;enable-background:new    ;" width="49" height="150" xlink:href="../../img/venzen/Glass.png"  transform="matrix(0.3916 0 0 0.3916 851.7434 4049.3201)">
	</image>

		<image style="overflow:visible;enable-background:new    ;" width="49" height="150" xlink:href="../../img/venzen/Glass.png"  transform="matrix(0.3916 0 0 0.3916 793.1216 4049.3201)">
	</image>

		<image style="overflow:visible;enable-background:new    ;" width="49" height="150" xlink:href="../../img/venzen/Glass.png"  transform="matrix(0.3916 0 0 0.3916 813.2603 4049.3201)">
	</image>

		<image style="overflow:visible;enable-background:new    ;" width="49" height="150" xlink:href="../../img/venzen/Glass.png"  transform="matrix(0.3916 0 0 0.3916 754.6382 4049.3201)">
	</image>

		<image style="overflow:visible;enable-background:new    ;" width="49" height="150" xlink:href="../../img/venzen/Glass.png"  transform="matrix(0.3916 0 0 0.3916 773.8799 4049.3201)">
	</image>

		<image style="overflow:visible;enable-background:new    ;" width="49" height="150" xlink:href="../../img/venzen/Glass.png"  transform="matrix(0.3916 0 0 0.3916 715.2579 4049.3201)">
	</image>

		<image style="overflow:visible;enable-background:new    ;" width="49" height="150" xlink:href="../../img/venzen/Glass.png"  transform="matrix(0.3916 0 0 0.3916 735.3966 4049.3201)">
	</image>

		<image style="overflow:visible;enable-background:new    ;" width="49" height="150" xlink:href="../../img/venzen/Glass.png"  transform="matrix(0.3916 0 0 0.3916 676.7748 4049.3201)">
	</image>

		<image style="overflow:visible;enable-background:new    ;" width="49" height="150" xlink:href="../../img/venzen/Glass.png"  transform="matrix(0.3916 0 0 0.3916 696.0162 4049.3201)">
	</image>

		<image style="overflow:visible;enable-background:new    ;" width="49" height="150" xlink:href="../../img/venzen/Glass.png"  transform="matrix(0.3916 0 0 0.3916 1270.3512 3423.562)">
	</image>

		<image style="overflow:visible;enable-background:new    ;" width="49" height="150" xlink:href="../../img/venzen/Glass.png"  transform="matrix(0.3916 0 0 0.3916 1231.868 3423.562)">
	</image>

		<image style="overflow:visible;enable-background:new    ;" width="49" height="150" xlink:href="../../img/venzen/Glass.png"  transform="matrix(0.3916 0 0 0.3916 1251.1096 3423.562)">
	</image>

		<image style="overflow:visible;enable-background:new    ;" width="49" height="150" xlink:href="../../img/venzen/Glass.png"  transform="matrix(0.3916 0 0 0.3916 1020.7904 3751.8467)">
	</image>

		<image style="overflow:visible;enable-background:new    ;" width="49" height="150" xlink:href="../../img/venzen/Glass.png"  transform="matrix(0.3916 0 0 0.3916 982.3073 3751.8467)">
	</image>

		<image style="overflow:visible;enable-background:new    ;" width="49" height="150" xlink:href="../../img/venzen/Glass.png"  transform="matrix(0.3916 0 0 0.3916 1001.5487 3751.8467)">
	</image>

		<image style="overflow:visible;enable-background:new    ;" width="49" height="150" xlink:href="../../img/venzen/Glass.png"  transform="matrix(0.3916 0 0 0.3916 971.7893 3290.0139)">
	</image>

		<image style="overflow:visible;enable-background:new    ;" width="49" height="150" xlink:href="../../img/venzen/Glass.png"  transform="matrix(0.3916 0 0 0.3916 991.928 3290.0139)">
	</image>

		<image style="overflow:visible;enable-background:new    ;" width="49" height="150" xlink:href="../../img/venzen/Glass.png"  transform="matrix(0.3916 0 0 0.3916 933.3062 3290.0139)">
	</image>

		<image style="overflow:visible;enable-background:new    ;" width="49" height="150" xlink:href="../../img/venzen/Glass.png"  transform="matrix(0.3916 0 0 0.3916 952.5479 3290.0139)">
	</image>

		<image style="overflow:visible;enable-background:new    ;" width="123" height="150" xlink:href="../../img/venzen/Hand.png"  transform="matrix(0.3608 0 0 0.3608 1004.3676 3496.4111)">
	</image>

		<image style="overflow:visible;enable-background:new    ;" width="123" height="150" xlink:href="../../img/venzen/Hand.png"  transform="matrix(0.3608 0 0 0.3608 918.6082 3496.4111)">
	</image>

		<image style="overflow:visible;enable-background:new    ;" width="49" height="150" xlink:href="../../img/venzen/Glass.png"  transform="matrix(0.3916 0 0 0.3916 1052.0549 3498.1069)">
	</image>

		<image style="overflow:visible;enable-background:new    ;" width="49" height="150" xlink:href="../../img/venzen/Glass.png"  transform="matrix(0.3916 0 0 0.3916 1071.2965 3498.1069)">
	</image>

		<image style="overflow:visible;enable-background:new    ;" width="49" height="150" xlink:href="../../img/venzen/Glass.png"  transform="matrix(0.3916 0 0 0.3916 676.3182 3433.2817)">
	</image>

		<image style="overflow:visible;enable-background:new    ;" width="49" height="150" xlink:href="../../img/venzen/Glass.png"  transform="matrix(0.3916 0 0 0.3916 695.5599 3433.2817)">
	</image>

		<image style="overflow:visible;enable-background:new    ;" width="49" height="150" xlink:href="../../img/venzen/Glass.png"  transform="matrix(0.3916 0 0 0.3916 637.8351 3433.2817)">
	</image>

		<image style="overflow:visible;enable-background:new    ;" width="49" height="150" xlink:href="../../img/venzen/Glass.png"  transform="matrix(0.3916 0 0 0.3916 657.0768 3433.2817)">
	</image>

		<image style="overflow:visible;enable-background:new    ;" width="49" height="150" xlink:href="../../img/venzen/Glass.png"  transform="matrix(0.3916 0 0 0.3916 532.7271 3432.5869)">
	</image>

		<image style="overflow:visible;enable-background:new    ;" width="122" height="150" xlink:href="../../img/venzen/trash_bag-0.png"  transform="matrix(0.4893 0 0 0.4893 74.8801 2231.5134)">
	</image>

		<image style="overflow:visible;enable-background:new    ;" width="122" height="150" xlink:href="../../img/venzen/trash_bag-1.png"  transform="matrix(0.4893 0 0 0.4893 74.8801 3309.709)">
	</image>

		<image style="overflow:visible;enable-background:new    ;" width="122" height="150" xlink:href="../../img/venzen/trash_bag-3.png"  transform="matrix(0.4893 0 0 0.4893 74.8801 4112.9097)">
	</image>

		<image style="overflow:visible;enable-background:new    ;" width="122" height="150" xlink:href="../../img/venzen/trash_bag-3.png"  transform="matrix(0.4893 0 0 0.4893 74.8801 5068.085)">
	</image>

		<image class="cameraImage" style="overflow:visible;enable-background:new    ;" width="150" height="115" xlink:href="../../img/venzen/Camera.png"  transform="matrix(0.377 0 0 0.377 246.6117 3079.9634)">
	</image>

		<image class="cameraImage" style="overflow:visible;enable-background:new    ;" width="150" height="115" xlink:href="../../img/venzen/Camera.png"  transform="matrix(0.377 0 0 0.377 681.797 3252.1277)">
	</image>

		<image class="cameraImage" style="overflow:visible;enable-background:new    ;" width="150" height="115" xlink:href="../../img/venzen/Camera.png"  transform="matrix(0.377 0 0 0.377 246.6117 3711.8203)">
	</image>

		<image class="cameraImage" style="overflow:visible;enable-background:new    ;" width="150" height="115" xlink:href="../../img/venzen/Camera.png"  transform="matrix(0.377 0 0 0.377 1043.9452 4143.7212)">
	</image>
	<g>
		<path d="M963.7,2876.6c0,4.6,0,9.3,0,13.9c0.6-0.3,1.2-0.6,1.8-0.9c-19.7,0-39.4,0-59.2,0c0.3,0.2,0.5,0.4,0.8,0.6
			c0-4.6,0-9.3,0-13.9c0-1.1-2.6-0.6-2.6,0.3c0,4.6,0,9.3,0,13.9c0,0.4,0.4,0.6,0.8,0.6c19.7,0,39.4,0,59.2,0c0.4,0,1.8-0.2,1.8-0.9
			c0-4.6,0-9.3,0-13.9C966.3,2875.2,963.7,2875.7,963.7,2876.6L963.7,2876.6z"/>
	</g>
	<g>
		<path d="M1101.6,3098.6c0,4.6,0,9.3,0,13.9c0.6-0.3,1.2-0.6,1.8-0.9c-19.7,0-110.8,0-130.5,0c0.3,0.2,0.5,0.4,0.8,0.6
			c0-4.6,0-9.3,0-13.9c0-1.1-2.6-0.6-2.6,0.3c0,4.6,0,9.3,0,13.9c0,0.4,0.4,0.6,0.8,0.6c19.7,0,110.8,0,130.5,0
			c0.4,0,1.8-0.2,1.8-0.9c0-4.6,0-9.3,0-13.9C1104.2,3097.2,1101.6,3097.7,1101.6,3098.6L1101.6,3098.6z"/>
	</g>
	<g>
		<path d="M1189.4,3172.1c0,4.6,0,9.3,0,13.9c0.6-0.3,1.2-0.6,1.8-0.9c-19.7,0-122.8,0-142.5,0c0.3,0.2,0.5,0.4,0.8,0.6
			c0-4.6,0-9.3,0-13.9c0-1.1-2.6-0.6-2.6,0.3c0,4.6,0,9.3,0,13.9c0,0.4,0.4,0.6,0.8,0.6c19.7,0,122.8,0,142.5,0
			c0.4,0,1.8-0.2,1.8-0.9c0-4.6,0-9.3,0-13.9C1192,3170.7,1189.4,3171.2,1189.4,3172.1L1189.4,3172.1z"/>
	</g>
	<g>
		<path d="M855.8,3480c0,4.6,0,9.3,0,13.9c0.6-0.3,1.2-0.6,1.8-0.9c-19.7,0-203.7,0-223.4,0c0.3,0.2,0.5,0.4,0.8,0.6
			c0-4.6,0-9.3,0-13.9c0-1.1-2.6-0.6-2.6,0.3c0,4.6,0,9.3,0,13.9c0,0.4,0.4,0.6,0.8,0.6c19.7,0,203.7,0,223.4,0
			c0.4,0,1.8-0.2,1.8-0.9c0-4.6,0-9.3,0-13.9C858.4,3478.6,855.8,3479.1,855.8,3480L855.8,3480z"/>
	</g>
	<g>
		<path d="M907.9,4155.8c0,4.6,0,9.3,0,13.9c0.6-0.3,1.2-0.6,1.8-0.9c-19.8,0-255.7,0-275.5,0c0.3,0.2,0.5,0.4,0.8,0.6
			c0-4.6,0-9.3,0-13.9c0-1.1-2.6-0.6-2.6,0.3c0,4.6,0,9.3,0,13.9c0,0.4,0.4,0.6,0.8,0.6c19.7,0,255.8,0,275.5,0
			c0.4,0,1.8-0.2,1.8-0.9c0-4.6,0-9.3,0-13.9C910.5,4154.4,907.9,4154.9,907.9,4155.8L907.9,4155.8z"/>
	</g>
	<g>
		<path d="M953.7,3032.3c0,4.6,0,9.3,0,13.9c0.6-0.3,1.2-0.6,1.8-0.9c-19.7,0-39.4,0-59.2,0c0.3,0.2,0.5,0.4,0.8,0.6
			c0-4.6,0-9.3,0-13.9c0-1.1-2.6-0.6-2.6,0.3c0,4.6,0,9.3,0,13.9c0,0.4,0.4,0.6,0.8,0.6c19.7,0,39.4,0,59.2,0c0.4,0,1.8-0.2,1.8-0.9
			c0-4.6,0-9.3,0-13.9C956.3,3030.9,953.7,3031.4,953.7,3032.3L953.7,3032.3z"/>
	</g>
	<g>
		<path d="M921.2,3134.8c-10.1,0-20.1,0-30.2,0c-1,0-2.8,1.6-1,1.6c10.1,0,20.1,0,30.2,0C921.2,3136.4,923,3134.8,921.2,3134.8
			L921.2,3134.8z"/>
	</g>
	<g>
		<path d="M1033.7,3160.5c0,4.6,0,9.3,0,13.9c0.6-0.3,1.2-0.6,1.8-0.9c-20.5,0-40.9,0-61.4,0c0.3,0.2,0.5,0.4,0.8,0.6
			c0-4.6,0-9.3,0-13.9c0-1.1-2.6-0.6-2.6,0.3c0,4.6,0,9.3,0,13.9c0,0.4,0.4,0.6,0.8,0.6c20.5,0,40.9,0,61.4,0c0.4,0,1.8-0.2,1.8-0.9
			c0-4.6,0-9.3,0-13.9C1036.3,3159,1033.7,3159.6,1033.7,3160.5L1033.7,3160.5z"/>
	</g>
	<g>
		<path d="M1263.7,3185.3c-17.2,0-34.5,0-51.8,0c-1,0-2.8,1.6-1,1.6c17.2,0,34.5,0,51.8,0
			C1263.8,3186.8,1265.5,3185.3,1263.7,3185.3L1263.7,3185.3z"/>
	</g>
	<g>
		<path d="M1210.4,3469.3c0,4.6,0,9.3,0,13.9c0.6-0.3,1.2-0.6,1.8-0.9c-19.7,0-168.8,0-188.5,0c0.3,0.2,0.5,0.4,0.8,0.6
			c0-4.6,0-9.3,0-13.9c0-1.1-2.6-0.6-2.6,0.3c0,4.6,0,9.3,0,13.9c0,0.4,0.4,0.6,0.8,0.6c19.7,0,168.8,0,188.5,0
			c0.4,0,1.8-0.2,1.8-0.9c0-4.6,0-9.3,0-13.9C1213,3467.9,1210.4,3468.4,1210.4,3469.3L1210.4,3469.3z"/>
	</g>
	<g>
		<path d="M1292.1,3482.5c-17.2,0-44.5,0-61.8,0c-1,0-2.8,1.6-1,1.6c17.2,0,44.5,0,61.8,0
			C1292.1,3484.1,1293.8,3482.5,1292.1,3482.5L1292.1,3482.5z"/>
	</g>
	<g>
		<path d="M1042.5,3810.8c-17.2,0-73.5,0-90.8,0c-1,0-2.8,1.6-1,1.6c17.2,0,73.5,0,90.8,0
			C1042.5,3812.3,1044.3,3810.8,1042.5,3810.8L1042.5,3810.8z"/>
	</g>
	<g>
		<path d="M625.4,3493.1c-17.2,0-76.5,0-93.8,0c-1,0-2.8,1.6-1,1.6c17.2,0,76.5,0,93.8,0C625.5,3494.7,627.2,3493.1,625.4,3493.1
			L625.4,3493.1z"/>
	</g>
	<g class="st8">
		<path class="st9" d="M870.7,4167.3c18.6-0.1,37.2,0,55.8,0c-0.3,0-0.7,0-1,0c0.4,0,0.8,0,1.2,0c0.7,0.2,1.3,0,1.8-0.5
			c0.5-0.6,0.6-1.2,0.3-1.9c-0.7-1.1-1.5-2-2.5-2.9c-0.9-0.9-2-1.7-3.1-2.2c-2.7-0.2-5.4-0.1-8.1-0.1c-6.4,0-12.8,0-19.1,0
			c-10.1,0-20.1,0-30.2,0c-0.7,0.2-1.1,0.7-1.3,1.3c-0.1,0.9,0.2,1.7,0.9,2.3C866.5,4164.9,868.5,4167.3,870.7,4167.3z"/>
		<path class="st9" d="M871.1,4161.8c19.1,0.7,38.2-0.2,57.3,0.3c1.3,0,2.5-1,2.2-2.4c-0.5-0.9-1.2-1.7-2-2.4
			c-0.7-0.8-1.6-1.3-2.6-1.8c-9.4-0.3-18.9-0.1-28.3,0c-9.5,0-19,0.1-28.5-0.2c-1.2,0-2.5,0.9-2.3,2.3c0.4,0.9,1,1.7,1.8,2.4
			C869.4,4160.8,870.2,4161.4,871.1,4161.8z"/>
		<path class="st9" d="M873.8,4166.3c9.5,0,19,0,28.6,0c9.5,0,19-0.1,28.5,0c0.7-0.2,1.1-0.7,1.3-1.4c0-1-0.4-1.8-1.3-2.5
			c-1.1-1.2-2.4-2.4-3.7-3.4c-0.7-0.8-1.6-1.1-2.6-1c-3.3-0.3-6.7-0.1-10-0.1c-6.7,0-13.4,0-20.1,0c-8.8,0-17.6,0-26.3,0
			c-0.7,0.2-1.2,0.6-1.3,1.3c-0.1,1,0.3,1.8,1.1,2.5C869.1,4163.3,871.4,4166.2,873.8,4166.3z"/>
		<path class="st9" d="M878,4171.3c19.1,0.1,38.2-0.1,57.3,0.1c0.8-0.1,1.3-0.6,1.3-1.4c-0.3-1.4-1-2.5-2.2-3.3
			c-1.7-1.8-3.6-3.4-5.5-5c-1-1.1-2.1-1.7-3.5-1.9c-2.8-0.3-5.8-0.1-8.6-0.1c-6.5,0-13.1,0-19.6,0c-9.5,0-18.9,0-28.4-0.2
			c-0.8,0.1-1.3,0.5-1.3,1.3c0.2,1.4,0.9,2.5,2,3.4c1.6,1.8,3.4,3.6,5.2,5.2C875.6,4170.4,876.7,4171.1,878,4171.3z"/>
		<path class="st9" d="M877.9,4166.5c19.1,0.2,38.1-0.2,57.2,0.1c0.8-0.2,1.2-0.6,1.3-1.4c-0.2-1.2-0.7-2.2-1.7-2.9
			c-1.4-1.5-3-2.9-4.6-4.2c-0.8-0.9-1.9-1.4-3-1.4c-2.8-0.3-5.8-0.1-8.6-0.1c-6.5,0-13.1,0-19.6,0c-9.5,0-18.9,0-28.3-0.1
			c-0.8,0.1-1.2,0.6-1.3,1.3c0.1,1.2,0.6,2.1,1.5,2.9c1.3,1.5,2.8,3,4.3,4.3C875.7,4166,876.7,4166.5,877.9,4166.5z"/>
		<path class="st9" d="M867.1,4160.8c19.2,0.3,38.4,0.2,57.7,0.2c1,0,2.3-1.2,2.3-2.3c-0.1-1-1.8-2.8-2.8-2.8
			c-19.2,0-38.3-0.1-57.5,0c-1,0-2.3,1.3-2.3,2.3C864.5,4159.1,866.1,4160.7,867.1,4160.8z"/>
		<path class="st9" d="M866.5,4165.8c19.1,1.1,38.3,0,57.5,0.4c1.3,0,2.5-1,2.2-2.4c-0.5-0.9-1.1-1.7-1.9-2.3
			c-0.7-0.7-1.6-1.3-2.5-1.7c-19-0.5-38,0.5-57-0.3c-1.2-0.1-2.5,0.9-2.3,2.3c0.4,0.9,1,1.7,1.7,2.3
			C864.8,4164.8,865.6,4165.4,866.5,4165.8z"/>
		<path class="st9" d="M871.7,4172.2c19.1,0.2,38.1-0.2,57.2,0.1c0.8-0.2,1.2-0.6,1.3-1.4c-0.1-1.2-0.7-2.1-1.6-2.8
			c-1.4-1.5-2.9-2.8-4.4-4.1c-0.8-0.9-1.8-1.4-3-1.4c-2.8-0.3-5.8-0.1-8.6-0.1c-6.5,0-13.1,0-19.6,0c-9.5,0-18.9,0-28.3-0.1
			c-0.8,0.1-1.2,0.6-1.3,1.3c0.1,1.1,0.5,2.1,1.5,2.9c1.3,1.5,2.7,2.9,4.2,4.2C869.6,4171.6,870.6,4172.1,871.7,4172.2z"/>
		<path class="st9" d="M876.7,4161c18.6-0.1,37.2,0,55.8,0c-0.3,0-0.7,0-1,0c0.4,0,0.8,0,1.2,0c0.7,0.2,1.3,0,1.8-0.5
			c0.5-0.6,0.6-1.2,0.3-1.9c-0.7-1.1-1.5-2-2.5-2.8c-0.9-0.9-1.9-1.6-3.1-2.2c-2.7-0.2-5.4-0.1-8.1-0.1c-6.4,0-12.8,0-19.1,0
			c-10.1,0-20.1,0-30.2,0c-0.7,0.2-1.1,0.7-1.3,1.3c-0.1,0.9,0.2,1.6,0.9,2.3C872.6,4158.7,874.6,4161,876.7,4161z"/>
		<path class="st9" d="M868.6,4170.1c8.8,0,17.7,0,26.5,0c10.2,0,20.3-0.2,30.5,0c0.7-0.2,1.1-0.7,1.3-1.4c0.1-0.7-0.1-1.2-0.6-1.7
			c-0.6-0.9-1.3-1.6-2.1-2.3c-1-0.9-2-1.7-3.2-2.3c-2.7-0.2-5.4-0.1-8.2-0.1c-6.4,0-12.8,0-19.1,0c-10.1,0-20.1,0-30.2,0
			c-0.7,0.2-1.1,0.6-1.3,1.3c-0.1,0.9,0.2,1.7,1,2.4C864.2,4167.5,866.4,4170.1,868.6,4170.1z"/>
		<path class="st9" d="M873.9,4159.3c9.4-0.2,18.9-0.2,28.4-0.2s19.1-0.1,28.6,0c1.2,0,2.5-1,2.2-2.4c-0.4-0.9-1-1.6-1.7-2.2
			c-0.7-0.7-1.4-1.2-2.3-1.6c-9.5-0.1-19,0-28.5,0c-9.4,0-18.7-0.1-28.1,0.2c-1.2,0-2.5,0.9-2.3,2.3c0.4,0.8,0.9,1.6,1.6,2.2
			C872.3,4158.4,873.1,4158.9,873.9,4159.3z"/>
		<path class="st9" d="M865.2,4163.4c19.2,0.2,38.4,0.2,57.7,0.2c1,0,2.4-1.2,2.3-2.3c-0.1-1-1.9-3-3-3c-19.2,0-38.3-0.1-57.5,0
			c-1,0-2.3,1.2-2.3,2.3C862.5,4161.6,864.2,4163.4,865.2,4163.4z"/>
	</g>
	<rect x="246.7" y="2581.4" class="st10" width="283.5" height="138.1"/>
	<rect x="246.7" y="2933.2" class="st10" width="283.5" height="138.1"/>
	<rect x="246.7" y="3148.4" class="st10" width="283.5" height="138.1"/>
	<rect x="246.7" y="4020.4" class="st10" width="283.5" height="138.1"/>
	<rect x="246.7" y="5172.3" class="st10" width="283.5" height="138.1"/>
	<rect x="246.7" y="3564.3" class="st10" width="283.5" height="138.1"/>
	<g>
		<rect x="264.6" y="2602.4" class="st5" width="254" height="108.2"/>
		<text transform="matrix(1 0 0 1 264.6088 2614.7449)" class="st11 st12 st2">Venzen parks with the back  </text>
		<text transform="matrix(1 0 0 1 264.6088 2636.3447)" class="st11 st12 st2">of his car facing the street to </text>
		<text transform="matrix(1 0 0 1 264.6088 2657.9448)" class="st11 st12 st2">prevent potential competitors </text>
		<text transform="matrix(1 0 0 1 264.6088 2679.5449)" class="st11 st12 st2">from seeing how much he has </text>
		<text transform="matrix(1 0 0 1 264.6088 2701.145)" class="st11 st12 st2">stored in the back.</text>
	</g>
	<g>
		<rect x="264.6" y="2954.2" class="st5" width="247.5" height="108.2"/>
		<text transform="matrix(1 0 0 1 264.6088 2966.5435)" class="st11 st12 st2">Venzen uses his car — a </text>
		<text transform="matrix(1 0 0 1 264.6088 2988.1433)" class="st11 st12 st2">Cadillac Brougham that&apos;s been </text>
		<text transform="matrix(1 0 0 1 264.6088 3009.7434)" class="st11 st12 st2">the subject of several DIY </text>
		<text transform="matrix(1 0 0 1 264.6088 3031.3435)" class="st11 st12 st2">restylings — as temporary </text>
		<text transform="matrix(1 0 0 1 264.6088 3052.9436)" class="st11 st12 st2">storage for cans and bottles.</text>
	</g>
	<g>
		<rect x="264.6" y="3169.4" class="st5" width="247.5" height="108.2"/>
		<text transform="matrix(1 0 0 1 264.6088 3181.7466)" class="st11 st12 st2">Many canners take pride in  </text>
		<text transform="matrix(1 0 0 1 264.6088 3203.3467)" class="st11 st12 st2">the contribution they make to </text>
		<text transform="matrix(1 0 0 1 264.6088 3224.9465)" class="st11 st12 st2">keeping the city clean. Venzen </text>
		<text transform="matrix(1 0 0 1 264.6088 3246.5466)" class="st11 st12 st2">considers himself a volunteer </text>
		<text transform="matrix(1 0 0 1 264.6088 3268.1465)" class="st11 st12 st2">in the park.</text>
	</g>
	<g>
		<rect x="264.6" y="4038.4" class="st5" width="247.5" height="108.2"/>
		<text transform="matrix(1 0 0 1 264.6088 4050.7725)" class="st11 st12 st2">He considers himself </text>
		<text transform="matrix(1 0 0 1 264.6088 4072.3726)" class="st11 st12 st2">responsible for the park and </text>
		<text transform="matrix(1 0 0 1 264.6088 4093.9724)" class="st11 st12 st2">has ideas to improve it, like </text>
		<text transform="matrix(1 0 0 1 264.6088 4115.5723)" class="st11 st12 st2">building a pond with goldfish </text>
		<text transform="matrix(1 0 0 1 264.6088 4137.1724)" class="st11 st12 st2">to keep mosquitos down.</text>
	</g>
	<g>
		<rect x="264.6" y="5193.3" class="st5" width="247.5" height="108.2"/>
		<text transform="matrix(1 0 0 1 264.6088 5205.6665)" class="st11 st12 st2">Venzen repeats the same route </text>
		<text transform="matrix(1 0 0 1 264.6088 5227.2666)" class="st11 st12 st2">until the truck of his car is full. </text>
		<text transform="matrix(1 0 0 1 264.6088 5248.8662)" class="st11 st12 st2">He eats only a couple of fruits </text>
		<text transform="matrix(1 0 0 1 264.6088 5270.4668)" class="st11 st12 st2">and considers canning a way  </text>
		<text transform="matrix(1 0 0 1 264.6088 5292.0664)" class="st11 st12 st2">to stay fit.</text>
	</g>
	<g>
		<rect x="264.6" y="3585.2" class="st5" width="237.6" height="108.2"/>
		<text transform="matrix(1 0 0 1 264.6088 3597.6338)" class="st11 st12 st2">Bottles are redeemable only </text>
		<text transform="matrix(1 0 0 1 264.6088 3619.2339)" class="st11 st12 st2">with their label on. Venzen </text>
		<text transform="matrix(1 0 0 1 264.6088 3640.8337)" class="st11 st12 st2">uses a trick to “restore” </text>
		<text transform="matrix(1 0 0 1 264.6088 3662.4338)" class="st11 st12 st2">plastic bottles with the label </text>
		<text transform="matrix(1 0 0 1 264.6088 3684.0337)" class="st11 st12 st2">half torn off.</text>
	</g>
	<g>
		<rect x="1081.6" y="2834.7" class="st5" width="344.6" height="70.8"/>
		<text transform="matrix(1 0 0 1 1081.6447 2850.1143)" class="st7 st2">“Don’t shake hands with anyone in the </text>
		<text transform="matrix(1 0 0 1 1081.6447 2871.7141)" class="st7 st2">park, only fist bump.</text>
		<text transform="matrix(1 0 0 1 1244.1447 2871.7141)" class="st1 st2">”</text>
		<text transform="matrix(1 0 0 1 1251.4447 2871.7141)" class="st6 st2"> Venzen thinks that </text>
		<text transform="matrix(1 0 0 1 1081.6447 2893.3142)" class="st6 st2">people in the park pee and do all sort of </text>
	</g>
	<g>
		<rect x="941.2" y="2288.4" class="st5" width="329.3" height="70.8"/>
		<text transform="matrix(1 0 0 1 941.2267 2303.8228)" class="st7 st2">“You see that house? Hezekiah Walker </text>
		<text transform="matrix(1 0 0 1 941.2267 2325.4229)" class="st7 st2">lives there.</text>
		<text transform="matrix(1 0 0 1 1029.1267 2325.4229)" class="st1 st2">”</text>
		<text transform="matrix(1 0 0 1 1036.5267 2325.4229)" class="st6 st2"> He is a radio personality </text>
		<text transform="matrix(1 0 0 1 941.2267 2347.0227)" class="st6 st2">also known as the hip-hop pastor.</text>
	</g>
	<g>
		<rect x="1081.6" y="2660.1" class="st5" width="337.5" height="88.9"/>
		<text transform="matrix(1 0 0 1 1081.6447 2675.5103)" class="st7 st2">“He was a good guy...</text>
		<text transform="matrix(1 0 0 1 1253.5447 2675.5103)" class="st1 st2">”</text>
		<text transform="matrix(1 0 0 1 1260.9447 2675.5103)" class="st6 st2"> He shows me on </text>
		<text transform="matrix(1 0 0 1 1081.6447 2697.1104)" class="st6 st2">his car’s window the photo of a friend — a </text>
		<text transform="matrix(1 0 0 1 1081.6447 2718.7102)" class="st6 st2">member of his walking group in the park </text>
		<text transform="matrix(1 0 0 1 1081.6447 2740.3103)" class="st6 st2">— who recently passed away.</text>
	</g>
	<g>
		<rect x="915.8" y="3368.4" class="st5" width="531.8" height="44.4"/>
		<text transform="matrix(1 0 0 1 915.7805 3383.8164)" class="st7 st2">“This is the blissful tree,</text>
		<text transform="matrix(1 0 0 1 1108.6805 3383.8164)" class="st1 st2">”</text>
		<text transform="matrix(1 0 0 1 1115.9805 3383.8164)" class="st6 st2"> Venzen says it’s tall because people pee </text>
		<text transform="matrix(1 0 0 1 915.7805 3405.4165)" class="st6 st2">on its roots. If restrooms are closed, Venzen blesses trees too.</text>
	</g>
	<g>
		<rect x="1072.2" y="3680.3" class="st5" width="411.2" height="58.2"/>
		<text transform="matrix(1 0 0 1 1072.2267 3695.6895)" class="st7 st2">“My bag is almost full just by walking,</text>
		<text transform="matrix(1 0 0 1 1371.7267 3695.6895)" class="st1 st2">”</text>
		<text transform="matrix(1 0 0 1 1379.0266 3695.6895)" class="st6 st2"> Venzen </text>
		<text transform="matrix(1 0 0 1 1072.2267 3717.2896)" class="st6 st2">thinks he has more than 200 cans in his cart.</text>
	</g>
	<g>
		<rect x="1115" y="4143.8" class="st5" width="402.9" height="73.3"/>
		<text transform="matrix(1 0 0 1 1115.0433 4159.1924)" class="st7 st2">“Look at these seeds,</text>
		<text transform="matrix(1 0 0 1 1285.2433 4159.1924)" class="st1 st2">”</text>
		<text transform="matrix(1 0 0 1 1292.6433 4159.1924)" class="st6 st2"> He shows me a Ginko </text>
		<text transform="matrix(1 0 0 1 1115.0433 4180.7925)" class="st6 st2">Biloba seed and eats one raw, picked up on the </text>
		<text transform="matrix(1 0 0 1 1115.0433 4202.3926)" class="st6 st2">ground among a constellation of beer caps.</text>
	</g>
	<g>
		<rect x="581.5" y="3040.8" class="st5" width="287.6" height="88.9"/>
		<text transform="matrix(1 0 0 1 622.0298 3056.209)" class="st7 st2">“You got to turn them over, you </text>
		<text transform="matrix(1 0 0 1 614.4297 3077.8091)" class="st7 st2">know?</text>
		<text transform="matrix(1 0 0 1 665.3297 3077.8091)" class="st1 st2">”</text>
		<text transform="matrix(1 0 0 1 672.6296 3077.8091)" class="st6 st2"> Venzen checks the bins’ </text>
		<text transform="matrix(1 0 0 1 646.7297 3099.4089)" class="st6 st2">content from top to bottom.</text>
	</g>
	<g>
		<rect x="544.5" y="3122.6" class="st5" width="324.6" height="115.8"/>
		<text transform="matrix(1 0 0 1 562.7739 3137.9678)" class="st6 st2">When Venzen sees half-empty bins, he </text>
		<text transform="matrix(1 0 0 1 548.7739 3159.5676)" class="st6 st2">fills one up and leaves the others empty, </text>
		<text transform="matrix(1 0 0 1 605.8739 3181.1677)" class="st6 st2">preparing bags for park cleaners: </text>
		<text transform="matrix(1 0 0 1 608.674 3202.7678)" class="st7 st2">“They’ll pick them up tomorrow.”</text>
	</g>

		<image style="overflow:visible;enable-background:new    ;" width="634" height="2330" xlink:href="../../img/venzen/Venzen_cane.png"  transform="matrix(9.105848e-02 1.798630e-02 -1.798630e-02 9.105848e-02 883.1038 187.3515)">
	</image>

		<image style="overflow:visible;enable-background:new    ;" width="2133" height="3115" xlink:href="../../img/venzen/Venzen_cart.png"  transform="matrix(6.981809e-02 0 0 6.981809e-02 1232.2709 187.3509)">
	</image>

		<image style="overflow:visible;enable-background:new    ;" width="908" height="1300" xlink:href="../../img/venzen/Venzen_ginko.png"  transform="matrix(0.1412 0 0 0.1412 1600.2648 203.4641)">
	</image>
	<text transform="matrix(1 0 0 1 74.838 192.9819)" class="st1 st13">Canning with Venzen</text>
	<g>
		<rect x="78.1" y="254.4" class="st5" width="452" height="231.1"/>
		<text transform="matrix(1 0 0 1 78.0901 269.8042)" class="st6 st2">Venzen began canning because he needed to occupy his </text>
		<text transform="matrix(1 0 0 1 78.0901 291.4043)" class="st6 st2">time while he was homeless. His wife would go to work, </text>
		<text transform="matrix(1 0 0 1 78.0901 313.0039)" class="st6 st2">and he would sit in his old Cadillac Brougham. One </text>
		<text transform="matrix(1 0 0 1 78.0901 334.6045)" class="st6 st2">morning, he took a ride and parked at Highland Park, in </text>
		<text transform="matrix(1 0 0 1 78.0901 356.2041)" class="st6 st2">Brooklyn. While walking around, he started collecting </text>
		<text transform="matrix(1 0 0 1 78.0901 377.8042)" class="st6 st2">bottles and cans. He made $54 and — he likes to say — </text>
		<text transform="matrix(1 0 0 1 78.0901 399.4043)" class="st6 st2">asked his pride to let him be. Since then, he has refined </text>
		<text transform="matrix(1 0 0 1 78.0901 421.0039)" class="st6 st2">his techniques and now works as he were a member of </text>
		<text transform="matrix(1 0 0 1 78.0901 442.6045)" class="st6 st2">the park maintanence staff.</text>
	</g>
	<g>
		<text transform="matrix(1 0 0 1 719.6096 443.0811)" class="st1 st2">Cane for walking and checking bags</text>
	</g>
	<g>
		<text transform="matrix(1 0 0 1 1284.8604 443.0811)" class="st1 st2">Cart</text>
	</g>
	<g>
		<text transform="matrix(1 0 0 1 1586.0193 443.0811)" class="st1 st2">Latex Gloves</text>
		<g>
			<text transform="matrix(1 0 0 1 1585.0193 465.0811)" class="st1 st2">(and a Ginko Biloba seed)</text>
		</g>
	</g>
	<g>
		<text transform="matrix(1 0 0 1 1373.5046 396.54)" class="st6 st14">Missing wheel</text>
	</g>
	<g>
		<text transform="matrix(1 0 0 1 1110.9652 382.999)" class="st6 st14">Stronger wheel</text>
	</g>
	<line class="st15" x1="1344.1" y1="392.1" x2="1367.5" y2="392.1"/>
	<line class="st15" x1="1209.6" y1="378.7" x2="1232.9" y2="378.7"/>
</g>
</svg>
