<?xml version="1.0" encoding="utf-8"?>
<!-- Generator: Adobe Illustrator 19.1.0, SVG Export Plug-In . SVG Version: 6.00 Build 0)  -->
<svg version="1.1" id="path_container" xmlns="http://www.w3.org/2000/svg" xmlns:xlink="http://www.w3.org/1999/xlink" x="0px"
	 y="0px" viewBox="654 -2680 1920 6152" style="enable-background:new 654 -2680 1920 6152;" xml:space="preserve">
<style type="text/css">
	.st0{fill:none;stroke:#999999;stroke-width:2;stroke-linecap:round;stroke-linejoin:round;stroke-dasharray:1,5.6693;}
	.st1{font-family:'Roboto-Bold';}
	.st2{font-size:18px;}
	.st3{font-family:'Roboto-Light';}
	.st4{fill:none;stroke:#000000;stroke-width:1.4173;stroke-linecap:round;stroke-linejoin:round;}
	.st5{fill:none;}
	.st6{font-family:'Roboto-Regular';}
	.st7{font-family:'Roboto-BoldItalic';}
	.st8{opacity:0.5;}
	.st9{opacity:0.1091;fill:#883AB5;enable-background:new    ;}
	.st10{fill:#D7DED5;}
	.st11{fill:#144C5B;}
	.st12{font-family:'ZillaSlab-Medium';}
	.st13{font-size:36px;}
	.st14{font-size:14px;}
	.st15{fill:none;stroke:#000000;stroke-width:0.5;stroke-miterlimit:10;}
</style>
<style>@import url('../svg_styles.css')</style>
<g id="content">
	<line class="st0" x1="680.7" y1="2467.5" x2="2534.3" y2="2467.5"/>
	<line class="st0" x1="680.7" y1="709.6" x2="2534.3" y2="709.6"/>
	<line class="st0" x1="680.7" y1="-369.5" x2="2534.3" y2="-369.5"/>
	<line class="st0" x1="680.7" y1="1513.9" x2="2534.3" y2="1513.9"/>
	<text transform="matrix(1 0 0 1 732.09 -1492.0322)" class="st1 st2">Start: </text>
	<text transform="matrix(1 0 0 1 781.19 -1492.0322)" class="st3 st2">2:40 pm</text>
	<line class="st0" x1="683.7" y1="-1514.9" x2="2537.3" y2="-1514.9"/>
	<text transform="matrix(1 0 0 1 730.7028 -336.8735)" class="st1 st2">1 Mile: </text>
	<text transform="matrix(1 0 0 1 790.3028 -336.8735)" class="st3 st2">2:48 pm</text>
	<text transform="matrix(1 0 0 1 730.7028 733.5684)" class="st1 st2">2 Miles: </text>
	<text transform="matrix(1 0 0 1 799.5028 733.5684)" class="st3 st2">3:05 pm</text>
	<text transform="matrix(1 0 0 1 730.7028 1537.4014)" class="st1 st2">3 Miles: </text>
	<text transform="matrix(1 0 0 1 799.5028 1537.4014)" class="st3 st2">4:33 pm</text>
	<text transform="matrix(1 0 0 1 730.7028 2492.333)" class="st1 st2">4 Miles: </text>
	<text transform="matrix(1 0 0 1 799.5028 2492.333)" class="st3 st2">6:10 pm</text>
	<path id="path" class="st4" d="M1766.5-1513.6c-1,0.3-1.9,0.6-2.9,0.9c-3.4,1-6.9,2.1-10.2,3.1c-3.3,1-6.4,1.9-10.2,3.1
		c-3.9,1.2-8.5,2.5-10.2,3.1c-1.7,0.5-0.4,0.1-1.3,0.4s-3.7,1.1-4.9,1.5c-1.2,0.4-0.7,0.2-2.7,0.8c-2,0.6-6.4,1.9-10.2,3.1
		c-3.8,1.1-6.9,2.1-10.2,3.1c-3.3,1-6.8,2.1-10.2,3.1s-6.8,2.1-10.2,3.1c-3.4,1-6.8,2.1-10.2,3.1c-3.4,1-6.8,2.1-10.2,3.1
		c-3.5,1-7,1.9-10.2,3.1c-3.2,1.2-6.1,2.6-7,5.3c-0.9,2.8,0.3,6.9,0.9,10.6c0.6,3.8,0.7,7.1,0.9,10.6c0.2,3.5,0.6,7.1,0.9,10.6
		c0.3,3.6,0.6,7.1,0.9,10.6s0.6,7.1,0.9,10.6c0.3,3.5,0.6,7.1,0.9,10.6s0.6,7.1,0.9,10.6c0.3,3.5,0.6,7.1,0.9,10.6
		c0.3,3.6,0.6,7.2,0.9,10.6c0.4,3.4,0.9,6.7,0.9,10.6c0.1,3.9-0.2,8.5-1.3,12.4s-3,7.3-4.9,10.4c-1.9,3.1-3.8,6.1-5.7,9
		c-1.9,3-3.9,6-5.8,9c-1.9,3-3.9,6-5.8,9c-1.9,3-3.9,6-5.8,9s-3.9,6-5.8,9c-1.9,3-3.9,6-5.8,9c-1.9,3-3.9,6-5.8,9
		c-1.9,3-3.9,6-5.8,9s-3.9,6-5.8,9c-1.9,3-3.9,6-5.8,9c-1.9,3-3.9,6-5.8,9c-1.9,3-3.8,6-5.8,9c-1.9,3-3.9,5.9-5.9,8.9
		s-3.9,5.9-5.9,8.9s-4,5.9-5.9,8.9c-2,3-4,5.9-5.9,8.9c-2,3-4,5.9-5.9,8.9c-2,3-4,5.9-5.9,8.9c-2,3-4,5.9-5.9,8.9
		c-2,3-3.9,6-5.8,8.9c-1.9,3-3.9,6-5.8,9s-3.9,6-5.8,9c-1.9,3-3.9,6-5.8,9c-1.9,3-3.9,6-5.8,9c-1.9,3-3.9,6-5.8,9s-3.9,6-5.8,9
		c-1.9,3-3.9,6-5.9,8.9c-2,3-3.9,5.9-5.9,8.9s-3.9,5.9-5.9,8.9s-3.9,5.9-5.9,8.9s-3.9,6-5.9,8.9c-2,3-3.9,5.9-5.9,8.9
		s-3.9,6-5.8,8.9c-1.9,3-3.9,6-5.8,9c-1.9,3-3.9,6-5.8,9s-3.9,6-5.8,9c-1.9,3-3.9,6-5.8,9c-1.9,3-3.9,6-5.8,9c-1.9,3-3.9,6-5.8,9
		s-3.9,6-5.8,9c-1.9,3-3.9,6-5.9,8.9c-2,3-3.9,6-5.9,8.9c-2,3-3.9,6-5.9,8.9c-2,3-3.9,6-5.9,8.9s-3.9,6-5.9,8.9c-2,3-3.9,6-5.9,8.9
		c-1.9,3-3.9,6-5.8,9c-1.9,3-3.9,6-5.8,9c-1.9,3-3.9,6-5.8,9s-3.9,6-5.8,9c-1.9,3-3.8,6.1-5.8,9s-4,5.7-5.8,9
		c-1.8,3.3-3.5,7-3.1,10.8c0.4,3.8,2.9,7.7,5.1,10.9c2.3,3.2,4.4,5.7,6.8,8.2c2.4,2.5,5.1,4.8,4.8,7.7c-0.3,2.9-3.5,6.3-5.8,8.9
		s-3.5,4.5-5.3,7c-1.8,2.5-4.1,5.6-6.3,8.6c-2.1,3-4.1,5.8-6.2,8.7c-2,2.9-4.2,5.8-6.2,8.7c-2,2.9-3.8,5.8-6.2,8.7
		c-2.4,2.9-5.2,5.7-5.3,8.1c-0.1,2.5,2.6,4.6,5.9,5.4c3.2,0.8,7,0.4,10.7,0.2c3.6-0.1,7.1,0.1,10.7,0.2s7.1,0.2,10.7,0.2
		c3.6,0.1,7.1,0.1,10.7,0.2s7.1,0.2,10.7,0.2c3.6,0,7.1,0.1,10.7,0.2c3.6,0.1,7.1,0.1,10.7,0.2c3.6,0.1,7.1,0.1,10.7,0.2
		s7.1,0.1,10.7,0.2c3.6,0.1,7.1,0.1,10.7,0.2s7.1,0.1,10.7,0.2c3.6,0.1,7.1,0.1,10.7,0.2c3.5,0.1,7.1,0.2,10.7,0.2
		c3.6,0,7.3-0.1,10.7,0.2c3.3,0.3,6.3,1,8,3.5s2.1,6.6,2.4,10.4c0.3,3.8,0.5,7.1,0.5,10.6s-0.1,7.1-0.1,10.7
		c-0.1,3.6-0.1,7.1-0.1,10.7s-0.1,7.1-0.2,10.7c-0.1,3.6-0.1,7.1-0.2,10.7c-0.1,3.6-0.1,7.1-0.2,10.7c-0.1,3.6-0.1,7.1-0.1,10.7
		s-0.1,7.1-0.1,10.7s-0.1,7.1-0.1,10.7s0,7.1-0.1,10.7c0,3.6,0,7.1,0,10.7s0.1,7.1,0.1,10.7c0.1,3.6,0.1,7.1,0.2,10.7
		s0.2,7.1,0.4,10.7c0.1,3.6,0.3,7.1,0.5,10.7s0.4,7.1,0.7,10.7c0.2,3.6,0.5,7.1,0.8,10.6s0.6,7.1,0.9,10.6c0.3,3.5,0.6,7.1,1,10.6
		s0.7,7.1,1.1,10.6c0.4,3.5,0.7,7.1,1.1,10.6s0.7,7.1,1.1,10.6c0.4,3.5,0.8,7.1,1.2,10.6c0.4,3.5,0.8,7.1,1.2,10.6s0.8,7.1,1.2,10.6
		c0.4,3.5,0.8,7.1,1.2,10.6s0.8,7.1,1.2,10.6c0.4,3.5,0.8,7.1,1.3,10.6c0.4,3.5,0.9,7.1,1.3,10.6c0.4,3.5,0.9,7.1,1.3,10.6
		s0.9,7.1,1.3,10.6c0.4,3.5,0.9,7.1,1.3,10.6c0.4,3.5,0.9,7.1,1.4,10.6s0.9,7.1,1.4,10.6s0.9,7.1,1.4,10.6s0.9,7.1,1.4,10.6
		c0.4,2.9,0.8,5.7,1.2,8.6c3.1,32.8,6.9,65.3,13.4,97.7c0.8,4,1.7,8,2.5,12.1c1.2,5.4,2.7,10.6,3.7,16.1c1.7,9.1,2,18.3,2.4,27.5
		c0.6,12.1,1.2,24.1,1.5,36.2c0.1,2.7,0,5.4,0.4,8.1c0.3,2,1.1,3.4,2.6,4.7c1.5,1.3,3.3,2.1,5,3.1c3.4,2,6.8,3.9,10.1,6.1
		c1,0.7,2,1.3,3,2c0.6,0.4,1.2,0.8,1.8,1.2c0.6,0.4,1.3,0.7,1.9,1.3c1.2,1.3,2.4,2.6,3.6,3.9c1.8,2,3.5,4,5.1,6.1
		c2.1,2.6,3.9,5.4,5.6,8.3c3.4,5.9,3.7,14.7,4.3,21c1,9.9,2,19.8,2.6,29.7c0.4,7.1,0.7,14.2,1,21.3c0.3,9.6,0.6,19.2,0.7,28.9
		c0.1,9.1-0.9,18.1-0.6,27.1c0,1.3-0.1,2.5,0.2,3.8c0,0.1,0,0.1,0.1,0.2c0,0.1,0.1,0.2,0.2,0.3c0.2,0.2,0.4,0.2,0.6,0.2
		c0.8,0,1.4-0.3,2.2-0.4c1.3-0.3,2.7-0.5,4-0.8s2.5-0.8,3.9-0.5c2.1,0.4,5,3.4,6.4,4.5c2.1,1.7,4.1,3.4,6.3,5
		c1.1,0.8,2.1,1.8,3.1,2.8c1.2,1.1,2.2,0.9,3.6,0.4c2.1-0.8,4.2-1.2,6.4-1.7c3.6-0.9,7.2-1.8,10.9-2.7c1.8-0.5,3.6-0.9,5.4-1.4
		c1.8-0.5,3.5-1.3,5.6-0.8c1.9,0.4,4.1,1.9,3.8,4.2c-0.3,2.4-2.4,4.1-4.2,2c-1.9-2.3,0.8-2.4,2.9-2.4c1.9,0,5.4,0.2,4.6-2.6
		c-0.2-0.6-0.9-2.2-1.8-1.7c-0.9,0.6-0.9,2.5-0.7,3.3c0.5,2.4,4.1,6.1,5.5,7.8c0.7,0.8,1.4,1.6,2.3,2.3c0.8,0.6,1.6,1.1,2.4,1.7
		c1.7,1.3,2,2.8,2.2,4.8c0.2,2.3,0.2,4.5,0.1,6.8c-0.1,2.1-0.3,4.2-0.4,6.4c-0.1,0.7-0.1,1.3-0.2,2c-0.1,2.3,0.7,5.4-1.1,7.6
		c-1.6,1.9-4.6,2.8-6.7,3.2c-1.8,0.4-6.8,0.8-8.5,1.6c-2.4,1.1-1.8,4-1.6,5.9c0.3,2.7,0.8,5.5,0.8,8.2c0.1,2.8-0.1,5.5-0.2,8.2
		c-0.1,2.8,0.3,5.5,0.4,8.3c0.1,4.4-1,8.2-2.5,12.2c-1.5,3.9-3.6,7.5-5,11.5c-1.3,4-1.5,8.2-2.5,12.2c-1,4.1-1.7,8.2-1.9,12.3
		c-0.1,2.1-0.2,4.1,0.1,6.2c0.3,2.1,0.6,4.1,0.5,6.2c-0.2,5.4-0.8,7,3.2,11.3c4.2,4.5,4.8,4.1,7.9,9.6c2.1,3.7,4.1,7.1,4.2,11.6
		c0.1,2.2-0.3,4.1-1.6,6c-1.4,2-3.3,2.4-5.4,3c-2,0.6-3.3,1.5-4.2,3.5c-0.7,1.7-1.3,3.4-1.8,5.1c-0.6,1.7-0.9,3.4-0.6,5.2
		c0.1,1,0.5,3.1,1.9,3.1c1.4,0,2.4-1.8,2.8-2.9c0.7-2.1,0.8-3.8-0.1-5.8c-0.8-1.9-2.2-3.5-2.9-5.5c-0.6-1.7-0.7-3.6-2.6-4.8
		c-1.8-1.1-4-1.1-5.6-2.7c-1.3-1.4-1.8-4.1-0.7-5.8c1.2-1.8,4.1-1.5,5.8-1.2c1.6,0.3,4.2,1,5.1,2.8c0.9,1.7-0.3,4.5-0.3,6
		c-0.1,2.4,2.4,2.7,4,3.1c2.8,0.7,2.4,1.6,2.2,4.1c-0.3,2.6,1,4.5,1.8,6.7c0.9,2.3,0.8,4.8,1.2,7.2c0.5,2.5,1.8,4.4,3.1,6.5
		c2.6,4.2,4.4,8.6,5.5,13.4c1.3,5.9,0.3,8.8-1.2,14.3c-1.3,4.7-3.5,9-4.3,13.8c-1.2,6.7-1.4,7.6-3.7,14c-1.6,4.6-2.7,9.3-4.5,13.8
		c-2.4,6.2-3.4,7.2-4.3,13.8c-0.4,2.4-0.6,4.8-1,7.2c-0.5,2.4-1,4.7-1.2,7.2c-0.2,2.4-0.3,4.8-1.1,7.1c-0.8,2.3-1.7,4.5-2.2,7
		c-0.5,2.3-0.7,4.7-1,7.1c-0.4,2.6-1.3,5-1.9,7.5c-0.7,3,0.4,3.6,2.6,5.2c2.1,1.5,2.4,3.1,1.8,5.5c-1,3.4-3.2,5.8-4.9,8.7
		c-0.9,1.6-1.6,3-1.5,4.9c0.2,1.9,1.5,3,2.3,4.5c1.1,2-0.7,3.7-1.9,5c-1.5,1.6-3,3.3-4.7,4.7c-1.6,1.3-3.3,2.2-5.3,2.8
		c-1.7,0.5-3.3,0.8-4.7,2.1c-2.8,2.7-1.3,7.6,0.4,10.2c2,3.1,4.8,5.3,3.5,9.8c-0.6,1.8-1.5,3.5-2.3,5.2s-1.5,3.5-1.9,5.3
		c-0.9,3.5-1.3,7-1.5,10.6c-0.5,8.1-0.3,13.4-3.4,21.2s-5.5,10.9-7,19.5c-0.6,3.4-1.1,6.9-2,10.2c-1.2,4.4-3.2,8.4-4.8,12.6
		c-1.4,3.4-3,8.4,1.4,10.7c4.8,2.6,5.4-2.4,6.9-5.5c0.7-1.5,1.4-2.7,3.4-2.2c2.3,0.6,4.7,2.8,6.3,4.2c5.7,5,10.8,10.5,17,14.9
		c4.4,3.1,11.1,6.3,14.4,11.3c2.9,4.4,3.5,7.8,6.7,12.1c2.2,2.9,4.8,5.4,6.9,8.4c2.1,2.9,4.6,7.6,4.7,11.4c0,2-0.5,3.4-2.2,4.5
		c-1.6,1.1-3.5,1.7-5.1,3c-3.2,2.5-4.7,5.8-6.5,9.2c-1.8,3.7-4,7.2-6.3,10.6c-2.1,3.2-4.2,6.1-4.4,10.3c-0.1,4.2,2.2,7.2,3.6,10.7
		c1.6,4.2,1.3,7.3-1.2,11c-1.5,2.2-4.6,5.4-7.8,4.3c-2.8-1-5.2-5-6.7-7c-5.8-7.8-10.5-9.1-18.6-13c-5.5-2.7-15.5-8.6-22.8-6.8
		c-4,1-6.1,3.8-8.8,6.3c-3.1,2.9-5.8,4.3-10.2,2.8c-4.3-1.4-7.8-4.2-11.9-5.9c-4.3-1.8-4.8-0.1-5.3,3.9c-0.8,5.1-1.7,6.8-6.3,9.4
		c-2.5,1.4-7,2.9-7.1,6.9c0,2,0.5,3.8,0.9,5.6s0.7,3.5,0.1,5.4c-1.1,3.7-5.2,6-8.1,7.5c-10.6,5.6-15.9,6.9-24,16.6
		c-6.2,7.5-10,15.5-12.3,24.9c-1.8,7.6-1.6,15-0.8,22.7c0.4,3.5,0.8,7.1,1,10.6c0.2,3.7,0.3,7.3,0.5,11c0.1,2.3,0.3,4.6,0.7,6.9
		c2.1,14,9.4,26.3,20.4,37.7c8,8.3,17.9,16.1,27.6,14.5c4.7-0.8,9.3-3.8,14.4-4.3c7.1-0.7,15.2,3.4,20.8,2.1
		c6.1-1.4,9.3-9.2,14.8-17.5c5-7.6,11.9-15.6,16.5-12.8c3.2,1.9,5.2,8.9,9.2,11.1c3.6,2,8.8,0.1,13.1,0.6c4.7,0.5,8.3,3.9,12.7,6.9
		c11.5,8,28.7,14,28.4,24.7c-0.1,3.1-1.7,6.7-0.5,11c1.4,5,6.5,11,4,11.9c-0.9,0.4-3,0-4.9,0c-6.6,0-10.6,5.1-13.6,10.4
		c-6.6,11.7-8,24.7-15.2,34.7c-3.6,4.9-8.6,9.1-12.6,13.8c-11.7,13.4-15.8,30.9-22.1,48.9c-7.1,20.3-16.9,41.3-11.8,59.2
		c3.8,13.2,15.7,24.6,29.6,33c8.7,5.3,18.2,9.4,21.8,17.2c2.3,5,2.2,11.5,4.3,17c4,10.3,15.6,17.3,27.6,17.6
		c10.4,0.2,21.2-4.5,28.2,2.4c4.5,4.5,7.5,13.9,11.9,13.9c2.9,0,6.4-4,10-6.5c4-2.7,8.1-3.6,12.3-4.2c5.1-0.8,10.4-1.2,15.5-0.7
		c9,0.9,17.1,4.7,26.3,7.5c5.6,1.7,11.6,3,15.2,6.8c2.3,2.4,3.7,5.7,5.4,8.9c1.8,3.3,4,6.4,4.7,9.5c1.2,5.8-2.5,11.7-4.7,18.7
		c-1.2,3.8-1.9,7.8-4.1,8.7c-2.8,1.2-7.9-2.7-12.3-3.4c-6.5-1-11.7,4.6-15.9,10.4c-3.8,5.2-6.8,10.6-6.3,15.9
		c0.4,5.1,4.1,10,7.5,14.8c7,9.5,13.3,18,19.9,26.6c3.6,4.6,7.2,9.3,10.9,14.1c7.4,9.8,15,20.4,17.1,31.7c1.7,9.5-0.5,19.5,0.1,30.5
		c0.4,7.3,2,15-1.5,20c-2.2,3-6.2,5-10.3,6.5c-9.8,3.5-19.4,4-28.8,5.6c-13.1,2.2-25.9,6.6-38.9,11.4c-6.4,2.4-12.9,4.9-18.1,8.8
		c-6.4,4.8-11,11.9-15.8,18.8c-2.8,4.1-5.7,8.1-6.9,12.6c-2.2,8.3,1,18.4-0.6,26.2c-1.6,7.9-7.9,13.4-13.5,22.6
		c-2.6,4.2-5,9.3-7.8,9.3c-2.9,0-6.2-5.4-10-8c-2.6-1.7-5.5-2.1-8.2-2.8c-5.3-1.3-10.4-3.9-15.6-5.9c-11.7-4.4-24.5-5.8-35.1-12.4
		c-6.6-4.1-12.3-10.2-22.1-7.2c-6.3,1.9-14.3,7.7-11.7,9.4c1.4,0.9,5.6,0.7,7.4,2.2c2,1.6,1.3,5.1,0.7,8.4c-1.8,9.9-2.3,17.3-5.9,25
		c-2.6,5.4-6.7,10.9-6.9,16.6c-0.1,3.6,1.3,7.3,2.9,10.8c4.1,8.8,9.7,16.3,17.2,22.4c7.5,6,17,10.6,20.8,19.2c1.2,2.8,1.9,6,3.8,8.2
		c1.5,1.8,3.7,3,5.8,3.8c1.5,0.7,3,1.6,4.1,2.8c1.5,1.5,2.2,3.5,3.7,5.4c0.7,0.9,1.6,1.8,1.7,2.6c0.1,1.1-1.2,2.1-2.5,3.1
		c-0.5,0.4-1,0.8-1.5,0.6c-0.2-0.1-0.4-0.4-0.5-0.6c-0.3-0.6,0.3-0.9,0.8-1.3c2.1-1.3,3.9-3.2,5.6-2.8c0.5,0.1,1,0.5,1.5,0.9
		c1.1,1,2.1,2.5,3.2,4c0.6,0.8,1.1,1.6,1.7,2.3c0.9,1.2,1.8,2.5,2.7,3.7c0.3,0.5,0.7,0.9,1,1.4c7.5,11.5,22.2,23.6,31.4,33.1
		c5.4,5.5,10.5,11.2,15.9,16.7c5.4,5.4,10.9,10.7,16.4,15.9c11,10.6,21.7,21.4,32.8,32c5.5,5.3,11.2,10.3,16.9,15.4
		c6.7,5.9,13.4,12,20,18c29.8,27.3,59.8,54.3,88.2,83.1c8.5,8.6,16.7,17.4,25.1,26c6.9,7.2,13.9,14.3,20.8,21.6
		c6.5,6.9,17.4,18.4,20.8,28c2.8,7.7,0.1,13.4-2.9,20c-3,6.7-5.1,13.6-7.2,20.5c-2.2,7-4.6,14-7.2,20.9c-5,13.7-9.8,27.5-14.8,41.3
		c-4.9,13.7-9.6,27.6-14.5,41.3c-1.7,4.7-3.4,9.4-5,14.1c-1.8,5.1-3.3,10.3-5.6,15.2c-2.8,5.9-6.4,10.5-11.6,14.4
		c-6.8,5.1-14.4,8.2-22.2,11.1c-18.3,6.9-37.1,11.8-55.6,17.7c-17.3,5.4-34.3,11.3-51,18.4c-8,3.4-15.8,7.3-23.7,11
		c-6.9,3.3-13.9,6.4-21,9.5c-14.1,6.2-28.2,12.2-42.2,18.3c-28.2,12.2-56.3,24.3-83.7,38.2c-27.9,14.2-54.7,30-81.6,45.9
		c-26.9,15.9-53.6,32-80.2,48.3c-29.6,18.2-59.3,36.3-87.9,56.1c-14.3,9.9-28.3,20.1-41.9,31c-3.4,2.7-6.7,5.5-10.1,8.3
		c-2,1.7-3.7,3.6-5.4,5.6c-2.2,2.6-4.2,5.3-6,8.1c-3.3,5.2-6.1,10.7-8.5,16.4c-2.7,6.5-5.3,13.1-7,20c-1.1,4.5-1.8,9.1-2.2,13.7
		c-0.5,5.4-0.5,10.7,0.4,16.1c1.1,7,3.4,13.5,5.4,20.2c2.8,9.5,5.6,18.9,7.9,28.6c2.4,10.4,4.8,20.8,7.1,31.2
		c0.7,3.3,2.8,10.4,6.6,12.3c3.9,1.9,8.5-0.7,11.5-2.4c0.3-0.2,0.5-0.3,0.8-0.5c0.2-0.2,0.4-0.3,0.6-0.6c1.9-2.1,0.9-4.1,0.6-6.3
		c-1.5-9.4-3.3-13.9,0.5-19.1c3.8-5.1,13.2-10.9,20.2-14c6.9-3,11.4-3.3,16.9,0.1s12,10.6,18.2,16.8c6.2,6.2,12.1,11.4,18.1,16.9
		s12.1,11.2,18.1,16.9c6.1,5.7,12.1,11.2,18.2,16.8c6.1,5.6,12.2,11.2,18.2,16.8s12.2,11.1,18.3,16.7s12.2,11.1,18.2,16.8
		c6,5.7,11.9,11.5,17.7,17.3s11.7,11.7,17.5,17.5s11.7,11.6,17.6,17.4c6,5.8,12.1,11.7,19,15.7c2.1,1.2,4.2,2.2,6.4,3.1"/>
	<path id="bkg_path" class="st4" d="M1766.5-1513.6c-1,0.3-1.9,0.6-2.9,0.9c-3.4,1-6.9,2.1-10.2,3.1c-3.3,1-6.4,1.9-10.2,3.1
		c-3.9,1.2-8.5,2.5-10.2,3.1c-1.7,0.5-0.4,0.1-1.3,0.4s-3.7,1.1-4.9,1.5c-1.2,0.4-0.7,0.2-2.7,0.8c-2,0.6-6.4,1.9-10.2,3.1
		c-3.8,1.1-6.9,2.1-10.2,3.1c-3.3,1-6.8,2.1-10.2,3.1s-6.8,2.1-10.2,3.1c-3.4,1-6.8,2.1-10.2,3.1c-3.4,1-6.8,2.1-10.2,3.1
		c-3.5,1-7,1.9-10.2,3.1c-3.2,1.2-6.1,2.6-7,5.3c-0.9,2.8,0.3,6.9,0.9,10.6c0.6,3.8,0.7,7.1,0.9,10.6c0.2,3.5,0.6,7.1,0.9,10.6
		c0.3,3.6,0.6,7.1,0.9,10.6s0.6,7.1,0.9,10.6c0.3,3.5,0.6,7.1,0.9,10.6s0.6,7.1,0.9,10.6c0.3,3.5,0.6,7.1,0.9,10.6
		c0.3,3.6,0.6,7.2,0.9,10.6c0.4,3.4,0.9,6.7,0.9,10.6c0.1,3.9-0.2,8.5-1.3,12.4s-3,7.3-4.9,10.4c-1.9,3.1-3.8,6.1-5.7,9
		c-1.9,3-3.9,6-5.8,9c-1.9,3-3.9,6-5.8,9c-1.9,3-3.9,6-5.8,9s-3.9,6-5.8,9c-1.9,3-3.9,6-5.8,9c-1.9,3-3.9,6-5.8,9
		c-1.9,3-3.9,6-5.8,9s-3.9,6-5.8,9c-1.9,3-3.9,6-5.8,9c-1.9,3-3.9,6-5.8,9c-1.9,3-3.8,6-5.8,9c-1.9,3-3.9,5.9-5.9,8.9
		s-3.9,5.9-5.9,8.9s-4,5.9-5.9,8.9c-2,3-4,5.9-5.9,8.9c-2,3-4,5.9-5.9,8.9c-2,3-4,5.9-5.9,8.9c-2,3-4,5.9-5.9,8.9
		c-2,3-3.9,6-5.8,8.9c-1.9,3-3.9,6-5.8,9s-3.9,6-5.8,9c-1.9,3-3.9,6-5.8,9c-1.9,3-3.9,6-5.8,9c-1.9,3-3.9,6-5.8,9s-3.9,6-5.8,9
		c-1.9,3-3.9,6-5.9,8.9c-2,3-3.9,5.9-5.9,8.9s-3.9,5.9-5.9,8.9s-3.9,5.9-5.9,8.9s-3.9,6-5.9,8.9c-2,3-3.9,5.9-5.9,8.9
		s-3.9,6-5.8,8.9c-1.9,3-3.9,6-5.8,9c-1.9,3-3.9,6-5.8,9s-3.9,6-5.8,9c-1.9,3-3.9,6-5.8,9c-1.9,3-3.9,6-5.8,9c-1.9,3-3.9,6-5.8,9
		s-3.9,6-5.8,9c-1.9,3-3.9,6-5.9,8.9c-2,3-3.9,6-5.9,8.9c-2,3-3.9,6-5.9,8.9c-2,3-3.9,6-5.9,8.9s-3.9,6-5.9,8.9c-2,3-3.9,6-5.9,8.9
		c-1.9,3-3.9,6-5.8,9c-1.9,3-3.9,6-5.8,9c-1.9,3-3.9,6-5.8,9s-3.9,6-5.8,9c-1.9,3-3.8,6.1-5.8,9s-4,5.7-5.8,9
		c-1.8,3.3-3.5,7-3.1,10.8c0.4,3.8,2.9,7.7,5.1,10.9c2.3,3.2,4.4,5.7,6.8,8.2c2.4,2.5,5.1,4.8,4.8,7.7c-0.3,2.9-3.5,6.3-5.8,8.9
		s-3.5,4.5-5.3,7c-1.8,2.5-4.1,5.6-6.3,8.6c-2.1,3-4.1,5.8-6.2,8.7c-2,2.9-4.2,5.8-6.2,8.7c-2,2.9-3.8,5.8-6.2,8.7
		c-2.4,2.9-5.2,5.7-5.3,8.1c-0.1,2.5,2.6,4.6,5.9,5.4c3.2,0.8,7,0.4,10.7,0.2c3.6-0.1,7.1,0.1,10.7,0.2s7.1,0.2,10.7,0.2
		c3.6,0.1,7.1,0.1,10.7,0.2s7.1,0.2,10.7,0.2c3.6,0,7.1,0.1,10.7,0.2c3.6,0.1,7.1,0.1,10.7,0.2c3.6,0.1,7.1,0.1,10.7,0.2
		s7.1,0.1,10.7,0.2c3.6,0.1,7.1,0.1,10.7,0.2s7.1,0.1,10.7,0.2c3.6,0.1,7.1,0.1,10.7,0.2c3.5,0.1,7.1,0.2,10.7,0.2
		c3.6,0,7.3-0.1,10.7,0.2c3.3,0.3,6.3,1,8,3.5s2.1,6.6,2.4,10.4c0.3,3.8,0.5,7.1,0.5,10.6s-0.1,7.1-0.1,10.7
		c-0.1,3.6-0.1,7.1-0.1,10.7s-0.1,7.1-0.2,10.7c-0.1,3.6-0.1,7.1-0.2,10.7c-0.1,3.6-0.1,7.1-0.2,10.7c-0.1,3.6-0.1,7.1-0.1,10.7
		s-0.1,7.1-0.1,10.7s-0.1,7.1-0.1,10.7s0,7.1-0.1,10.7c0,3.6,0,7.1,0,10.7s0.1,7.1,0.1,10.7c0.1,3.6,0.1,7.1,0.2,10.7
		s0.2,7.1,0.4,10.7c0.1,3.6,0.3,7.1,0.5,10.7s0.4,7.1,0.7,10.7c0.2,3.6,0.5,7.1,0.8,10.6s0.6,7.1,0.9,10.6c0.3,3.5,0.6,7.1,1,10.6
		s0.7,7.1,1.1,10.6c0.4,3.5,0.7,7.1,1.1,10.6s0.7,7.1,1.1,10.6c0.4,3.5,0.8,7.1,1.2,10.6c0.4,3.5,0.8,7.1,1.2,10.6s0.8,7.1,1.2,10.6
		c0.4,3.5,0.8,7.1,1.2,10.6s0.8,7.1,1.2,10.6c0.4,3.5,0.8,7.1,1.3,10.6c0.4,3.5,0.9,7.1,1.3,10.6c0.4,3.5,0.9,7.1,1.3,10.6
		s0.9,7.1,1.3,10.6c0.4,3.5,0.9,7.1,1.3,10.6c0.4,3.5,0.9,7.1,1.4,10.6s0.9,7.1,1.4,10.6s0.9,7.1,1.4,10.6s0.9,7.1,1.4,10.6
		c0.4,2.9,0.8,5.7,1.2,8.6c3.1,32.8,6.9,65.3,13.4,97.7c0.8,4,1.7,8,2.5,12.1c1.2,5.4,2.7,10.6,3.7,16.1c1.7,9.1,2,18.3,2.4,27.5
		c0.6,12.1,1.2,24.1,1.5,36.2c0.1,2.7,0,5.4,0.4,8.1c0.3,2,1.1,3.4,2.6,4.7c1.5,1.3,3.3,2.1,5,3.1c3.4,2,6.8,3.9,10.1,6.1
		c1,0.7,2,1.3,3,2c0.6,0.4,1.2,0.8,1.8,1.2c0.6,0.4,1.3,0.7,1.9,1.3c1.2,1.3,2.4,2.6,3.6,3.9c1.8,2,3.5,4,5.1,6.1
		c2.1,2.6,3.9,5.4,5.6,8.3c3.4,5.9,3.7,14.7,4.3,21c1,9.9,2,19.8,2.6,29.7c0.4,7.1,0.7,14.2,1,21.3c0.3,9.6,0.6,19.2,0.7,28.9
		c0.1,9.1-0.9,18.1-0.6,27.1c0,1.3-0.1,2.5,0.2,3.8c0,0.1,0,0.1,0.1,0.2c0,0.1,0.1,0.2,0.2,0.3c0.2,0.2,0.4,0.2,0.6,0.2
		c0.8,0,1.4-0.3,2.2-0.4c1.3-0.3,2.7-0.5,4-0.8s2.5-0.8,3.9-0.5c2.1,0.4,5,3.4,6.4,4.5c2.1,1.7,4.1,3.4,6.3,5
		c1.1,0.8,2.1,1.8,3.1,2.8c1.2,1.1,2.2,0.9,3.6,0.4c2.1-0.8,4.2-1.2,6.4-1.7c3.6-0.9,7.2-1.8,10.9-2.7c1.8-0.5,3.6-0.9,5.4-1.4
		c1.8-0.5,3.5-1.3,5.6-0.8c1.9,0.4,4.1,1.9,3.8,4.2c-0.3,2.4-2.4,4.1-4.2,2c-1.9-2.3,0.8-2.4,2.9-2.4c1.9,0,5.4,0.2,4.6-2.6
		c-0.2-0.6-0.9-2.2-1.8-1.7c-0.9,0.6-0.9,2.5-0.7,3.3c0.5,2.4,4.1,6.1,5.5,7.8c0.7,0.8,1.4,1.6,2.3,2.3c0.8,0.6,1.6,1.1,2.4,1.7
		c1.7,1.3,2,2.8,2.2,4.8c0.2,2.3,0.2,4.5,0.1,6.8c-0.1,2.1-0.3,4.2-0.4,6.4c-0.1,0.7-0.1,1.3-0.2,2c-0.1,2.3,0.7,5.4-1.1,7.6
		c-1.6,1.9-4.6,2.8-6.7,3.2c-1.8,0.4-6.8,0.8-8.5,1.6c-2.4,1.1-1.8,4-1.6,5.9c0.3,2.7,0.8,5.5,0.8,8.2c0.1,2.8-0.1,5.5-0.2,8.2
		c-0.1,2.8,0.3,5.5,0.4,8.3c0.1,4.4-1,8.2-2.5,12.2c-1.5,3.9-3.6,7.5-5,11.5c-1.3,4-1.5,8.2-2.5,12.2c-1,4.1-1.7,8.2-1.9,12.3
		c-0.1,2.1-0.2,4.1,0.1,6.2c0.3,2.1,0.6,4.1,0.5,6.2c-0.2,5.4-0.8,7,3.2,11.3c4.2,4.5,4.8,4.1,7.9,9.6c2.1,3.7,4.1,7.1,4.2,11.6
		c0.1,2.2-0.3,4.1-1.6,6c-1.4,2-3.3,2.4-5.4,3c-2,0.6-3.3,1.5-4.2,3.5c-0.7,1.7-1.3,3.4-1.8,5.1c-0.6,1.7-0.9,3.4-0.6,5.2
		c0.1,1,0.5,3.1,1.9,3.1c1.4,0,2.4-1.8,2.8-2.9c0.7-2.1,0.8-3.8-0.1-5.8c-0.8-1.9-2.2-3.5-2.9-5.5c-0.6-1.7-0.7-3.6-2.6-4.8
		c-1.8-1.1-4-1.1-5.6-2.7c-1.3-1.4-1.8-4.1-0.7-5.8c1.2-1.8,4.1-1.5,5.8-1.2c1.6,0.3,4.2,1,5.1,2.8c0.9,1.7-0.3,4.5-0.3,6
		c-0.1,2.4,2.4,2.7,4,3.1c2.8,0.7,2.4,1.6,2.2,4.1c-0.3,2.6,1,4.5,1.8,6.7c0.9,2.3,0.8,4.8,1.2,7.2c0.5,2.5,1.8,4.4,3.1,6.5
		c2.6,4.2,4.4,8.6,5.5,13.4c1.3,5.9,0.3,8.8-1.2,14.3c-1.3,4.7-3.5,9-4.3,13.8c-1.2,6.7-1.4,7.6-3.7,14c-1.6,4.6-2.7,9.3-4.5,13.8
		c-2.4,6.2-3.4,7.2-4.3,13.8c-0.4,2.4-0.6,4.8-1,7.2c-0.5,2.4-1,4.7-1.2,7.2c-0.2,2.4-0.3,4.8-1.1,7.1c-0.8,2.3-1.7,4.5-2.2,7
		c-0.5,2.3-0.7,4.7-1,7.1c-0.4,2.6-1.3,5-1.9,7.5c-0.7,3,0.4,3.6,2.6,5.2c2.1,1.5,2.4,3.1,1.8,5.5c-1,3.4-3.2,5.8-4.9,8.7
		c-0.9,1.6-1.6,3-1.5,4.9c0.2,1.9,1.5,3,2.3,4.5c1.1,2-0.7,3.7-1.9,5c-1.5,1.6-3,3.3-4.7,4.7c-1.6,1.3-3.3,2.2-5.3,2.8
		c-1.7,0.5-3.3,0.8-4.7,2.1c-2.8,2.7-1.3,7.6,0.4,10.2c2,3.1,4.8,5.3,3.5,9.8c-0.6,1.8-1.5,3.5-2.3,5.2s-1.5,3.5-1.9,5.3
		c-0.9,3.5-1.3,7-1.5,10.6c-0.5,8.1-0.3,13.4-3.4,21.2s-5.5,10.9-7,19.5c-0.6,3.4-1.1,6.9-2,10.2c-1.2,4.4-3.2,8.4-4.8,12.6
		c-1.4,3.4-3,8.4,1.4,10.7c4.8,2.6,5.4-2.4,6.9-5.5c0.7-1.5,1.4-2.7,3.4-2.2c2.3,0.6,4.7,2.8,6.3,4.2c5.7,5,10.8,10.5,17,14.9
		c4.4,3.1,11.1,6.3,14.4,11.3c2.9,4.4,3.5,7.8,6.7,12.1c2.2,2.9,4.8,5.4,6.9,8.4c2.1,2.9,4.6,7.6,4.7,11.4c0,2-0.5,3.4-2.2,4.5
		c-1.6,1.1-3.5,1.7-5.1,3c-3.2,2.5-4.7,5.8-6.5,9.2c-1.8,3.7-4,7.2-6.3,10.6c-2.1,3.2-4.2,6.1-4.4,10.3c-0.1,4.2,2.2,7.2,3.6,10.7
		c1.6,4.2,1.3,7.3-1.2,11c-1.5,2.2-4.6,5.4-7.8,4.3c-2.8-1-5.2-5-6.7-7c-5.8-7.8-10.5-9.1-18.6-13c-5.5-2.7-15.5-8.6-22.8-6.8
		c-4,1-6.1,3.8-8.8,6.3c-3.1,2.9-5.8,4.3-10.2,2.8c-4.3-1.4-7.8-4.2-11.9-5.9c-4.3-1.8-4.8-0.1-5.3,3.9c-0.8,5.1-1.7,6.8-6.3,9.4
		c-2.5,1.4-7,2.9-7.1,6.9c0,2,0.5,3.8,0.9,5.6s0.7,3.5,0.1,5.4c-1.1,3.7-5.2,6-8.1,7.5c-10.6,5.6-15.9,6.9-24,16.6
		c-6.2,7.5-10,15.5-12.3,24.9c-1.8,7.6-1.6,15-0.8,22.7c0.4,3.5,0.8,7.1,1,10.6c0.2,3.7,0.3,7.3,0.5,11c0.1,2.3,0.3,4.6,0.7,6.9
		c2.1,14,9.4,26.3,20.4,37.7c8,8.3,17.9,16.1,27.6,14.5c4.7-0.8,9.3-3.8,14.4-4.3c7.1-0.7,15.2,3.4,20.8,2.1
		c6.1-1.4,9.3-9.2,14.8-17.5c5-7.6,11.9-15.6,16.5-12.8c3.2,1.9,5.2,8.9,9.2,11.1c3.6,2,8.8,0.1,13.1,0.6c4.7,0.5,8.3,3.9,12.7,6.9
		c11.5,8,28.7,14,28.4,24.7c-0.1,3.1-1.7,6.7-0.5,11c1.4,5,6.5,11,4,11.9c-0.9,0.4-3,0-4.9,0c-6.6,0-10.6,5.1-13.6,10.4
		c-6.6,11.7-8,24.7-15.2,34.7c-3.6,4.9-8.6,9.1-12.6,13.8c-11.7,13.4-15.8,30.9-22.1,48.9c-7.1,20.3-16.9,41.3-11.8,59.2
		c3.8,13.2,15.7,24.6,29.6,33c8.7,5.3,18.2,9.4,21.8,17.2c2.3,5,2.2,11.5,4.3,17c4,10.3,15.6,17.3,27.6,17.6
		c10.4,0.2,21.2-4.5,28.2,2.4c4.5,4.5,7.5,13.9,11.9,13.9c2.9,0,6.4-4,10-6.5c4-2.7,8.1-3.6,12.3-4.2c5.1-0.8,10.4-1.2,15.5-0.7
		c9,0.9,17.1,4.7,26.3,7.5c5.6,1.7,11.6,3,15.2,6.8c2.3,2.4,3.7,5.7,5.4,8.9c1.8,3.3,4,6.4,4.7,9.5c1.2,5.8-2.5,11.7-4.7,18.7
		c-1.2,3.8-1.9,7.8-4.1,8.7c-2.8,1.2-7.9-2.7-12.3-3.4c-6.5-1-11.7,4.6-15.9,10.4c-3.8,5.2-6.8,10.6-6.3,15.9
		c0.4,5.1,4.1,10,7.5,14.8c7,9.5,13.3,18,19.9,26.6c3.6,4.6,7.2,9.3,10.9,14.1c7.4,9.8,15,20.4,17.1,31.7c1.7,9.5-0.5,19.5,0.1,30.5
		c0.4,7.3,2,15-1.5,20c-2.2,3-6.2,5-10.3,6.5c-9.8,3.5-19.4,4-28.8,5.6c-13.1,2.2-25.9,6.6-38.9,11.4c-6.4,2.4-12.9,4.9-18.1,8.8
		c-6.4,4.8-11,11.9-15.8,18.8c-2.8,4.1-5.7,8.1-6.9,12.6c-2.2,8.3,1,18.4-0.6,26.2c-1.6,7.9-7.9,13.4-13.5,22.6
		c-2.6,4.2-5,9.3-7.8,9.3c-2.9,0-6.2-5.4-10-8c-2.6-1.7-5.5-2.1-8.2-2.8c-5.3-1.3-10.4-3.9-15.6-5.9c-11.7-4.4-24.5-5.8-35.1-12.4
		c-6.6-4.1-12.3-10.2-22.1-7.2c-6.3,1.9-14.3,7.7-11.7,9.4c1.4,0.9,5.6,0.7,7.4,2.2c2,1.6,1.3,5.1,0.7,8.4c-1.8,9.9-2.3,17.3-5.9,25
		c-2.6,5.4-6.7,10.9-6.9,16.6c-0.1,3.6,1.3,7.3,2.9,10.8c4.1,8.8,9.7,16.3,17.2,22.4c7.5,6,17,10.6,20.8,19.2c1.2,2.8,1.9,6,3.8,8.2
		c1.5,1.8,3.7,3,5.8,3.8c1.5,0.7,3,1.6,4.1,2.8c1.5,1.5,2.2,3.5,3.7,5.4c0.7,0.9,1.6,1.8,1.7,2.6c0.1,1.1-1.2,2.1-2.5,3.1
		c-0.5,0.4-1,0.8-1.5,0.6c-0.2-0.1-0.4-0.4-0.5-0.6c-0.3-0.6,0.3-0.9,0.8-1.3c2.1-1.3,3.9-3.2,5.6-2.8c0.5,0.1,1,0.5,1.5,0.9
		c1.1,1,2.1,2.5,3.2,4c0.6,0.8,1.1,1.6,1.7,2.3c0.9,1.2,1.8,2.5,2.7,3.7c0.3,0.5,0.7,0.9,1,1.4c7.5,11.5,22.2,23.6,31.4,33.1
		c5.4,5.5,10.5,11.2,15.9,16.7c5.4,5.4,10.9,10.7,16.4,15.9c11,10.6,21.7,21.4,32.8,32c5.5,5.3,11.2,10.3,16.9,15.4
		c6.7,5.9,13.4,12,20,18c29.8,27.3,59.8,54.3,88.2,83.1c8.5,8.6,16.7,17.4,25.1,26c6.9,7.2,13.9,14.3,20.8,21.6
		c6.5,6.9,17.4,18.4,20.8,28c2.8,7.7,0.1,13.4-2.9,20c-3,6.7-5.1,13.6-7.2,20.5c-2.2,7-4.6,14-7.2,20.9c-5,13.7-9.8,27.5-14.8,41.3
		c-4.9,13.7-9.6,27.6-14.5,41.3c-1.7,4.7-3.4,9.4-5,14.1c-1.8,5.1-3.3,10.3-5.6,15.2c-2.8,5.9-6.4,10.5-11.6,14.4
		c-6.8,5.1-14.4,8.2-22.2,11.1c-18.3,6.9-37.1,11.8-55.6,17.7c-17.3,5.4-34.3,11.3-51,18.4c-8,3.4-15.8,7.3-23.7,11
		c-6.9,3.3-13.9,6.4-21,9.5c-14.1,6.2-28.2,12.2-42.2,18.3c-28.2,12.2-56.3,24.3-83.7,38.2c-27.9,14.2-54.7,30-81.6,45.9
		c-26.9,15.9-53.6,32-80.2,48.3c-29.6,18.2-59.3,36.3-87.9,56.1c-14.3,9.9-28.3,20.1-41.9,31c-3.4,2.7-6.7,5.5-10.1,8.3
		c-2,1.7-3.7,3.6-5.4,5.6c-2.2,2.6-4.2,5.3-6,8.1c-3.3,5.2-6.1,10.7-8.5,16.4c-2.7,6.5-5.3,13.1-7,20c-1.1,4.5-1.8,9.1-2.2,13.7
		c-0.5,5.4-0.5,10.7,0.4,16.1c1.1,7,3.4,13.5,5.4,20.2c2.8,9.5,5.6,18.9,7.9,28.6c2.4,10.4,4.8,20.8,7.1,31.2
		c0.7,3.3,2.8,10.4,6.6,12.3c3.9,1.9,8.5-0.7,11.5-2.4c0.3-0.2,0.5-0.3,0.8-0.5c0.2-0.2,0.4-0.3,0.6-0.6c1.9-2.1,0.9-4.1,0.6-6.3
		c-1.5-9.4-3.3-13.9,0.5-19.1c3.8-5.1,13.2-10.9,20.2-14c6.9-3,11.4-3.3,16.9,0.1s12,10.6,18.2,16.8c6.2,6.2,12.1,11.4,18.1,16.9
		s12.1,11.2,18.1,16.9c6.1,5.7,12.1,11.2,18.2,16.8c6.1,5.6,12.2,11.2,18.2,16.8s12.2,11.1,18.3,16.7s12.2,11.1,18.2,16.8
		c6,5.7,11.9,11.5,17.7,17.3s11.7,11.7,17.5,17.5s11.7,11.6,17.6,17.4c6,5.8,12.1,11.7,19,15.7c2.1,1.2,4.2,2.2,6.4,3.1"/>
	<g>
		<rect x="1773.5" y="-1491.2" class="st5" width="269.3" height="126.9"/>
		<text transform="matrix(1 0 0 1 1773.5072 -1477.7183)" class="st6 st2">Venzen stops his car at a deli to </text>
		<text transform="matrix(1 0 0 1 1773.5072 -1456.1184)" class="st6 st2">get some cardboard boxes from </text>
		<text transform="matrix(1 0 0 1 1773.5072 -1434.5183)" class="st6 st2">a man who works there.</text>
	</g>
	<g>
		<rect x="1428.2" y="-871" class="st5" width="266.3" height="69.5"/>
		<text transform="matrix(1 0 0 1 1428.1838 -857.4708)" class="st6 st2">Venzen stops at another deli to </text>
		<text transform="matrix(1 0 0 1 1428.1838 -835.8708)" class="st6 st2">get cardboard boxes that the </text>
		<text transform="matrix(1 0 0 1 1428.1838 -814.2708)" class="st6 st2">owner keeps aside for him.</text>
	</g>
	<g>
		<rect x="1700.7" y="323.3" class="st5" width="464.8" height="43.5"/>
		<text transform="matrix(1 0 0 1 1700.6704 336.8369)" class="st6 st2">A latino guy fixing his car. He’s also a local at the park. “I </text>
		<text transform="matrix(1 0 0 1 1700.6704 358.4369)" class="st6 st2">told you!” Vincent scolds me because I shook his hands.</text>
	</g>
	<g>
		<rect x="1726.8" y="527.1" class="st5" width="375.7" height="79.4"/>
		<text transform="matrix(1 0 0 1 1726.839 540.6497)" class="st6 st2">An Ecuadorian sells grilled meat and french </text>
		<text transform="matrix(1 0 0 1 1726.839 562.2496)" class="st6 st2">fries under a tent. He leaves his bag with them, </text>
		<text transform="matrix(1 0 0 1 1726.839 583.8496)" class="st6 st2">to collect empty bottles from their clients.</text>
	</g>
	<g>
		<rect x="1791.9" y="1324.6" class="st5" width="344.6" height="51.7"/>
		<text transform="matrix(1 0 0 1 1791.9274 1338.1047)" class="st6 st2">Two cops patrol the park. Venzen greets </text>
		<text transform="matrix(1 0 0 1 1791.9274 1359.7048)" class="st6 st2">them and thanks them for their work.</text>
	</g>
	<g>
		<rect x="1218" y="1579.1" class="st5" width="387.9" height="68.8"/>
		<text transform="matrix(1 0 0 1 1238.5759 1592.6409)" class="st6 st2">While walking back to his car, he bumps into a </text>
		<text transform="matrix(1 0 0 1 1242.276 1614.241)" class="st6 st2">park ranger. They chat like they’re colleagues.</text>
	</g>
	<g>
		<rect x="1213.1" y="620.7" class="st5" width="253.6" height="116.1"/>
		<text transform="matrix(1 0 0 1 1217.9644 634.2039)" class="st6 st2">A group of young men sits on a </text>
		<text transform="matrix(1 0 0 1 1261.3645 655.8038)" class="st6 st2">bench watching a softball </text>
		<text transform="matrix(1 0 0 1 1260.7644 677.4038)" class="st6 st2">game and gives him three </text>
		<text transform="matrix(1 0 0 1 1245.3645 699.0039)" class="st6 st2">empty cans. Venzen says in </text>
		<text transform="matrix(1 0 0 1 1231.8645 720.6038)" class="st6 st2">this park they play for money.</text>
	</g>
	<g>
		<rect x="1210.1" y="834.5" class="st5" width="348.7" height="46.2"/>
		<text transform="matrix(1 0 0 1 1266.9656 848.0237)" class="st6 st2">Venzen chats with a young man who </text>
		<text transform="matrix(1 0 0 1 1216.0654 869.6238)" class="st6 st2">thanks him for help keeping the park clean.</text>
	</g>
	<g>
		<rect x="1681.6" y="610.5" class="st5" width="398.6" height="64.6"/>
		<text transform="matrix(1 0 0 1 1681.6189 624.0254)" class="st7 st2">“Completo?</text>
		<text transform="matrix(1 0 0 1 1774.3188 624.0254)" class="st6 st2">” A group of latino guy rush to finish </text>
		<text transform="matrix(1 0 0 1 1681.6189 645.6254)" class="st6 st2">their beers and give him four empty bottles. </text>
		<text transform="matrix(1 0 0 1 1681.6189 667.2253)" class="st6 st2">Venzen tries his best to speak Spanish.</text>
	</g>
	<g>
		<rect x="1756.2" y="818.6" class="st5" width="381.2" height="64.6"/>
		<text transform="matrix(1 0 0 1 1756.2035 832.1182)" class="st6 st2">A group of latino men eating grilled meat and </text>
		<text transform="matrix(1 0 0 1 1756.2035 853.7183)" class="st6 st2">drinking beer next to a temporary tent and a </text>
		<text transform="matrix(1 0 0 1 1756.2035 875.3181)" class="st6 st2">volleyball field give him two empty bottles.</text>
	</g>
	
		<image style="overflow:visible;enable-background:new    ;" width="123" height="150" xlink:href="../../img/venzen/Hand.png"  transform="matrix(0.3608 0 0 0.3608 1714.356 -1495.6505)">
	</image>
	
		<image style="overflow:visible;enable-background:new    ;" width="123" height="150" xlink:href="../../img/venzen/Hand.png"  transform="matrix(0.3608 0 0 0.3608 1368.0325 -875.403)">
	</image>
	
		<image style="overflow:visible;enable-background:new    ;" width="123" height="150" xlink:href="../../img/venzen/Hand.png"  transform="matrix(0.3608 0 0 0.3608 1640.5189 313.9046)">
	</image>
	
		<image style="overflow:visible;enable-background:new    ;" width="123" height="150" xlink:href="../../img/venzen/Hand.png"  transform="matrix(0.3608 0 0 0.3608 1666.6876 527.1124)">
	</image>
	
		<image style="overflow:visible;enable-background:new    ;" width="123" height="150" xlink:href="../../img/venzen/Hand.png"  transform="matrix(0.3608 0 0 0.3608 1731.776 1309.5674)">
	</image>
	
		<image style="overflow:visible;enable-background:new    ;" width="123" height="150" xlink:href="../../img/venzen/Hand.png"  transform="matrix(0.3608 0 0 0.3608 1619.7888 1565.103)">
	</image>
	
		<image style="overflow:visible;enable-background:new    ;" width="123" height="150" xlink:href="../../img/venzen/Hand.png"  transform="matrix(0.3608 0 0 0.3608 1476.4436 569.6929)">
	</image>
	
		<image style="overflow:visible;enable-background:new    ;" width="123" height="150" xlink:href="../../img/venzen/Hand.png"  transform="matrix(0.3608 0 0 0.3608 1539.6187 608.3184)">
	</image>
	
		<image style="overflow:visible;enable-background:new    ;" width="150" height="131" xlink:href="../../img/venzen/Cart.png"  transform="matrix(0.5175 0 0 0.5175 1725.7175 -1578.986)">
	</image>
	
		<image style="overflow:visible;enable-background:new    ;" width="150" height="106" xlink:href="../../img/venzen/Comment.png"  transform="matrix(0.409 0 0 0.409 1659.8063 153.289)">
	</image>
	
		<image style="overflow:visible;enable-background:new    ;" width="150" height="106" xlink:href="../../img/venzen/Comment.png"  transform="matrix(0.409 0 0 0.409 1514.7164 -393.0025)">
	</image>
	
		<image style="overflow:visible;enable-background:new    ;" width="150" height="106" xlink:href="../../img/venzen/Comment.png"  transform="matrix(0.409 0 0 0.409 1655.1344 -21.3148)">
	</image>
	
		<image style="overflow:visible;enable-background:new    ;" width="150" height="106" xlink:href="../../img/venzen/Comment.png"  transform="matrix(0.409 0 0 0.409 1501.8379 686.9911)">
	</image>
	
		<image style="overflow:visible;enable-background:new    ;" width="150" height="106" xlink:href="../../img/venzen/Comment.png"  transform="matrix(0.409 0 0 0.409 1658.2838 993.8644)">
	</image>
	
		<image style="overflow:visible;enable-background:new    ;" width="150" height="106" xlink:href="../../img/venzen/Comment.png"  transform="matrix(0.409 0 0 0.409 1628.4341 1468.3673)">
	</image>
	
		<image style="overflow:visible;enable-background:new    ;" width="150" height="106" xlink:href="../../img/venzen/Comment.png"  transform="matrix(0.409 0 0 0.409 1528.9221 375.8537)">
	</image>
	
		<image style="overflow:visible;enable-background:new    ;" width="150" height="106" xlink:href="../../img/venzen/Comment.png"  transform="matrix(0.409 0 0 0.409 1528.9221 458.0072)">
	</image>
	
		<image style="overflow:visible;enable-background:new    ;" width="59" height="150" xlink:href="../../img/venzen/Plastic.png"  transform="matrix(0.4006 0 0 0.4006 1565.3164 147.4803)">
	</image>
	
		<image style="overflow:visible;enable-background:new    ;" width="59" height="150" xlink:href="../../img/venzen/Plastic.png"  transform="matrix(0.4006 0 0 0.4006 1590.5415 147.4803)">
	</image>
	
		<image style="overflow:visible;enable-background:new    ;" width="59" height="150" xlink:href="../../img/venzen/Plastic.png"  transform="matrix(0.4006 0 0 0.4006 1631.8732 371.4703)">
	</image>
	
		<image style="overflow:visible;enable-background:new    ;" width="59" height="150" xlink:href="../../img/venzen/Plastic.png"  transform="matrix(0.4006 0 0 0.4006 1657.0983 371.4703)">
	</image>
	
		<image style="overflow:visible;enable-background:new    ;" width="59" height="150" xlink:href="../../img/venzen/Plastic.png"  transform="matrix(0.4006 0 0 0.4006 1789.8883 445.9498)">
	</image>
	
		<image style="overflow:visible;enable-background:new    ;" width="59" height="150" xlink:href="../../img/venzen/Plastic.png"  transform="matrix(0.4006 0 0 0.4006 1815.1133 445.9498)">
	</image>
	
		<image style="overflow:visible;enable-background:new    ;" width="59" height="150" xlink:href="../../img/venzen/Plastic.png"  transform="matrix(0.4006 0 0 0.4006 1815.7521 742.8809)">
	</image>
	
		<image style="overflow:visible;enable-background:new    ;" width="59" height="150" xlink:href="../../img/venzen/Plastic.png"  transform="matrix(0.4006 0 0 0.4006 1839.3212 742.8809)">
	</image>
	
		<image style="overflow:visible;enable-background:new    ;" width="59" height="150" xlink:href="../../img/venzen/Plastic.png"  transform="matrix(0.4006 0 0 0.4006 1482.8889 752.6004)">
	</image>
	
		<image style="overflow:visible;enable-background:new    ;" width="59" height="150" xlink:href="../../img/venzen/Plastic.png"  transform="matrix(0.4006 0 0 0.4006 1555.3164 303.1341)">
	</image>
	
		<image style="overflow:visible;enable-background:new    ;" width="59" height="150" xlink:href="../../img/venzen/Plastic.png"  transform="matrix(0.4006 0 0 0.4006 1580.5415 303.1341)">
	</image>
	
		<image style="overflow:visible;enable-background:new    ;" width="97" height="150" xlink:href="../../img/venzen/Can.png"  transform="matrix(0.24 0 0 0.24 1683.1205 392.0313)">
	</image>
	
		<image style="overflow:visible;enable-background:new    ;" width="97" height="150" xlink:href="../../img/venzen/Can.png"  transform="matrix(0.24 0 0 0.24 1706.4384 392.0313)">
	</image>
	
		<image style="overflow:visible;enable-background:new    ;" width="97" height="150" xlink:href="../../img/venzen/Can.png"  transform="matrix(0.24 0 0 0.24 1729.7561 392.0313)">
	</image>
	
		<image style="overflow:visible;enable-background:new    ;" width="97" height="150" xlink:href="../../img/venzen/Can.png"  transform="matrix(0.24 0 0 0.24 1401.3866 579.5735)">
	</image>
	
		<image style="overflow:visible;enable-background:new    ;" width="97" height="150" xlink:href="../../img/venzen/Can.png"  transform="matrix(0.24 0 0 0.24 1610.6672 1092.3455)">
	</image>
	
		<image style="overflow:visible;enable-background:new    ;" width="97" height="150" xlink:href="../../img/venzen/Can.png"  transform="matrix(0.24 0 0 0.24 1424.7043 579.5735)">
	</image>
	
		<image style="overflow:visible;enable-background:new    ;" width="97" height="150" xlink:href="../../img/venzen/Can.png"  transform="matrix(0.24 0 0 0.24 1448.0221 579.5735)">
	</image>
	
		<image style="overflow:visible;enable-background:new    ;" width="97" height="150" xlink:href="../../img/venzen/Can.png"  transform="matrix(0.24 0 0 0.24 1470.7542 1327.7036)">
	</image>
	
		<image style="overflow:visible;enable-background:new    ;" width="97" height="150" xlink:href="../../img/venzen/Can.png"  transform="matrix(0.24 0 0 0.24 1494.0718 1327.7036)">
	</image>
	
		<image style="overflow:visible;enable-background:new    ;" width="97" height="150" xlink:href="../../img/venzen/Can.png"  transform="matrix(0.24 0 0 0.24 1517.3896 1327.7036)">
	</image>
	
		<image style="overflow:visible;enable-background:new    ;" width="97" height="150" xlink:href="../../img/venzen/Can.png"  transform="matrix(0.24 0 0 0.24 1400.8008 1327.7036)">
	</image>
	
		<image style="overflow:visible;enable-background:new    ;" width="97" height="150" xlink:href="../../img/venzen/Can.png"  transform="matrix(0.24 0 0 0.24 1424.1185 1327.7036)">
	</image>
	
		<image style="overflow:visible;enable-background:new    ;" width="97" height="150" xlink:href="../../img/venzen/Can.png"  transform="matrix(0.24 0 0 0.24 1447.4363 1327.7036)">
	</image>
	
		<image style="overflow:visible;enable-background:new    ;" width="97" height="150" xlink:href="../../img/venzen/Can.png"  transform="matrix(0.24 0 0 0.24 1354.0798 1327.7036)">
	</image>
	
		<image style="overflow:visible;enable-background:new    ;" width="97" height="150" xlink:href="../../img/venzen/Can.png"  transform="matrix(0.24 0 0 0.24 1377.3976 1327.7036)">
	</image>
	
		<image style="overflow:visible;enable-background:new    ;" width="97" height="150" xlink:href="../../img/venzen/Can.png"  transform="matrix(0.24 0 0 0.24 1547.9575 417.8277)">
	</image>
	
		<image style="overflow:visible;enable-background:new    ;" width="97" height="150" xlink:href="../../img/venzen/Can.png"  transform="matrix(0.24 0 0 0.24 1658.3187 456.1704)">
	</image>
	
		<image style="overflow:visible;enable-background:new    ;" width="49" height="150" xlink:href="../../img/venzen/Glass.png"  transform="matrix(0.3916 0 0 0.3916 1633.8724 435.542)">
	</image>
	
		<image style="overflow:visible;enable-background:new    ;" width="49" height="150" xlink:href="../../img/venzen/Glass.png"  transform="matrix(0.3916 0 0 0.3916 1746.3562 446.6311)">
	</image>
	
		<image style="overflow:visible;enable-background:new    ;" width="49" height="150" xlink:href="../../img/venzen/Glass.png"  transform="matrix(0.3916 0 0 0.3916 1766.4948 446.6311)">
	</image>
	
		<image style="overflow:visible;enable-background:new    ;" width="59" height="150" xlink:href="../../img/venzen/Plastic.png"  transform="matrix(0.4006 0 0 0.4006 1411.5497 752.6004)">
	</image>
	
		<image style="overflow:visible;enable-background:new    ;" width="59" height="150" xlink:href="../../img/venzen/Plastic.png"  transform="matrix(0.4006 0 0 0.4006 1387.9807 752.6004)">
	</image>
	
		<image style="overflow:visible;enable-background:new    ;" width="59" height="150" xlink:href="../../img/venzen/Plastic.png"  transform="matrix(0.4006 0 0 0.4006 1253.0441 751.9056)">
	</image>
	
		<image style="overflow:visible;enable-background:new    ;" width="59" height="150" xlink:href="../../img/venzen/Plastic.png"  transform="matrix(0.4006 0 0 0.4006 1229.4751 751.9056)">
	</image>
	
		<image style="overflow:visible;enable-background:new    ;" width="59" height="150" xlink:href="../../img/venzen/Plastic.png"  transform="matrix(0.4006 0 0 0.4006 1205.9061 751.9056)">
	</image>
	
		<image style="overflow:visible;enable-background:new    ;" width="59" height="150" xlink:href="../../img/venzen/Plastic.png"  transform="matrix(0.4006 0 0 0.4006 1435.1187 752.6004)">
	</image>
	
		<image style="overflow:visible;enable-background:new    ;" width="49" height="150" xlink:href="../../img/venzen/Glass.png"  transform="matrix(0.3916 0 0 0.3916 1368.8016 753.2818)">
	</image>
	
		<image style="overflow:visible;enable-background:new    ;" width="59" height="150" xlink:href="../../img/venzen/Plastic.png"  transform="matrix(0.4006 0 0 0.4006 1892.8883 445.9498)">
	</image>
	
		<image style="overflow:visible;enable-background:new    ;" width="59" height="150" xlink:href="../../img/venzen/Plastic.png"  transform="matrix(0.4006 0 0 0.4006 1458.6876 752.6004)">
	</image>
	
		<image style="overflow:visible;enable-background:new    ;" width="59" height="150" xlink:href="../../img/venzen/Plastic.png"  transform="matrix(0.4006 0 0 0.4006 1529.7108 1428.0586)">
	</image>
	
		<image style="overflow:visible;enable-background:new    ;" width="59" height="150" xlink:href="../../img/venzen/Plastic.png"  transform="matrix(0.4006 0 0 0.4006 1459.0038 1428.0586)">
	</image>
	
		<image style="overflow:visible;enable-background:new    ;" width="59" height="150" xlink:href="../../img/venzen/Plastic.png"  transform="matrix(0.4006 0 0 0.4006 1435.2744 1428.0586)">
	</image>
	
		<image style="overflow:visible;enable-background:new    ;" width="59" height="150" xlink:href="../../img/venzen/Plastic.png"  transform="matrix(0.4006 0 0 0.4006 1482.5728 1428.0586)">
	</image>
	
		<image style="overflow:visible;enable-background:new    ;" width="59" height="150" xlink:href="../../img/venzen/Plastic.png"  transform="matrix(0.4006 0 0 0.4006 1506.1417 1428.0586)">
	</image>
	
		<image style="overflow:visible;enable-background:new    ;" width="59" height="150" xlink:href="../../img/venzen/Plastic.png"  transform="matrix(0.4006 0 0 0.4006 1411.7777 1428.0586)">
	</image>
	
		<image style="overflow:visible;enable-background:new    ;" width="59" height="150" xlink:href="../../img/venzen/Plastic.png"  transform="matrix(0.4006 0 0 0.4006 1340.9829 1428.0586)">
	</image>
	
		<image style="overflow:visible;enable-background:new    ;" width="59" height="150" xlink:href="../../img/venzen/Plastic.png"  transform="matrix(0.4006 0 0 0.4006 1316.7639 1428.0586)">
	</image>
	
		<image style="overflow:visible;enable-background:new    ;" width="59" height="150" xlink:href="../../img/venzen/Plastic.png"  transform="matrix(0.4006 0 0 0.4006 1293.1948 1428.0586)">
	</image>
	
		<image style="overflow:visible;enable-background:new    ;" width="59" height="150" xlink:href="../../img/venzen/Plastic.png"  transform="matrix(0.4006 0 0 0.4006 1364.5519 1428.0586)">
	</image>
	
		<image style="overflow:visible;enable-background:new    ;" width="59" height="150" xlink:href="../../img/venzen/Plastic.png"  transform="matrix(0.4006 0 0 0.4006 1388.1208 1428.0586)">
	</image>
	
		<image style="overflow:visible;enable-background:new    ;" width="49" height="150" xlink:href="../../img/venzen/Glass.png"  transform="matrix(0.3916 0 0 0.3916 1869.4948 446.6311)">
	</image>
	
		<image style="overflow:visible;enable-background:new    ;" width="49" height="150" xlink:href="../../img/venzen/Glass.png"  transform="matrix(0.3916 0 0 0.3916 1707.8729 446.6311)">
	</image>
	
		<image style="overflow:visible;enable-background:new    ;" width="49" height="150" xlink:href="../../img/venzen/Glass.png"  transform="matrix(0.3916 0 0 0.3916 1727.1146 446.6311)">
	</image>
	
		<image style="overflow:visible;enable-background:new    ;" width="49" height="150" xlink:href="../../img/venzen/Glass.png"  transform="matrix(0.3916 0 0 0.3916 1796.573 743.5621)">
	</image>
	
		<image style="overflow:visible;enable-background:new    ;" width="49" height="150" xlink:href="../../img/venzen/Glass.png"  transform="matrix(0.3916 0 0 0.3916 1758.0897 743.5621)">
	</image>
	
		<image style="overflow:visible;enable-background:new    ;" width="49" height="150" xlink:href="../../img/venzen/Glass.png"  transform="matrix(0.3916 0 0 0.3916 1777.3314 743.5621)">
	</image>
	
		<image style="overflow:visible;enable-background:new    ;" width="49" height="150" xlink:href="../../img/venzen/Glass.png"  transform="matrix(0.3916 0 0 0.3916 1718.7095 743.5621)">
	</image>
	
		<image style="overflow:visible;enable-background:new    ;" width="49" height="150" xlink:href="../../img/venzen/Glass.png"  transform="matrix(0.3916 0 0 0.3916 1738.8481 743.5621)">
	</image>
	
		<image style="overflow:visible;enable-background:new    ;" width="49" height="150" xlink:href="../../img/venzen/Glass.png"  transform="matrix(0.3916 0 0 0.3916 1680.2262 743.5621)">
	</image>
	
		<image style="overflow:visible;enable-background:new    ;" width="49" height="150" xlink:href="../../img/venzen/Glass.png"  transform="matrix(0.3916 0 0 0.3916 1699.4678 743.5621)">
	</image>
	
		<image style="overflow:visible;enable-background:new    ;" width="49" height="150" xlink:href="../../img/venzen/Glass.png"  transform="matrix(0.3916 0 0 0.3916 1524.985 1369.3201)">
	</image>
	
		<image style="overflow:visible;enable-background:new    ;" width="49" height="150" xlink:href="../../img/venzen/Glass.png"  transform="matrix(0.3916 0 0 0.3916 1486.5017 1369.3201)">
	</image>
	
		<image style="overflow:visible;enable-background:new    ;" width="49" height="150" xlink:href="../../img/venzen/Glass.png"  transform="matrix(0.3916 0 0 0.3916 1505.7434 1369.3201)">
	</image>
	
		<image style="overflow:visible;enable-background:new    ;" width="49" height="150" xlink:href="../../img/venzen/Glass.png"  transform="matrix(0.3916 0 0 0.3916 1447.1216 1369.3201)">
	</image>
	
		<image style="overflow:visible;enable-background:new    ;" width="49" height="150" xlink:href="../../img/venzen/Glass.png"  transform="matrix(0.3916 0 0 0.3916 1467.2603 1369.3201)">
	</image>
	
		<image style="overflow:visible;enable-background:new    ;" width="49" height="150" xlink:href="../../img/venzen/Glass.png"  transform="matrix(0.3916 0 0 0.3916 1408.6382 1369.3201)">
	</image>
	
		<image style="overflow:visible;enable-background:new    ;" width="49" height="150" xlink:href="../../img/venzen/Glass.png"  transform="matrix(0.3916 0 0 0.3916 1427.8799 1369.3201)">
	</image>
	
		<image style="overflow:visible;enable-background:new    ;" width="49" height="150" xlink:href="../../img/venzen/Glass.png"  transform="matrix(0.3916 0 0 0.3916 1369.2579 1369.3201)">
	</image>
	
		<image style="overflow:visible;enable-background:new    ;" width="49" height="150" xlink:href="../../img/venzen/Glass.png"  transform="matrix(0.3916 0 0 0.3916 1389.3966 1369.3201)">
	</image>
	
		<image style="overflow:visible;enable-background:new    ;" width="49" height="150" xlink:href="../../img/venzen/Glass.png"  transform="matrix(0.3916 0 0 0.3916 1330.7748 1369.3201)">
	</image>
	
		<image style="overflow:visible;enable-background:new    ;" width="49" height="150" xlink:href="../../img/venzen/Glass.png"  transform="matrix(0.3916 0 0 0.3916 1350.0162 1369.3201)">
	</image>
	
		<image style="overflow:visible;enable-background:new    ;" width="49" height="150" xlink:href="../../img/venzen/Glass.png"  transform="matrix(0.3916 0 0 0.3916 1924.3512 743.5621)">
	</image>
	
		<image style="overflow:visible;enable-background:new    ;" width="49" height="150" xlink:href="../../img/venzen/Glass.png"  transform="matrix(0.3916 0 0 0.3916 1885.868 743.5621)">
	</image>
	
		<image style="overflow:visible;enable-background:new    ;" width="49" height="150" xlink:href="../../img/venzen/Glass.png"  transform="matrix(0.3916 0 0 0.3916 1905.1096 743.5621)">
	</image>
	
		<image style="overflow:visible;enable-background:new    ;" width="49" height="150" xlink:href="../../img/venzen/Glass.png"  transform="matrix(0.3916 0 0 0.3916 1674.7904 1071.8467)">
	</image>
	
		<image style="overflow:visible;enable-background:new    ;" width="49" height="150" xlink:href="../../img/venzen/Glass.png"  transform="matrix(0.3916 0 0 0.3916 1636.3073 1071.8467)">
	</image>
	
		<image style="overflow:visible;enable-background:new    ;" width="49" height="150" xlink:href="../../img/venzen/Glass.png"  transform="matrix(0.3916 0 0 0.3916 1655.5487 1071.8467)">
	</image>
	
		<image style="overflow:visible;enable-background:new    ;" width="49" height="150" xlink:href="../../img/venzen/Glass.png"  transform="matrix(0.3916 0 0 0.3916 1625.7893 610.014)">
	</image>
	
		<image style="overflow:visible;enable-background:new    ;" width="49" height="150" xlink:href="../../img/venzen/Glass.png"  transform="matrix(0.3916 0 0 0.3916 1645.928 610.014)">
	</image>
	
		<image style="overflow:visible;enable-background:new    ;" width="49" height="150" xlink:href="../../img/venzen/Glass.png"  transform="matrix(0.3916 0 0 0.3916 1587.3062 610.014)">
	</image>
	
		<image style="overflow:visible;enable-background:new    ;" width="49" height="150" xlink:href="../../img/venzen/Glass.png"  transform="matrix(0.3916 0 0 0.3916 1606.5479 610.014)">
	</image>
	
		<image style="overflow:visible;enable-background:new    ;" width="123" height="150" xlink:href="../../img/venzen/Hand.png"  transform="matrix(0.3608 0 0 0.3608 1658.3676 816.4112)">
	</image>
	
		<image style="overflow:visible;enable-background:new    ;" width="123" height="150" xlink:href="../../img/venzen/Hand.png"  transform="matrix(0.3608 0 0 0.3608 1572.6082 816.4112)">
	</image>
	
		<image style="overflow:visible;enable-background:new    ;" width="49" height="150" xlink:href="../../img/venzen/Glass.png"  transform="matrix(0.3916 0 0 0.3916 1706.0549 818.1068)">
	</image>
	
		<image style="overflow:visible;enable-background:new    ;" width="49" height="150" xlink:href="../../img/venzen/Glass.png"  transform="matrix(0.3916 0 0 0.3916 1725.2965 818.1068)">
	</image>
	
		<image style="overflow:visible;enable-background:new    ;" width="49" height="150" xlink:href="../../img/venzen/Glass.png"  transform="matrix(0.3916 0 0 0.3916 1330.3182 753.2818)">
	</image>
	
		<image style="overflow:visible;enable-background:new    ;" width="49" height="150" xlink:href="../../img/venzen/Glass.png"  transform="matrix(0.3916 0 0 0.3916 1349.5599 753.2818)">
	</image>
	
		<image style="overflow:visible;enable-background:new    ;" width="49" height="150" xlink:href="../../img/venzen/Glass.png"  transform="matrix(0.3916 0 0 0.3916 1291.8351 753.2818)">
	</image>
	
		<image style="overflow:visible;enable-background:new    ;" width="49" height="150" xlink:href="../../img/venzen/Glass.png"  transform="matrix(0.3916 0 0 0.3916 1311.0768 753.2818)">
	</image>
	
		<image style="overflow:visible;enable-background:new    ;" width="49" height="150" xlink:href="../../img/venzen/Glass.png"  transform="matrix(0.3916 0 0 0.3916 1186.7271 752.587)">
	</image>
	
		<image style="overflow:visible;enable-background:new    ;" width="122" height="150" xlink:href="../../img/venzen/trash_bag-0.png"  transform="matrix(0.4893 0 0 0.4893 728.8801 -448.4866)">
	</image>
	
		<image style="overflow:visible;enable-background:new    ;" width="122" height="150" xlink:href="../../img/venzen/trash_bag-1.png"  transform="matrix(0.4893 0 0 0.4893 728.8801 629.709)">
	</image>
	
		<image style="overflow:visible;enable-background:new    ;" width="122" height="150" xlink:href="../../img/venzen/trash_bag-3.png"  transform="matrix(0.4893 0 0 0.4893 728.8801 1432.9098)">
	</image>
	
		<image style="overflow:visible;enable-background:new    ;" width="122" height="150" xlink:href="../../img/venzen/trash_bag-3.png"  transform="matrix(0.4893 0 0 0.4893 728.8801 2388.085)">
	</image>
	
		<image class="cameraImage" style="overflow:visible;enable-background:new    ;" width="150" height="115" xlink:href="../../img/venzen/Camera.png"  transform="matrix(0.377 0 0 0.377 900.6117 399.9633)">
	</image>
	
		<image class="cameraImage" style="overflow:visible;enable-background:new    ;" width="150" height="115" xlink:href="../../img/venzen/Camera.png"  transform="matrix(0.377 0 0 0.377 1335.797 572.1276)">
	</image>
	
		<image class="cameraImage" style="overflow:visible;enable-background:new    ;" width="150" height="115" xlink:href="../../img/venzen/Camera.png"  transform="matrix(0.377 0 0 0.377 900.6117 1031.8202)">
	</image>
	
		<image class="cameraImage" style="overflow:visible;enable-background:new    ;" width="150" height="115" xlink:href="../../img/venzen/Camera.png"  transform="matrix(0.377 0 0 0.377 1697.9452 1463.7213)">
	</image>
	<g>
		<path d="M1617.7,196.6c0,4.6,0,9.3,0,13.9c0.6-0.3,1.2-0.6,1.8-0.9c-19.7,0-39.4,0-59.2,0c0.3,0.2,0.5,0.4,0.8,0.6
			c0-4.6,0-9.3,0-13.9c0-1.1-2.6-0.6-2.6,0.3c0,4.6,0,9.3,0,13.9c0,0.4,0.4,0.6,0.8,0.6c19.7,0,39.4,0,59.2,0c0.4,0,1.8-0.2,1.8-0.9
			c0-4.6,0-9.3,0-13.9C1620.3,195.2,1617.7,195.7,1617.7,196.6L1617.7,196.6z"/>
	</g>
	<g>
		<path d="M1755.6,418.6c0,4.6,0,9.3,0,13.9c0.6-0.3,1.2-0.6,1.8-0.9c-19.7,0-110.8,0-130.5,0c0.3,0.2,0.5,0.4,0.8,0.6
			c0-4.6,0-9.3,0-13.9c0-1.1-2.6-0.6-2.6,0.3c0,4.6,0,9.3,0,13.9c0,0.4,0.4,0.6,0.8,0.6c19.7,0,110.8,0,130.5,0
			c0.4,0,1.8-0.2,1.8-0.9c0-4.6,0-9.3,0-13.9C1758.2,417.2,1755.6,417.7,1755.6,418.6L1755.6,418.6z"/>
	</g>
	<g>
		<path d="M1843.4,492.1c0,4.6,0,9.3,0,13.9c0.6-0.3,1.2-0.6,1.8-0.9c-19.7,0-122.8,0-142.5,0c0.3,0.2,0.5,0.4,0.8,0.6
			c0-4.6,0-9.3,0-13.9c0-1.1-2.6-0.6-2.6,0.3c0,4.6,0,9.3,0,13.9c0,0.4,0.4,0.6,0.8,0.6c19.7,0,122.8,0,142.5,0
			c0.4,0,1.8-0.2,1.8-0.9c0-4.6,0-9.3,0-13.9C1846,490.7,1843.4,491.2,1843.4,492.1L1843.4,492.1z"/>
	</g>
	<g>
		<path d="M1509.8,800c0,4.6,0,9.3,0,13.9c0.6-0.3,1.2-0.6,1.8-0.9c-19.7,0-203.7,0-223.4,0c0.3,0.2,0.5,0.4,0.8,0.6
			c0-4.6,0-9.3,0-13.9c0-1.1-2.6-0.6-2.6,0.3c0,4.6,0,9.3,0,13.9c0,0.4,0.4,0.6,0.8,0.6c19.7,0,203.7,0,223.4,0
			c0.4,0,1.8-0.2,1.8-0.9c0-4.6,0-9.3,0-13.9C1512.4,798.6,1509.8,799.1,1509.8,800L1509.8,800z"/>
	</g>
	<g>
		<path d="M1561.9,1475.8c0,4.6,0,9.3,0,13.9c0.6-0.3,1.2-0.6,1.8-0.9c-19.8,0-255.7,0-275.5,0c0.3,0.2,0.5,0.4,0.8,0.6
			c0-4.6,0-9.3,0-13.9c0-1.1-2.6-0.6-2.6,0.3c0,4.6,0,9.3,0,13.9c0,0.4,0.4,0.6,0.8,0.6c19.7,0,255.8,0,275.5,0
			c0.4,0,1.8-0.2,1.8-0.9c0-4.6,0-9.3,0-13.9C1564.5,1474.4,1561.9,1474.9,1561.9,1475.8L1561.9,1475.8z"/>
	</g>
	<g>
		<path d="M1607.7,352.3c0,4.6,0,9.3,0,13.9c0.6-0.3,1.2-0.6,1.8-0.9c-19.7,0-39.4,0-59.2,0c0.3,0.2,0.5,0.4,0.8,0.6
			c0-4.6,0-9.3,0-13.9c0-1.1-2.6-0.6-2.6,0.3c0,4.6,0,9.3,0,13.9c0,0.4,0.4,0.6,0.8,0.6c19.7,0,39.4,0,59.2,0c0.4,0,1.8-0.2,1.8-0.9
			c0-4.6,0-9.3,0-13.9C1610.3,350.9,1607.7,351.4,1607.7,352.3L1607.7,352.3z"/>
	</g>
	<g>
		<path d="M1575.2,454.8c-10.1,0-20.1,0-30.2,0c-1,0-2.8,1.6-1,1.6c10.1,0,20.1,0,30.2,0C1575.2,456.4,1577,454.8,1575.2,454.8
			L1575.2,454.8z"/>
	</g>
	<g>
		<path d="M1687.7,480.5c0,4.6,0,9.3,0,13.9c0.6-0.3,1.2-0.6,1.8-0.9c-20.5,0-40.9,0-61.4,0c0.3,0.2,0.5,0.4,0.8,0.6
			c0-4.6,0-9.3,0-13.9c0-1.1-2.6-0.6-2.6,0.3c0,4.6,0,9.3,0,13.9c0,0.4,0.4,0.6,0.8,0.6c20.5,0,40.9,0,61.4,0c0.4,0,1.8-0.2,1.8-0.9
			c0-4.6,0-9.3,0-13.9C1690.3,479,1687.7,479.6,1687.7,480.5L1687.7,480.5z"/>
	</g>
	<g>
		<path d="M1917.7,505.3c-17.2,0-34.5,0-51.8,0c-1,0-2.8,1.6-1,1.6c17.2,0,34.5,0,51.8,0C1917.8,506.8,1919.5,505.3,1917.7,505.3
			L1917.7,505.3z"/>
	</g>
	<g>
		<path d="M1864.4,789.3c0,4.6,0,9.3,0,13.9c0.6-0.3,1.2-0.6,1.8-0.9c-19.7,0-168.8,0-188.5,0c0.3,0.2,0.5,0.4,0.8,0.6
			c0-4.6,0-9.3,0-13.9c0-1.1-2.6-0.6-2.6,0.3c0,4.6,0,9.3,0,13.9c0,0.4,0.4,0.6,0.8,0.6c19.7,0,168.8,0,188.5,0
			c0.4,0,1.8-0.2,1.8-0.9c0-4.6,0-9.3,0-13.9C1867,787.9,1864.4,788.4,1864.4,789.3L1864.4,789.3z"/>
	</g>
	<g>
		<path d="M1946.1,802.5c-17.2,0-44.5,0-61.8,0c-1,0-2.8,1.6-1,1.6c17.2,0,44.5,0,61.8,0C1946.1,804.1,1947.8,802.5,1946.1,802.5
			L1946.1,802.5z"/>
	</g>
	<g>
		<path d="M1696.5,1130.8c-17.2,0-73.5,0-90.8,0c-1,0-2.8,1.6-1,1.6c17.2,0,73.5,0,90.8,0
			C1696.5,1132.3,1698.3,1130.8,1696.5,1130.8L1696.5,1130.8z"/>
	</g>
	<g>
		<path d="M1279.4,813.1c-17.2,0-76.5,0-93.8,0c-1,0-2.8,1.6-1,1.6c17.2,0,76.5,0,93.8,0C1279.5,814.7,1281.2,813.1,1279.4,813.1
			L1279.4,813.1z"/>
	</g>
	<g class="st8">
		<path class="st9" d="M1524.7,1487.3c18.6-0.1,37.2,0,55.8,0c-0.3,0-0.7,0-1,0c0.4,0,0.8,0,1.2,0c0.7,0.2,1.3,0,1.8-0.5
			c0.5-0.6,0.6-1.2,0.3-1.9c-0.7-1.1-1.5-2-2.5-2.9c-0.9-0.9-2-1.7-3.1-2.2c-2.7-0.2-5.4-0.1-8.1-0.1c-6.4,0-12.8,0-19.1,0
			c-10.1,0-20.1,0-30.2,0c-0.7,0.2-1.1,0.7-1.3,1.3c-0.1,0.9,0.2,1.7,0.9,2.3C1520.5,1484.9,1522.5,1487.3,1524.7,1487.3z"/>
		<path class="st9" d="M1525.1,1481.8c19.1,0.7,38.2-0.2,57.3,0.3c1.3,0,2.5-1,2.2-2.4c-0.5-0.9-1.2-1.7-2-2.4
			c-0.7-0.8-1.6-1.3-2.6-1.8c-9.4-0.3-18.9-0.1-28.3,0c-9.5,0-19,0.1-28.5-0.2c-1.2,0-2.5,0.9-2.3,2.3c0.4,0.9,1,1.7,1.8,2.4
			C1523.4,1480.8,1524.2,1481.4,1525.1,1481.8z"/>
		<path class="st9" d="M1527.8,1486.3c9.5,0,19,0,28.6,0c9.5,0,19-0.1,28.5,0c0.7-0.2,1.1-0.7,1.3-1.4c0-1-0.4-1.8-1.3-2.5
			c-1.1-1.2-2.4-2.4-3.7-3.4c-0.7-0.8-1.6-1.1-2.6-1c-3.3-0.3-6.7-0.1-10-0.1c-6.7,0-13.4,0-20.1,0c-8.8,0-17.6,0-26.3,0
			c-0.7,0.2-1.2,0.6-1.3,1.3c-0.1,1,0.3,1.8,1.1,2.5C1523.1,1483.3,1525.4,1486.2,1527.8,1486.3z"/>
		<path class="st9" d="M1532,1491.3c19.1,0.1,38.2-0.1,57.3,0.1c0.8-0.1,1.3-0.6,1.3-1.4c-0.3-1.4-1-2.5-2.2-3.3
			c-1.7-1.8-3.6-3.4-5.5-5c-1-1.1-2.1-1.7-3.5-1.9c-2.8-0.3-5.8-0.1-8.6-0.1c-6.5,0-13.1,0-19.6,0c-9.5,0-18.9,0-28.4-0.2
			c-0.8,0.1-1.3,0.5-1.3,1.3c0.2,1.4,0.9,2.5,2,3.4c1.6,1.8,3.4,3.6,5.2,5.2C1529.6,1490.4,1530.7,1491.1,1532,1491.3z"/>
		<path class="st9" d="M1531.9,1486.5c19.1,0.2,38.1-0.2,57.2,0.1c0.8-0.2,1.2-0.6,1.3-1.4c-0.2-1.2-0.7-2.2-1.7-2.9
			c-1.4-1.5-3-2.9-4.6-4.2c-0.8-0.9-1.9-1.4-3-1.4c-2.8-0.3-5.8-0.1-8.6-0.1c-6.5,0-13.1,0-19.6,0c-9.5,0-18.9,0-28.3-0.1
			c-0.8,0.1-1.2,0.6-1.3,1.3c0.1,1.2,0.6,2.1,1.5,2.9c1.3,1.5,2.8,3,4.3,4.3C1529.7,1486,1530.7,1486.5,1531.9,1486.5z"/>
		<path class="st9" d="M1521.1,1480.8c19.2,0.3,38.4,0.2,57.7,0.2c1,0,2.3-1.2,2.3-2.3c-0.1-1-1.8-2.8-2.8-2.8
			c-19.2,0-38.3-0.1-57.5,0c-1,0-2.3,1.3-2.3,2.3C1518.5,1479.1,1520.1,1480.7,1521.1,1480.8z"/>
		<path class="st9" d="M1520.5,1485.8c19.1,1.1,38.3,0,57.5,0.4c1.3,0,2.5-1,2.2-2.4c-0.5-0.9-1.1-1.7-1.9-2.3
			c-0.7-0.7-1.6-1.3-2.5-1.7c-19-0.5-38,0.5-57-0.3c-1.2-0.1-2.5,0.9-2.3,2.3c0.4,0.9,1,1.7,1.7,2.3
			C1518.8,1484.8,1519.6,1485.4,1520.5,1485.8z"/>
		<path class="st9" d="M1525.7,1492.2c19.1,0.2,38.1-0.2,57.2,0.1c0.8-0.2,1.2-0.6,1.3-1.4c-0.1-1.2-0.7-2.1-1.6-2.8
			c-1.4-1.5-2.9-2.8-4.4-4.1c-0.8-0.9-1.8-1.4-3-1.4c-2.8-0.3-5.8-0.1-8.6-0.1c-6.5,0-13.1,0-19.6,0c-9.5,0-18.9,0-28.3-0.1
			c-0.8,0.1-1.2,0.6-1.3,1.3c0.1,1.1,0.5,2.1,1.5,2.9c1.3,1.5,2.7,2.9,4.2,4.2C1523.6,1491.6,1524.6,1492.1,1525.7,1492.2z"/>
		<path class="st9" d="M1530.7,1481c18.6-0.1,37.2,0,55.8,0c-0.3,0-0.7,0-1,0c0.4,0,0.8,0,1.2,0c0.7,0.2,1.3,0,1.8-0.5
			c0.5-0.6,0.6-1.2,0.3-1.9c-0.7-1.1-1.5-2-2.5-2.8c-0.9-0.9-1.9-1.6-3.1-2.2c-2.7-0.2-5.4-0.1-8.1-0.1c-6.4,0-12.8,0-19.1,0
			c-10.1,0-20.1,0-30.2,0c-0.7,0.2-1.1,0.7-1.3,1.3c-0.1,0.9,0.2,1.6,0.9,2.3C1526.6,1478.7,1528.6,1481,1530.7,1481z"/>
		<path class="st9" d="M1522.6,1490.1c8.8,0,17.7,0,26.5,0c10.2,0,20.3-0.2,30.5,0c0.7-0.2,1.1-0.7,1.3-1.4c0.1-0.7-0.1-1.2-0.6-1.7
			c-0.6-0.9-1.3-1.6-2.1-2.3c-1-0.9-2-1.7-3.2-2.3c-2.7-0.2-5.4-0.1-8.2-0.1c-6.4,0-12.8,0-19.1,0c-10.1,0-20.1,0-30.2,0
			c-0.7,0.2-1.1,0.6-1.3,1.3c-0.1,0.9,0.2,1.7,1,2.4C1518.2,1487.5,1520.4,1490.1,1522.6,1490.1z"/>
		<path class="st9" d="M1527.9,1479.3c9.4-0.2,18.9-0.2,28.4-0.2s19.1-0.1,28.6,0c1.2,0,2.5-1,2.2-2.4c-0.4-0.9-1-1.6-1.7-2.2
			c-0.7-0.7-1.4-1.2-2.3-1.6c-9.5-0.1-19,0-28.5,0c-9.4,0-18.7-0.1-28.1,0.2c-1.2,0-2.5,0.9-2.3,2.3c0.4,0.8,0.9,1.6,1.6,2.2
			C1526.3,1478.4,1527.1,1478.9,1527.9,1479.3z"/>
		<path class="st9" d="M1519.2,1483.4c19.2,0.2,38.4,0.2,57.7,0.2c1,0,2.4-1.2,2.3-2.3c-0.1-1-1.9-3-3-3c-19.2,0-38.3-0.1-57.5,0
			c-1,0-2.3,1.2-2.3,2.3C1516.5,1481.6,1518.2,1483.4,1519.2,1483.4z"/>
	</g>
	<rect x="900.7" y="-98.6" class="st10" width="283.5" height="138.1"/>
	<rect x="900.7" y="253.2" class="st10" width="283.5" height="138.1"/>
	<rect x="900.7" y="468.4" class="st10" width="283.5" height="138.1"/>
	<rect x="900.7" y="1340.4" class="st10" width="283.5" height="138.1"/>
	<rect x="900.7" y="2492.3" class="st10" width="283.5" height="138.1"/>
	<rect x="900.7" y="884.3" class="st10" width="283.5" height="138.1"/>
	<g>
		<rect x="918.6" y="-77.6" class="st5" width="254" height="108.2"/>
		<text transform="matrix(1 0 0 1 918.6088 -65.2551)" class="st11 st12 st2">Venzen parks with the back  </text>
		<text transform="matrix(1 0 0 1 918.6088 -43.6552)" class="st11 st12 st2">of his car facing the street to </text>
		<text transform="matrix(1 0 0 1 918.6088 -22.0552)" class="st11 st12 st2">prevent potential competitors </text>
		<text transform="matrix(1 0 0 1 918.6088 -0.4551)" class="st11 st12 st2">from seeing how much he has </text>
		<text transform="matrix(1 0 0 1 918.6088 21.1449)" class="st11 st12 st2">stored in the back.</text>
	</g>
	<g>
		<rect x="918.6" y="274.2" class="st5" width="247.5" height="108.2"/>
		<text transform="matrix(1 0 0 1 918.6088 286.5435)" class="st11 st12 st2">Venzen uses his car — a </text>
		<text transform="matrix(1 0 0 1 918.6088 308.1434)" class="st11 st12 st2">Cadillac Brougham that&apos;s been </text>
		<text transform="matrix(1 0 0 1 918.6088 329.7434)" class="st11 st12 st2">the subject of several DIY </text>
		<text transform="matrix(1 0 0 1 918.6088 351.3435)" class="st11 st12 st2">restylings — as temporary </text>
		<text transform="matrix(1 0 0 1 918.6088 372.9435)" class="st11 st12 st2">storage for cans and bottles.</text>
	</g>
	<g>
		<rect x="918.6" y="489.4" class="st5" width="247.5" height="108.2"/>
		<text transform="matrix(1 0 0 1 918.6088 501.7466)" class="st11 st12 st2">Many canners take pride in  </text>
		<text transform="matrix(1 0 0 1 918.6088 523.3466)" class="st11 st12 st2">the contribution they make to </text>
		<text transform="matrix(1 0 0 1 918.6088 544.9465)" class="st11 st12 st2">keeping the city clean. Venzen </text>
		<text transform="matrix(1 0 0 1 918.6088 566.5466)" class="st11 st12 st2">considers himself a volunteer </text>
		<text transform="matrix(1 0 0 1 918.6088 588.1466)" class="st11 st12 st2">in the park.</text>
	</g>
	<g>
		<rect x="918.6" y="1358.4" class="st5" width="247.5" height="108.2"/>
		<text transform="matrix(1 0 0 1 918.6088 1370.7725)" class="st11 st12 st2">He considers himself </text>
		<text transform="matrix(1 0 0 1 918.6088 1392.3726)" class="st11 st12 st2">responsible for the park and </text>
		<text transform="matrix(1 0 0 1 918.6088 1413.9724)" class="st11 st12 st2">has ideas to improve it, like </text>
		<text transform="matrix(1 0 0 1 918.6088 1435.5725)" class="st11 st12 st2">building a pond with goldfish </text>
		<text transform="matrix(1 0 0 1 918.6088 1457.1724)" class="st11 st12 st2">to keep mosquitos down.</text>
	</g>
	<g>
		<rect x="918.6" y="2513.3" class="st5" width="247.5" height="108.2"/>
		<text transform="matrix(1 0 0 1 918.6088 2525.6665)" class="st11 st12 st2">Venzen repeats the same route </text>
		<text transform="matrix(1 0 0 1 918.6088 2547.2666)" class="st11 st12 st2">until the truck of his car is full. </text>
		<text transform="matrix(1 0 0 1 918.6088 2568.8665)" class="st11 st12 st2">He eats only a couple of fruits </text>
		<text transform="matrix(1 0 0 1 918.6088 2590.4666)" class="st11 st12 st2">and considers canning a way  </text>
		<text transform="matrix(1 0 0 1 918.6088 2612.0664)" class="st11 st12 st2">to stay fit.</text>
	</g>
	<g>
		<rect x="918.6" y="905.2" class="st5" width="237.6" height="108.2"/>
		<text transform="matrix(1 0 0 1 918.6088 917.6338)" class="st11 st12 st2">Bottles are redeemable only </text>
		<text transform="matrix(1 0 0 1 918.6088 939.2339)" class="st11 st12 st2">with their label on. Venzen </text>
		<text transform="matrix(1 0 0 1 918.6088 960.8337)" class="st11 st12 st2">uses a trick to “restore” </text>
		<text transform="matrix(1 0 0 1 918.6088 982.4338)" class="st11 st12 st2">plastic bottles with the label </text>
		<text transform="matrix(1 0 0 1 918.6088 1004.0337)" class="st11 st12 st2">half torn off.</text>
	</g>
	<g>
		<rect x="1735.6" y="154.7" class="st5" width="344.6" height="70.8"/>
		<text transform="matrix(1 0 0 1 1735.6447 170.1143)" class="st7 st2">“Don’t shake hands with anyone in the </text>
		<text transform="matrix(1 0 0 1 1735.6447 191.7142)" class="st7 st2">park, only fist bump.</text>
		<text transform="matrix(1 0 0 1 1898.1447 191.7142)" class="st1 st2">”</text>
		<text transform="matrix(1 0 0 1 1905.4447 191.7142)" class="st6 st2"> Venzen thinks that </text>
		<text transform="matrix(1 0 0 1 1735.6447 213.3142)" class="st6 st2">people in the park pee and do all sort of </text>
	</g>
	<g>
		<rect x="1595.2" y="-391.6" class="st5" width="329.3" height="70.8"/>
		<text transform="matrix(1 0 0 1 1595.2267 -376.1772)" class="st7 st2">“You see that house? Hezekiah Walker </text>
		<text transform="matrix(1 0 0 1 1595.2267 -354.5773)" class="st7 st2">lives there.</text>
		<text transform="matrix(1 0 0 1 1683.1267 -354.5773)" class="st1 st2">”</text>
		<text transform="matrix(1 0 0 1 1690.5267 -354.5773)" class="st6 st2"> He is a radio personality </text>
		<text transform="matrix(1 0 0 1 1595.2267 -332.9773)" class="st6 st2">also known as the hip-hop pastor.</text>
	</g>
	<g>
		<rect x="1735.6" y="-19.9" class="st5" width="337.5" height="88.9"/>
		<text transform="matrix(1 0 0 1 1735.6447 -4.4897)" class="st7 st2">“He was a good guy...</text>
		<text transform="matrix(1 0 0 1 1907.5447 -4.4897)" class="st1 st2">”</text>
		<text transform="matrix(1 0 0 1 1914.9447 -4.4897)" class="st6 st2"> He shows me on </text>
		<text transform="matrix(1 0 0 1 1735.6447 17.1102)" class="st6 st2">his car’s window the photo of a friend — a </text>
		<text transform="matrix(1 0 0 1 1735.6447 38.7102)" class="st6 st2">member of his walking group in the park </text>
		<text transform="matrix(1 0 0 1 1735.6447 60.3103)" class="st6 st2">— who recently passed away.</text>
	</g>
	<g>
		<rect x="1569.8" y="688.4" class="st5" width="531.8" height="44.4"/>
		<text transform="matrix(1 0 0 1 1569.7805 703.8164)" class="st7 st2">“This is the blissful tree,</text>
		<text transform="matrix(1 0 0 1 1762.6805 703.8164)" class="st1 st2">”</text>
		<text transform="matrix(1 0 0 1 1769.9805 703.8164)" class="st6 st2"> Venzen says it’s tall because people pee </text>
		<text transform="matrix(1 0 0 1 1569.7805 725.4165)" class="st6 st2">on its roots. If restrooms are closed, Venzen blesses trees too.</text>
	</g>
	<g>
		<rect x="1726.2" y="1000.3" class="st5" width="411.2" height="58.2"/>
		<text transform="matrix(1 0 0 1 1726.2267 1015.6895)" class="st7 st2">“My bag is almost full just by walking,</text>
		<text transform="matrix(1 0 0 1 2025.7267 1015.6895)" class="st1 st2">”</text>
		<text transform="matrix(1 0 0 1 2033.0266 1015.6895)" class="st6 st2"> Venzen </text>
		<text transform="matrix(1 0 0 1 1726.2267 1037.2896)" class="st6 st2">thinks he has more than 200 cans in his cart.</text>
	</g>
	<g>
		<rect x="1769" y="1463.8" class="st5" width="402.9" height="73.3"/>
		<text transform="matrix(1 0 0 1 1769.0433 1479.1924)" class="st7 st2">“Look at these seeds,</text>
		<text transform="matrix(1 0 0 1 1939.2433 1479.1924)" class="st1 st2">”</text>
		<text transform="matrix(1 0 0 1 1946.6433 1479.1924)" class="st6 st2"> He shows me a Ginko </text>
		<text transform="matrix(1 0 0 1 1769.0433 1500.7925)" class="st6 st2">Biloba seed and eats one raw, picked up on the </text>
		<text transform="matrix(1 0 0 1 1769.0433 1522.3923)" class="st6 st2">ground among a constellation of beer caps.</text>
	</g>
	<g>
		<rect x="1235.5" y="360.8" class="st5" width="287.6" height="88.9"/>
		<text transform="matrix(1 0 0 1 1276.0298 376.209)" class="st7 st2">“You got to turn them over, you </text>
		<text transform="matrix(1 0 0 1 1268.4297 397.809)" class="st7 st2">know?</text>
		<text transform="matrix(1 0 0 1 1319.3297 397.809)" class="st1 st2">”</text>
		<text transform="matrix(1 0 0 1 1326.6296 397.809)" class="st6 st2"> Venzen checks the bins’ </text>
		<text transform="matrix(1 0 0 1 1300.7297 419.4089)" class="st6 st2">content from top to bottom.</text>
	</g>
	<g>
		<rect x="1198.5" y="442.6" class="st5" width="324.6" height="115.8"/>
		<text transform="matrix(1 0 0 1 1216.7739 457.9678)" class="st6 st2">When Venzen sees half-empty bins, he </text>
		<text transform="matrix(1 0 0 1 1202.7739 479.5677)" class="st6 st2">fills one up and leaves the others empty, </text>
		<text transform="matrix(1 0 0 1 1259.8739 501.1677)" class="st6 st2">preparing bags for park cleaners: </text>
		<text transform="matrix(1 0 0 1 1262.674 522.7678)" class="st7 st2">“They’ll pick them up tomorrow.”</text>
	</g>
	
		<image style="overflow:visible;enable-background:new    ;" width="41" height="150" xlink:href="../../img/venzen/Venzen_cane.png"  transform="matrix(1.414 0.2793 -0.2793 1.414 1536.9758 -2492.6394)">
	</image>
	
		<image style="overflow:visible;enable-background:new    ;" width="102" height="150" xlink:href="../../img/venzen/Venzen_cart.png"  transform="matrix(1.4531 0 0 1.4531 1886.6238 -2492.8899)">
	</image>
	
		<image style="overflow:visible;enable-background:new    ;" width="104" height="150" xlink:href="../../img/venzen/Venzen_ginko.png"  transform="matrix(1.2267 0 0 1.2267 2254.5823 -2476.7568)">
	</image>
	<text transform="matrix(1 0 0 1 728.838 -2487.0181)" class="st1 st13">Canning with Venzen</text>
	<g>
		<rect x="732.1" y="-2425.6" class="st5" width="452" height="231.1"/>
		<text transform="matrix(1 0 0 1 732.0901 -2410.1958)" class="st6 st2">Venzen began canning because he needed to occupy his </text>
		<text transform="matrix(1 0 0 1 732.0901 -2388.5957)" class="st6 st2">time while he was homeless. His wife would go to work, </text>
		<text transform="matrix(1 0 0 1 732.0901 -2366.9958)" class="st6 st2">and he would sit in his old Cadillac Brougham. One </text>
		<text transform="matrix(1 0 0 1 732.0901 -2345.3958)" class="st6 st2">morning, he took a ride and parked at Highland Park, in </text>
		<text transform="matrix(1 0 0 1 732.0901 -2323.7959)" class="st6 st2">Brooklyn. While walking around, he started collecting </text>
		<text transform="matrix(1 0 0 1 732.0901 -2302.1958)" class="st6 st2">bottles and cans. He made $54 and — he likes to say — </text>
		<text transform="matrix(1 0 0 1 732.0901 -2280.5957)" class="st6 st2">asked his pride to let him be. Since then, he has refined </text>
		<text transform="matrix(1 0 0 1 732.0901 -2258.9958)" class="st6 st2">his techniques and now works as he were a member of </text>
		<text transform="matrix(1 0 0 1 732.0901 -2237.3958)" class="st6 st2">the park maintanence staff.</text>
	</g>
	<g>
		<text transform="matrix(1 0 0 1 1373.6096 -2236.9187)" class="st1 st2">Cane for walking and checking bags</text>
	</g>
	<g>
		<text transform="matrix(1 0 0 1 1938.8604 -2236.9187)" class="st1 st2">Cart</text>
	</g>
	<g>
		<text transform="matrix(1 0 0 1 2240.0193 -2236.9187)" class="st1 st2">Ginko Biloba seed</text>
	</g>
	<g>
		<text transform="matrix(1 0 0 1 2027.5046 -2283.4602)" class="st6 st14">Missing wheel</text>
	</g>
	<g>
		<text transform="matrix(1 0 0 1 1764.9652 -2297.0012)" class="st6 st14">Stronger wheel</text>
	</g>
	<line class="st15" x1="1998.1" y1="-2287.9" x2="2021.5" y2="-2287.9"/>
	<line class="st15" x1="1863.6" y1="-2301.3" x2="1886.9" y2="-2301.3"/>
</g>
</svg>
