<?xml version="1.0" encoding="utf-8"?>
<!-- Generator: Adobe Illustrator 19.1.0, SVG Export Plug-In . SVG Version: 6.00 Build 0)  -->
<svg version="1.1" id="path_container" xmlns="http://www.w3.org/2000/svg" xmlns:xlink="http://www.w3.org/1999/xlink" x="0px" y="0px"
	 viewBox="0 0 1920 5152" style="enable-background:new 0 0 1920 5152;" xml:space="preserve">
<style type="text/css">
	.st0{fill:none;stroke:#999999;stroke-width:2;stroke-linecap:round;stroke-linejoin:round;stroke-dasharray:1,5.6693;}
	.st1{font-family:'Roboto-Bold';}
	.st2{font-size:18px;}
	.st3{font-family:'Roboto-Light';}
	.st4{fill:none;stroke:#000000;stroke-width:1.4173;stroke-linecap:round;stroke-linejoin:round;}
	.st5{fill:none;}
	.st6{font-family:'Roboto-Regular';}
	.st7{font-family:'Roboto-BoldItalic';}
	.st8{opacity:0.5;}
	.st9{opacity:0.1091;fill:#883AB5;}
	.st10{fill:#D7DED5;}
	.st11{fill:#144C5B;}
	.st12{font-family:'ZillaSlab-Medium';}
	.st13{font-size:36px;}
	.st14{font-size:14px;}
	.st15{fill:none;stroke:#000000;stroke-width:0.5;stroke-miterlimit:10;}
</style>
<style>@import url('../path_styles.css')</style>
<g id="content">
	<line class="st0" x1="26.7" y1="4647.5" x2="1880.3" y2="4647.5"/>
	<line class="st0" x1="26.7" y1="2889.6" x2="1880.3" y2="2889.6"/>
	<line class="st0" x1="26.7" y1="1810.5" x2="1880.3" y2="1810.5"/>
	<line class="st0" x1="26.7" y1="3693.9" x2="1880.3" y2="3693.9"/>
	<text transform="matrix(1 0 0 1 78.09 687.9678)"><tspan x="0" y="0" class="st1 st2">Start: </tspan><tspan x="49.1" y="0" class="st3 st2">2:40 pm</tspan></text>
	<line class="st0" x1="29.7" y1="665.1" x2="1883.3" y2="665.1"/>
	<text transform="matrix(1 0 0 1 76.7028 1843.1265)"><tspan x="0" y="0" class="st1 st2">1 Mile: </tspan><tspan x="59.6" y="0" class="st3 st2">2:48 pm</tspan></text>
	<text transform="matrix(1 0 0 1 76.7028 2913.5684)"><tspan x="0" y="0" class="st1 st2">2 Miles: </tspan><tspan x="68.8" y="0" class="st3 st2">3:05 pm</tspan></text>
	<text transform="matrix(1 0 0 1 76.7028 3717.4014)"><tspan x="0" y="0" class="st1 st2">3 Miles: </tspan><tspan x="68.8" y="0" class="st3 st2">4:33 pm</tspan></text>
	<text transform="matrix(1 0 0 1 76.7028 4672.333)"><tspan x="0" y="0" class="st1 st2">4 Miles: </tspan><tspan x="68.8" y="0" class="st3 st2">6:10 pm</tspan></text>
	<path id="path" class="st4" d="M1112.5,666.4c-1,0.3-1.9,0.6-2.9,0.9c-3.4,1-6.9,2.1-10.2,3.1c-3.3,1-6.4,1.9-10.2,3.1
		c-3.9,1.2-8.5,2.5-10.2,3.1c-1.7,0.5-0.4,0.1-1.3,0.4s-3.7,1.1-4.9,1.5c-1.2,0.4-0.7,0.2-2.7,0.8c-2,0.6-6.4,1.9-10.2,3.1
		c-3.8,1.1-6.9,2.1-10.2,3.1c-3.3,1-6.8,2.1-10.2,3.1s-6.8,2.1-10.2,3.1c-3.4,1-6.8,2.1-10.2,3.1c-3.4,1-6.8,2.1-10.2,3.1
		c-3.5,1-7,1.9-10.2,3.1c-3.2,1.2-6.1,2.6-7,5.3c-0.9,2.8,0.3,6.9,0.9,10.6c0.6,3.8,0.7,7.1,0.9,10.6c0.2,3.5,0.6,7.1,0.9,10.6
		c0.3,3.6,0.6,7.1,0.9,10.6c0.3,3.5,0.6,7.1,0.9,10.6c0.3,3.5,0.6,7.1,0.9,10.6c0.3,3.5,0.6,7.1,0.9,10.6c0.3,3.5,0.6,7.1,0.9,10.6
		c0.3,3.6,0.6,7.2,0.9,10.6c0.4,3.4,0.9,6.7,0.9,10.6c0.1,3.9-0.2,8.5-1.3,12.4c-1.1,3.9-3,7.3-4.9,10.4c-1.9,3.1-3.8,6.1-5.7,9
		c-1.9,3-3.9,6-5.8,9c-1.9,3-3.9,6-5.8,9c-1.9,3-3.9,6-5.8,9c-1.9,3-3.9,6-5.8,9c-1.9,3-3.9,6-5.8,9c-1.9,3-3.9,6-5.8,9
		c-1.9,3-3.9,6-5.8,9c-1.9,3-3.9,6-5.8,9c-1.9,3-3.9,6-5.8,9c-1.9,3-3.9,6-5.8,9c-1.9,3-3.8,6-5.8,9c-1.9,3-3.9,5.9-5.9,8.9
		c-2,3-3.9,5.9-5.9,8.9s-4,5.9-5.9,8.9c-2,3-4,5.9-5.9,8.9c-2,3-4,5.9-5.9,8.9c-2,3-4,5.9-5.9,8.9c-2,3-4,5.9-5.9,8.9
		c-2,3-3.9,6-5.8,8.9c-1.9,3-3.9,6-5.8,9c-1.9,3-3.9,6-5.8,9c-1.9,3-3.9,6-5.8,9c-1.9,3-3.9,6-5.8,9s-3.9,6-5.8,9c-1.9,3-3.9,6-5.8,9
		c-1.9,3-3.9,6-5.9,8.9c-2,3-3.9,5.9-5.9,8.9c-2,3-3.9,5.9-5.9,8.9c-2,3-3.9,5.9-5.9,8.9c-2,3-3.9,6-5.9,8.9c-2,3-3.9,5.9-5.9,8.9
		c-2,3-3.9,6-5.8,8.9c-1.9,3-3.9,6-5.8,9s-3.9,6-5.8,9c-1.9,3-3.9,6-5.8,9c-1.9,3-3.9,6-5.8,9c-1.9,3-3.9,6-5.8,9s-3.9,6-5.8,9
		s-3.9,6-5.8,9c-1.9,3-3.9,6-5.9,8.9c-2,3-3.9,6-5.9,8.9c-2,3-3.9,6-5.9,8.9c-2,3-3.9,6-5.9,8.9s-3.9,6-5.9,8.9c-2,3-3.9,6-5.9,8.9
		c-1.9,3-3.9,6-5.8,9c-1.9,3-3.9,6-5.8,9c-1.9,3-3.9,6-5.8,9c-1.9,3-3.9,6-5.8,9c-1.9,3-3.8,6.1-5.8,9c-2,2.9-4,5.7-5.8,9
		c-1.8,3.3-3.5,7-3.1,10.8c0.4,3.8,2.9,7.7,5.1,10.9c2.3,3.2,4.4,5.7,6.8,8.2c2.4,2.5,5.1,4.8,4.8,7.7c-0.3,2.9-3.5,6.3-5.8,8.9
		c-2.3,2.6-3.5,4.5-5.3,7c-1.8,2.5-4.1,5.6-6.3,8.6c-2.1,3-4.1,5.8-6.2,8.7c-2,2.9-4.2,5.8-6.2,8.7c-2,2.9-3.8,5.8-6.2,8.7
		c-2.4,2.9-5.2,5.7-5.3,8.1c-0.1,2.5,2.6,4.6,5.9,5.4c3.2,0.8,7,0.4,10.7,0.2c3.6-0.1,7.1,0.1,10.7,0.2s7.1,0.2,10.7,0.2
		c3.6,0.1,7.1,0.1,10.7,0.2c3.6,0.1,7.1,0.2,10.7,0.2s7.1,0.1,10.7,0.2c3.6,0.1,7.1,0.1,10.7,0.2c3.6,0.1,7.1,0.1,10.7,0.2
		c3.6,0.1,7.1,0.1,10.7,0.2c3.6,0.1,7.1,0.1,10.7,0.2s7.1,0.1,10.7,0.2c3.6,0.1,7.1,0.1,10.7,0.2c3.5,0.1,7.1,0.2,10.7,0.2
		c3.6,0,7.3-0.1,10.7,0.2c3.3,0.3,6.3,1,8,3.5c1.7,2.5,2.1,6.6,2.4,10.4c0.3,3.8,0.5,7.1,0.5,10.6c0,3.5-0.1,7.1-0.1,10.7
		c-0.1,3.6-0.1,7.1-0.1,10.7c0,3.6-0.1,7.1-0.2,10.7c-0.1,3.6-0.1,7.1-0.2,10.7c-0.1,3.6-0.1,7.1-0.2,10.7c-0.1,3.6-0.1,7.1-0.1,10.7
		c0,3.6-0.1,7.1-0.1,10.7c0,3.6-0.1,7.1-0.1,10.7c0,3.6,0,7.1-0.1,10.7c0,3.6,0,7.1,0,10.7c0,3.6,0.1,7.1,0.1,10.7
		c0.1,3.6,0.1,7.1,0.2,10.7c0.1,3.6,0.2,7.1,0.4,10.7c0.1,3.6,0.3,7.1,0.5,10.7c0.2,3.6,0.4,7.1,0.7,10.7c0.2,3.6,0.5,7.1,0.8,10.6
		c0.3,3.5,0.6,7.1,0.9,10.6c0.3,3.5,0.6,7.1,1,10.6s0.7,7.1,1.1,10.6c0.4,3.5,0.7,7.1,1.1,10.6c0.4,3.5,0.7,7.1,1.1,10.6
		c0.4,3.5,0.8,7.1,1.2,10.6c0.4,3.5,0.8,7.1,1.2,10.6c0.4,3.5,0.8,7.1,1.2,10.6c0.4,3.5,0.8,7.1,1.2,10.6c0.4,3.5,0.8,7.1,1.2,10.6
		c0.4,3.5,0.8,7.1,1.3,10.6c0.4,3.5,0.9,7.1,1.3,10.6c0.4,3.5,0.9,7.1,1.3,10.6s0.9,7.1,1.3,10.6c0.4,3.5,0.9,7.1,1.3,10.6
		c0.4,3.5,0.9,7.1,1.4,10.6c0.5,3.5,0.9,7.1,1.4,10.6c0.5,3.5,0.9,7.1,1.4,10.6c0.5,3.5,0.9,7.1,1.4,10.6c0.4,2.9,0.8,5.7,1.2,8.6
		c3.1,32.8,6.9,65.3,13.4,97.7c0.8,4,1.7,8,2.5,12.1c1.2,5.4,2.7,10.6,3.7,16.1c1.7,9.1,2,18.3,2.4,27.5c0.6,12.1,1.2,24.1,1.5,36.2
		c0.1,2.7,0,5.4,0.4,8.1c0.3,2,1.1,3.4,2.6,4.7c1.5,1.3,3.3,2.1,5,3.1c3.4,2,6.8,3.9,10.1,6.1c1,0.7,2,1.3,3,2
		c0.6,0.4,1.2,0.8,1.8,1.2c0.6,0.4,1.3,0.7,1.9,1.3c1.2,1.3,2.4,2.6,3.6,3.9c1.8,2,3.5,4,5.1,6.1c2.1,2.6,3.9,5.4,5.6,8.3
		c3.4,5.9,3.7,14.7,4.3,21c1,9.9,2,19.8,2.6,29.7c0.4,7.1,0.7,14.2,1,21.3c0.3,9.6,0.6,19.2,0.7,28.9c0.1,9.1-0.9,18.1-0.6,27.1
		c0,1.3-0.1,2.5,0.2,3.8c0,0.1,0,0.1,0.1,0.2c0,0.1,0.1,0.2,0.2,0.3c0.2,0.2,0.4,0.2,0.6,0.2c0.8,0,1.4-0.3,2.2-0.4
		c1.3-0.3,2.7-0.5,4-0.8c1.3-0.3,2.5-0.8,3.9-0.5c2.1,0.4,5,3.4,6.4,4.5c2.1,1.7,4.1,3.4,6.3,5c1.1,0.8,2.1,1.8,3.1,2.8
		c1.2,1.1,2.2,0.9,3.6,0.4c2.1-0.8,4.2-1.2,6.4-1.7c3.6-0.9,7.2-1.8,10.9-2.7c1.8-0.5,3.6-0.9,5.4-1.4c1.8-0.5,3.5-1.3,5.6-0.8
		c1.9,0.4,4.1,1.9,3.8,4.2c-0.3,2.4-2.4,4.1-4.2,2c-1.9-2.3,0.8-2.4,2.9-2.4c1.9,0,5.4,0.2,4.6-2.6c-0.2-0.6-0.9-2.2-1.8-1.7
		c-0.9,0.6-0.9,2.5-0.7,3.3c0.5,2.4,4.1,6.1,5.5,7.8c0.7,0.8,1.4,1.6,2.3,2.3c0.8,0.6,1.6,1.1,2.4,1.7c1.7,1.3,2,2.8,2.2,4.8
		c0.2,2.3,0.2,4.5,0.1,6.8c-0.1,2.1-0.3,4.2-0.4,6.4c-0.1,0.7-0.1,1.3-0.2,2c-0.1,2.3,0.7,5.4-1.1,7.6c-1.6,1.9-4.6,2.8-6.7,3.2
		c-1.8,0.4-6.8,0.8-8.5,1.6c-2.4,1.1-1.8,4-1.6,5.9c0.3,2.7,0.8,5.5,0.8,8.2c0.1,2.8-0.1,5.5-0.2,8.2c-0.1,2.8,0.3,5.5,0.4,8.3
		c0.1,4.4-1,8.2-2.5,12.2c-1.5,3.9-3.6,7.5-5,11.5c-1.3,4-1.5,8.2-2.5,12.2c-1,4.1-1.7,8.2-1.9,12.3c-0.1,2.1-0.2,4.1,0.1,6.2
		c0.3,2.1,0.6,4.1,0.5,6.2c-0.2,5.4-0.8,7,3.2,11.3c4.2,4.5,4.8,4.1,7.9,9.6c2.1,3.7,4.1,7.1,4.2,11.6c0.1,2.2-0.3,4.1-1.6,6
		c-1.4,2-3.3,2.4-5.4,3c-2,0.6-3.3,1.5-4.2,3.5c-0.7,1.7-1.3,3.4-1.8,5.1c-0.6,1.7-0.9,3.4-0.6,5.2c0.1,1,0.5,3.1,1.9,3.1
		c1.4,0,2.4-1.8,2.8-2.9c0.7-2.1,0.8-3.8-0.1-5.8c-0.8-1.9-2.2-3.5-2.9-5.5c-0.6-1.7-0.7-3.6-2.6-4.8c-1.8-1.1-4-1.1-5.6-2.7
		c-1.3-1.4-1.8-4.1-0.7-5.8c1.2-1.8,4.1-1.5,5.8-1.2c1.6,0.3,4.2,1,5.1,2.8c0.9,1.7-0.3,4.5-0.3,6c-0.1,2.4,2.4,2.7,4,3.1
		c2.8,0.7,2.4,1.6,2.2,4.1c-0.3,2.6,1,4.5,1.8,6.7c0.9,2.3,0.8,4.8,1.2,7.2c0.5,2.5,1.8,4.4,3.1,6.5c2.6,4.2,4.4,8.6,5.5,13.4
		c1.3,5.9,0.3,8.8-1.2,14.3c-1.3,4.7-3.5,9-4.3,13.8c-1.2,6.7-1.4,7.6-3.7,14c-1.6,4.6-2.7,9.3-4.5,13.8c-2.4,6.2-3.4,7.2-4.3,13.8
		c-0.4,2.4-0.6,4.8-1,7.2c-0.5,2.4-1,4.7-1.2,7.2c-0.2,2.4-0.3,4.8-1.1,7.1c-0.8,2.3-1.7,4.5-2.2,7c-0.5,2.3-0.7,4.7-1,7.1
		c-0.4,2.6-1.3,5-1.9,7.5c-0.7,3,0.4,3.6,2.6,5.2c2.1,1.5,2.4,3.1,1.8,5.5c-1,3.4-3.2,5.8-4.9,8.7c-0.9,1.6-1.6,3-1.5,4.9
		c0.2,1.9,1.5,3,2.3,4.5c1.1,2-0.7,3.7-1.9,5c-1.5,1.6-3,3.3-4.7,4.7c-1.6,1.3-3.3,2.2-5.3,2.8c-1.7,0.5-3.3,0.8-4.7,2.1
		c-2.8,2.7-1.3,7.6,0.4,10.2c2,3.1,4.8,5.3,3.5,9.8c-0.6,1.8-1.5,3.5-2.3,5.2c-0.8,1.7-1.5,3.5-1.9,5.3c-0.9,3.5-1.3,7-1.5,10.6
		c-0.5,8.1-0.3,13.4-3.4,21.2c-3.1,7.8-5.5,10.9-7,19.5c-0.6,3.4-1.1,6.9-2,10.2c-1.2,4.4-3.2,8.4-4.8,12.6c-1.4,3.4-3,8.4,1.4,10.7
		c4.8,2.6,5.4-2.4,6.9-5.5c0.7-1.5,1.4-2.7,3.4-2.2c2.3,0.6,4.7,2.8,6.3,4.2c5.7,5,10.8,10.5,17,14.9c4.4,3.1,11.1,6.3,14.4,11.3
		c2.9,4.4,3.5,7.8,6.7,12.1c2.2,2.9,4.8,5.4,6.9,8.4c2.1,2.9,4.6,7.6,4.7,11.4c0,2-0.5,3.4-2.2,4.5c-1.6,1.1-3.5,1.7-5.1,3
		c-3.2,2.5-4.7,5.8-6.5,9.2c-1.8,3.7-4,7.2-6.3,10.6c-2.1,3.2-4.2,6.1-4.4,10.3c-0.1,4.2,2.2,7.2,3.6,10.7c1.6,4.2,1.3,7.3-1.2,11
		c-1.5,2.2-4.6,5.4-7.8,4.3c-2.8-1-5.2-5-6.7-7c-5.8-7.8-10.5-9.1-18.6-13c-5.5-2.7-15.5-8.6-22.8-6.8c-4,1-6.1,3.8-8.8,6.3
		c-3.1,2.9-5.8,4.3-10.2,2.8c-4.3-1.4-7.8-4.2-11.9-5.9c-4.3-1.8-4.8-0.1-5.3,3.9c-0.8,5.1-1.7,6.8-6.3,9.4c-2.5,1.4-7,2.9-7.1,6.9
		c0,2,0.5,3.8,0.9,5.6c0.4,1.8,0.7,3.5,0.1,5.4c-1.1,3.7-5.2,6-8.1,7.5c-10.6,5.6-15.9,6.9-24,16.6c-6.2,7.5-10,15.5-12.3,24.9
		c-1.8,7.6-1.6,15-0.8,22.7c0.4,3.5,0.8,7.1,1,10.6c0.2,3.7,0.3,7.3,0.5,11c0.1,2.3,0.3,4.6,0.7,6.9c2.1,14,9.4,26.3,20.4,37.7
		c8,8.3,17.9,16.1,27.6,14.5c4.7-0.8,9.3-3.8,14.4-4.3c7.1-0.7,15.2,3.4,20.8,2.1c6.1-1.4,9.3-9.2,14.8-17.5
		c5-7.6,11.9-15.6,16.5-12.8c3.2,1.9,5.2,8.9,9.2,11.1c3.6,2,8.8,0.1,13.1,0.6c4.7,0.5,8.3,3.9,12.7,6.9c11.5,8,28.7,14,28.4,24.7
		c-0.1,3.1-1.7,6.7-0.5,11c1.4,5,6.5,11,4,11.9c-0.9,0.4-3,0-4.9,0c-6.6,0-10.6,5.1-13.6,10.4c-6.6,11.7-8,24.7-15.2,34.7
		c-3.6,4.9-8.6,9.1-12.6,13.8c-11.7,13.4-15.8,30.9-22.1,48.9c-7.1,20.3-16.9,41.3-11.8,59.2c3.8,13.2,15.7,24.6,29.6,33
		c8.7,5.3,18.2,9.4,21.8,17.2c2.3,5,2.2,11.5,4.3,17c4,10.3,15.6,17.3,27.6,17.6c10.4,0.2,21.2-4.5,28.2,2.4
		c4.5,4.5,7.5,13.9,11.9,13.9c2.9,0,6.4-4,10-6.5c4-2.7,8.1-3.6,12.3-4.2c5.1-0.8,10.4-1.2,15.5-0.7c9,0.9,17.1,4.7,26.3,7.5
		c5.6,1.7,11.6,3,15.2,6.8c2.3,2.4,3.7,5.7,5.4,8.9c1.8,3.3,4,6.4,4.7,9.5c1.2,5.8-2.5,11.7-4.7,18.7c-1.2,3.8-1.9,7.8-4.1,8.7
		c-2.8,1.2-7.9-2.7-12.3-3.4c-6.5-1-11.7,4.6-15.9,10.4c-3.8,5.2-6.8,10.6-6.3,15.9c0.4,5.1,4.1,10,7.5,14.8c7,9.5,13.3,18,19.9,26.6
		c3.6,4.6,7.2,9.3,10.9,14.1c7.4,9.8,15,20.4,17.1,31.7c1.7,9.5-0.5,19.5,0.1,30.5c0.4,7.3,2,15-1.5,20c-2.2,3-6.2,5-10.3,6.5
		c-9.8,3.5-19.4,4-28.8,5.6c-13.1,2.2-25.9,6.6-38.9,11.4c-6.4,2.4-12.9,4.9-18.1,8.8c-6.4,4.8-11,11.9-15.8,18.8
		c-2.8,4.1-5.7,8.1-6.9,12.6c-2.2,8.3,1,18.4-0.6,26.2c-1.6,7.9-7.9,13.4-13.5,22.6c-2.6,4.2-5,9.3-7.8,9.3c-2.9,0-6.2-5.4-10-8
		c-2.6-1.7-5.5-2.1-8.2-2.8c-5.3-1.3-10.4-3.9-15.6-5.9c-11.7-4.4-24.5-5.8-35.1-12.4c-6.6-4.1-12.3-10.2-22.1-7.2
		c-6.3,1.9-14.3,7.7-11.7,9.4c1.4,0.9,5.6,0.7,7.4,2.2c2,1.6,1.3,5.1,0.7,8.4c-1.8,9.9-2.3,17.3-5.9,25c-2.6,5.4-6.7,10.9-6.9,16.6
		c-0.1,3.6,1.3,7.3,2.9,10.8c4.1,8.8,9.7,16.3,17.2,22.4c7.5,6,17,10.6,20.8,19.2c1.2,2.8,1.9,6,3.8,8.2c1.5,1.8,3.7,3,5.8,3.8
		c1.5,0.7,3,1.6,4.1,2.8c1.5,1.5,2.2,3.5,3.7,5.4c0.7,0.9,1.6,1.8,1.7,2.6c0.1,1.1-1.2,2.1-2.5,3.1c-0.5,0.4-1,0.8-1.5,0.6
		c-0.2-0.1-0.4-0.4-0.5-0.6c-0.3-0.6,0.3-0.9,0.8-1.3c2.1-1.3,3.9-3.2,5.6-2.8c0.5,0.1,1,0.5,1.5,0.9c1.1,1,2.1,2.5,3.2,4
		c0.6,0.8,1.1,1.6,1.7,2.3c0.9,1.2,1.8,2.5,2.7,3.7c0.3,0.5,0.7,0.9,1,1.4c7.5,11.5,22.2,23.6,31.4,33.1c5.4,5.5,10.5,11.2,15.9,16.7
		c5.4,5.4,10.9,10.7,16.4,15.9c11,10.6,21.7,21.4,32.8,32c5.5,5.3,11.2,10.3,16.9,15.4c6.7,5.9,13.4,12,20,18
		c29.8,27.3,59.8,54.3,88.2,83.1c8.5,8.6,16.7,17.4,25.1,26c6.9,7.2,13.9,14.3,20.8,21.6c6.5,6.9,17.4,18.4,20.8,28
		c2.8,7.7,0.1,13.4-2.9,20c-3,6.7-5.1,13.6-7.2,20.5c-2.2,7-4.6,14-7.2,20.9c-5,13.7-9.8,27.5-14.8,41.3
		c-4.9,13.7-9.6,27.6-14.5,41.3c-1.7,4.7-3.4,9.4-5,14.1c-1.8,5.1-3.3,10.3-5.6,15.2c-2.8,5.9-6.4,10.5-11.6,14.4
		c-6.8,5.1-14.4,8.2-22.2,11.1c-18.3,6.9-37.1,11.8-55.6,17.7c-17.3,5.4-34.3,11.3-51,18.4c-8,3.4-15.8,7.3-23.7,11
		c-6.9,3.3-13.9,6.4-21,9.5c-14.1,6.2-28.2,12.2-42.2,18.3c-28.2,12.2-56.3,24.3-83.7,38.2c-27.9,14.2-54.7,30-81.6,45.9
		c-26.9,15.9-53.6,32-80.2,48.3c-29.6,18.2-59.3,36.3-87.9,56.1c-14.3,9.9-28.3,20.1-41.9,31c-3.4,2.7-6.7,5.5-10.1,8.3
		c-2,1.7-3.7,3.6-5.4,5.6c-2.2,2.6-4.2,5.3-6,8.1c-3.3,5.2-6.1,10.7-8.5,16.4c-2.7,6.5-5.3,13.1-7,20c-1.1,4.5-1.8,9.1-2.2,13.7
		c-0.5,5.4-0.5,10.7,0.4,16.1c1.1,7,3.4,13.5,5.4,20.2c2.8,9.5,5.6,18.9,7.9,28.6c2.4,10.4,4.8,20.8,7.1,31.2
		c0.7,3.3,2.8,10.4,6.6,12.3c3.9,1.9,8.5-0.7,11.5-2.4c0.3-0.2,0.5-0.3,0.8-0.5c0.2-0.2,0.4-0.3,0.6-0.6c1.9-2.1,0.9-4.1,0.6-6.3
		c-1.5-9.4-3.3-13.9,0.5-19.1c3.8-5.1,13.2-10.9,20.2-14c6.9-3,11.4-3.3,16.9,0.1c5.5,3.4,12,10.6,18.2,16.8
		c6.2,6.2,12.1,11.4,18.1,16.9c6,5.5,12.1,11.2,18.1,16.9c6.1,5.7,12.1,11.2,18.2,16.8c6.1,5.6,12.2,11.2,18.2,16.8
		s12.2,11.1,18.3,16.7s12.2,11.1,18.2,16.8c6,5.7,11.9,11.5,17.7,17.3s11.7,11.7,17.5,17.5c5.8,5.8,11.7,11.6,17.6,17.4
		c6,5.8,12.1,11.7,19,15.7c2.1,1.2,4.2,2.2,6.4,3.1"/>
	<path id="bkg_path" class="st4" d="M1112.5,666.4c-1,0.3-1.9,0.6-2.9,0.9c-3.4,1-6.9,2.1-10.2,3.1c-3.3,1-6.4,1.9-10.2,3.1
		c-3.9,1.2-8.5,2.5-10.2,3.1c-1.7,0.5-0.4,0.1-1.3,0.4s-3.7,1.1-4.9,1.5c-1.2,0.4-0.7,0.2-2.7,0.8c-2,0.6-6.4,1.9-10.2,3.1
		c-3.8,1.1-6.9,2.1-10.2,3.1c-3.3,1-6.8,2.1-10.2,3.1s-6.8,2.1-10.2,3.1c-3.4,1-6.8,2.1-10.2,3.1c-3.4,1-6.8,2.1-10.2,3.1
		c-3.5,1-7,1.9-10.2,3.1c-3.2,1.2-6.1,2.6-7,5.3c-0.9,2.8,0.3,6.9,0.9,10.6c0.6,3.8,0.7,7.1,0.9,10.6c0.2,3.5,0.6,7.1,0.9,10.6
		c0.3,3.6,0.6,7.1,0.9,10.6c0.3,3.5,0.6,7.1,0.9,10.6c0.3,3.5,0.6,7.1,0.9,10.6c0.3,3.5,0.6,7.1,0.9,10.6c0.3,3.5,0.6,7.1,0.9,10.6
		c0.3,3.6,0.6,7.2,0.9,10.6c0.4,3.4,0.9,6.7,0.9,10.6c0.1,3.9-0.2,8.5-1.3,12.4c-1.1,3.9-3,7.3-4.9,10.4c-1.9,3.1-3.8,6.1-5.7,9
		c-1.9,3-3.9,6-5.8,9c-1.9,3-3.9,6-5.8,9c-1.9,3-3.9,6-5.8,9c-1.9,3-3.9,6-5.8,9c-1.9,3-3.9,6-5.8,9c-1.9,3-3.9,6-5.8,9
		c-1.9,3-3.9,6-5.8,9c-1.9,3-3.9,6-5.8,9c-1.9,3-3.9,6-5.8,9c-1.9,3-3.9,6-5.8,9c-1.9,3-3.8,6-5.8,9c-1.9,3-3.9,5.9-5.9,8.9
		c-2,3-3.9,5.9-5.9,8.9s-4,5.9-5.9,8.9c-2,3-4,5.9-5.9,8.9c-2,3-4,5.9-5.9,8.9c-2,3-4,5.9-5.9,8.9c-2,3-4,5.9-5.9,8.9
		c-2,3-3.9,6-5.8,8.9c-1.9,3-3.9,6-5.8,9c-1.9,3-3.9,6-5.8,9c-1.9,3-3.9,6-5.8,9c-1.9,3-3.9,6-5.8,9s-3.9,6-5.8,9c-1.9,3-3.9,6-5.8,9
		c-1.9,3-3.9,6-5.9,8.9c-2,3-3.9,5.9-5.9,8.9c-2,3-3.9,5.9-5.9,8.9c-2,3-3.9,5.9-5.9,8.9c-2,3-3.9,6-5.9,8.9c-2,3-3.9,5.9-5.9,8.9
		c-2,3-3.9,6-5.8,8.9c-1.9,3-3.9,6-5.8,9s-3.9,6-5.8,9c-1.9,3-3.9,6-5.8,9c-1.9,3-3.9,6-5.8,9c-1.9,3-3.9,6-5.8,9s-3.9,6-5.8,9
		s-3.9,6-5.8,9c-1.9,3-3.9,6-5.9,8.9c-2,3-3.9,6-5.9,8.9c-2,3-3.9,6-5.9,8.9c-2,3-3.9,6-5.9,8.9s-3.9,6-5.9,8.9c-2,3-3.9,6-5.9,8.9
		c-1.9,3-3.9,6-5.8,9c-1.9,3-3.9,6-5.8,9c-1.9,3-3.9,6-5.8,9c-1.9,3-3.9,6-5.8,9c-1.9,3-3.8,6.1-5.8,9c-2,2.9-4,5.7-5.8,9
		c-1.8,3.3-3.5,7-3.1,10.8c0.4,3.8,2.9,7.7,5.1,10.9c2.3,3.2,4.4,5.7,6.8,8.2c2.4,2.5,5.1,4.8,4.8,7.7c-0.3,2.9-3.5,6.3-5.8,8.9
		c-2.3,2.6-3.5,4.5-5.3,7c-1.8,2.5-4.1,5.6-6.3,8.6c-2.1,3-4.1,5.8-6.2,8.7c-2,2.9-4.2,5.8-6.2,8.7c-2,2.9-3.8,5.8-6.2,8.7
		c-2.4,2.9-5.2,5.7-5.3,8.1c-0.1,2.5,2.6,4.6,5.9,5.4c3.2,0.8,7,0.4,10.7,0.2c3.6-0.1,7.1,0.1,10.7,0.2s7.1,0.2,10.7,0.2
		c3.6,0.1,7.1,0.1,10.7,0.2c3.6,0.1,7.1,0.2,10.7,0.2s7.1,0.1,10.7,0.2c3.6,0.1,7.1,0.1,10.7,0.2c3.6,0.1,7.1,0.1,10.7,0.2
		c3.6,0.1,7.1,0.1,10.7,0.2c3.6,0.1,7.1,0.1,10.7,0.2s7.1,0.1,10.7,0.2c3.6,0.1,7.1,0.1,10.7,0.2c3.5,0.1,7.1,0.2,10.7,0.2
		c3.6,0,7.3-0.1,10.7,0.2c3.3,0.3,6.3,1,8,3.5c1.7,2.5,2.1,6.6,2.4,10.4c0.3,3.8,0.5,7.1,0.5,10.6c0,3.5-0.1,7.1-0.1,10.7
		c-0.1,3.6-0.1,7.1-0.1,10.7c0,3.6-0.1,7.1-0.2,10.7c-0.1,3.6-0.1,7.1-0.2,10.7c-0.1,3.6-0.1,7.1-0.2,10.7c-0.1,3.6-0.1,7.1-0.1,10.7
		c0,3.6-0.1,7.1-0.1,10.7c0,3.6-0.1,7.1-0.1,10.7c0,3.6,0,7.1-0.1,10.7c0,3.6,0,7.1,0,10.7c0,3.6,0.1,7.1,0.1,10.7
		c0.1,3.6,0.1,7.1,0.2,10.7c0.1,3.6,0.2,7.1,0.4,10.7c0.1,3.6,0.3,7.1,0.5,10.7c0.2,3.6,0.4,7.1,0.7,10.7c0.2,3.6,0.5,7.1,0.8,10.6
		c0.3,3.5,0.6,7.1,0.9,10.6c0.3,3.5,0.6,7.1,1,10.6s0.7,7.1,1.1,10.6c0.4,3.5,0.7,7.1,1.1,10.6c0.4,3.5,0.7,7.1,1.1,10.6
		c0.4,3.5,0.8,7.1,1.2,10.6c0.4,3.5,0.8,7.1,1.2,10.6c0.4,3.5,0.8,7.1,1.2,10.6c0.4,3.5,0.8,7.1,1.2,10.6c0.4,3.5,0.8,7.1,1.2,10.6
		c0.4,3.5,0.8,7.1,1.3,10.6c0.4,3.5,0.9,7.1,1.3,10.6c0.4,3.5,0.9,7.1,1.3,10.6s0.9,7.1,1.3,10.6c0.4,3.5,0.9,7.1,1.3,10.6
		c0.4,3.5,0.9,7.1,1.4,10.6c0.5,3.5,0.9,7.1,1.4,10.6c0.5,3.5,0.9,7.1,1.4,10.6c0.5,3.5,0.9,7.1,1.4,10.6c0.4,2.9,0.8,5.7,1.2,8.6
		c3.1,32.8,6.9,65.3,13.4,97.7c0.8,4,1.7,8,2.5,12.1c1.2,5.4,2.7,10.6,3.7,16.1c1.7,9.1,2,18.3,2.4,27.5c0.6,12.1,1.2,24.1,1.5,36.2
		c0.1,2.7,0,5.4,0.4,8.1c0.3,2,1.1,3.4,2.6,4.7c1.5,1.3,3.3,2.1,5,3.1c3.4,2,6.8,3.9,10.1,6.1c1,0.7,2,1.3,3,2
		c0.6,0.4,1.2,0.8,1.8,1.2c0.6,0.4,1.3,0.7,1.9,1.3c1.2,1.3,2.4,2.6,3.6,3.9c1.8,2,3.5,4,5.1,6.1c2.1,2.6,3.9,5.4,5.6,8.3
		c3.4,5.9,3.7,14.7,4.3,21c1,9.9,2,19.8,2.6,29.7c0.4,7.1,0.7,14.2,1,21.3c0.3,9.6,0.6,19.2,0.7,28.9c0.1,9.1-0.9,18.1-0.6,27.1
		c0,1.3-0.1,2.5,0.2,3.8c0,0.1,0,0.1,0.1,0.2c0,0.1,0.1,0.2,0.2,0.3c0.2,0.2,0.4,0.2,0.6,0.2c0.8,0,1.4-0.3,2.2-0.4
		c1.3-0.3,2.7-0.5,4-0.8c1.3-0.3,2.5-0.8,3.9-0.5c2.1,0.4,5,3.4,6.4,4.5c2.1,1.7,4.1,3.4,6.3,5c1.1,0.8,2.1,1.8,3.1,2.8
		c1.2,1.1,2.2,0.9,3.6,0.4c2.1-0.8,4.2-1.2,6.4-1.7c3.6-0.9,7.2-1.8,10.9-2.7c1.8-0.5,3.6-0.9,5.4-1.4c1.8-0.5,3.5-1.3,5.6-0.8
		c1.9,0.4,4.1,1.9,3.8,4.2c-0.3,2.4-2.4,4.1-4.2,2c-1.9-2.3,0.8-2.4,2.9-2.4c1.9,0,5.4,0.2,4.6-2.6c-0.2-0.6-0.9-2.2-1.8-1.7
		c-0.9,0.6-0.9,2.5-0.7,3.3c0.5,2.4,4.1,6.1,5.5,7.8c0.7,0.8,1.4,1.6,2.3,2.3c0.8,0.6,1.6,1.1,2.4,1.7c1.7,1.3,2,2.8,2.2,4.8
		c0.2,2.3,0.2,4.5,0.1,6.8c-0.1,2.1-0.3,4.2-0.4,6.4c-0.1,0.7-0.1,1.3-0.2,2c-0.1,2.3,0.7,5.4-1.1,7.6c-1.6,1.9-4.6,2.8-6.7,3.2
		c-1.8,0.4-6.8,0.8-8.5,1.6c-2.4,1.1-1.8,4-1.6,5.9c0.3,2.7,0.8,5.5,0.8,8.2c0.1,2.8-0.1,5.5-0.2,8.2c-0.1,2.8,0.3,5.5,0.4,8.3
		c0.1,4.4-1,8.2-2.5,12.2c-1.5,3.9-3.6,7.5-5,11.5c-1.3,4-1.5,8.2-2.5,12.2c-1,4.1-1.7,8.2-1.9,12.3c-0.1,2.1-0.2,4.1,0.1,6.2
		c0.3,2.1,0.6,4.1,0.5,6.2c-0.2,5.4-0.8,7,3.2,11.3c4.2,4.5,4.8,4.1,7.9,9.6c2.1,3.7,4.1,7.1,4.2,11.6c0.1,2.2-0.3,4.1-1.6,6
		c-1.4,2-3.3,2.4-5.4,3c-2,0.6-3.3,1.5-4.2,3.5c-0.7,1.7-1.3,3.4-1.8,5.1c-0.6,1.7-0.9,3.4-0.6,5.2c0.1,1,0.5,3.1,1.9,3.1
		c1.4,0,2.4-1.8,2.8-2.9c0.7-2.1,0.8-3.8-0.1-5.8c-0.8-1.9-2.2-3.5-2.9-5.5c-0.6-1.7-0.7-3.6-2.6-4.8c-1.8-1.1-4-1.1-5.6-2.7
		c-1.3-1.4-1.8-4.1-0.7-5.8c1.2-1.8,4.1-1.5,5.8-1.2c1.6,0.3,4.2,1,5.1,2.8c0.9,1.7-0.3,4.5-0.3,6c-0.1,2.4,2.4,2.7,4,3.1
		c2.8,0.7,2.4,1.6,2.2,4.1c-0.3,2.6,1,4.5,1.8,6.7c0.9,2.3,0.8,4.8,1.2,7.2c0.5,2.5,1.8,4.4,3.1,6.5c2.6,4.2,4.4,8.6,5.5,13.4
		c1.3,5.9,0.3,8.8-1.2,14.3c-1.3,4.7-3.5,9-4.3,13.8c-1.2,6.7-1.4,7.6-3.7,14c-1.6,4.6-2.7,9.3-4.5,13.8c-2.4,6.2-3.4,7.2-4.3,13.8
		c-0.4,2.4-0.6,4.8-1,7.2c-0.5,2.4-1,4.7-1.2,7.2c-0.2,2.4-0.3,4.8-1.1,7.1c-0.8,2.3-1.7,4.5-2.2,7c-0.5,2.3-0.7,4.7-1,7.1
		c-0.4,2.6-1.3,5-1.9,7.5c-0.7,3,0.4,3.6,2.6,5.2c2.1,1.5,2.4,3.1,1.8,5.5c-1,3.4-3.2,5.8-4.9,8.7c-0.9,1.6-1.6,3-1.5,4.9
		c0.2,1.9,1.5,3,2.3,4.5c1.1,2-0.7,3.7-1.9,5c-1.5,1.6-3,3.3-4.7,4.7c-1.6,1.3-3.3,2.2-5.3,2.8c-1.7,0.5-3.3,0.8-4.7,2.1
		c-2.8,2.7-1.3,7.6,0.4,10.2c2,3.1,4.8,5.3,3.5,9.8c-0.6,1.8-1.5,3.5-2.3,5.2c-0.8,1.7-1.5,3.5-1.9,5.3c-0.9,3.5-1.3,7-1.5,10.6
		c-0.5,8.1-0.3,13.4-3.4,21.2c-3.1,7.8-5.5,10.9-7,19.5c-0.6,3.4-1.1,6.9-2,10.2c-1.2,4.4-3.2,8.4-4.8,12.6c-1.4,3.4-3,8.4,1.4,10.7
		c4.8,2.6,5.4-2.4,6.9-5.5c0.7-1.5,1.4-2.7,3.4-2.2c2.3,0.6,4.7,2.8,6.3,4.2c5.7,5,10.8,10.5,17,14.9c4.4,3.1,11.1,6.3,14.4,11.3
		c2.9,4.4,3.5,7.8,6.7,12.1c2.2,2.9,4.8,5.4,6.9,8.4c2.1,2.9,4.6,7.6,4.7,11.4c0,2-0.5,3.4-2.2,4.5c-1.6,1.1-3.5,1.7-5.1,3
		c-3.2,2.5-4.7,5.8-6.5,9.2c-1.8,3.7-4,7.2-6.3,10.6c-2.1,3.2-4.2,6.1-4.4,10.3c-0.1,4.2,2.2,7.2,3.6,10.7c1.6,4.2,1.3,7.3-1.2,11
		c-1.5,2.2-4.6,5.4-7.8,4.3c-2.8-1-5.2-5-6.7-7c-5.8-7.8-10.5-9.1-18.6-13c-5.5-2.7-15.5-8.6-22.8-6.8c-4,1-6.1,3.8-8.8,6.3
		c-3.1,2.9-5.8,4.3-10.2,2.8c-4.3-1.4-7.8-4.2-11.9-5.9c-4.3-1.8-4.8-0.1-5.3,3.9c-0.8,5.1-1.7,6.8-6.3,9.4c-2.5,1.4-7,2.9-7.1,6.9
		c0,2,0.5,3.8,0.9,5.6c0.4,1.8,0.7,3.5,0.1,5.4c-1.1,3.7-5.2,6-8.1,7.5c-10.6,5.6-15.9,6.9-24,16.6c-6.2,7.5-10,15.5-12.3,24.9
		c-1.8,7.6-1.6,15-0.8,22.7c0.4,3.5,0.8,7.1,1,10.6c0.2,3.7,0.3,7.3,0.5,11c0.1,2.3,0.3,4.6,0.7,6.9c2.1,14,9.4,26.3,20.4,37.7
		c8,8.3,17.9,16.1,27.6,14.5c4.7-0.8,9.3-3.8,14.4-4.3c7.1-0.7,15.2,3.4,20.8,2.1c6.1-1.4,9.3-9.2,14.8-17.5
		c5-7.6,11.9-15.6,16.5-12.8c3.2,1.9,5.2,8.9,9.2,11.1c3.6,2,8.8,0.1,13.1,0.6c4.7,0.5,8.3,3.9,12.7,6.9c11.5,8,28.7,14,28.4,24.7
		c-0.1,3.1-1.7,6.7-0.5,11c1.4,5,6.5,11,4,11.9c-0.9,0.4-3,0-4.9,0c-6.6,0-10.6,5.1-13.6,10.4c-6.6,11.7-8,24.7-15.2,34.7
		c-3.6,4.9-8.6,9.1-12.6,13.8c-11.7,13.4-15.8,30.9-22.1,48.9c-7.1,20.3-16.9,41.3-11.8,59.2c3.8,13.2,15.7,24.6,29.6,33
		c8.7,5.3,18.2,9.4,21.8,17.2c2.3,5,2.2,11.5,4.3,17c4,10.3,15.6,17.3,27.6,17.6c10.4,0.2,21.2-4.5,28.2,2.4
		c4.5,4.5,7.5,13.9,11.9,13.9c2.9,0,6.4-4,10-6.5c4-2.7,8.1-3.6,12.3-4.2c5.1-0.8,10.4-1.2,15.5-0.7c9,0.9,17.1,4.7,26.3,7.5
		c5.6,1.7,11.6,3,15.2,6.8c2.3,2.4,3.7,5.7,5.4,8.9c1.8,3.3,4,6.4,4.7,9.5c1.2,5.8-2.5,11.7-4.7,18.7c-1.2,3.8-1.9,7.8-4.1,8.7
		c-2.8,1.2-7.9-2.7-12.3-3.4c-6.5-1-11.7,4.6-15.9,10.4c-3.8,5.2-6.8,10.6-6.3,15.9c0.4,5.1,4.1,10,7.5,14.8c7,9.5,13.3,18,19.9,26.6
		c3.6,4.6,7.2,9.3,10.9,14.1c7.4,9.8,15,20.4,17.1,31.7c1.7,9.5-0.5,19.5,0.1,30.5c0.4,7.3,2,15-1.5,20c-2.2,3-6.2,5-10.3,6.5
		c-9.8,3.5-19.4,4-28.8,5.6c-13.1,2.2-25.9,6.6-38.9,11.4c-6.4,2.4-12.9,4.9-18.1,8.8c-6.4,4.8-11,11.9-15.8,18.8
		c-2.8,4.1-5.7,8.1-6.9,12.6c-2.2,8.3,1,18.4-0.6,26.2c-1.6,7.9-7.9,13.4-13.5,22.6c-2.6,4.2-5,9.3-7.8,9.3c-2.9,0-6.2-5.4-10-8
		c-2.6-1.7-5.5-2.1-8.2-2.8c-5.3-1.3-10.4-3.9-15.6-5.9c-11.7-4.4-24.5-5.8-35.1-12.4c-6.6-4.1-12.3-10.2-22.1-7.2
		c-6.3,1.9-14.3,7.7-11.7,9.4c1.4,0.9,5.6,0.7,7.4,2.2c2,1.6,1.3,5.1,0.7,8.4c-1.8,9.9-2.3,17.3-5.9,25c-2.6,5.4-6.7,10.9-6.9,16.6
		c-0.1,3.6,1.3,7.3,2.9,10.8c4.1,8.8,9.7,16.3,17.2,22.4c7.5,6,17,10.6,20.8,19.2c1.2,2.8,1.9,6,3.8,8.2c1.5,1.8,3.7,3,5.8,3.8
		c1.5,0.7,3,1.6,4.1,2.8c1.5,1.5,2.2,3.5,3.7,5.4c0.7,0.9,1.6,1.8,1.7,2.6c0.1,1.1-1.2,2.1-2.5,3.1c-0.5,0.4-1,0.8-1.5,0.6
		c-0.2-0.1-0.4-0.4-0.5-0.6c-0.3-0.6,0.3-0.9,0.8-1.3c2.1-1.3,3.9-3.2,5.6-2.8c0.5,0.1,1,0.5,1.5,0.9c1.1,1,2.1,2.5,3.2,4
		c0.6,0.8,1.1,1.6,1.7,2.3c0.9,1.2,1.8,2.5,2.7,3.7c0.3,0.5,0.7,0.9,1,1.4c7.5,11.5,22.2,23.6,31.4,33.1c5.4,5.5,10.5,11.2,15.9,16.7
		c5.4,5.4,10.9,10.7,16.4,15.9c11,10.6,21.7,21.4,32.8,32c5.5,5.3,11.2,10.3,16.9,15.4c6.7,5.9,13.4,12,20,18
		c29.8,27.3,59.8,54.3,88.2,83.1c8.5,8.6,16.7,17.4,25.1,26c6.9,7.2,13.9,14.3,20.8,21.6c6.5,6.9,17.4,18.4,20.8,28
		c2.8,7.7,0.1,13.4-2.9,20c-3,6.7-5.1,13.6-7.2,20.5c-2.2,7-4.6,14-7.2,20.9c-5,13.7-9.8,27.5-14.8,41.3
		c-4.9,13.7-9.6,27.6-14.5,41.3c-1.7,4.7-3.4,9.4-5,14.1c-1.8,5.1-3.3,10.3-5.6,15.2c-2.8,5.9-6.4,10.5-11.6,14.4
		c-6.8,5.1-14.4,8.2-22.2,11.1c-18.3,6.9-37.1,11.8-55.6,17.7c-17.3,5.4-34.3,11.3-51,18.4c-8,3.4-15.8,7.3-23.7,11
		c-6.9,3.3-13.9,6.4-21,9.5c-14.1,6.2-28.2,12.2-42.2,18.3c-28.2,12.2-56.3,24.3-83.7,38.2c-27.9,14.2-54.7,30-81.6,45.9
		c-26.9,15.9-53.6,32-80.2,48.3c-29.6,18.2-59.3,36.3-87.9,56.1c-14.3,9.9-28.3,20.1-41.9,31c-3.4,2.7-6.7,5.5-10.1,8.3
		c-2,1.7-3.7,3.6-5.4,5.6c-2.2,2.6-4.2,5.3-6,8.1c-3.3,5.2-6.1,10.7-8.5,16.4c-2.7,6.5-5.3,13.1-7,20c-1.1,4.5-1.8,9.1-2.2,13.7
		c-0.5,5.4-0.5,10.7,0.4,16.1c1.1,7,3.4,13.5,5.4,20.2c2.8,9.5,5.6,18.9,7.9,28.6c2.4,10.4,4.8,20.8,7.1,31.2
		c0.7,3.3,2.8,10.4,6.6,12.3c3.9,1.9,8.5-0.7,11.5-2.4c0.3-0.2,0.5-0.3,0.8-0.5c0.2-0.2,0.4-0.3,0.6-0.6c1.9-2.1,0.9-4.1,0.6-6.3
		c-1.5-9.4-3.3-13.9,0.5-19.1c3.8-5.1,13.2-10.9,20.2-14c6.9-3,11.4-3.3,16.9,0.1c5.5,3.4,12,10.6,18.2,16.8
		c6.2,6.2,12.1,11.4,18.1,16.9c6,5.5,12.1,11.2,18.1,16.9c6.1,5.7,12.1,11.2,18.2,16.8c6.1,5.6,12.2,11.2,18.2,16.8
		s12.2,11.1,18.3,16.7s12.2,11.1,18.2,16.8c6,5.7,11.9,11.5,17.7,17.3s11.7,11.7,17.5,17.5c5.8,5.8,11.7,11.6,17.6,17.4
		c6,5.8,12.1,11.7,19,15.7c2.1,1.2,4.2,2.2,6.4,3.1"/>
	
	<g>
		<rect x="1119.5" y="688.8" class="st5" width="269.3" height="126.9"/>
		<text transform="matrix(1 0 0 1 1119.5072 702.2817)"><tspan x="0" y="0" class="st6 st2">Venzen stops his car at a deli to </tspan><tspan x="0" y="21.6" class="st6 st2">get some cardboard boxes from </tspan><tspan x="0" y="43.2" class="st6 st2">a man who works there.</tspan></text>
	</g>
	<g>
		<rect x="774.2" y="1309" class="st5" width="266.3" height="69.5"/>
		<text transform="matrix(1 0 0 1 774.1838 1322.5292)"><tspan x="0" y="0" class="st6 st2">Venzen stops at another deli to </tspan><tspan x="0" y="21.6" class="st6 st2">get cardboard boxes that the </tspan><tspan x="0" y="43.2" class="st6 st2">owner keeps aside for him.</tspan></text>
	</g>
	<g>
		<rect x="1046.7" y="2503.3" class="st5" width="464.8" height="43.5"/>
		<text transform="matrix(1 0 0 1 1046.6704 2516.8369)"><tspan x="0" y="0" class="st6 st2">A latino guy fixing his car. He’s also a local at the park. “I </tspan><tspan x="0" y="21.6" class="st6 st2">told you!” Vincent scolds me because I shook his hands.</tspan></text>
	</g>
	<g>
		<rect x="1072.8" y="2707.1" class="st5" width="375.7" height="79.4"/>
		<text transform="matrix(1 0 0 1 1072.839 2720.6497)"><tspan x="0" y="0" class="st6 st2">An Ecuadorian sells grilled meat and french </tspan><tspan x="0" y="21.6" class="st6 st2">fries under a tent. He leaves his bag with them, </tspan><tspan x="0" y="43.2" class="st6 st2">to collect empty bottles from their clients.</tspan></text>
	</g>
	<g>
		<rect x="1137.9" y="3504.6" class="st5" width="344.6" height="51.7"/>
		<text transform="matrix(1 0 0 1 1137.9274 3518.1047)"><tspan x="0" y="0" class="st6 st2">Two cops patrol the park. Venzen greets </tspan><tspan x="0" y="21.6" class="st6 st2">them and thanks them for their work.</tspan></text>
	</g>
	<g>
		<rect x="564" y="3759.1" class="st5" width="387.9" height="68.8"/>
		<text transform="matrix(1 0 0 1 584.576 3772.6409)"><tspan x="0" y="0" class="st6 st2">While walking back to his car, he bumps into a </tspan><tspan x="3.7" y="21.6" class="st6 st2">park ranger. They chat like they’re colleagues.</tspan></text>
	</g>
	<g>
		<rect x="559.1" y="2800.7" class="st5" width="253.6" height="116.1"/>
		<text transform="matrix(1 0 0 1 563.9644 2814.2039)"><tspan x="0" y="0" class="st6 st2">A group of young men sits on a </tspan><tspan x="43.4" y="21.6" class="st6 st2">bench watching a softball </tspan><tspan x="42.8" y="43.2" class="st6 st2">game and gives him three </tspan><tspan x="27.4" y="64.8" class="st6 st2">empty cans. Venzen says in </tspan><tspan x="13.9" y="86.4" class="st6 st2">this park they play for money.</tspan></text>
	</g>
	<g>
		<rect x="556.1" y="3014.5" class="st5" width="348.7" height="46.2"/>
		<text transform="matrix(1 0 0 1 612.9655 3028.0237)"><tspan x="0" y="0" class="st6 st2">Venzen chats with a young man who </tspan><tspan x="-50.9" y="21.6" class="st6 st2">thanks him for help keeping the park clean.</tspan></text>
	</g>
	<g>
		<rect x="1027.6" y="2790.5" class="st5" width="398.6" height="64.6"/>
		<text transform="matrix(1 0 0 1 1027.6189 2804.0254)"><tspan x="0" y="0" class="st7 st2">“Completo?</tspan><tspan x="92.7" y="0" class="st6 st2">” A group of latino guy rush to finish </tspan><tspan x="0" y="21.6" class="st6 st2">their beers and give him four empty bottles. </tspan><tspan x="0" y="43.2" class="st6 st2">Venzen tries his best to speak Spanish.</tspan></text>
	</g>
	<g>
		<rect x="1102.2" y="2998.6" class="st5" width="381.2" height="64.6"/>
		<text transform="matrix(1 0 0 1 1102.2035 3012.1182)"><tspan x="0" y="0" class="st6 st2">A group of latino men eating grilled meat and </tspan><tspan x="0" y="21.6" class="st6 st2">drinking beer next to a temporary tent and a </tspan><tspan x="0" y="43.2" class="st6 st2">volleyball field give him two empty bottles.</tspan></text>
	</g>
	<image style="overflow:visible;" width="1030" height="1252" xlink:href="../../img/venzen/Hand.png"  transform="matrix(4.316688e-02 0 0 4.316688e-02 1060.3126 684.3851)">
	</image>
	<image style="overflow:visible;" width="1030" height="1252" xlink:href="../../img/venzen/Hand.png"  transform="matrix(4.316688e-02 0 0 4.316688e-02 713.9892 1304.6326)">
	</image>
	<image style="overflow:visible;" width="1030" height="1252" xlink:href="../../img/venzen/Hand.png"  transform="matrix(4.316688e-02 0 0 4.316688e-02 986.4756 2493.9402)">
	</image>
	<image style="overflow:visible;" width="1030" height="1252" xlink:href="../../img/venzen/Hand.png"  transform="matrix(4.316688e-02 0 0 4.316688e-02 1012.6443 2707.1479)">
	</image>
	<image style="overflow:visible;" width="1030" height="1252" xlink:href="../../img/venzen/Hand.png"  transform="matrix(4.316688e-02 0 0 4.316688e-02 1077.7327 3489.603)">
	</image>
	<image style="overflow:visible;" width="1030" height="1252" xlink:href="../../img/venzen/Hand.png"  transform="matrix(4.316688e-02 0 0 4.316688e-02 965.7455 3745.1387)">
	</image>
	<image style="overflow:visible;" width="1030" height="1252" xlink:href="../../img/venzen/Hand.png"  transform="matrix(4.316688e-02 0 0 4.316688e-02 822.4003 2749.7285)">
	</image>
	<image style="overflow:visible;" width="1030" height="1252" xlink:href="../../img/venzen/Hand.png"  transform="matrix(4.316688e-02 0 0 4.316688e-02 885.5754 2788.354)">
	</image>
	<image style="overflow:visible;" width="1104" height="965" xlink:href="../../img/venzen/Cart.png"  transform="matrix(7.028736e-02 0 0 7.028736e-02 1071.7322 600.9973)">
	</image>
	<image style="overflow:visible;" width="1058" height="750" xlink:href="../../img/venzen/Comment.png"  transform="matrix(5.792760e-02 0 0 5.792760e-02 1005.8384 2333.2437)">
	</image>
	<image style="overflow:visible;" width="1058" height="750" xlink:href="../../img/venzen/Comment.png"  transform="matrix(5.792760e-02 0 0 5.792760e-02 860.7485 1786.9521)">
	</image>
	<image style="overflow:visible;" width="1058" height="750" xlink:href="../../img/venzen/Comment.png"  transform="matrix(5.792760e-02 0 0 5.792760e-02 1001.1665 2158.6399)">
	</image>
	<image style="overflow:visible;" width="1058" height="750" xlink:href="../../img/venzen/Comment.png"  transform="matrix(5.792760e-02 0 0 5.792760e-02 847.87 2866.9458)">
	</image>
	<image style="overflow:visible;" width="1058" height="750" xlink:href="../../img/venzen/Comment.png"  transform="matrix(5.792760e-02 0 0 5.792760e-02 1004.3159 3173.8191)">
	</image>
	<image style="overflow:visible;" width="1058" height="750" xlink:href="../../img/venzen/Comment.png"  transform="matrix(5.792760e-02 0 0 5.792760e-02 974.4662 3648.322)">
	</image>
	<image style="overflow:visible;" width="1058" height="750" xlink:href="../../img/venzen/Comment.png"  transform="matrix(5.792760e-02 0 0 5.792760e-02 874.9542 2555.8083)">
	</image>
	<image style="overflow:visible;" width="1058" height="750" xlink:href="../../img/venzen/Comment.png"  transform="matrix(5.792760e-02 0 0 5.792760e-02 874.9542 2637.9619)">
	</image>
	<image style="overflow:visible;" width="216" height="551" xlink:href="../../img/venzen/Plastic.png"  transform="matrix(0.1091 0 0 0.1091 911.3507 2327.4668)">
	</image>
	<image style="overflow:visible;" width="216" height="551" xlink:href="../../img/venzen/Plastic.png"  transform="matrix(0.1091 0 0 0.1091 936.5758 2327.4668)">
	</image>
	<image style="overflow:visible;" width="216" height="551" xlink:href="../../img/venzen/Plastic.png"  transform="matrix(0.1091 0 0 0.1091 977.9075 2551.4568)">
	</image>
	<image style="overflow:visible;" width="216" height="551" xlink:href="../../img/venzen/Plastic.png"  transform="matrix(0.1091 0 0 0.1091 1003.1326 2551.4568)">
	</image>
	<image style="overflow:visible;" width="216" height="551" xlink:href="../../img/venzen/Plastic.png"  transform="matrix(0.1091 0 0 0.1091 1135.9226 2625.9363)">
	</image>
	<image style="overflow:visible;" width="216" height="551" xlink:href="../../img/venzen/Plastic.png"  transform="matrix(0.1091 0 0 0.1091 1161.1476 2625.9363)">
	</image>
	<image style="overflow:visible;" width="216" height="551" xlink:href="../../img/venzen/Plastic.png"  transform="matrix(0.1091 0 0 0.1091 1161.7864 2922.8674)">
	</image>
	<image style="overflow:visible;" width="216" height="551" xlink:href="../../img/venzen/Plastic.png"  transform="matrix(0.1091 0 0 0.1091 1185.3555 2922.8674)">
	</image>
	<image style="overflow:visible;" width="216" height="551" xlink:href="../../img/venzen/Plastic.png"  transform="matrix(0.1091 0 0 0.1091 828.9232 2932.5869)">
	</image>
	<image style="overflow:visible;" width="216" height="551" xlink:href="../../img/venzen/Plastic.png"  transform="matrix(0.1091 0 0 0.1091 901.3507 2483.1206)">
	</image>
	<image style="overflow:visible;" width="216" height="551" xlink:href="../../img/venzen/Plastic.png"  transform="matrix(0.1091 0 0 0.1091 926.5758 2483.1206)">
	</image>
	<image style="overflow:visible;" width="243" height="375" xlink:href="../../img/venzen/Can.png"  transform="matrix(9.595800e-02 0 0 9.595800e-02 1029.1035 2572.0422)">
	</image>
	<image style="overflow:visible;" width="243" height="375" xlink:href="../../img/venzen/Can.png"  transform="matrix(9.595800e-02 0 0 9.595800e-02 1052.4214 2572.0422)">
	</image>
	<image style="overflow:visible;" width="243" height="375" xlink:href="../../img/venzen/Can.png"  transform="matrix(9.595800e-02 0 0 9.595800e-02 1075.7391 2572.0422)">
	</image>
	<image style="overflow:visible;" width="243" height="375" xlink:href="../../img/venzen/Can.png"  transform="matrix(9.595800e-02 0 0 9.595800e-02 747.3696 2759.5845)">
	</image>
	<image style="overflow:visible;" width="243" height="375" xlink:href="../../img/venzen/Can.png"  transform="matrix(9.595800e-02 0 0 9.595800e-02 956.6503 3272.3564)">
	</image>
	<image style="overflow:visible;" width="243" height="375" xlink:href="../../img/venzen/Can.png"  transform="matrix(9.595800e-02 0 0 9.595800e-02 770.6874 2759.5845)">
	</image>
	<image style="overflow:visible;" width="243" height="375" xlink:href="../../img/venzen/Can.png"  transform="matrix(9.595800e-02 0 0 9.595800e-02 794.0051 2759.5845)">
	</image>
	<image style="overflow:visible;" width="243" height="375" xlink:href="../../img/venzen/Can.png"  transform="matrix(9.595800e-02 0 0 9.595800e-02 816.7372 3507.7146)">
	</image>
	<image style="overflow:visible;" width="243" height="375" xlink:href="../../img/venzen/Can.png"  transform="matrix(9.595800e-02 0 0 9.595800e-02 840.0549 3507.7146)">
	</image>
	<image style="overflow:visible;" width="243" height="375" xlink:href="../../img/venzen/Can.png"  transform="matrix(9.595800e-02 0 0 9.595800e-02 863.3727 3507.7146)">
	</image>
	<image style="overflow:visible;" width="243" height="375" xlink:href="../../img/venzen/Can.png"  transform="matrix(9.595800e-02 0 0 9.595800e-02 746.7838 3507.7146)">
	</image>
	<image style="overflow:visible;" width="243" height="375" xlink:href="../../img/venzen/Can.png"  transform="matrix(9.595800e-02 0 0 9.595800e-02 770.1016 3507.7146)">
	</image>
	<image style="overflow:visible;" width="243" height="375" xlink:href="../../img/venzen/Can.png"  transform="matrix(9.595800e-02 0 0 9.595800e-02 793.4194 3507.7146)">
	</image>
	<image style="overflow:visible;" width="243" height="375" xlink:href="../../img/venzen/Can.png"  transform="matrix(9.595800e-02 0 0 9.595800e-02 700.0629 3507.7146)">
	</image>
	<image style="overflow:visible;" width="243" height="375" xlink:href="../../img/venzen/Can.png"  transform="matrix(9.595800e-02 0 0 9.595800e-02 723.3807 3507.7146)">
	</image>
	<image style="overflow:visible;" width="243" height="375" xlink:href="../../img/venzen/Can.png"  transform="matrix(9.595800e-02 0 0 9.595800e-02 893.9406 2597.8386)">
	</image>
	<image style="overflow:visible;" width="243" height="375" xlink:href="../../img/venzen/Can.png"  transform="matrix(9.595800e-02 0 0 9.595800e-02 1004.3018 2636.1814)">
	</image>
	<image style="overflow:visible;" width="194" height="592" xlink:href="../../img/venzen/Glass.png"  transform="matrix(9.918400e-02 0 0 9.918400e-02 979.8449 2615.551)">
	</image>
	<image style="overflow:visible;" width="194" height="592" xlink:href="../../img/venzen/Glass.png"  transform="matrix(9.918400e-02 0 0 9.918400e-02 1092.3287 2626.6401)">
	</image>
	<image style="overflow:visible;" width="194" height="592" xlink:href="../../img/venzen/Glass.png"  transform="matrix(9.918400e-02 0 0 9.918400e-02 1112.4673 2626.6401)">
	</image>
	<image style="overflow:visible;" width="216" height="551" xlink:href="../../img/venzen/Plastic.png"  transform="matrix(0.1091 0 0 0.1091 757.584 2932.5869)">
	</image>
	<image style="overflow:visible;" width="216" height="551" xlink:href="../../img/venzen/Plastic.png"  transform="matrix(0.1091 0 0 0.1091 734.015 2932.5869)">
	</image>
	<image style="overflow:visible;" width="216" height="551" xlink:href="../../img/venzen/Plastic.png"  transform="matrix(0.1091 0 0 0.1091 599.0784 2931.8921)">
	</image>
	<image style="overflow:visible;" width="216" height="551" xlink:href="../../img/venzen/Plastic.png"  transform="matrix(0.1091 0 0 0.1091 575.5094 2931.8921)">
	</image>
	<image style="overflow:visible;" width="216" height="551" xlink:href="../../img/venzen/Plastic.png"  transform="matrix(0.1091 0 0 0.1091 551.9404 2931.8921)">
	</image>
	<image style="overflow:visible;" width="216" height="551" xlink:href="../../img/venzen/Plastic.png"  transform="matrix(0.1091 0 0 0.1091 781.153 2932.5869)">
	</image>
	<image style="overflow:visible;" width="194" height="592" xlink:href="../../img/venzen/Glass.png"  transform="matrix(9.918400e-02 0 0 9.918400e-02 714.7741 2933.2908)">
	</image>
	<image style="overflow:visible;" width="216" height="551" xlink:href="../../img/venzen/Plastic.png"  transform="matrix(0.1091 0 0 0.1091 1238.9226 2625.9363)">
	</image>
	<image style="overflow:visible;" width="216" height="551" xlink:href="../../img/venzen/Plastic.png"  transform="matrix(0.1091 0 0 0.1091 804.722 2932.5869)">
	</image>
	<image style="overflow:visible;" width="216" height="551" xlink:href="../../img/venzen/Plastic.png"  transform="matrix(0.1091 0 0 0.1091 875.7451 3608.0452)">
	</image>
	<image style="overflow:visible;" width="216" height="551" xlink:href="../../img/venzen/Plastic.png"  transform="matrix(0.1091 0 0 0.1091 805.0381 3608.0452)">
	</image>
	<image style="overflow:visible;" width="216" height="551" xlink:href="../../img/venzen/Plastic.png"  transform="matrix(0.1091 0 0 0.1091 781.3087 3608.0452)">
	</image>
	<image style="overflow:visible;" width="216" height="551" xlink:href="../../img/venzen/Plastic.png"  transform="matrix(0.1091 0 0 0.1091 828.6071 3608.0452)">
	</image>
	<image style="overflow:visible;" width="216" height="551" xlink:href="../../img/venzen/Plastic.png"  transform="matrix(0.1091 0 0 0.1091 852.1761 3608.0452)">
	</image>
	<image style="overflow:visible;" width="216" height="551" xlink:href="../../img/venzen/Plastic.png"  transform="matrix(0.1091 0 0 0.1091 757.8121 3608.0452)">
	</image>
	<image style="overflow:visible;" width="216" height="551" xlink:href="../../img/venzen/Plastic.png"  transform="matrix(0.1091 0 0 0.1091 687.0172 3608.0452)">
	</image>
	<image style="overflow:visible;" width="216" height="551" xlink:href="../../img/venzen/Plastic.png"  transform="matrix(0.1091 0 0 0.1091 662.7982 3608.0452)">
	</image>
	<image style="overflow:visible;" width="216" height="551" xlink:href="../../img/venzen/Plastic.png"  transform="matrix(0.1091 0 0 0.1091 639.2292 3608.0452)">
	</image>
	<image style="overflow:visible;" width="216" height="551" xlink:href="../../img/venzen/Plastic.png"  transform="matrix(0.1091 0 0 0.1091 710.5862 3608.0452)">
	</image>
	<image style="overflow:visible;" width="216" height="551" xlink:href="../../img/venzen/Plastic.png"  transform="matrix(0.1091 0 0 0.1091 734.1552 3608.0452)">
	</image>
	<image style="overflow:visible;" width="194" height="592" xlink:href="../../img/venzen/Glass.png"  transform="matrix(9.918400e-02 0 0 9.918400e-02 1215.4673 2626.6401)">
	</image>
	<image style="overflow:visible;" width="194" height="592" xlink:href="../../img/venzen/Glass.png"  transform="matrix(9.918400e-02 0 0 9.918400e-02 1053.8455 2626.6401)">
	</image>
	<image style="overflow:visible;" width="194" height="592" xlink:href="../../img/venzen/Glass.png"  transform="matrix(9.918400e-02 0 0 9.918400e-02 1073.0872 2626.6401)">
	</image>
	<image style="overflow:visible;" width="194" height="592" xlink:href="../../img/venzen/Glass.png"  transform="matrix(9.918400e-02 0 0 9.918400e-02 1142.5455 2923.571)">
	</image>
	<image style="overflow:visible;" width="194" height="592" xlink:href="../../img/venzen/Glass.png"  transform="matrix(9.918400e-02 0 0 9.918400e-02 1104.0623 2923.571)">
	</image>
	<image style="overflow:visible;" width="194" height="592" xlink:href="../../img/venzen/Glass.png"  transform="matrix(9.918400e-02 0 0 9.918400e-02 1123.304 2923.571)">
	</image>
	<image style="overflow:visible;" width="194" height="592" xlink:href="../../img/venzen/Glass.png"  transform="matrix(9.918400e-02 0 0 9.918400e-02 1064.682 2923.571)">
	</image>
	<image style="overflow:visible;" width="194" height="592" xlink:href="../../img/venzen/Glass.png"  transform="matrix(9.918400e-02 0 0 9.918400e-02 1084.8207 2923.571)">
	</image>
	<image style="overflow:visible;" width="194" height="592" xlink:href="../../img/venzen/Glass.png"  transform="matrix(9.918400e-02 0 0 9.918400e-02 1026.1987 2923.571)">
	</image>
	<image style="overflow:visible;" width="194" height="592" xlink:href="../../img/venzen/Glass.png"  transform="matrix(9.918400e-02 0 0 9.918400e-02 1045.4403 2923.571)">
	</image>
	<image style="overflow:visible;" width="194" height="592" xlink:href="../../img/venzen/Glass.png"  transform="matrix(9.918400e-02 0 0 9.918400e-02 870.9575 3549.3291)">
	</image>
	<image style="overflow:visible;" width="194" height="592" xlink:href="../../img/venzen/Glass.png"  transform="matrix(9.918400e-02 0 0 9.918400e-02 832.4742 3549.3291)">
	</image>
	<image style="overflow:visible;" width="194" height="592" xlink:href="../../img/venzen/Glass.png"  transform="matrix(9.918400e-02 0 0 9.918400e-02 851.7159 3549.3291)">
	</image>
	<image style="overflow:visible;" width="194" height="592" xlink:href="../../img/venzen/Glass.png"  transform="matrix(9.918400e-02 0 0 9.918400e-02 793.0941 3549.3291)">
	</image>
	<image style="overflow:visible;" width="194" height="592" xlink:href="../../img/venzen/Glass.png"  transform="matrix(9.918400e-02 0 0 9.918400e-02 813.2327 3549.3291)">
	</image>
	<image style="overflow:visible;" width="194" height="592" xlink:href="../../img/venzen/Glass.png"  transform="matrix(9.918400e-02 0 0 9.918400e-02 754.6107 3549.3291)">
	</image>
	<image style="overflow:visible;" width="194" height="592" xlink:href="../../img/venzen/Glass.png"  transform="matrix(9.918400e-02 0 0 9.918400e-02 773.8524 3549.3291)">
	</image>
	<image style="overflow:visible;" width="194" height="592" xlink:href="../../img/venzen/Glass.png"  transform="matrix(9.918400e-02 0 0 9.918400e-02 715.2304 3549.3291)">
	</image>
	<image style="overflow:visible;" width="194" height="592" xlink:href="../../img/venzen/Glass.png"  transform="matrix(9.918400e-02 0 0 9.918400e-02 735.3691 3549.3291)">
	</image>
	<image style="overflow:visible;" width="194" height="592" xlink:href="../../img/venzen/Glass.png"  transform="matrix(9.918400e-02 0 0 9.918400e-02 676.7473 3549.3291)">
	</image>
	<image style="overflow:visible;" width="194" height="592" xlink:href="../../img/venzen/Glass.png"  transform="matrix(9.918400e-02 0 0 9.918400e-02 695.9888 3549.3291)">
	</image>
	<image style="overflow:visible;" width="194" height="592" xlink:href="../../img/venzen/Glass.png"  transform="matrix(9.918400e-02 0 0 9.918400e-02 1270.3237 2923.571)">
	</image>
	<image style="overflow:visible;" width="194" height="592" xlink:href="../../img/venzen/Glass.png"  transform="matrix(9.918400e-02 0 0 9.918400e-02 1231.8406 2923.571)">
	</image>
	<image style="overflow:visible;" width="194" height="592" xlink:href="../../img/venzen/Glass.png"  transform="matrix(9.918400e-02 0 0 9.918400e-02 1251.0822 2923.571)">
	</image>
	<image style="overflow:visible;" width="194" height="592" xlink:href="../../img/venzen/Glass.png"  transform="matrix(9.918400e-02 0 0 9.918400e-02 1020.7629 3251.8557)">
	</image>
	<image style="overflow:visible;" width="194" height="592" xlink:href="../../img/venzen/Glass.png"  transform="matrix(9.918400e-02 0 0 9.918400e-02 982.2797 3251.8557)">
	</image>
	<image style="overflow:visible;" width="194" height="592" xlink:href="../../img/venzen/Glass.png"  transform="matrix(9.918400e-02 0 0 9.918400e-02 1001.5212 3251.8557)">
	</image>
	<image style="overflow:visible;" width="194" height="592" xlink:href="../../img/venzen/Glass.png"  transform="matrix(9.918400e-02 0 0 9.918400e-02 971.7618 2790.0229)">
	</image>
	<image style="overflow:visible;" width="194" height="592" xlink:href="../../img/venzen/Glass.png"  transform="matrix(9.918400e-02 0 0 9.918400e-02 991.9005 2790.0229)">
	</image>
	<image style="overflow:visible;" width="194" height="592" xlink:href="../../img/venzen/Glass.png"  transform="matrix(9.918400e-02 0 0 9.918400e-02 933.2786 2790.0229)">
	</image>
	<image style="overflow:visible;" width="194" height="592" xlink:href="../../img/venzen/Glass.png"  transform="matrix(9.918400e-02 0 0 9.918400e-02 952.5203 2790.0229)">
	</image>
	<image style="overflow:visible;" width="1030" height="1252" xlink:href="../../img/venzen/Hand.png"  transform="matrix(4.316688e-02 0 0 4.316688e-02 1004.3242 2996.4468)">
	</image>
	<image style="overflow:visible;" width="1030" height="1252" xlink:href="../../img/venzen/Hand.png"  transform="matrix(4.316688e-02 0 0 4.316688e-02 918.5648 2996.4468)">
	</image>
	<image style="overflow:visible;" width="194" height="592" xlink:href="../../img/venzen/Glass.png"  transform="matrix(9.918400e-02 0 0 9.918400e-02 1052.0275 2998.1157)">
	</image>
	<image style="overflow:visible;" width="194" height="592" xlink:href="../../img/venzen/Glass.png"  transform="matrix(9.918400e-02 0 0 9.918400e-02 1071.269 2998.1157)">
	</image>
	<image style="overflow:visible;" width="194" height="592" xlink:href="../../img/venzen/Glass.png"  transform="matrix(9.918400e-02 0 0 9.918400e-02 676.2908 2933.2908)">
	</image>
	<image style="overflow:visible;" width="194" height="592" xlink:href="../../img/venzen/Glass.png"  transform="matrix(9.918400e-02 0 0 9.918400e-02 695.5325 2933.2908)">
	</image>
	<image style="overflow:visible;" width="194" height="592" xlink:href="../../img/venzen/Glass.png"  transform="matrix(9.918400e-02 0 0 9.918400e-02 637.8076 2933.2908)">
	</image>
	<image style="overflow:visible;" width="194" height="592" xlink:href="../../img/venzen/Glass.png"  transform="matrix(9.918400e-02 0 0 9.918400e-02 657.0493 2933.2908)">
	</image>
	<image style="overflow:visible;" width="194" height="592" xlink:href="../../img/venzen/Glass.png"  transform="matrix(9.918400e-02 0 0 9.918400e-02 532.6996 2932.5959)">
	</image>
	<image style="overflow:visible;" width="973" height="1198" xlink:href="../../img/venzen/trash_bag-0.png"  transform="matrix(6.129400e-02 0 0 6.129400e-02 74.9054 1731.4928)">
	</image>
	<image style="overflow:visible;" width="973" height="1198" xlink:href="../../img/venzen/trash_bag-1.png"  transform="matrix(6.129400e-02 0 0 6.129400e-02 74.9054 2809.6885)">
	</image>
	<image style="overflow:visible;" width="973" height="1198" xlink:href="../../img/venzen/trash_bag-3.png"  transform="matrix(6.129400e-02 0 0 6.129400e-02 74.9054 3612.8892)">
	</image>
	<image style="overflow:visible;" width="973" height="1198" xlink:href="../../img/venzen/trash_bag-3.png"  transform="matrix(6.129400e-02 0 0 6.129400e-02 74.9054 4568.0645)">
	</image>
	<image style="overflow:visible;" width="1709" height="1318" xlink:href="../../img/venzen/Camera.png"  transform="matrix(3.302100e-02 0 0 3.302100e-02 246.6737 2579.8826)">
	</image>
	<image style="overflow:visible;" width="1709" height="1318" xlink:href="../../img/venzen/Camera.png"  transform="matrix(3.302100e-02 0 0 3.302100e-02 681.859 2752.0469)">
	</image>
	<image style="overflow:visible;" width="1709" height="1318" xlink:href="../../img/venzen/Camera.png"  transform="matrix(3.302100e-02 0 0 3.302100e-02 246.6737 3211.7395)">
	</image>
	<image style="overflow:visible;" width="1709" height="1318" xlink:href="../../img/venzen/Camera.png"  transform="matrix(3.302100e-02 0 0 3.302100e-02 1044.0072 3643.6406)">
	</image>
	<g>
		<path d="M963.7,2376.6c0,4.6,0,9.3,0,13.9c0.6-0.3,1.2-0.6,1.8-0.9c-19.7,0-39.4,0-59.2,0c0.3,0.2,0.5,0.4,0.8,0.6
			c0-4.6,0-9.3,0-13.9c0-1.1-2.6-0.6-2.6,0.3c0,4.6,0,9.3,0,13.9c0,0.4,0.4,0.6,0.8,0.6c19.7,0,39.4,0,59.2,0c0.4,0,1.8-0.2,1.8-0.9
			c0-4.6,0-9.3,0-13.9C966.3,2375.2,963.7,2375.7,963.7,2376.6L963.7,2376.6z"/>
	</g>
	<g>
		<path d="M1101.6,2598.6c0,4.6,0,9.3,0,13.9c0.6-0.3,1.2-0.6,1.8-0.9c-19.7,0-110.8,0-130.5,0c0.3,0.2,0.5,0.4,0.8,0.6
			c0-4.6,0-9.3,0-13.9c0-1.1-2.6-0.6-2.6,0.3c0,4.6,0,9.3,0,13.9c0,0.4,0.4,0.6,0.8,0.6c19.7,0,110.8,0,130.5,0
			c0.4,0,1.8-0.2,1.8-0.9c0-4.6,0-9.3,0-13.9C1104.2,2597.2,1101.6,2597.7,1101.6,2598.6L1101.6,2598.6z"/>
	</g>
	<g>
		<path d="M1189.4,2672.1c0,4.6,0,9.3,0,13.9c0.6-0.3,1.2-0.6,1.8-0.9c-19.7,0-122.8,0-142.5,0c0.3,0.2,0.5,0.4,0.8,0.6
			c0-4.6,0-9.3,0-13.9c0-1.1-2.6-0.6-2.6,0.3c0,4.6,0,9.3,0,13.9c0,0.4,0.4,0.6,0.8,0.6c19.7,0,122.8,0,142.5,0
			c0.4,0,1.8-0.2,1.8-0.9c0-4.6,0-9.3,0-13.9C1192,2670.7,1189.4,2671.2,1189.4,2672.1L1189.4,2672.1z"/>
	</g>
	<g>
		<path d="M855.8,2980c0,4.6,0,9.3,0,13.9c0.6-0.3,1.2-0.6,1.8-0.9c-19.7,0-203.7,0-223.4,0c0.3,0.2,0.5,0.4,0.8,0.6
			c0-4.6,0-9.3,0-13.9c0-1.1-2.6-0.6-2.6,0.3c0,4.6,0,9.3,0,13.9c0,0.4,0.4,0.6,0.8,0.6c19.7,0,203.7,0,223.4,0
			c0.4,0,1.8-0.2,1.8-0.9c0-4.6,0-9.3,0-13.9C858.4,2978.6,855.8,2979.1,855.8,2980L855.8,2980z"/>
	</g>
	<g>
		<path d="M907.9,3655.8c0,4.6,0,9.3,0,13.9c0.6-0.3,1.2-0.6,1.8-0.9c-19.8,0-255.7,0-275.5,0c0.3,0.2,0.5,0.4,0.8,0.6
			c0-4.6,0-9.3,0-13.9c0-1.1-2.6-0.6-2.6,0.3c0,4.6,0,9.3,0,13.9c0,0.4,0.4,0.6,0.8,0.6c19.7,0,255.8,0,275.5,0
			c0.4,0,1.8-0.2,1.8-0.9c0-4.6,0-9.3,0-13.9C910.5,3654.4,907.9,3654.9,907.9,3655.8L907.9,3655.8z"/>
	</g>
	<g>
		<path d="M953.7,2532.3c0,4.6,0,9.3,0,13.9c0.6-0.3,1.2-0.6,1.8-0.9c-19.7,0-39.4,0-59.2,0c0.3,0.2,0.5,0.4,0.8,0.6
			c0-4.6,0-9.3,0-13.9c0-1.1-2.6-0.6-2.6,0.3c0,4.6,0,9.3,0,13.9c0,0.4,0.4,0.6,0.8,0.6c19.7,0,39.4,0,59.2,0c0.4,0,1.8-0.2,1.8-0.9
			c0-4.6,0-9.3,0-13.9C956.3,2530.9,953.7,2531.4,953.7,2532.3L953.7,2532.3z"/>
	</g>
	<g>
		<path d="M921.2,2634.8c-10.1,0-20.1,0-30.2,0c-1,0-2.8,1.6-1,1.6c10.1,0,20.1,0,30.2,0C921.2,2636.4,923,2634.8,921.2,2634.8
			L921.2,2634.8z"/>
	</g>
	<g>
		<path d="M1033.7,2660.5c0,4.6,0,9.3,0,13.9c0.6-0.3,1.2-0.6,1.8-0.9c-20.5,0-40.9,0-61.4,0c0.3,0.2,0.5,0.4,0.8,0.6
			c0-4.6,0-9.3,0-13.9c0-1.1-2.6-0.6-2.6,0.3c0,4.6,0,9.3,0,13.9c0,0.4,0.4,0.6,0.8,0.6c20.5,0,40.9,0,61.4,0c0.4,0,1.8-0.2,1.8-0.9
			c0-4.6,0-9.3,0-13.9C1036.3,2659,1033.7,2659.6,1033.7,2660.5L1033.7,2660.5z"/>
	</g>
	<g>
		<path d="M1263.7,2685.3c-17.2,0-34.5,0-51.8,0c-1,0-2.8,1.6-1,1.6c17.2,0,34.5,0,51.8,0C1263.8,2686.8,1265.5,2685.3,1263.7,2685.3
			L1263.7,2685.3z"/>
	</g>
	<g>
		<path d="M1210.4,2969.3c0,4.6,0,9.3,0,13.9c0.6-0.3,1.2-0.6,1.8-0.9c-19.7,0-168.8,0-188.5,0c0.3,0.2,0.5,0.4,0.8,0.6
			c0-4.6,0-9.3,0-13.9c0-1.1-2.6-0.6-2.6,0.3c0,4.6,0,9.3,0,13.9c0,0.4,0.4,0.6,0.8,0.6c19.7,0,168.8,0,188.5,0
			c0.4,0,1.8-0.2,1.8-0.9c0-4.6,0-9.3,0-13.9C1213,2967.9,1210.4,2968.4,1210.4,2969.3L1210.4,2969.3z"/>
	</g>
	<g>
		<path d="M1292.1,2982.5c-17.2,0-44.5,0-61.8,0c-1,0-2.8,1.6-1,1.6c17.2,0,44.5,0,61.8,0C1292.1,2984.1,1293.8,2982.5,1292.1,2982.5
			L1292.1,2982.5z"/>
	</g>
	<g>
		<path d="M1042.5,3310.8c-17.2,0-73.5,0-90.8,0c-1,0-2.8,1.6-1,1.6c17.2,0,73.5,0,90.8,0C1042.5,3312.3,1044.3,3310.8,1042.5,3310.8
			L1042.5,3310.8z"/>
	</g>
	<g>
		<path d="M625.4,2993.1c-17.2,0-76.5,0-93.8,0c-1,0-2.8,1.6-1,1.6c17.2,0,76.5,0,93.8,0C625.5,2994.7,627.2,2993.1,625.4,2993.1
			L625.4,2993.1z"/>
	</g>
	<g class="st8">
		<path class="st9" d="M870.7,3667.3c18.6-0.1,37.2,0,55.8,0c-0.3,0-0.7,0-1,0c0.4,0,0.8,0,1.2,0c0.7,0.2,1.3,0,1.8-0.5
			c0.5-0.6,0.6-1.2,0.3-1.9c-0.7-1.1-1.5-2-2.5-2.9c-0.9-0.9-2-1.7-3.1-2.2c-2.7-0.2-5.4-0.1-8.1-0.1c-6.4,0-12.8,0-19.1,0
			c-10.1,0-20.1,0-30.2,0c-0.7,0.2-1.1,0.7-1.3,1.3c-0.1,0.9,0.2,1.7,0.9,2.3C866.5,3664.9,868.5,3667.3,870.7,3667.3z"/>
		<path class="st9" d="M871.1,3661.8c19.1,0.7,38.2-0.2,57.3,0.3c1.3,0,2.5-1,2.2-2.4c-0.5-0.9-1.2-1.7-2-2.4
			c-0.7-0.8-1.6-1.3-2.6-1.8c-9.4-0.3-18.9-0.1-28.3,0c-9.5,0-19,0.1-28.5-0.2c-1.2,0-2.5,0.9-2.3,2.3c0.4,0.9,1,1.7,1.8,2.4
			C869.4,3660.8,870.2,3661.4,871.1,3661.8z"/>
		<path class="st9" d="M873.8,3666.3c9.5,0,19,0,28.6,0c9.5,0,19-0.1,28.5,0c0.7-0.2,1.1-0.7,1.3-1.4c0-1-0.4-1.8-1.3-2.5
			c-1.1-1.2-2.4-2.4-3.7-3.4c-0.7-0.8-1.6-1.1-2.6-1c-3.3-0.3-6.7-0.1-10-0.1c-6.7,0-13.4,0-20.1,0c-8.8,0-17.6,0-26.3,0
			c-0.7,0.2-1.2,0.6-1.3,1.3c-0.1,1,0.3,1.8,1.1,2.5C869.1,3663.3,871.4,3666.2,873.8,3666.3z"/>
		<path class="st9" d="M878,3671.3c19.1,0.1,38.2-0.1,57.3,0.1c0.8-0.1,1.3-0.6,1.3-1.4c-0.3-1.4-1-2.5-2.2-3.3
			c-1.7-1.8-3.6-3.4-5.5-5c-1-1.1-2.1-1.7-3.5-1.9c-2.8-0.3-5.8-0.1-8.6-0.1c-6.5,0-13.1,0-19.6,0c-9.5,0-18.9,0-28.4-0.2
			c-0.8,0.1-1.3,0.5-1.3,1.3c0.2,1.4,0.9,2.5,2,3.4c1.6,1.8,3.4,3.6,5.2,5.2C875.6,3670.4,876.7,3671.1,878,3671.3z"/>
		<path class="st9" d="M877.9,3666.5c19.1,0.2,38.1-0.2,57.2,0.1c0.8-0.2,1.2-0.6,1.3-1.4c-0.2-1.2-0.7-2.2-1.7-2.9
			c-1.4-1.5-3-2.9-4.6-4.2c-0.8-0.9-1.9-1.4-3-1.4c-2.8-0.3-5.8-0.1-8.6-0.1c-6.5,0-13.1,0-19.6,0c-9.5,0-18.9,0-28.3-0.1
			c-0.8,0.1-1.2,0.6-1.3,1.3c0.1,1.2,0.6,2.1,1.5,2.9c1.3,1.5,2.8,3,4.3,4.3C875.7,3666,876.7,3666.5,877.9,3666.5z"/>
		<path class="st9" d="M867.1,3660.8c19.2,0.3,38.4,0.2,57.7,0.2c1,0,2.3-1.2,2.3-2.3c-0.1-1-1.8-2.8-2.8-2.8
			c-19.2,0-38.3-0.1-57.5,0c-1,0-2.3,1.3-2.3,2.3C864.5,3659.1,866.1,3660.7,867.1,3660.8z"/>
		<path class="st9" d="M866.5,3665.8c19.1,1.1,38.3,0,57.5,0.4c1.3,0,2.5-1,2.2-2.4c-0.5-0.9-1.1-1.7-1.9-2.3
			c-0.7-0.7-1.6-1.3-2.5-1.7c-19-0.5-38,0.5-57-0.3c-1.2-0.1-2.5,0.9-2.3,2.3c0.4,0.9,1,1.7,1.7,2.3
			C864.8,3664.8,865.6,3665.4,866.5,3665.8z"/>
		<path class="st9" d="M871.7,3672.2c19.1,0.2,38.1-0.2,57.2,0.1c0.8-0.2,1.2-0.6,1.3-1.4c-0.1-1.2-0.7-2.1-1.6-2.8
			c-1.4-1.5-2.9-2.8-4.4-4.1c-0.8-0.9-1.8-1.4-3-1.4c-2.8-0.3-5.8-0.1-8.6-0.1c-6.5,0-13.1,0-19.6,0c-9.5,0-18.9,0-28.3-0.1
			c-0.8,0.1-1.2,0.6-1.3,1.3c0.1,1.1,0.5,2.1,1.5,2.9c1.3,1.5,2.7,2.9,4.2,4.2C869.6,3671.6,870.6,3672.1,871.7,3672.2z"/>
		<path class="st9" d="M876.7,3661c18.6-0.1,37.2,0,55.8,0c-0.3,0-0.7,0-1,0c0.4,0,0.8,0,1.2,0c0.7,0.2,1.3,0,1.8-0.5
			c0.5-0.6,0.6-1.2,0.3-1.9c-0.7-1.1-1.5-2-2.5-2.8c-0.9-0.9-1.9-1.6-3.1-2.2c-2.7-0.2-5.4-0.1-8.1-0.1c-6.4,0-12.8,0-19.1,0
			c-10.1,0-20.1,0-30.2,0c-0.7,0.2-1.1,0.7-1.3,1.3c-0.1,0.9,0.2,1.6,0.9,2.3C872.6,3658.7,874.6,3661,876.7,3661z"/>
		<path class="st9" d="M868.6,3670.1c8.8,0,17.7,0,26.5,0c10.2,0,20.3-0.2,30.5,0c0.7-0.2,1.1-0.7,1.3-1.4c0.1-0.7-0.1-1.2-0.6-1.7
			c-0.6-0.9-1.3-1.6-2.1-2.3c-1-0.9-2-1.7-3.2-2.3c-2.7-0.2-5.4-0.1-8.2-0.1c-6.4,0-12.8,0-19.1,0c-10.1,0-20.1,0-30.2,0
			c-0.7,0.2-1.1,0.6-1.3,1.3c-0.1,0.9,0.2,1.7,1,2.4C864.2,3667.5,866.4,3670.1,868.6,3670.1z"/>
		<path class="st9" d="M873.9,3659.3c9.4-0.2,18.9-0.2,28.4-0.2c9.5,0,19.1-0.1,28.6,0c1.2,0,2.5-1,2.2-2.4c-0.4-0.9-1-1.6-1.7-2.2
			c-0.7-0.7-1.4-1.2-2.3-1.6c-9.5-0.1-19,0-28.5,0c-9.4,0-18.7-0.1-28.1,0.2c-1.2,0-2.5,0.9-2.3,2.3c0.4,0.8,0.9,1.6,1.6,2.2
			C872.3,3658.4,873.1,3658.9,873.9,3659.3z"/>
		<path class="st9" d="M865.2,3663.4c19.2,0.2,38.4,0.2,57.7,0.2c1,0,2.4-1.2,2.3-2.3c-0.1-1-1.9-3-3-3c-19.2,0-38.3-0.1-57.5,0
			c-1,0-2.3,1.2-2.3,2.3C862.5,3661.6,864.2,3663.4,865.2,3663.4z"/>
	</g>
	<rect x="246.7" y="2081.4" class="st10" width="283.5" height="138.1"/>
	<rect x="246.7" y="2433.2" class="st10" width="283.5" height="138.1"/>
	<rect x="246.7" y="2648.4" class="st10" width="283.5" height="138.1"/>
	<rect x="246.7" y="3520.4" class="st10" width="283.5" height="138.1"/>
	<rect x="246.7" y="4672.3" class="st10" width="283.5" height="138.1"/>
	<rect x="246.7" y="3064.3" class="st10" width="283.5" height="138.1"/>
	<g>
		<rect x="264.6" y="2102.4" class="st5" width="254" height="108.2"/>
		<text transform="matrix(1 0 0 1 264.6088 2114.7449)"><tspan x="0" y="0" class="st11 st12 st2">Venzen parks with the back  </tspan><tspan x="0" y="21.6" class="st11 st12 st2">of his car facing the street to </tspan><tspan x="0" y="43.2" class="st11 st12 st2">prevent potential competitors </tspan><tspan x="0" y="64.8" class="st11 st12 st2">from seeing how much he has </tspan><tspan x="0" y="86.4" class="st11 st12 st2">stored in the back.</tspan></text>
	</g>
	<g>
		<rect x="264.6" y="2454.2" class="st5" width="247.5" height="108.2"/>
		<text transform="matrix(1 0 0 1 264.6088 2466.5435)"><tspan x="0" y="0" class="st11 st12 st2">Venzen uses his car — a </tspan><tspan x="0" y="21.6" class="st11 st12 st2">Cadillac Brougham that&apos;s been </tspan><tspan x="0" y="43.2" class="st11 st12 st2">the subject of several DIY </tspan><tspan x="0" y="64.8" class="st11 st12 st2">restylings — as temporary </tspan><tspan x="0" y="86.4" class="st11 st12 st2">storage for cans and bottles.</tspan></text>
	</g>
	<g>
		<rect x="264.6" y="2669.4" class="st5" width="247.5" height="108.2"/>
		<text transform="matrix(1 0 0 1 264.6088 2681.7466)"><tspan x="0" y="0" class="st11 st12 st2">Many canners take pride in  </tspan><tspan x="0" y="21.6" class="st11 st12 st2">the contribution they make to </tspan><tspan x="0" y="43.2" class="st11 st12 st2">keeping the city clean. Venzen </tspan><tspan x="0" y="64.8" class="st11 st12 st2">considers himself a volunteer </tspan><tspan x="0" y="86.4" class="st11 st12 st2">in the park.</tspan></text>
	</g>
	<g>
		<rect x="264.6" y="3538.4" class="st5" width="247.5" height="108.2"/>
		<text transform="matrix(1 0 0 1 264.6088 3550.7725)"><tspan x="0" y="0" class="st11 st12 st2">He considers himself </tspan><tspan x="0" y="21.6" class="st11 st12 st2">responsible for the park and </tspan><tspan x="0" y="43.2" class="st11 st12 st2">has ideas to improve it, like </tspan><tspan x="0" y="64.8" class="st11 st12 st2">building a pond with goldfish </tspan><tspan x="0" y="86.4" class="st11 st12 st2">to keep mosquitos down.</tspan></text>
	</g>
	<g>
		<rect x="264.6" y="4693.3" class="st5" width="247.5" height="108.2"/>
		<text transform="matrix(1 0 0 1 264.6088 4705.6665)"><tspan x="0" y="0" class="st11 st12 st2">Venzen repeats the same route </tspan><tspan x="0" y="21.6" class="st11 st12 st2">until the truck of his car is full. </tspan><tspan x="0" y="43.2" class="st11 st12 st2">He eats only a couple of fruits </tspan><tspan x="0" y="64.8" class="st11 st12 st2">and considers canning a way  </tspan><tspan x="0" y="86.4" class="st11 st12 st2">to stay fit.</tspan></text>
	</g>
	<g>
		<rect x="264.6" y="3085.2" class="st5" width="237.6" height="108.2"/>
		<text transform="matrix(1 0 0 1 264.6088 3097.6338)"><tspan x="0" y="0" class="st11 st12 st2">Bottles are redeemable only </tspan><tspan x="0" y="21.6" class="st11 st12 st2">with their label on. Venzen </tspan><tspan x="0" y="43.2" class="st11 st12 st2">uses a trick to “restore” </tspan><tspan x="0" y="64.8" class="st11 st12 st2">plastic bottles with the label </tspan><tspan x="0" y="86.4" class="st11 st12 st2">half torn off.</tspan></text>
	</g>
	<g>
		<rect x="1081.6" y="2334.7" class="st5" width="344.6" height="70.8"/>
		<text transform="matrix(1 0 0 1 1081.6447 2350.1143)"><tspan x="0" y="0" class="st7 st2">“Don’t shake hands with anyone in the </tspan><tspan x="0" y="21.6" class="st7 st2">park, only fist bump.</tspan><tspan x="162.5" y="21.6" class="st1 st2">”</tspan><tspan x="169.8" y="21.6" class="st6 st2"> Venzen thinks that </tspan><tspan x="0" y="43.2" class="st6 st2">people in the park pee and do all sort of </tspan></text>
	</g>
	<g>
		<rect x="941.2" y="1788.4" class="st5" width="329.3" height="70.8"/>
		<text transform="matrix(1 0 0 1 941.2267 1803.8228)"><tspan x="0" y="0" class="st7 st2">“You see that house? Hezekiah Walker </tspan><tspan x="0" y="21.6" class="st7 st2">lives there.</tspan><tspan x="87.9" y="21.6" class="st1 st2">”</tspan><tspan x="95.3" y="21.6" class="st6 st2"> He is a radio personality </tspan><tspan x="0" y="43.2" class="st6 st2">also known as the hip-hop pastor.</tspan></text>
	</g>
	<g>
		<rect x="1081.6" y="2160.1" class="st5" width="337.5" height="88.9"/>
		<text transform="matrix(1 0 0 1 1081.6447 2175.5103)"><tspan x="0" y="0" class="st7 st2">“He was a good guy...</tspan><tspan x="171.9" y="0" class="st1 st2">”</tspan><tspan x="179.3" y="0" class="st6 st2"> He shows me on </tspan><tspan x="0" y="21.6" class="st6 st2">his car’s window the photo of a friend — a </tspan><tspan x="0" y="43.2" class="st6 st2">member of his walking group in the park </tspan><tspan x="0" y="64.8" class="st6 st2">— who recently passed away.</tspan></text>
	</g>
	<g>
		<rect x="915.8" y="2868.4" class="st5" width="531.8" height="44.4"/>
		<text transform="matrix(1 0 0 1 915.7805 2883.8164)"><tspan x="0" y="0" class="st7 st2">“This is the blissful tree,</tspan><tspan x="192.9" y="0" class="st1 st2">”</tspan><tspan x="200.2" y="0" class="st6 st2"> Venzen says it’s tall because people pee </tspan><tspan x="0" y="21.6" class="st6 st2">on its roots. If restrooms are closed, Venzen blesses trees too.</tspan></text>
	</g>
	<g>
		<rect x="1072.2" y="3180.3" class="st5" width="411.2" height="58.2"/>
		<text transform="matrix(1 0 0 1 1072.2267 3195.6895)"><tspan x="0" y="0" class="st7 st2">“My bag is almost full just by walking,</tspan><tspan x="299.5" y="0" class="st1 st2">”</tspan><tspan x="306.8" y="0" class="st6 st2"> Venzen </tspan><tspan x="0" y="21.6" class="st6 st2">thinks he has more than 200 cans in his cart.</tspan></text>
	</g>
	<g>
		<rect x="1115" y="3643.8" class="st5" width="402.9" height="73.3"/>
		<text transform="matrix(1 0 0 1 1115.0433 3659.1924)"><tspan x="0" y="0" class="st7 st2">“Look at these seeds,</tspan><tspan x="170.2" y="0" class="st1 st2">”</tspan><tspan x="177.6" y="0" class="st6 st2"> He shows me a Ginko </tspan><tspan x="0" y="21.6" class="st6 st2">Biloba seed and eats one raw, picked up on the </tspan><tspan x="0" y="43.2" class="st6 st2">ground among a constellation of beer caps.</tspan></text>
	</g>
	<g>
		<rect x="581.5" y="2540.8" class="st5" width="287.6" height="88.9"/>
		<text transform="matrix(1 0 0 1 622.0297 2556.209)"><tspan x="0" y="0" class="st7 st2">“You got to turn them over, you </tspan><tspan x="-7.6" y="21.6" class="st7 st2">know?</tspan><tspan x="43.3" y="21.6" class="st1 st2">”</tspan><tspan x="50.6" y="21.6" class="st6 st2"> Venzen checks the bins’ </tspan><tspan x="24.7" y="43.2" class="st6 st2">content from top to bottom.</tspan></text>
	</g>
	<g>
		<rect x="544.5" y="2622.6" class="st5" width="324.6" height="115.8"/>
		<text transform="matrix(1 0 0 1 562.7739 2637.9678)"><tspan x="0" y="0" class="st6 st2">When Venzen sees half-empty bins, he </tspan><tspan x="-14" y="21.6" class="st6 st2">fills one up and leaves the others empty, </tspan><tspan x="43.1" y="43.2" class="st6 st2">preparing bags for park cleaners: </tspan><tspan x="45.9" y="64.8" class="st7 st2">“They’ll pick them up tomorrow.”</tspan></text>
	</g>
	<image style="overflow:visible;" width="634" height="2330" xlink:href="../../img/venzen/Venzen_cane.png"  transform="matrix(9.105800e-02 1.798800e-02 -1.798800e-02 9.105800e-02 883.1038 187.3514)">
	</image>
	<image style="overflow:visible;" width="2133" height="3115" xlink:href="../../img/venzen/Venzen_cart.png"  transform="matrix(6.981600e-02 0 0 6.981600e-02 1232.2709 187.3509)">
	</image>
	<image style="overflow:visible;" width="908" height="1300" xlink:href="../../img/venzen/Venzen_ginko.png"  transform="matrix(0.1412 0 0 0.1412 1600.2648 203.4642)">
	</image>
	<text transform="matrix(1 0 0 1 74.838 192.9819)" class="st1 st13">Canning with Venzen</text>
	<g>
		<rect x="78.1" y="254.4" class="st5" width="452" height="231.1"/>
		<text transform="matrix(1 0 0 1 78.0901 269.8042)"><tspan x="0" y="0" class="st6 st2">Venzen began canning because he needed to occupy his </tspan><tspan x="0" y="21.6" class="st6 st2">time while he was homeless. His wife would go to work, </tspan><tspan x="0" y="43.2" class="st6 st2">and he would sit in his old Cadillac Brougham. One </tspan><tspan x="0" y="64.8" class="st6 st2">morning, he took a ride and parked at Highland Park, in </tspan><tspan x="0" y="86.4" class="st6 st2">Brooklyn. While walking around, he started collecting </tspan><tspan x="0" y="108" class="st6 st2">bottles and cans. He made $54 and — he likes to say — </tspan><tspan x="0" y="129.6" class="st6 st2">asked his pride to let him be. Since then, he has refined </tspan><tspan x="0" y="151.2" class="st6 st2">his techniques and now works as he were a member of </tspan><tspan x="0" y="172.8" class="st6 st2">the park maintanence staff.</tspan></text>
	</g>
	<g>
		<text transform="matrix(1 0 0 1 719.6096 443.0814)" class="st1 st2">Cane for walking and checking bags</text>
	</g>
	<g>
		<text transform="matrix(1 0 0 1 1284.8604 443.0814)" class="st1 st2">Cart</text>
	</g>
	<g>
		<text transform="matrix(1 0 0 1 1586.0193 443.0814)" class="st1 st2">Ginko Biloba seed</text>
	</g>
	<g>
		<text transform="matrix(1 0 0 1 1373.5046 396.5398)" class="st6 st14">Missing wheel</text>
	</g>
	<g>
		<text transform="matrix(1 0 0 1 1110.9652 382.9987)" class="st6 st14">Stronger wheel</text>
	</g>
	<line class="st15" x1="1344.1" y1="392.1" x2="1367.5" y2="392.1"/>
	<line class="st15" x1="1209.6" y1="378.7" x2="1232.9" y2="378.7"/>
</g>
</svg>
