<?xml version="1.0" encoding="utf-8"?>
<!-- Generator: Adobe Illustrator 19.1.0, SVG Export Plug-In . SVG Version: 6.00 Build 0)  -->
<svg version="1.1" id="path_container" xmlns="http://www.w3.org/2000/svg" xmlns:xlink="http://www.w3.org/1999/xlink" x="0px" y="0px"
	 viewBox="0 0 1920 3511.8" style="enable-background:new 0 0 1920 3511.8;" xml:space="preserve">
<style type="text/css">
	.st0{fill:none;stroke:#999999;stroke-width:2;stroke-linecap:round;stroke-linejoin:round;stroke-dasharray:1,5.6693;}
	.st1{fill:none;}
	.st2{font-family:'Roboto-BoldItalic';}
	.st3{font-size:18px;}
	.st4{font-family:'Roboto-Bold';}
	.st5{font-family:'Roboto-Regular';}
	.st6{font-family:'Roboto-Italic';}
	.st7{fill:#D7DED5;}
	.st8{fill:#144C5B;}
	.st9{font-family:'ZillaSlab-Medium';}
	.st10{fill:none;stroke:#B2B2B2;stroke-width:0.5;stroke-linecap:round;stroke-linejoin:round;}
	.st11{fill:none;stroke:#000000;stroke-linecap:round;stroke-linejoin:round;}
	.st12{font-family:'Roboto-Light';}
	.st13{font-size:36px;}
	.st14{fill:none;stroke:#000000;stroke-width:0.4325;stroke-miterlimit:10;}
	.st15{font-size:14px;}
	.st16{fill:none;stroke:#000000;stroke-width:1.4173;stroke-linecap:round;stroke-linejoin:round;}
</style>
<style>@import url('../svg_styles.css')</style>
<g id="content">
	<line class="st0" x1="29.7" y1="665.1" x2="1883.3" y2="665.1"/>
	<line class="st0" x1="29.7" y1="3171.6" x2="1883.3" y2="3171.6"/>
	<line class="st0" x1="29.7" y1="1958" x2="1883.3" y2="1958"/>
	<rect x="795.7" y="2351.7" class="st1" width="361.5" height="63.6"/>
	<text transform="matrix(1 0 0 1 811.0407 2367.0898)"><tspan x="0" y="0" class="st2 st3">“Ahí,”</tspan><tspan x="45.3" y="0" class="st4 st3"> </tspan><tspan x="49.8" y="0" class="st5 st3">Angel points at an indoor market that </tspan><tspan x="55.1" y="21.6" class="st5 st3">he frequents. It’s one of the oldest in </tspan><tspan x="-8.3" y="43.2" class="st5 st3">Brooklyn, and specializes in Latino products.</tspan></text>
	<rect x="697.7" y="2542.5" class="st1" width="415.3" height="75.8"/>
	<text transform="matrix(1 0 0 1 721.1491 2557.9106)"><tspan x="0" y="0" class="st2 st3">“My cinematic flair, From my boot to derrièeeere”</tspan><tspan x="391.9" y="0" class="st4 st3"> </tspan><tspan x="-10.7" y="21.6" class="st5 st3">Angels sings a song from the musical </tspan><tspan x="294.4" y="21.6" class="st6 st3">Kinky Boots</tspan><tspan x="387.1" y="21.6" class="st5 st3">. </tspan><tspan x="32" y="43.2" class="st5 st3">He’s studying to be become a Broadway star.</tspan></text>
	<rect x="548.9" y="3029" class="st1" width="334.5" height="87.2"/>
	<text transform="matrix(1 0 0 1 609.6823 3044.3984)"><tspan x="0" y="0" class="st2 st3">“¿Cuándo te vas a la universidad?”</tspan><tspan x="273.7" y="0" class="st4 st3"> </tspan><tspan x="25.4" y="21.6" class="st5 st3">Violeta, the Mexican lady at the </tspan><tspan x="-48.6" y="43.2" class="st5 st3">redemption center, asks Angel about the </tspan><tspan x="-40.4" y="64.8" class="st5 st3">college. He dreams of attending Ithaca.</tspan></text>
	<g>
		<rect x="1023.9" y="706.1" class="st1" width="426.4" height="79.2"/>
		<text transform="matrix(1 0 0 1 1023.852 721.4683)"><tspan x="0" y="0" class="st2 st3">“This is from BJ’s”</tspan><tspan x="148.2" y="0" class="st5 st3"> Angel talks about his carrito. </tspan><tspan x="0" y="21.6" class="st5 st3">The “classic” Home Depot model is too small for him.</tspan></text>
	</g>
	<g>
		<rect x="1023.9" y="1019.6" class="st1" width="387.3" height="79.2"/>
		<text transform="matrix(1 0 0 1 1023.852 1035.0361)"><tspan x="0" y="0" class="st5 st3">Angel points at Bravo market where he used to </tspan><tspan x="0" y="21.6" class="st5 st3">redeem cans and bottles: </tspan><tspan x="206.4" y="21.6" class="st2 st3">“We would give them </tspan><tspan x="0" y="43.2" class="st2 st3">to a person, not a machine.”</tspan><tspan x="222.2" y="43.2" class="st5 st3"> </tspan></text>
	</g>
	<g>
		<rect x="1149.1" y="1350.3" class="st1" width="383.4" height="79.2"/>
		<text transform="matrix(1 0 0 1 1149.0826 1365.6655)"><tspan x="0" y="0" class="st2 st3">“No tengo tiempo,”</tspan><tspan x="150.7" y="0" class="st5 st3"> Angel passes by an empty </tspan><tspan x="0" y="21.6" class="st5 st3">can but doesn’t pick it up. He collects only from </tspan><tspan x="0" y="43.2" class="st5 st3">one restaurant because he doesn’t have time.</tspan></text>
	</g>
	<g>
		<rect x="668.2" y="1141.9" class="st1" width="397.9" height="76.3"/>
		<text transform="matrix(1 0 0 1 680.1376 1157.3315)"><tspan x="0" y="0" class="st2 st3">“Buenos días!”</tspan><tspan x="116.5" y="0" class="st5 st3">Angel greets a woman who works </tspan><tspan x="37.7" y="21.6" class="st5 st3">at the mexican restaurant where he collects </tspan><tspan x="17.5" y="43.2" class="st5 st3">empty bottles: </tspan><tspan x="135.9" y="43.2" class="st2 st3">“They keep them aside for me.”</tspan></text>
	</g>
	<g>
		<rect x="646" y="1219.2" class="st1" width="385.5" height="76.3"/>
		<text transform="matrix(1 0 0 1 658.2385 1234.6174)"><tspan x="0" y="0" class="st2 st3">“Siempre me chocava con eso,” </tspan><tspan x="255.4" y="0" class="st5 st3">Angel express</tspan><tspan x="368.3" y="0" class="st5 st3">-</tspan><tspan x="23.4" y="21.6" class="st5 st3">es empathy, after I hit my head, and glue my </tspan><tspan x="1.4" y="43.2" class="st5 st3">hair, on a golden stick fly trap in a dark storage </tspan></text>
	</g>
	<rect x="983.5" y="1819.6" class="st1" width="415.4" height="74.4"/>
	<text transform="matrix(1 0 0 1 983.4828 1835.0215)"><tspan x="0" y="0" class="st2 st3">“Cuarenta y siete,” </tspan><tspan x="151.8" y="0" class="st5 st3">At the redemption center, Angel </tspan><tspan x="0" y="21.6" class="st5 st3">gives 47 unsorted cans to a Mexican lady, Josefa, </tspan><tspan x="0" y="43.2" class="st5 st3">who pays him the 5 cents and sorts them.</tspan></text>
	<rect x="1247.8" y="2273" class="st1" width="400.9" height="74.4"/>
	<text transform="matrix(1 0 0 1 1247.8495 2288.4175)"><tspan x="0" y="0" class="st5 st3">Angel bumps into his grandma’s neighbor, Cookie, </tspan><tspan x="0" y="21.6" class="st5 st3">who was his babysitter: </tspan><tspan x="191.6" y="21.6" class="st2 st3">“She was so sweet.”</tspan></text>
	<g>
		<path d="M1206.3,1202h-14.7v-16.2h14.7V1202z M1199,1191.7c-1.2,0-2.1,0.9-2.1,2.1s0.9,2.1,2.1,2.1c1.2,0,2.1-0.9,2.1-2.1
			S1200.1,1191.7,1199,1191.7z"/>
		<g>
			<path d="M1206.3,1185.7h-2c0-5-2.5-9.2-5.4-9.2s-5.4,4.2-5.4,9.2h-2c0-6.3,3.2-11.2,7.4-11.2S1206.3,1179.4,1206.3,1185.7z"/>
		</g>
	</g>
	<g>
		<path d="M829.3,2517.6h-14.7v-16.2h14.7V2517.6z M821.9,2507.4c-1.2,0-2.1,0.9-2.1,2.1c0,1.2,0.9,2.1,2.1,2.1
			c1.2,0,2.1-0.9,2.1-2.1C824,2508.3,823.1,2507.4,821.9,2507.4z"/>
		<g>
			<path d="M829.3,2501.4h-2c0-5-2.5-9.2-5.4-9.2c-2.9,0-5.4,4.2-5.4,9.2h-2c0-6.3,3.2-11.2,7.4-11.2
				C826.1,2490.1,829.3,2495.1,829.3,2501.4z"/>
		</g>
	</g>
	<image style="overflow:visible;" width="1058" height="750" xlink:href="../../img/angel/Comment.png"  transform="matrix(5.792760e-02 0 0 5.792760e-02 1163.2063 2359.571)">
	</image>
	<image style="overflow:visible;" width="1058" height="750" xlink:href="../../img/angel/Comment.png"  transform="matrix(5.792760e-02 0 0 5.792760e-02 1119.0262 2533.3921)">
	</image>
	<image style="overflow:visible;" width="1030" height="1252" xlink:href="../../img/angel/Hand.png"  transform="matrix(4.316688e-02 0 0 4.316688e-02 926.8365 1821.5275)">
	</image>
	<image style="overflow:visible;" width="1030" height="1252" xlink:href="../../img/angel/Hand.png"  transform="matrix(4.316688e-02 0 0 4.316688e-02 1191.2032 2265.9236)">
	</image>
	<image style="overflow:visible;" width="1030" height="1252" xlink:href="../../img/angel/Hand.png"  transform="matrix(4.316688e-02 0 0 4.316688e-02 893.5862 3044.9849)">
	</image>
	<image style="overflow:visible;" width="1030" height="1252" xlink:href="../../img/angel/Hand.png"  transform="matrix(4.316688e-02 0 0 4.316688e-02 1080.6047 1153.0631)">
	</image>
	<image style="overflow:visible;" width="1104" height="965" xlink:href="../../img/angel/Cart.png"  transform="matrix(7.028736e-02 0 0 7.028736e-02 759.4161 600.9973)">
	</image>
	<image style="overflow:visible;" width="1058" height="750" xlink:href="../../img/angel/Comment.png"  transform="matrix(5.792760e-02 0 0 5.792760e-02 956.4995 688.1021)">
	</image>
	<image style="overflow:visible;" width="1058" height="750" xlink:href="../../img/angel/Comment.png"  transform="matrix(5.792760e-02 0 0 5.792760e-02 956.4995 1018.6701)">
	</image>
	<image style="overflow:visible;" width="1058" height="750" xlink:href="../../img/angel/Comment.png"  transform="matrix(5.792760e-02 0 0 5.792760e-02 1079.7307 1349.2993)">
	</image>
	<image style="overflow:visible;" width="1058" height="750" xlink:href="../../img/angel/Comment.png"  transform="matrix(5.792760e-02 0 0 5.792760e-02 1049.087 1217.571)">
	</image>
	<image class="cameraImage" style="overflow:visible;" width="1709" height="1318" xlink:href="../../img/angel/Camera.png"  transform="matrix(3.302100e-02 0 0 3.302100e-02 1049.0881 1266.4397)">
	</image>
	<image class="cameraImage" style="overflow:visible;" width="1709" height="1318" xlink:href="../../img/angel/Camera.png"  transform="matrix(3.302100e-02 0 0 3.302100e-02 1121.4547 2586.573)">
	</image>
	<image style="overflow:visible;" width="973" height="1198" xlink:href="../../img/angel/trash_bag-5.png"  transform="matrix(6.129400e-02 0 0 6.129400e-02 1332.9683 1129.2814)">
	</image>
	<image style="overflow:visible;" width="973" height="1198" xlink:href="../../img/angel/trash_bag-5.png"  transform="matrix(6.129400e-02 0 0 6.129400e-02 838.7355 2446.2141)">
	</image>
	<image style="overflow:visible;" width="973" height="1198" xlink:href="../../img/angel/trash_bag-5.png"  transform="matrix(6.129400e-02 0 0 6.129400e-02 1273.3293 1129.2814)">
	</image>
	<image style="overflow:visible;" width="973" height="1198" xlink:href="../../img/angel/trash_bag-5.png"  transform="matrix(6.129400e-02 0 0 6.129400e-02 1213.6907 1129.2814)">
	</image>
	<image style="overflow:visible;" width="973" height="1198" xlink:href="../../img/angel/trash_bag-5.png"  transform="matrix(6.129400e-02 0 0 6.129400e-02 184.7696 1868.2874)">
	</image>
	<image style="overflow:visible;" width="973" height="1198" xlink:href="../../img/angel/trash_bag-1.png"  transform="matrix(6.129400e-02 0 0 6.129400e-02 244.4084 1868.2874)">
	</image>
	<image style="overflow:visible;" width="973" height="1198" xlink:href="../../img/angel/trash_bag-5.png"  transform="matrix(6.129400e-02 0 0 6.129400e-02 125.1308 1868.2874)">
	</image>
	<image style="overflow:visible;" width="973" height="1198" xlink:href="../../img/angel/trash_bag-5.png"  transform="matrix(6.129400e-02 0 0 6.129400e-02 65.4921 1868.2874)">
	</image>
	<image style="overflow:visible;" width="973" height="1198" xlink:href="../../img/angel/trash_bag-5.png"  transform="matrix(6.129400e-02 0 0 6.129400e-02 184.7696 3085.4102)">
	</image>
	<image style="overflow:visible;" width="973" height="1198" xlink:href="../../img/angel/trash_bag-5.png"  transform="matrix(6.129400e-02 0 0 6.129400e-02 244.4084 3085.4102)">
	</image>
	<image style="overflow:visible;" width="973" height="1198" xlink:href="../../img/angel/trash_bag-2.png"  transform="matrix(6.129400e-02 0 0 6.129400e-02 304.0472 3085.4102)">
	</image>
	<image style="overflow:visible;" width="973" height="1198" xlink:href="../../img/angel/trash_bag-5.png"  transform="matrix(6.129400e-02 0 0 6.129400e-02 125.1308 3085.4102)">
	</image>
	<image style="overflow:visible;" width="973" height="1198" xlink:href="../../img/angel/trash_bag-5.png"  transform="matrix(6.129400e-02 0 0 6.129400e-02 65.4921 3085.4102)">
	</image>
	<image style="overflow:visible;" width="194" height="592" xlink:href="../../img/angel/Glass.png"  transform="matrix(9.918400e-02 0 0 9.918400e-02 1213.6912 1209.9391)">
	</image>
	<image style="overflow:visible;" width="194" height="592" xlink:href="../../img/angel/Glass.png"  transform="matrix(9.918400e-02 0 0 9.918400e-02 1235.6349 1209.9391)">
	</image>
	<image style="overflow:visible;" width="194" height="592" xlink:href="../../img/angel/Glass.png"  transform="matrix(9.918400e-02 0 0 9.918400e-02 1257.5787 1209.9391)">
	</image>
	<image style="overflow:visible;" width="194" height="592" xlink:href="../../img/angel/Glass.png"  transform="matrix(9.918400e-02 0 0 9.918400e-02 1279.5226 1209.9391)">
	</image>
	<image style="overflow:visible;" width="194" height="592" xlink:href="../../img/angel/Glass.png"  transform="matrix(9.918400e-02 0 0 9.918400e-02 1301.4664 1209.9391)">
	</image>
	<image style="overflow:visible;" width="194" height="592" xlink:href="../../img/angel/Glass.png"  transform="matrix(9.918400e-02 0 0 9.918400e-02 1323.4103 1209.9391)">
	</image>
	<image style="overflow:visible;" width="194" height="592" xlink:href="../../img/angel/Glass.png"  transform="matrix(9.918400e-02 0 0 9.918400e-02 1345.354 1209.9391)">
	</image>
	<image style="overflow:visible;" width="194" height="592" xlink:href="../../img/angel/Glass.png"  transform="matrix(9.918400e-02 0 0 9.918400e-02 1367.298 1209.9391)">
	</image>
	<image style="overflow:visible;" width="194" height="592" xlink:href="../../img/angel/Glass.png"  transform="matrix(9.918400e-02 0 0 9.918400e-02 1389.2417 1209.9391)">
	</image>
	<image style="overflow:visible;" width="194" height="592" xlink:href="../../img/angel/Glass.png"  transform="matrix(9.918400e-02 0 0 9.918400e-02 1411.1855 1209.9391)">
	</image>
	<image style="overflow:visible;" width="194" height="592" xlink:href="../../img/angel/Glass.png"  transform="matrix(9.918400e-02 0 0 9.918400e-02 1433.1294 1209.9391)">
	</image>
	<image style="overflow:visible;" width="194" height="592" xlink:href="../../img/angel/Glass.png"  transform="matrix(9.918400e-02 0 0 9.918400e-02 1455.0732 1209.9391)">
	</image>
	<image style="overflow:visible;" width="194" height="592" xlink:href="../../img/angel/Glass.png"  transform="matrix(9.918400e-02 0 0 9.918400e-02 1477.0171 1209.9391)">
	</image>
	<image style="overflow:visible;" width="194" height="592" xlink:href="../../img/angel/Glass.png"  transform="matrix(9.918400e-02 0 0 9.918400e-02 1498.9608 1209.9391)">
	</image>
	<image style="overflow:visible;" width="194" height="592" xlink:href="../../img/angel/Glass.png"  transform="matrix(9.918400e-02 0 0 9.918400e-02 1520.9047 1209.9391)">
	</image>
	<image style="overflow:visible;" width="194" height="592" xlink:href="../../img/angel/Glass.png"  transform="matrix(9.918400e-02 0 0 9.918400e-02 903.7921 2458.4277)">
	</image>
	<image style="overflow:visible;" width="194" height="592" xlink:href="../../img/angel/Glass.png"  transform="matrix(9.918400e-02 0 0 9.918400e-02 925.736 2458.4277)">
	</image>
	<image style="overflow:visible;" width="194" height="592" xlink:href="../../img/angel/Glass.png"  transform="matrix(9.918400e-02 0 0 9.918400e-02 947.6797 2458.4277)">
	</image>
	<image style="overflow:visible;" width="194" height="592" xlink:href="../../img/angel/Glass.png"  transform="matrix(9.918400e-02 0 0 9.918400e-02 969.6235 2458.4277)">
	</image>
	<image style="overflow:visible;" width="194" height="592" xlink:href="../../img/angel/Glass.png"  transform="matrix(9.918400e-02 0 0 9.918400e-02 991.5674 2458.4277)">
	</image>
	<image style="overflow:visible;" width="194" height="592" xlink:href="../../img/angel/Glass.png"  transform="matrix(9.918400e-02 0 0 9.918400e-02 1013.5112 2458.4277)">
	</image>
	<image style="overflow:visible;" width="194" height="592" xlink:href="../../img/angel/Glass.png"  transform="matrix(9.918400e-02 0 0 9.918400e-02 1035.4551 2458.4277)">
	</image>
	<image style="overflow:visible;" width="194" height="592" xlink:href="../../img/angel/Glass.png"  transform="matrix(9.918400e-02 0 0 9.918400e-02 1057.3988 2458.4277)">
	</image>
	<image style="overflow:visible;" width="194" height="592" xlink:href="../../img/angel/Glass.png"  transform="matrix(9.918400e-02 0 0 9.918400e-02 1079.3428 2458.4277)">
	</image>
	<image style="overflow:visible;" width="194" height="592" xlink:href="../../img/angel/Glass.png"  transform="matrix(9.918400e-02 0 0 9.918400e-02 1101.2865 2458.4277)">
	</image>
	<image style="overflow:visible;" width="194" height="592" xlink:href="../../img/angel/Glass.png"  transform="matrix(9.918400e-02 0 0 9.918400e-02 1123.2303 2458.4277)">
	</image>
	<image style="overflow:visible;" width="194" height="592" xlink:href="../../img/angel/Glass.png"  transform="matrix(9.918400e-02 0 0 9.918400e-02 1145.1742 2458.4277)">
	</image>
	<image style="overflow:visible;" width="194" height="592" xlink:href="../../img/angel/Glass.png"  transform="matrix(9.918400e-02 0 0 9.918400e-02 1167.118 2458.4277)">
	</image>
	<image style="overflow:visible;" width="194" height="592" xlink:href="../../img/angel/Glass.png"  transform="matrix(9.918400e-02 0 0 9.918400e-02 1189.0619 2458.4277)">
	</image>
	<image style="overflow:visible;" width="194" height="592" xlink:href="../../img/angel/Glass.png"  transform="matrix(9.918400e-02 0 0 9.918400e-02 1211.0056 2458.4277)">
	</image>
	<image style="overflow:visible;" width="1104" height="965" xlink:href="../../img/angel/Cart.png"  transform="matrix(4.639512e-02 0 0 4.639512e-02 798.3577 1831.8003)">
	</image>
	<image style="overflow:visible;" width="1104" height="965" xlink:href="../../img/angel/Cart.png"  transform="matrix(4.639512e-02 0 0 4.639512e-02 839.868 3126.8657)">
	</image>
	<rect x="246.7" y="695.5" class="st7" width="283.5" height="138.1"/>
	<rect x="246.7" y="990.2" class="st7" width="283.5" height="138.1"/>
	<rect x="246.7" y="1162.7" class="st7" width="283.5" height="138.1"/>
	<rect x="246.7" y="1335.3" class="st7" width="283.5" height="138.1"/>
	<rect x="246.7" y="1974.2" class="st7" width="283.5" height="138.1"/>
	<rect x="264.6" y="715.5" class="st1" width="242.4" height="105.5"/>
	<text transform="matrix(1 0 0 1 264.6084 727.9034)"><tspan x="0" y="0" class="st8 st9 st3">Each canner has their own </tspan><tspan x="0" y="21.6" class="st8 st9 st3">cart. They look all the same, </tspan><tspan x="0" y="43.2" class="st8 st9 st3">but they’re not. They’re </tspan><tspan x="0" y="64.8" class="st8 st9 st3">personalized with extras, like </tspan><tspan x="0" y="86.4" class="st8 st9 st3">stronger wheels or gadgets.</tspan></text>
	<rect x="264.6" y="1010.2" class="st1" width="248.2" height="105.5"/>
	<text transform="matrix(1 0 0 1 264.6084 1022.5606)"><tspan x="0" y="0" class="st8 st9 st3">Many canners express </tspan><tspan x="0" y="21.6" class="st8 st9 st3">frustration with reverse </tspan><tspan x="0" y="43.2" class="st8 st9 st3">vending machines. They accept </tspan><tspan x="0" y="64.8" class="st8 st9 st3">only a limited amount of pieces </tspan><tspan x="0" y="86.4" class="st8 st9 st3">and get jammed very easily.</tspan></text>
	<rect x="264.6" y="1182.7" class="st1" width="236.1" height="105.5"/>
	<text transform="matrix(1 0 0 1 264.6084 1195.1036)"><tspan x="0" y="0" class="st8 st9 st3">Angel sorts the glass on site, </tspan><tspan x="0" y="21.6" class="st8 st9 st3">to avoid the mess at the </tspan><tspan x="0" y="43.2" class="st8 st9 st3">redemption center. Usually </tspan><tspan x="0" y="64.8" class="st8 st9 st3">canners do a rough sorting </tspan><tspan x="0" y="86.4" class="st8 st9 st3">while picking, by material.</tspan></text>
	<rect x="264.6" y="1355.3" class="st1" width="259.1" height="105.5"/>
	<text transform="matrix(1 0 0 1 264.6084 1367.6467)"><tspan x="0" y="0" class="st8 st9 st3">Like for many canners, Angel’s </tspan><tspan x="0" y="21.6" class="st8 st9 st3">life is very busy. He studies and </tspan><tspan x="0" y="43.2" class="st8 st9 st3">helps at home with chores. The </tspan><tspan x="0" y="64.8" class="st8 st9 st3">money he earns canning goes to </tspan><tspan x="0" y="86.4" class="st8 st9 st3">his abuela (grandma).</tspan></text>
	<rect x="264.6" y="1994.2" class="st1" width="233.9" height="105.5"/>
	<text transform="matrix(1 0 0 1 264.6084 2006.5847)"><tspan x="0" y="0" class="st8 st9 st3">Canners make deals among </tspan><tspan x="0" y="21.6" class="st8 st9 st3">themselves. They exchange </tspan><tspan x="0" y="43.2" class="st8 st9 st3">items in order to maximize </tspan><tspan x="0" y="64.8" class="st8 st9 st3">profits with sorted bottles </tspan><tspan x="0" y="86.4" class="st8 st9 st3">and cans.</tspan></text>
	<path class="st10" d="M72.3,2132.1c6.3-1.2,12.7-1.3,19.1-2.1c9.3-1.1,11.3,0,8.9-10.3c-2.7-12.3-4.1-24.6-4.1-37.2
		c0-8.2,5.8-7.9,12-8.2c6.6-0.3,13-1.4,19.5-2.1c12.4-1.3,24.8-2.7,37.2-4.1c12.4-1.4,24.9,2.4,34.1-11.1c3.5-5.1,9.8-7.8,10.5-15.4
		c0.7-7-3.2-11.8-5.4-17.5c-8.2-21.4-1.6-17.9,16.7-22.4c3.7-0.9,16.2-0.5,16.6-7.1c0.3-6.4-2.5-11.6-4.4-17.2"/>
	<path class="st10" d="M203.2,2004.8c-1.6,0.5-17.8,4.1-18.7,6.7c-1.4,4.1,1.1,7,1.9,10.5c0.7,3.4,0.9,6.8,1.4,10.2
		c1.9,15,4.7,28.3-14.3,32.9c-13.6,3.3-27.4,3.6-41.1,5.3c-6.9,0.9-13.9,1.6-20.8,2.7c-4,0.6-18-2.5-17.6,5.2
		c0.8,13.8,3.6,27.4,5.1,41.1c0.4,3.5,0.7,6.9,1.3,10.4c0.6,3.2,3.8,6.1,0,9.4c-3.5,3-7,0.9-10.5,1.1c-3.5,0.2-6.9,0.8-10.3,1.3
		c-2.9,0.4-18,0.5-19,5.5c-0.8,4,3.3,7,0.9,11.3c-2,3.5-5.4,2.5-8.2,3.7c-1.2,0.5,1.3,0.3,1.9-0.1c3.6-2,4.4-4.7,4.9-8.4
		c1-9.3-0.6-18.9,12-21.2"/>
	<path class="st10" d="M220.8,719.8c-21,4.9-14.7,16.4-6.2,31.1c10.1,17.2-13.3,18.3-25.5,20.6c-13.6,2.5-27.4,3.6-41,5.4
		c-13.7,1.8-27.3,4.2-41.1,5.2c-14.8,1.1-30.8-0.3-28.9,20.2c0.7,7.5,7.7,32,1.4,40.4c-5.3,7.1-18,6.1-18.1,18.9
		c0,2.6-1.1,3.9-3.1,5.2c-0.2,0.2-0.3,0.3-0.3,0.6c0.1,3.2,3.8-0.3,3.8-2.9c-0.1-3.1-5.1-17.2-1.3-20.5c6.2-5.2,12.9-3.2,19.5-4.2"/>
	<path class="st10" d="M79.9,839.9c3.1-0.5,16.7-3,18.5-7.2c1.7-4-0.7-6.9-1.4-10.3c-0.7-3.4-1-6.9-1.3-10.3
		c-1.9-18.6-11.6-25.9,13.6-28.8c13.7-1.6,27.4-3.5,40.9-6.4c6.8-1.5,13.6-2.9,20.4-4.4c4-0.9,16.8,0.2,17.5-7
		c0.8-8,5.2-12.8,10-18.2c4.7-5.4,9.5-9.4,6.6-17.8c-1.7-5-5.6-15.1,2.1-17.7c6.9-2.3,14-2.8,21-4.2c8.2-1.7,9.4-1.9,6.3-10.2
		c-1.4-3.8-4.5-6.7-2.9-11.5c0.5-1.5,1.5,0.6,1.7,1.6c1,3.3,1.6,6.8,2.8,10.1c3.5,9.4-6.1,8.7-12.2,10.2c-6.8,1.6-13.6,3.2-20.3,5.1"
		/>
	<path class="st10" d="M203.2,712.6c-1.6,0.5-17.8,4.1-18.7,6.7c-1.4,4.1,1.1,7,1.9,10.5c0.7,3.4,0.9,6.8,1.4,10.2
		c1.9,15,4.7,28.3-14.3,32.9c-13.6,3.3-27.4,3.6-41.1,5.3c-6.9,0.9-13.9,1.6-20.8,2.7c-4,0.6-18-2.5-17.6,5.2
		c0.8,13.8,3.6,27.4,5.1,41.1c0.4,3.5,0.7,6.9,1.3,10.4c0.6,3.2,3.8,6.1,0,9.4c-3.5,3-7,0.9-10.5,1.1c-3.5,0.2-6.9,0.8-10.3,1.3
		c-2.9,0.4-18,0.5-19,5.5c-0.8,4,3.3,7,0.9,11.3c-2,3.5-5.4,2.5-8.2,3.7c-1.2,0.5,1.3,0.3,1.9-0.1c3.6-2,4.4-4.7,4.9-8.4
		c1-9.3-0.6-18.9,12-21.2"/>
	<path class="st10" d="M72.3,839.9c6.3-1.2,12.7-1.3,19.1-2.1c9.3-1.1,11.3,0,8.9-10.3c-2.7-12.3-4.1-24.6-4.1-37.2
		c0-8.2,5.8-7.9,12-8.2c6.6-0.3,13-1.4,19.5-2.1c12.4-1.3,24.8-2.7,37.2-4.1c12.4-1.4,24.9,2.4,34.1-11.1c3.5-5.1,9.8-7.8,10.5-15.4
		c0.7-7-3.2-11.8-5.4-17.5c-8.2-21.4-1.6-17.9,16.7-22.4c3.7-0.9,16.2-0.5,16.6-7.1c0.3-6.4-2.5-11.6-4.4-17.2"/>
	<path class="st11" d="M220.8,2012c-21,4.9-14.7,16.4-6.2,31.1c10.1,17.2-13.3,18.3-25.5,20.6c-13.6,2.5-27.4,3.6-41,5.4
		c-13.7,1.8-27.3,4.2-41.1,5.2c-14.8,1.1-30.8-0.3-28.9,20.2c0.7,7.5,7.7,32,1.4,40.4c-5.3,7.1-18,6.1-18.1,18.9
		c0,2.6-1.1,3.9-3.1,5.2c-0.2,0.2-0.3,0.3-0.3,0.6c0.1,3.2,3.8-0.3,3.8-2.9c-0.1-3.1-5.1-17.2-1.3-20.5c6.2-5.2,12.9-3.2,19.5-4.2"/>
	<path class="st11" d="M79.9,2132.1c3.1-0.5,16.7-3,18.5-7.2c1.7-4-0.7-6.9-1.4-10.3c-0.7-3.4-1-6.9-1.3-10.3
		c-1.9-18.6-11.6-25.9,13.6-28.8c13.7-1.6,27.4-3.5,40.9-6.4c6.8-1.5,13.6-2.9,20.4-4.4c4-0.9,16.8,0.2,17.5-7
		c0.8-8,5.2-12.8,10-18.2c4.7-5.4,9.5-9.4,6.6-17.8c-1.7-5-5.6-15.1,2.1-17.7c6.9-2.3,14-2.8,21-4.2c8.2-1.7,9.4-1.9,6.3-10.2
		c-1.4-3.8-4.5-6.7-2.9-11.5c0.5-1.5,1.5,0.6,1.7,1.6c1,3.3,1.6,6.8,2.8,10.1c3.5,9.4-6.1,8.7-12.2,10.2c-6.8,1.6-13.6,3.2-20.3,5.1"
		/>
	<path class="st11" d="M220.8,3229.1c-21,4.9-14.7,16.4-6.2,31.1c10.1,17.2-13.3,18.3-25.5,20.6c-13.6,2.5-27.4,3.6-41,5.4
		c-13.7,1.8-27.3,4.2-41.1,5.2c-14.8,1.1-30.8-0.3-28.9,20.2c0.7,7.5,7.7,32,1.4,40.4c-5.3,7.1-18,6.1-18.1,18.9
		c0,2.6-1.1,3.9-3.1,5.2c-0.2,0.2-0.3,0.3-0.3,0.6c0.1,3.2,3.8-0.3,3.8-2.9c-0.1-3.1-5.1-17.2-1.3-20.5c6.2-5.2,12.9-3.2,19.5-4.2"/>
	<path class="st11" d="M79.9,3349.2c3.1-0.5,16.7-3,18.5-7.2c1.7-4-0.7-6.9-1.4-10.3c-0.7-3.4-1-6.9-1.3-10.3
		c-1.9-18.6-11.6-25.9,13.6-28.8c13.7-1.6,27.4-3.5,40.9-6.4c6.8-1.5,13.6-2.9,20.4-4.4c4-0.9,16.8,0.2,17.5-7
		c0.8-8,5.2-12.8,10-18.2c4.7-5.4,9.5-9.4,6.6-17.8c-1.7-5-5.6-15.1,2.1-17.7c6.9-2.3,14-2.8,21-4.2c8.2-1.7,9.4-1.9,6.3-10.2
		c-1.4-3.8-4.5-6.7-2.9-11.5c0.5-1.5,1.5,0.6,1.7,1.6c1,3.3,1.6,6.8,2.8,10.1c3.5,9.4-6.1,8.7-12.2,10.2c-6.8,1.6-13.6,3.2-20.3,5.1"
		/>
	<path class="st11" d="M72.3,3349.2c6.3-1.2,12.7-1.3,19.1-2.1c9.3-1.1,11.3,0,8.9-10.3c-2.7-12.3-4.1-24.6-4.1-37.2
		c0-8.2,5.8-7.9,12-8.2c6.6-0.3,13-1.4,19.5-2.1c12.4-1.3,24.8-2.7,37.2-4.1c12.4-1.4,24.9,2.4,34.1-11.1c3.5-5.1,9.8-7.8,10.5-15.4
		c0.7-7-3.2-11.8-5.4-17.5c-8.2-21.4-1.6-17.9,16.7-22.4c3.7-0.9,16.2-0.5,16.6-7.1c0.3-6.4-2.5-11.6-4.4-17.2"/>
	<path class="st11" d="M203.2,3221.9c-1.6,0.5-17.8,4.1-18.7,6.7c-1.4,4.1,1.1,7,1.9,10.5c0.7,3.4,0.9,6.8,1.4,10.2
		c1.9,15,4.7,28.3-14.3,32.9c-13.6,3.3-27.4,3.6-41.1,5.3c-6.9,0.9-13.9,1.6-20.8,2.7c-4,0.6-18-2.5-17.6,5.2
		c0.8,13.8,3.6,27.4,5.1,41.1c0.4,3.5,0.7,6.9,1.3,10.4c0.6,3.2,3.8,6.1,0,9.4c-3.5,3-7,0.9-10.5,1.1c-3.5,0.2-6.9,0.8-10.3,1.3
		c-2.9,0.4-18,0.5-19,5.5c-0.8,4,3.3,7,0.9,11.3c-2,3.5-5.4,2.5-8.2,3.7c-1.2,0.5,1.3,0.3,1.9-0.1c3.6-2,4.4-4.7,4.9-8.4
		c1-9.3-0.6-18.9,12-21.2"/>
	<text transform="matrix(1 0 0 1 75.09 687.9678)"><tspan x="0" y="0" class="st4 st3">Start: </tspan><tspan x="49.1" y="0" class="st12 st3">7:22 am</tspan></text>
	<text transform="matrix(1 0 0 1 75.09 1980.1226)"><tspan x="0" y="0" class="st4 st3">1/2 mile: </tspan><tspan x="76.5" y="0" class="st12 st3">8:12 am</tspan></text>
	<text transform="matrix(1 0 0 1 75.09 3197.2451)"><tspan x="0" y="0" class="st4 st3">1 mile: </tspan><tspan x="59.4" y="0" class="st12 st3">8:35 am</tspan></text>
	<g>
		<text transform="matrix(1 0 0 1 824.9645 426.9216)" class="st4 st3">BJ’s big cart for big boxes</text>
	</g>
	<g>
		<rect x="1358" y="411.6" class="st1" width="293.8" height="50"/>
		<text transform="matrix(1 0 0 1 1363.1636 426.9817)" class="st4 st3">Earbuds to listen to music and sing</text>
	</g>
	<text transform="matrix(1 0 0 1 74.8378 192.9819)" class="st4 st13">Canning with Angel</text>
	<g>
		<rect x="74.8" y="254.4" class="st1" width="455.3" height="191.8"/>
		<text transform="matrix(1 0 0 1 74.8382 269.8042)"><tspan x="0" y="0" class="st5 st3">Angel collects lots of different things. When he helps his </tspan><tspan x="0" y="21.6" class="st5 st3">grandma, he collects empty beer bottles. When he sings, </tspan><tspan x="0" y="43.2" class="st5 st3">wearing a tutù, it’s rounds of applause. Angel is still a </tspan><tspan x="0" y="64.8" class="st5 st3">teenager but has the strength of someone who has lived </tspan><tspan x="0" y="86.4" class="st5 st3">ten lives. He deals with loss, and a complex identity: that </tspan><tspan x="0" y="108" class="st5 st3">of a Latino, queer, member of the Pentecostal church;  </tspan><tspan x="0" y="129.6" class="st5 st3">a believer in dreams. His biggest being becoming a </tspan><tspan x="0" y="151.2" class="st5 st3">Broadway star.</tspan></text>
	</g>
	<path class="st14" d="M1069,241.5c-1.1,0.5-42.3,0-42.3,0"/>
	<rect x="1073" y="226.4" class="st1" width="101.9" height="39.8"/>
	<text transform="matrix(1 0 0 1 1073.0081 236.9471)"><tspan x="0" y="0" class="st5 st15">Rope to keep </tspan><tspan x="0" y="17" class="st5 st15">the boxes still</tspan></text>
	<path id="path" class="st16" d="M804.8,665c7,62.8,42.6,48.7,88.3,28.8c53.5-23.3,48.7,45.2,50.9,81.3c2.6,40.5,0.9,80.9,1.3,121.3
		c0.3,40.4,2.5,80.8,0.8,121.3c-1.9,43.4-11.7,89.6,48.8,91.2c22.1,0.6,95.9-11,118,10.2c18.7,18,11.5,54.5,48.8,59.3
		c7.4,1,11,4.6,14.1,10.9c0.4,0.8,0.9,1.1,1.8,1.2c9.4,0.9,3.7,10.8-3.5,13.7c-8.4,3.4-52.3,5.9-56.7,20.2
		c-6.9,22.7,6.3,38.4,11,57.3c0.7,3.8,1.4,7.6,1.9,11.3c1.6,10.5,2.3,21.5,2.1,33.1c-0.2,11.6-6.4,17.8-18.6,18.7
		c-12.2,0.9-23.4,2.6-33.6,5.3c-10.2,2.7-20.4,5.3-30.7,7.9c-10.2,2.6-21.4,4.6-33.5,6c-12.1,1.4-18.6,6.3-19.6,14.8
		c-1,8.4-0.1,18.1,2.7,28.9c2.8,10.9,5.3,21.5,7.5,31.9c2.2,10.4,4.4,20.9,6.7,31.4c2.3,10.5,4.5,21,6.6,31.5
		c2.1,10.5,3.9,21.1,5.3,31.7c1.5,10.6,3,21.3,4.6,31.9c1.6,10.7,3.1,21.2,4.3,31.6c1.2,10.4,3.6,21.5,7.2,33.2
		c3.6,11.7,0.3,19.7-9.8,24c-10.1,4.3-18,10.9-23.7,19.8c-5.7,8.9-11.2,18.3-16.3,28c-5.2,9.7-11.2,18-18,24.7
		c-6.8,6.7-15.9,9.7-27.1,9.1c-11.3-0.7-21.8,1.4-31.5,6.2c-9.7,4.8-13,13.1-9.9,24.8c3.2,11.7,5.1,22.7,5.9,33.1
		c0.8,10.4,2.3,21.3,4.4,32.6c2.1,11.4-3,16.9-15.4,16.7c-12.4-0.3-22.8,0.1-31.1,1c-8.3,0.9-12.3,2.1-12.1,3.5
		c0.2,1.4,1.5,2.2,3.9,2.3c2.3,0.2,5.8-0.3,10.5-1.3c4.7-1,13.6-1.9,26.7-2.7c13.1-0.8,19.1,4.7,17.9,16.5
		c-1.2,11.8-1.7,22.9-1.5,33.5c0.2,10.6,0.2,21.2,0.1,32.1c-0.1,7.8,0,15.5,0.3,23.1c0.2,2.9,0.4,5.9,0.7,8.8
		c0.9,10.4,1.2,21.8,0.7,34.1c-0.4,12.3,5.7,17.9,18.3,16.8c12.6-1.1,24.1-1,34.5,0.2c10.4,1.2,21,2.2,31.9,2.8
		c10.9,0.6,21.3,1.9,31.2,3.9c9.9,2,18.1,7.9,24.7,17.5c6.6,9.6,10.3,19.4,11.2,29.5c0.9,10,0.7,20.4-0.6,31.2
		c-1.3,10.8-2.5,21.6-3.4,32.2c-0.9,10.7-1.9,21.4-2.9,32.1c-1,10.7-2,21.4-3,32.1c-1,10.7-2,21.4-3.1,32.1
		c-1.1,10.7-1.9,21.3-2.5,31.7c-0.6,10.4-2.5,21.8-5.6,34.2c-3.1,12.4,1,18.9,12.3,19.6c11.3,0.6,22.3,1.5,32.9,2.6
		c10.6,1.1,21.2,2.2,31.9,3.2c10.7,1,21.4,2,32.1,3c10.7,1,21.3,2.1,31.8,3.3c10.5,1.2,21.7,1.8,33.8,1.7
		c12.1-0.1,16.5,6.1,13.3,18.7c-3.2,12.6-5.1,24-5.6,34.3c-0.5,10.3-1.5,21-2.8,32.1c-1.3,11.1-1.6,21-0.9,29.8
		c0.7,8.8,8.1,12.4,22.1,10.7c14.1-1.7,21.2,3.1,21.6,14.5c0.3,11.3,1.2,17.2,2.8,17.5c1.5,0.3,1.1,4.3-1.3,11.8
		c-2.4,7.5-7.6,12.6-15.7,15.4c-8.1,2.8-17.2,5.8-27.4,8.9c-10.2,3.2-18.2,9.1-24.1,17.9c-4.6,6.8-6.7,14.4-6.5,22.6
		c1.8,18.8,6.5,37,9.5,55.5c4.4,27.2,9.1,31.7-21.9,33.5c-36.9,2.1-72.5,8.3-108.1,18.4c-23,6.5-17.7,22.7-13.4,40.4
		c4.5,18.8,6.5,37.9,9.7,56.8c6.2,36.1,12.3,72.2,18.3,108.3c5.9,36,26.6,68.2-4,105.2c-11.6,14.1-14,33.8-35,42.1
		c-19.1,7.5-35.8,0.5-53.7-1.1c-66.9-5.9-51.6,9.9-49.7,64.9c0.4,11,12.4,48.9-6.7,52.4c-19.7,3.6-24.4,8.4-38.6,21.4"/>
	<path id="bkg_path" class="st16" d="M804.8,665c7,62.8,42.6,48.7,88.3,28.8c53.5-23.3,48.7,45.2,50.9,81.3c2.6,40.5,0.9,80.9,1.3,121.3
		c0.3,40.4,2.5,80.8,0.8,121.3c-1.9,43.4-11.7,89.6,48.8,91.2c22.1,0.6,95.9-11,118,10.2c18.7,18,11.5,54.5,48.8,59.3
		c7.4,1,11,4.6,14.1,10.9c0.4,0.8,0.9,1.1,1.8,1.2c9.4,0.9,3.7,10.8-3.5,13.7c-8.4,3.4-52.3,5.9-56.7,20.2
		c-6.9,22.7,6.3,38.4,11,57.3c0.7,3.8,1.4,7.6,1.9,11.3c1.6,10.5,2.3,21.5,2.1,33.1c-0.2,11.6-6.4,17.8-18.6,18.7
		c-12.2,0.9-23.4,2.6-33.6,5.3c-10.2,2.7-20.4,5.3-30.7,7.9c-10.2,2.6-21.4,4.6-33.5,6c-12.1,1.4-18.6,6.3-19.6,14.8
		c-1,8.4-0.1,18.1,2.7,28.9c2.8,10.9,5.3,21.5,7.5,31.9c2.2,10.4,4.4,20.9,6.7,31.4c2.3,10.5,4.5,21,6.6,31.5
		c2.1,10.5,3.9,21.1,5.3,31.7c1.5,10.6,3,21.3,4.6,31.9c1.6,10.7,3.1,21.2,4.3,31.6c1.2,10.4,3.6,21.5,7.2,33.2
		c3.6,11.7,0.3,19.7-9.8,24c-10.1,4.3-18,10.9-23.7,19.8c-5.7,8.9-11.2,18.3-16.3,28c-5.2,9.7-11.2,18-18,24.7
		c-6.8,6.7-15.9,9.7-27.1,9.1c-11.3-0.7-21.8,1.4-31.5,6.2c-9.7,4.8-13,13.1-9.9,24.8c3.2,11.7,5.1,22.7,5.9,33.1
		c0.8,10.4,2.3,21.3,4.4,32.6c2.1,11.4-3,16.9-15.4,16.7c-12.4-0.3-22.8,0.1-31.1,1c-8.3,0.9-12.3,2.1-12.1,3.5
		c0.2,1.4,1.5,2.2,3.9,2.3c2.3,0.2,5.8-0.3,10.5-1.3c4.7-1,13.6-1.9,26.7-2.7c13.1-0.8,19.1,4.7,17.9,16.5
		c-1.2,11.8-1.7,22.9-1.5,33.5c0.2,10.6,0.2,21.2,0.1,32.1c-0.1,7.8,0,15.5,0.3,23.1c0.2,2.9,0.4,5.9,0.7,8.8
		c0.9,10.4,1.2,21.8,0.7,34.1c-0.4,12.3,5.7,17.9,18.3,16.8c12.6-1.1,24.1-1,34.5,0.2c10.4,1.2,21,2.2,31.9,2.8
		c10.9,0.6,21.3,1.9,31.2,3.9c9.9,2,18.1,7.9,24.7,17.5c6.6,9.6,10.3,19.4,11.2,29.5c0.9,10,0.7,20.4-0.6,31.2
		c-1.3,10.8-2.5,21.6-3.4,32.2c-0.9,10.7-1.9,21.4-2.9,32.1c-1,10.7-2,21.4-3,32.1c-1,10.7-2,21.4-3.1,32.1
		c-1.1,10.7-1.9,21.3-2.5,31.7c-0.6,10.4-2.5,21.8-5.6,34.2c-3.1,12.4,1,18.9,12.3,19.6c11.3,0.6,22.3,1.5,32.9,2.6
		c10.6,1.1,21.2,2.2,31.9,3.2c10.7,1,21.4,2,32.1,3c10.7,1,21.3,2.1,31.8,3.3c10.5,1.2,21.7,1.8,33.8,1.7
		c12.1-0.1,16.5,6.1,13.3,18.7c-3.2,12.6-5.1,24-5.6,34.3c-0.5,10.3-1.5,21-2.8,32.1c-1.3,11.1-1.6,21-0.9,29.8
		c0.7,8.8,8.1,12.4,22.1,10.7c14.1-1.7,21.2,3.1,21.6,14.5c0.3,11.3,1.2,17.2,2.8,17.5c1.5,0.3,1.1,4.3-1.3,11.8
		c-2.4,7.5-7.6,12.6-15.7,15.4c-8.1,2.8-17.2,5.8-27.4,8.9c-10.2,3.2-18.2,9.1-24.1,17.9c-4.6,6.8-6.7,14.4-6.5,22.6
		c1.8,18.8,6.5,37,9.5,55.5c4.4,27.2,9.1,31.7-21.9,33.5c-36.9,2.1-72.5,8.3-108.1,18.4c-23,6.5-17.7,22.7-13.4,40.4
		c4.5,18.8,6.5,37.9,9.7,56.8c6.2,36.1,12.3,72.2,18.3,108.3c5.9,36,26.6,68.2-4,105.2c-11.6,14.1-14,33.8-35,42.1
		c-19.1,7.5-35.8,0.5-53.7-1.1c-66.9-5.9-51.6,9.9-49.7,64.9c0.4,11,12.4,48.9-6.7,52.4c-19.7,3.6-24.4,8.4-38.6,21.4"/>
	<image style="overflow:visible;" width="2082" height="1904" xlink:href="../../img/angel/Angel_cart.png"  transform="matrix(0.1296 0 0 0.1296 808.3411 152.2842)">
	</image>
	<image style="overflow:visible;" width="447" height="877" xlink:href="../../img/angel/Angel_earbuds.png"  transform="matrix(0.322 0 0 0.322 1432.8719 113.1863)">
	</image>
</g>
</svg>
