<?xml version="1.0" encoding="utf-8"?>
<!-- Generator: Adobe Illustrator 22.1.0, SVG Export Plug-In . SVG Version: 6.00 Build 0)  -->
<svg version="1.1" id="path_container" xmlns="http://www.w3.org/2000/svg" xmlns:xlink="http://www.w3.org/1999/xlink" x="0px"
	 y="0px" viewBox="0 0 1920 4511.8" style="enable-background:new 0 0 1920 4511.8;" xml:space="preserve">
<style type="text/css">
	.st0{fill:none;stroke:#999999;stroke-width:2;stroke-linecap:round;stroke-linejoin:round;stroke-dasharray:1,5.6693;}
	.st1{fill:none;}
	.st2{font-family:'Roboto-BoldItalic';}
	.st3{font-size:18px;}
	.st4{font-family:'Roboto-Bold';}
	.st5{font-family:'Roboto-Regular';}
	.st6{font-family:'Roboto-Italic';}
	.st7{fill:#D7DED5;}
	.st8{fill:#144C5B;}
	.st9{font-family:'ZillaSlab-Medium';}
	.st10{fill:none;stroke:#B2B2B2;stroke-width:0.5;stroke-linecap:round;stroke-linejoin:round;}
	.st11{fill:none;stroke:#000000;stroke-linecap:round;stroke-linejoin:round;}
	.st12{font-family:'Roboto-Light';}
	.st13{font-size:36px;}
	.st14{fill:none;stroke:#000000;stroke-width:0.4325;stroke-miterlimit:10;}
	.st15{font-size:14px;}
	.st16{fill:none;stroke:#000000;stroke-width:1.4173;stroke-linecap:round;stroke-linejoin:round;}
</style>
<style>@import url('../svg_styles.css')</style>
<g id="content">
	<line class="st0" x1="29.7" y1="1165.1" x2="1883.3" y2="1165.1"/>
	<line class="st0" x1="29.7" y1="3671.6" x2="1883.3" y2="3671.6"/>
	<line class="st0" x1="29.7" y1="2458" x2="1883.3" y2="2458"/>
	<rect x="795.7" y="2851.7" class="st1" width="361.5" height="63.6"/>
	<text transform="matrix(1 0 0 1 811.0408 2867.0898)" class="st2 st3">“Ahí”</text>
	<text transform="matrix(1 0 0 1 856.3407 2867.0898)" class="st4 st3"> </text>
	<text transform="matrix(1 0 0 1 860.8407 2867.0898)" class="st5 st3">Angel points at an indoor market that </text>
	<text transform="matrix(1 0 0 1 866.1406 2888.6899)" class="st5 st3">he frequents. It’s one of the oldest in </text>
	<text transform="matrix(1 0 0 1 802.7407 2910.2898)" class="st5 st3">Brooklyn, and specializes in Latino products.</text>
	<rect x="697.7" y="3042.5" class="st1" width="415.3" height="75.8"/>
	<text transform="matrix(1 0 0 1 721.1492 3057.9106)" class="st2 st3">“My cinematic flair, From my boot to derrièeeere”</text>
	<text transform="matrix(1 0 0 1 1113.0491 3057.9106)" class="st4 st3"> </text>
	<text transform="matrix(1 0 0 1 710.4491 3079.5107)" class="st5 st3">Angels sings a song from the musical </text>
	<text transform="matrix(1 0 0 1 1015.5491 3079.5107)" class="st6 st3">Kinky Boots</text>
	<text transform="matrix(1 0 0 1 1108.2491 3079.5107)" class="st5 st3">. </text>
	<text transform="matrix(1 0 0 1 753.1492 3101.1106)" class="st5 st3">He’s studying to be become a Broadway star.</text>
	<rect x="548.9" y="3529" class="st1" width="334.5" height="87.2"/>
	<text transform="matrix(1 0 0 1 609.6824 3544.3984)" class="st2 st3">“¿Cuando te vas a las universidad?”</text>
	<text transform="matrix(1 0 0 1 883.3823 3544.3984)" class="st4 st3"> </text>
	<text transform="matrix(1 0 0 1 635.0823 3565.9985)" class="st5 st3">Violeta, the Mexican lady at the </text>
	<text transform="matrix(1 0 0 1 561.0823 3587.5984)" class="st5 st3">redemption center, asks Angel about the </text>
	<text transform="matrix(1 0 0 1 569.2822 3609.1985)" class="st5 st3">college. He dreams of attending Ithaca.</text>
	<g>
		<rect x="1023.9" y="1206.1" class="st1" width="426.4" height="79.2"/>
		<text transform="matrix(1 0 0 1 1023.8521 1221.4683)" class="st2 st3">“This is from BJ’s”</text>
		<text transform="matrix(1 0 0 1 1172.052 1221.4683)" class="st5 st3"> Angel talks about his carrito. </text>
		<text transform="matrix(1 0 0 1 1023.8521 1243.0684)" class="st5 st3">The “classic” Home Depot model is too small for him.</text>
	</g>
	<g>
		<rect x="1023.9" y="1519.6" class="st1" width="387.3" height="79.2"/>
		<text transform="matrix(1 0 0 1 1023.8521 1535.0361)" class="st5 st3">Angel points at Bravo market where he used to </text>
		<text transform="matrix(1 0 0 1 1023.8521 1556.636)" class="st5 st3">redeem cans and bottles: </text>
		<text transform="matrix(1 0 0 1 1230.252 1556.636)" class="st2 st3">“We would give them </text>
		<text transform="matrix(1 0 0 1 1023.8521 1578.2361)" class="st2 st3">to a person, not a machine.”</text>
		<text transform="matrix(1 0 0 1 1246.052 1578.2361)" class="st5 st3"> </text>
	</g>
	<g>
		<rect x="1149.1" y="1850.3" class="st1" width="383.4" height="79.2"/>
		<text transform="matrix(1 0 0 1 1149.0826 1865.6655)" class="st2 st3">“No tengo tiempo”</text>
		<text transform="matrix(1 0 0 1 1299.7826 1865.6655)" class="st5 st3"> Angel passes by an empty </text>
		<text transform="matrix(1 0 0 1 1149.0826 1887.2654)" class="st5 st3">can but doesn’t pick it up. He collects only from </text>
		<text transform="matrix(1 0 0 1 1149.0826 1908.8655)" class="st5 st3">one restaurant because he doesn’t have time.</text>
	</g>
	<g>
		<rect x="668.2" y="1641.9" class="st1" width="397.9" height="76.3"/>
		<text transform="matrix(1 0 0 1 680.1376 1657.3315)" class="st2 st3">“Buenos dias”</text>
		<text transform="matrix(1 0 0 1 796.6376 1657.3315)" class="st5 st3">Angel greets a woman who works </text>
		<text transform="matrix(1 0 0 1 717.8376 1678.9314)" class="st5 st3">at the mexican restaurant where he collects </text>
		<text transform="matrix(1 0 0 1 697.6376 1700.5315)" class="st5 st3">empty bottles: </text>
		<text transform="matrix(1 0 0 1 816.0376 1700.5315)" class="st2 st3">“They keep them aside for me.”</text>
	</g>
	<g>
		<rect x="646" y="1719.2" class="st1" width="385.5" height="76.3"/>
		<text transform="matrix(1 0 0 1 658.2385 1734.6174)" class="st2 st3">“Siempre me chocaba con eso,” </text>
		<text transform="matrix(1 0 0 1 913.6385 1734.6174)" class="st5 st3">Angel expresses</text>
		<text transform="matrix(1 0 0 1 1026.5386 1734.6174)" class="st5 st3">-</text>
		<text transform="matrix(1 0 0 1 678.6385 1756.2173)" class="st5 st3">empathy, after I hit my head, and glue my hair,</text>
		<text transform="matrix(1 0 0 1 659.6385 1777.8174)" class="st5 st3">          on a golden stick fly trap in a dark storage </text>
	</g>
	<rect x="983.5" y="2319.6" class="st1" width="415.4" height="74.4"/>
	<text transform="matrix(1 0 0 1 983.4828 2335.0215)" class="st2 st3">“Cuarenta y siete” </text>
	<text transform="matrix(1 0 0 1 1135.2828 2335.0215)" class="st5 st3">At the redemption center, Angel </text>
	<text transform="matrix(1 0 0 1 983.4828 2356.6213)" class="st5 st3">gives 47 unsorted cans to a Mexican lady, Josefa, </text>
	<text transform="matrix(1 0 0 1 983.4828 2378.2214)" class="st5 st3">who pays him the 5 cents and sorts them.</text>
	<rect x="1247.8" y="2773" class="st1" width="400.9" height="74.4"/>
	<text transform="matrix(1 0 0 1 1247.8495 2788.4175)" class="st5 st3">Angel bumps into his grandma’s neighbor, Cookie, </text>
	<text transform="matrix(1 0 0 1 1247.8495 2810.0176)" class="st5 st3">who was his babysitter: </text>
	<text transform="matrix(1 0 0 1 1439.4495 2810.0176)" class="st2 st3">“She was so sweet.”</text>
	<g>
		<path d="M1206.3,1702h-14.7v-16.2h14.7V1702z M1199,1691.7c-1.2,0-2.1,0.9-2.1,2.1s0.9,2.1,2.1,2.1s2.1-0.9,2.1-2.1
			S1200.1,1691.7,1199,1691.7z"/>
		<g>
			<path d="M1206.3,1685.7h-2c0-5-2.5-9.2-5.4-9.2s-5.4,4.2-5.4,9.2h-2c0-6.3,3.2-11.2,7.4-11.2S1206.3,1679.4,1206.3,1685.7z"/>
		</g>
	</g>
	<g>
		<path d="M829.3,3017.6h-14.7v-16.2h14.7V3017.6z M821.9,3007.4c-1.2,0-2.1,0.9-2.1,2.1s0.9,2.1,2.1,2.1s2.1-0.9,2.1-2.1
			S823.1,3007.4,821.9,3007.4z"/>
		<g>
			<path d="M829.3,3001.4h-2c0-5-2.5-9.2-5.4-9.2s-5.4,4.2-5.4,9.2h-2c0-6.3,3.2-11.2,7.4-11.2
				C826.1,2990.1,829.3,2995.1,829.3,3001.4z"/>
		</g>
	</g>

		<image style="overflow:visible;enable-background:new    ;" width="150" height="106" xlink:href="../../img/angel/Comment.png"  transform="matrix(0.409 0 0 0.409 1163.1742 2859.6162)">
	</image>

		<image style="overflow:visible;enable-background:new    ;" width="150" height="106" xlink:href="../../img/angel/Comment.png"  transform="matrix(0.409 0 0 0.409 1118.9941 3033.4375)">
	</image>

		<image style="overflow:visible;enable-background:new    ;" width="123" height="150" xlink:href="../../img/angel/Hand.png"  transform="matrix(0.3608 0 0 0.3608 926.8798 2321.4919)">
	</image>

		<image style="overflow:visible;enable-background:new    ;" width="123" height="150" xlink:href="../../img/angel/Hand.png"  transform="matrix(0.3608 0 0 0.3608 1191.2466 2765.8879)">
	</image>

		<image style="overflow:visible;enable-background:new    ;" width="123" height="150" xlink:href="../../img/angel/Hand.png"  transform="matrix(0.3608 0 0 0.3608 893.6295 3544.9492)">
	</image>

		<image style="overflow:visible;enable-background:new    ;" width="123" height="150" xlink:href="../../img/angel/Hand.png"  transform="matrix(0.3608 0 0 0.3608 1080.6481 1653.0275)">
	</image>

		<image style="overflow:visible;enable-background:new    ;" width="150" height="131" xlink:href="../../img/angel/Cart.png"  transform="matrix(0.5175 0 0 0.5175 759.4015 1101.014)">
	</image>

		<image style="overflow:visible;enable-background:new    ;" width="150" height="106" xlink:href="../../img/angel/Comment.png"  transform="matrix(0.409 0 0 0.409 956.4674 1188.1475)">
	</image>

		<image style="overflow:visible;enable-background:new    ;" width="150" height="106" xlink:href="../../img/angel/Comment.png"  transform="matrix(0.409 0 0 0.409 956.4674 1518.7153)">
	</image>

		<image style="overflow:visible;enable-background:new    ;" width="150" height="106" xlink:href="../../img/angel/Comment.png"  transform="matrix(0.409 0 0 0.409 1079.6986 1849.3446)">
	</image>

		<image style="overflow:visible;enable-background:new    ;" width="150" height="106" xlink:href="../../img/angel/Comment.png"  transform="matrix(0.409 0 0 0.409 1049.0549 1717.6163)">
	</image>

		<image class="cameraImage" style="overflow:visible;enable-background:new    ;" width="150" height="115" xlink:href="../../img/angel/Camera.png"  transform="matrix(0.377 0 0 0.377 1049.0261 1766.5204)">
	</image>

		<image class="cameraImage" style="overflow:visible;enable-background:new    ;" width="150" height="115" xlink:href="../../img/angel/Camera.png"  transform="matrix(0.377 0 0 0.377 1121.3927 3086.6538)">
	</image>

		<image style="overflow:visible;enable-background:new    ;" width="122" height="150" xlink:href="../../img/angel/trash_bag-5.png"  transform="matrix(0.4893 0 0 0.4893 1332.9429 1629.302)">
	</image>

		<image style="overflow:visible;enable-background:new    ;" width="122" height="150" xlink:href="../../img/angel/trash_bag-5.png"  transform="matrix(0.4893 0 0 0.4893 838.7101 2946.2349)">
	</image>

		<image style="overflow:visible;enable-background:new    ;" width="122" height="150" xlink:href="../../img/angel/trash_bag-5.png"  transform="matrix(0.4893 0 0 0.4893 1273.304 1629.302)">
	</image>

		<image style="overflow:visible;enable-background:new    ;" width="122" height="150" xlink:href="../../img/angel/trash_bag-5.png"  transform="matrix(0.4893 0 0 0.4893 1213.6653 1629.302)">
	</image>

		<image style="overflow:visible;enable-background:new    ;" width="122" height="150" xlink:href="../../img/angel/trash_bag-5.png"  transform="matrix(0.4893 0 0 0.4893 184.7443 2368.3079)">
	</image>

		<image style="overflow:visible;enable-background:new    ;" width="122" height="150" xlink:href="../../img/angel/trash_bag-1.png"  transform="matrix(0.4893 0 0 0.4893 244.3831 2368.3079)">
	</image>

		<image style="overflow:visible;enable-background:new    ;" width="122" height="150" xlink:href="../../img/angel/trash_bag-5.png"  transform="matrix(0.4893 0 0 0.4893 125.1055 2368.3079)">
	</image>

		<image style="overflow:visible;enable-background:new    ;" width="122" height="150" xlink:href="../../img/angel/trash_bag-5.png"  transform="matrix(0.4893 0 0 0.4893 65.4667 2368.3079)">
	</image>

		<image style="overflow:visible;enable-background:new    ;" width="122" height="150" xlink:href="../../img/angel/trash_bag-5.png"  transform="matrix(0.4893 0 0 0.4893 184.7443 3585.4307)">
	</image>

		<image style="overflow:visible;enable-background:new    ;" width="122" height="150" xlink:href="../../img/angel/trash_bag-5.png"  transform="matrix(0.4893 0 0 0.4893 244.3831 3585.4307)">
	</image>

		<image style="overflow:visible;enable-background:new    ;" width="122" height="150" xlink:href="../../img/angel/trash_bag-2.png"  transform="matrix(0.4893 0 0 0.4893 304.0219 3585.4307)">
	</image>

		<image style="overflow:visible;enable-background:new    ;" width="122" height="150" xlink:href="../../img/angel/trash_bag-5.png"  transform="matrix(0.4893 0 0 0.4893 125.1055 3585.4307)">
	</image>

		<image style="overflow:visible;enable-background:new    ;" width="122" height="150" xlink:href="../../img/angel/trash_bag-5.png"  transform="matrix(0.4893 0 0 0.4893 65.4667 3585.4307)">
	</image>

		<image style="overflow:visible;enable-background:new    ;" width="49" height="150" xlink:href="../../img/angel/Glass.png"  transform="matrix(0.3916 0 0 0.3916 1213.7186 1709.9301)">
	</image>

		<image style="overflow:visible;enable-background:new    ;" width="49" height="150" xlink:href="../../img/angel/Glass.png"  transform="matrix(0.3916 0 0 0.3916 1235.6624 1709.9301)">
	</image>

		<image style="overflow:visible;enable-background:new    ;" width="49" height="150" xlink:href="../../img/angel/Glass.png"  transform="matrix(0.3916 0 0 0.3916 1257.6062 1709.9301)">
	</image>

		<image style="overflow:visible;enable-background:new    ;" width="49" height="150" xlink:href="../../img/angel/Glass.png"  transform="matrix(0.3916 0 0 0.3916 1279.55 1709.9301)">
	</image>

		<image style="overflow:visible;enable-background:new    ;" width="49" height="150" xlink:href="../../img/angel/Glass.png"  transform="matrix(0.3916 0 0 0.3916 1301.4939 1709.9301)">
	</image>

		<image style="overflow:visible;enable-background:new    ;" width="49" height="150" xlink:href="../../img/angel/Glass.png"  transform="matrix(0.3916 0 0 0.3916 1323.4377 1709.9301)">
	</image>

		<image style="overflow:visible;enable-background:new    ;" width="49" height="150" xlink:href="../../img/angel/Glass.png"  transform="matrix(0.3916 0 0 0.3916 1345.3815 1709.9301)">
	</image>

		<image style="overflow:visible;enable-background:new    ;" width="49" height="150" xlink:href="../../img/angel/Glass.png"  transform="matrix(0.3916 0 0 0.3916 1367.3254 1709.9301)">
	</image>

		<image style="overflow:visible;enable-background:new    ;" width="49" height="150" xlink:href="../../img/angel/Glass.png"  transform="matrix(0.3916 0 0 0.3916 1389.2692 1709.9301)">
	</image>

		<image style="overflow:visible;enable-background:new    ;" width="49" height="150" xlink:href="../../img/angel/Glass.png"  transform="matrix(0.3916 0 0 0.3916 1411.2131 1709.9301)">
	</image>

		<image style="overflow:visible;enable-background:new    ;" width="49" height="150" xlink:href="../../img/angel/Glass.png"  transform="matrix(0.3916 0 0 0.3916 1433.157 1709.9301)">
	</image>

		<image style="overflow:visible;enable-background:new    ;" width="49" height="150" xlink:href="../../img/angel/Glass.png"  transform="matrix(0.3916 0 0 0.3916 1455.1008 1709.9301)">
	</image>

		<image style="overflow:visible;enable-background:new    ;" width="49" height="150" xlink:href="../../img/angel/Glass.png"  transform="matrix(0.3916 0 0 0.3916 1477.0447 1709.9301)">
	</image>

		<image style="overflow:visible;enable-background:new    ;" width="49" height="150" xlink:href="../../img/angel/Glass.png"  transform="matrix(0.3916 0 0 0.3916 1498.9883 1709.9301)">
	</image>

		<image style="overflow:visible;enable-background:new    ;" width="49" height="150" xlink:href="../../img/angel/Glass.png"  transform="matrix(0.3916 0 0 0.3916 1520.9321 1709.9301)">
	</image>

		<image style="overflow:visible;enable-background:new    ;" width="49" height="150" xlink:href="../../img/angel/Glass.png"  transform="matrix(0.3916 0 0 0.3916 903.8196 2958.4187)">
	</image>

		<image style="overflow:visible;enable-background:new    ;" width="49" height="150" xlink:href="../../img/angel/Glass.png"  transform="matrix(0.3916 0 0 0.3916 925.7635 2958.4187)">
	</image>

		<image style="overflow:visible;enable-background:new    ;" width="49" height="150" xlink:href="../../img/angel/Glass.png"  transform="matrix(0.3916 0 0 0.3916 947.7072 2958.4187)">
	</image>

		<image style="overflow:visible;enable-background:new    ;" width="49" height="150" xlink:href="../../img/angel/Glass.png"  transform="matrix(0.3916 0 0 0.3916 969.651 2958.4187)">
	</image>

		<image style="overflow:visible;enable-background:new    ;" width="49" height="150" xlink:href="../../img/angel/Glass.png"  transform="matrix(0.3916 0 0 0.3916 991.5948 2958.4187)">
	</image>

		<image style="overflow:visible;enable-background:new    ;" width="49" height="150" xlink:href="../../img/angel/Glass.png"  transform="matrix(0.3916 0 0 0.3916 1013.5387 2958.4187)">
	</image>

		<image style="overflow:visible;enable-background:new    ;" width="49" height="150" xlink:href="../../img/angel/Glass.png"  transform="matrix(0.3916 0 0 0.3916 1035.4825 2958.4187)">
	</image>

		<image style="overflow:visible;enable-background:new    ;" width="49" height="150" xlink:href="../../img/angel/Glass.png"  transform="matrix(0.3916 0 0 0.3916 1057.4263 2958.4187)">
	</image>

		<image style="overflow:visible;enable-background:new    ;" width="49" height="150" xlink:href="../../img/angel/Glass.png"  transform="matrix(0.3916 0 0 0.3916 1079.3702 2958.4187)">
	</image>

		<image style="overflow:visible;enable-background:new    ;" width="49" height="150" xlink:href="../../img/angel/Glass.png"  transform="matrix(0.3916 0 0 0.3916 1101.314 2958.4187)">
	</image>

		<image style="overflow:visible;enable-background:new    ;" width="49" height="150" xlink:href="../../img/angel/Glass.png"  transform="matrix(0.3916 0 0 0.3916 1123.2578 2958.4187)">
	</image>

		<image style="overflow:visible;enable-background:new    ;" width="49" height="150" xlink:href="../../img/angel/Glass.png"  transform="matrix(0.3916 0 0 0.3916 1145.2017 2958.4187)">
	</image>

		<image style="overflow:visible;enable-background:new    ;" width="49" height="150" xlink:href="../../img/angel/Glass.png"  transform="matrix(0.3916 0 0 0.3916 1167.1455 2958.4187)">
	</image>

		<image style="overflow:visible;enable-background:new    ;" width="49" height="150" xlink:href="../../img/angel/Glass.png"  transform="matrix(0.3916 0 0 0.3916 1189.0894 2958.4187)">
	</image>

		<image style="overflow:visible;enable-background:new    ;" width="49" height="150" xlink:href="../../img/angel/Glass.png"  transform="matrix(0.3916 0 0 0.3916 1211.0331 2958.4187)">
	</image>

		<image style="overflow:visible;enable-background:new    ;" width="150" height="131" xlink:href="../../img/angel/Cart.png"  transform="matrix(0.3416 0 0 0.3416 798.348 2331.8113)">
	</image>

		<image style="overflow:visible;enable-background:new    ;" width="150" height="131" xlink:href="../../img/angel/Cart.png"  transform="matrix(0.3416 0 0 0.3416 839.8583 3626.8767)">
	</image>
	<rect x="246.7" y="1195.5" class="st7" width="283.5" height="138.1"/>
	<rect x="246.7" y="1490.2" class="st7" width="283.5" height="138.1"/>
	<rect x="246.7" y="1662.7" class="st7" width="283.5" height="138.1"/>
	<rect x="246.7" y="1835.3" class="st7" width="283.5" height="138.1"/>
	<rect x="246.7" y="2474.2" class="st7" width="283.5" height="138.1"/>
	<rect x="264.6" y="1215.5" class="st1" width="242.4" height="105.5"/>
	<text transform="matrix(1 0 0 1 264.6084 1227.9033)" class="st8 st9 st3">Each canner has their own </text>
	<text transform="matrix(1 0 0 1 264.6084 1249.5034)" class="st8 st9 st3">cart. They look all the same, </text>
	<text transform="matrix(1 0 0 1 264.6084 1271.1033)" class="st8 st9 st3">but they’re not. They’re </text>
	<text transform="matrix(1 0 0 1 264.6084 1292.7034)" class="st8 st9 st3">personalized with extras, like </text>
	<text transform="matrix(1 0 0 1 264.6084 1314.3035)" class="st8 st9 st3">stronger wheels or gadgets.</text>
	<rect x="264.6" y="1510.2" class="st1" width="248.2" height="105.5"/>
	<text transform="matrix(1 0 0 1 264.6084 1522.5605)" class="st8 st9 st3">Many canners express </text>
	<text transform="matrix(1 0 0 1 264.6084 1544.1606)" class="st8 st9 st3">frustration with reverse </text>
	<text transform="matrix(1 0 0 1 264.6084 1565.7605)" class="st8 st9 st3">vending machines. They accept </text>
	<text transform="matrix(1 0 0 1 264.6084 1587.3606)" class="st8 st9 st3">only a limited amount of pieces </text>
	<text transform="matrix(1 0 0 1 264.6084 1608.9607)" class="st8 st9 st3">and get jammed very easily.</text>
	<rect x="264.6" y="1682.7" class="st1" width="236.1" height="105.5"/>
	<text transform="matrix(1 0 0 1 264.6084 1695.1038)" class="st8 st9 st3">Angel sorts the glass on site, </text>
	<text transform="matrix(1 0 0 1 264.6084 1716.7036)" class="st8 st9 st3">to avoid the mess at the </text>
	<text transform="matrix(1 0 0 1 264.6084 1738.3037)" class="st8 st9 st3">redemption center. Usually </text>
	<text transform="matrix(1 0 0 1 264.6084 1759.9036)" class="st8 st9 st3">canners do a rough sorting </text>
	<text transform="matrix(1 0 0 1 264.6084 1781.5037)" class="st8 st9 st3">while picking, by material.</text>
	<rect x="264.6" y="1855.3" class="st1" width="259.1" height="105.5"/>
	<text transform="matrix(1 0 0 1 264.6084 1867.6467)" class="st8 st9 st3">Like for many canners, Angel’s </text>
	<text transform="matrix(1 0 0 1 264.6084 1889.2466)" class="st8 st9 st3">life is very busy. He studies and </text>
	<text transform="matrix(1 0 0 1 264.6084 1910.8467)" class="st8 st9 st3">helps at home with chores. The </text>
	<text transform="matrix(1 0 0 1 264.6084 1932.4465)" class="st8 st9 st3">money he earns canning goes to </text>
	<text transform="matrix(1 0 0 1 264.6084 1954.0466)" class="st8 st9 st3">his abuela (grandma).</text>
	<rect x="264.6" y="2494.2" class="st1" width="233.9" height="105.5"/>
	<text transform="matrix(1 0 0 1 264.6084 2506.5847)" class="st8 st9 st3">Canners make deals among </text>
	<text transform="matrix(1 0 0 1 264.6084 2528.1846)" class="st8 st9 st3">themselves. They exchange </text>
	<text transform="matrix(1 0 0 1 264.6084 2549.7847)" class="st8 st9 st3">items in order to maximize </text>
	<text transform="matrix(1 0 0 1 264.6084 2571.3848)" class="st8 st9 st3">profits with sorted bottles </text>
	<text transform="matrix(1 0 0 1 264.6084 2592.9849)" class="st8 st9 st3">and cans.</text>
	<path class="st10" d="M72.3,2632.1c6.3-1.2,12.7-1.3,19.1-2.1c9.3-1.1,11.3,0,8.9-10.3c-2.7-12.3-4.1-24.6-4.1-37.2
		c0-8.2,5.8-7.9,12-8.2c6.6-0.3,13-1.4,19.5-2.1c12.4-1.3,24.8-2.7,37.2-4.1s24.9,2.4,34.1-11.1c3.5-5.1,9.8-7.8,10.5-15.4
		c0.7-7-3.2-11.8-5.4-17.5c-8.2-21.4-1.6-17.9,16.7-22.4c3.7-0.9,16.2-0.5,16.6-7.1c0.3-6.4-2.5-11.6-4.4-17.2"/>
	<path class="st10" d="M203.2,2504.8c-1.6,0.5-17.8,4.1-18.7,6.7c-1.4,4.1,1.1,7,1.9,10.5c0.7,3.4,0.9,6.8,1.4,10.2
		c1.9,15,4.7,28.3-14.3,32.9c-13.6,3.3-27.4,3.6-41.1,5.3c-6.9,0.9-13.9,1.6-20.8,2.7c-4,0.6-18-2.5-17.6,5.2
		c0.8,13.8,3.6,27.4,5.1,41.1c0.4,3.5,0.7,6.9,1.3,10.4c0.6,3.2,3.8,6.1,0,9.4c-3.5,3-7,0.9-10.5,1.1s-6.9,0.8-10.3,1.3
		c-2.9,0.4-18,0.5-19,5.5c-0.8,4,3.3,7,0.9,11.3c-2,3.5-5.4,2.5-8.2,3.7c-1.2,0.5,1.3,0.3,1.9-0.1c3.6-2,4.4-4.7,4.9-8.4
		c1-9.3-0.6-18.9,12-21.2"/>
	<path class="st10" d="M220.8,1219.8c-21,4.9-14.7,16.4-6.2,31.1c10.1,17.2-13.3,18.3-25.5,20.6c-13.6,2.5-27.4,3.6-41,5.4
		c-13.7,1.8-27.3,4.2-41.1,5.2c-14.8,1.1-30.8-0.3-28.9,20.2c0.7,7.5,7.7,32,1.4,40.4c-5.3,7.1-18,6.1-18.1,18.9
		c0,2.6-1.1,3.9-3.1,5.2c-0.2,0.2-0.3,0.3-0.3,0.6c0.1,3.2,3.8-0.3,3.8-2.9c-0.1-3.1-5.1-17.2-1.3-20.5c6.2-5.2,12.9-3.2,19.5-4.2"
		/>
	<path class="st10" d="M79.9,1339.9c3.1-0.5,16.7-3,18.5-7.2c1.7-4-0.7-6.9-1.4-10.3s-1-6.9-1.3-10.3c-1.9-18.6-11.6-25.9,13.6-28.8
		c13.7-1.6,27.4-3.5,40.9-6.4c6.8-1.5,13.6-2.9,20.4-4.4c4-0.9,16.8,0.2,17.5-7c0.8-8,5.2-12.8,10-18.2c4.7-5.4,9.5-9.4,6.6-17.8
		c-1.7-5-5.6-15.1,2.1-17.7c6.9-2.3,14-2.8,21-4.2c8.2-1.7,9.4-1.9,6.3-10.2c-1.4-3.8-4.5-6.7-2.9-11.5c0.5-1.5,1.5,0.6,1.7,1.6
		c1,3.3,1.6,6.8,2.8,10.1c3.5,9.4-6.1,8.7-12.2,10.2c-6.8,1.6-13.6,3.2-20.3,5.1"/>
	<path class="st10" d="M203.2,1212.6c-1.6,0.5-17.8,4.1-18.7,6.7c-1.4,4.1,1.1,7,1.9,10.5c0.7,3.4,0.9,6.8,1.4,10.2
		c1.9,15,4.7,28.3-14.3,32.9c-13.6,3.3-27.4,3.6-41.1,5.3c-6.9,0.9-13.9,1.6-20.8,2.7c-4,0.6-18-2.5-17.6,5.2
		c0.8,13.8,3.6,27.4,5.1,41.1c0.4,3.5,0.7,6.9,1.3,10.4c0.6,3.2,3.8,6.1,0,9.4c-3.5,3-7,0.9-10.5,1.1c-3.5,0.2-6.9,0.8-10.3,1.3
		c-2.9,0.4-18,0.5-19,5.5c-0.8,4,3.3,7,0.9,11.3c-2,3.5-5.4,2.5-8.2,3.7c-1.2,0.5,1.3,0.3,1.9-0.1c3.6-2,4.4-4.7,4.9-8.4
		c1-9.3-0.6-18.9,12-21.2"/>
	<path class="st10" d="M72.3,1339.9c6.3-1.2,12.7-1.3,19.1-2.1c9.3-1.1,11.3,0,8.9-10.3c-2.7-12.3-4.1-24.6-4.1-37.2
		c0-8.2,5.8-7.9,12-8.2c6.6-0.3,13-1.4,19.5-2.1c12.4-1.3,24.8-2.7,37.2-4.1c12.4-1.4,24.9,2.4,34.1-11.1c3.5-5.1,9.8-7.8,10.5-15.4
		c0.7-7-3.2-11.8-5.4-17.5c-8.2-21.4-1.6-17.9,16.7-22.4c3.7-0.9,16.2-0.5,16.6-7.1c0.3-6.4-2.5-11.6-4.4-17.2"/>
	<path class="st11" d="M220.8,2512c-21,4.9-14.7,16.4-6.2,31.1c10.1,17.2-13.3,18.3-25.5,20.6c-13.6,2.5-27.4,3.6-41,5.4
		c-13.7,1.8-27.3,4.2-41.1,5.2c-14.8,1.1-30.8-0.3-28.9,20.2c0.7,7.5,7.7,32,1.4,40.4c-5.3,7.1-18,6.1-18.1,18.9
		c0,2.6-1.1,3.9-3.1,5.2c-0.2,0.2-0.3,0.3-0.3,0.6c0.1,3.2,3.8-0.3,3.8-2.9c-0.1-3.1-5.1-17.2-1.3-20.5c6.2-5.2,12.9-3.2,19.5-4.2"
		/>
	<path class="st11" d="M79.9,2632.1c3.1-0.5,16.7-3,18.5-7.2c1.7-4-0.7-6.9-1.4-10.3c-0.7-3.4-1-6.9-1.3-10.3
		c-1.9-18.6-11.6-25.9,13.6-28.8c13.7-1.6,27.4-3.5,40.9-6.4c6.8-1.5,13.6-2.9,20.4-4.4c4-0.9,16.8,0.2,17.5-7
		c0.8-8,5.2-12.8,10-18.2c4.7-5.4,9.5-9.4,6.6-17.8c-1.7-5-5.6-15.1,2.1-17.7c6.9-2.3,14-2.8,21-4.2c8.2-1.7,9.4-1.9,6.3-10.2
		c-1.4-3.8-4.5-6.7-2.9-11.5c0.5-1.5,1.5,0.6,1.7,1.6c1,3.3,1.6,6.8,2.8,10.1c3.5,9.4-6.1,8.7-12.2,10.2c-6.8,1.6-13.6,3.2-20.3,5.1
		"/>
	<path class="st11" d="M220.8,3729.1c-21,4.9-14.7,16.4-6.2,31.1c10.1,17.2-13.3,18.3-25.5,20.6c-13.6,2.5-27.4,3.6-41,5.4
		c-13.7,1.8-27.3,4.2-41.1,5.2c-14.8,1.1-30.8-0.3-28.9,20.2c0.7,7.5,7.7,32,1.4,40.4c-5.3,7.1-18,6.1-18.1,18.9
		c0,2.6-1.1,3.9-3.1,5.2c-0.2,0.2-0.3,0.3-0.3,0.6c0.1,3.2,3.8-0.3,3.8-2.9c-0.1-3.1-5.1-17.2-1.3-20.5c6.2-5.2,12.9-3.2,19.5-4.2"
		/>
	<path class="st11" d="M79.9,3849.2c3.1-0.5,16.7-3,18.5-7.2c1.7-4-0.7-6.9-1.4-10.3c-0.7-3.4-1-6.9-1.3-10.3
		c-1.9-18.6-11.6-25.9,13.6-28.8c13.7-1.6,27.4-3.5,40.9-6.4c6.8-1.5,13.6-2.9,20.4-4.4c4-0.9,16.8,0.2,17.5-7
		c0.8-8,5.2-12.8,10-18.2c4.7-5.4,9.5-9.4,6.6-17.8c-1.7-5-5.6-15.1,2.1-17.7c6.9-2.3,14-2.8,21-4.2c8.2-1.7,9.4-1.9,6.3-10.2
		c-1.4-3.8-4.5-6.7-2.9-11.5c0.5-1.5,1.5,0.6,1.7,1.6c1,3.3,1.6,6.8,2.8,10.1c3.5,9.4-6.1,8.7-12.2,10.2c-6.8,1.6-13.6,3.2-20.3,5.1
		"/>
	<path class="st11" d="M72.3,3849.2c6.3-1.2,12.7-1.3,19.1-2.1c9.3-1.1,11.3,0,8.9-10.3c-2.7-12.3-4.1-24.6-4.1-37.2
		c0-8.2,5.8-7.9,12-8.2c6.6-0.3,13-1.4,19.5-2.1c12.4-1.3,24.8-2.7,37.2-4.1s24.9,2.4,34.1-11.1c3.5-5.1,9.8-7.8,10.5-15.4
		c0.7-7-3.2-11.8-5.4-17.5c-8.2-21.4-1.6-17.9,16.7-22.4c3.7-0.9,16.2-0.5,16.6-7.1c0.3-6.4-2.5-11.6-4.4-17.2"/>
	<path class="st11" d="M203.2,3721.9c-1.6,0.5-17.8,4.1-18.7,6.7c-1.4,4.1,1.1,7,1.9,10.5c0.7,3.4,0.9,6.8,1.4,10.2
		c1.9,15,4.7,28.3-14.3,32.9c-13.6,3.3-27.4,3.6-41.1,5.3c-6.9,0.9-13.9,1.6-20.8,2.7c-4,0.6-18-2.5-17.6,5.2
		c0.8,13.8,3.6,27.4,5.1,41.1c0.4,3.5,0.7,6.9,1.3,10.4c0.6,3.2,3.8,6.1,0,9.4c-3.5,3-7,0.9-10.5,1.1s-6.9,0.8-10.3,1.3
		c-2.9,0.4-18,0.5-19,5.5c-0.8,4,3.3,7,0.9,11.3c-2,3.5-5.4,2.5-8.2,3.7c-1.2,0.5,1.3,0.3,1.9-0.1c3.6-2,4.4-4.7,4.9-8.4
		c1-9.3-0.6-18.9,12-21.2"/>
	<text transform="matrix(1 0 0 1 75.09 1187.9678)" class="st4 st3">Start: </text>
	<text transform="matrix(1 0 0 1 124.19 1187.9678)" class="st12 st3">7:22 am</text>
	<text transform="matrix(1 0 0 1 75.09 2480.1226)" class="st4 st3">1/2 mile: </text>
	<text transform="matrix(1 0 0 1 151.59 2480.1226)" class="st12 st3">8:12 am</text>
	<text transform="matrix(1 0 0 1 75.09 3697.2451)" class="st4 st3">1 mile: </text>
	<text transform="matrix(1 0 0 1 134.49 3697.2451)" class="st12 st3">8:35 am</text>
	<g>
		<text transform="matrix(1 0 0 1 824.9645 426.9216)" class="st4 st3">BJ’s big cart for big boxes</text>
	</g>
	<g>
		<rect x="1358" y="411.6" class="st1" width="293.8" height="550"/>
		<text transform="matrix(1 0 0 1 1363.1636 426.9817)" class="st4 st3">Earbuds to listen to music and sing</text>
	</g>
	<text transform="matrix(1 0 0 1 74.8378 192.9817)" class="st4 st13">Canning with Angel</text>
	<g>
		<rect x="74.8" y="254.4" class="st1" width="455.3" height="191.8"/>
		<text transform="matrix(1 0 0 1 74.8382 269.804)" class="st5 st3">Angel collects lots of different things. When he helps his </text>
		<text transform="matrix(1 0 0 1 74.8382 291.4045)" class="st5 st3">grandma, he collects empty beer bottles. When he sings, </text>
		<text transform="matrix(1 0 0 1 74.8382 313.0042)" class="st5 st3">wearing a tutù, it’s rounds of applause. Angel is still a </text>
		<text transform="matrix(1 0 0 1 74.8382 334.6042)" class="st5 st3">teenager but has the strength of someone who has lived </text>
		<text transform="matrix(1 0 0 1 74.8382 356.2041)" class="st5 st3">ten lives. He deals with loss, and a complex identity: that </text>
		<text transform="matrix(1 0 0 1 74.8382 377.8042)" class="st5 st3">of a Latino, queer, member of the Pentecostal church;  </text>
		<text transform="matrix(1 0 0 1 74.8382 399.4043)" class="st5 st3">a believer in dreams. His biggest being becoming a </text>
		<text transform="matrix(1 0 0 1 74.8382 421.0042)" class="st5 st3">Broadway star.</text>
	</g>
	<path class="st14" d="M1069,241.5c-1.1,0.5-42.3,0-42.3,0"/>
	<rect x="1073" y="226.4" class="st1" width="101.9" height="39.8"/>
	<text transform="matrix(1 0 0 1 1073.0081 236.947)" class="st5 st15">Rope to keep </text>
	<text transform="matrix(1 0 0 1 1073.0081 253.947)" class="st5 st15">the boxes still</text>
	<path id="path" class="st16" d="M804.8,1165c7,62.8,42.6,48.7,88.3,28.8c53.5-23.3,48.7,45.2,50.9,81.3
		c2.6,40.5,0.9,80.9,1.3,121.3c0.3,40.4,2.5,80.8,0.8,121.3c-1.9,43.4-11.7,89.6,48.8,91.2c22.1,0.6,95.9-11,118,10.2
		c18.7,18,11.5,54.5,48.8,59.3c7.4,1,11,4.6,14.1,10.9c0.4,0.8,0.9,1.1,1.8,1.2c9.4,0.9,3.7,10.8-3.5,13.7
		c-8.4,3.4-52.3,5.9-56.7,20.2c-6.9,22.7,6.3,38.4,11,57.3c0.7,3.8,1.4,7.6,1.9,11.3c1.6,10.5,2.3,21.5,2.1,33.1
		c-0.2,11.6-6.4,17.8-18.6,18.7c-12.2,0.9-23.4,2.6-33.6,5.3c-10.2,2.7-20.4,5.3-30.7,7.9c-10.2,2.6-21.4,4.6-33.5,6
		s-18.6,6.3-19.6,14.8c-1,8.4-0.1,18.1,2.7,28.9c2.8,10.9,5.3,21.5,7.5,31.9s4.4,20.9,6.7,31.4s4.5,21,6.6,31.5s3.9,21.1,5.3,31.7
		c1.5,10.6,3,21.3,4.6,31.9c1.6,10.7,3.1,21.2,4.3,31.6c1.2,10.4,3.6,21.5,7.2,33.2c3.6,11.7,0.3,19.7-9.8,24
		c-10.1,4.3-18,10.9-23.7,19.8c-5.7,8.9-11.2,18.3-16.3,28c-5.2,9.7-11.2,18-18,24.7c-6.8,6.7-15.9,9.7-27.1,9.1
		c-11.3-0.7-21.8,1.4-31.5,6.2s-13,13.1-9.9,24.8c3.2,11.7,5.1,22.7,5.9,33.1c0.8,10.4,2.3,21.3,4.4,32.6c2.1,11.4-3,16.9-15.4,16.7
		c-12.4-0.3-22.8,0.1-31.1,1c-8.3,0.9-12.3,2.1-12.1,3.5c0.2,1.4,1.5,2.2,3.9,2.3c2.3,0.2,5.8-0.3,10.5-1.3s13.6-1.9,26.7-2.7
		s19.1,4.7,17.9,16.5s-1.7,22.9-1.5,33.5c0.2,10.6,0.2,21.2,0.1,32.1c-0.1,7.8,0,15.5,0.3,23.1c0.2,2.9,0.4,5.9,0.7,8.8
		c0.9,10.4,1.2,21.8,0.7,34.1c-0.4,12.3,5.7,17.9,18.3,16.8c12.6-1.1,24.1-1,34.5,0.2c10.4,1.2,21,2.2,31.9,2.8
		c10.9,0.6,21.3,1.9,31.2,3.9s18.1,7.9,24.7,17.5c6.6,9.6,10.3,19.4,11.2,29.5c0.9,10,0.7,20.4-0.6,31.2
		c-1.3,10.8-2.5,21.6-3.4,32.2c-0.9,10.7-1.9,21.4-2.9,32.1s-2,21.4-3,32.1s-2,21.4-3.1,32.1s-1.9,21.3-2.5,31.7s-2.5,21.8-5.6,34.2
		c-3.1,12.4,1,18.9,12.3,19.6c11.3,0.6,22.3,1.5,32.9,2.6c10.6,1.1,21.2,2.2,31.9,3.2c10.7,1,21.4,2,32.1,3s21.3,2.1,31.8,3.3
		c10.5,1.2,21.7,1.8,33.8,1.7c12.1-0.1,16.5,6.1,13.3,18.7c-3.2,12.6-5.1,24-5.6,34.3c-0.5,10.3-1.5,21-2.8,32.1s-1.6,21-0.9,29.8
		s8.1,12.4,22.1,10.7c14.1-1.7,21.2,3.1,21.6,14.5c0.3,11.3,1.2,17.2,2.8,17.5c1.5,0.3,1.1,4.3-1.3,11.8s-7.6,12.6-15.7,15.4
		c-8.1,2.8-17.2,5.8-27.4,8.9c-10.2,3.2-18.2,9.1-24.1,17.9c-4.6,6.8-6.7,14.4-6.5,22.6c1.8,18.8,6.5,37,9.5,55.5
		c4.4,27.2,9.1,31.7-21.9,33.5c-36.9,2.1-72.5,8.3-108.1,18.4c-23,6.5-17.7,22.7-13.4,40.4c4.5,18.8,6.5,37.9,9.7,56.8
		c6.2,36.1,12.3,72.2,18.3,108.3c5.9,36,26.6,68.2-4,105.2c-11.6,14.1-14,33.8-35,42.1c-19.1,7.5-35.8,0.5-53.7-1.1
		c-66.9-5.9-51.6,9.9-49.7,64.9c0.4,11,12.4,48.9-6.7,52.4c-19.7,3.6-24.4,8.4-38.6,21.4"/>
	<path id="bkg_path" class="st16" d="M804.8,1165c7,62.8,42.6,48.7,88.3,28.8c53.5-23.3,48.7,45.2,50.9,81.3
		c2.6,40.5,0.9,80.9,1.3,121.3c0.3,40.4,2.5,80.8,0.8,121.3c-1.9,43.4-11.7,89.6,48.8,91.2c22.1,0.6,95.9-11,118,10.2
		c18.7,18,11.5,54.5,48.8,59.3c7.4,1,11,4.6,14.1,10.9c0.4,0.8,0.9,1.1,1.8,1.2c9.4,0.9,3.7,10.8-3.5,13.7
		c-8.4,3.4-52.3,5.9-56.7,20.2c-6.9,22.7,6.3,38.4,11,57.3c0.7,3.8,1.4,7.6,1.9,11.3c1.6,10.5,2.3,21.5,2.1,33.1
		c-0.2,11.6-6.4,17.8-18.6,18.7c-12.2,0.9-23.4,2.6-33.6,5.3c-10.2,2.7-20.4,5.3-30.7,7.9c-10.2,2.6-21.4,4.6-33.5,6
		s-18.6,6.3-19.6,14.8c-1,8.4-0.1,18.1,2.7,28.9c2.8,10.9,5.3,21.5,7.5,31.9s4.4,20.9,6.7,31.4s4.5,21,6.6,31.5s3.9,21.1,5.3,31.7
		c1.5,10.6,3,21.3,4.6,31.9c1.6,10.7,3.1,21.2,4.3,31.6c1.2,10.4,3.6,21.5,7.2,33.2c3.6,11.7,0.3,19.7-9.8,24
		c-10.1,4.3-18,10.9-23.7,19.8c-5.7,8.9-11.2,18.3-16.3,28c-5.2,9.7-11.2,18-18,24.7c-6.8,6.7-15.9,9.7-27.1,9.1
		c-11.3-0.7-21.8,1.4-31.5,6.2s-13,13.1-9.9,24.8c3.2,11.7,5.1,22.7,5.9,33.1c0.8,10.4,2.3,21.3,4.4,32.6c2.1,11.4-3,16.9-15.4,16.7
		c-12.4-0.3-22.8,0.1-31.1,1c-8.3,0.9-12.3,2.1-12.1,3.5c0.2,1.4,1.5,2.2,3.9,2.3c2.3,0.2,5.8-0.3,10.5-1.3s13.6-1.9,26.7-2.7
		s19.1,4.7,17.9,16.5s-1.7,22.9-1.5,33.5c0.2,10.6,0.2,21.2,0.1,32.1c-0.1,7.8,0,15.5,0.3,23.1c0.2,2.9,0.4,5.9,0.7,8.8
		c0.9,10.4,1.2,21.8,0.7,34.1c-0.4,12.3,5.7,17.9,18.3,16.8c12.6-1.1,24.1-1,34.5,0.2c10.4,1.2,21,2.2,31.9,2.8
		c10.9,0.6,21.3,1.9,31.2,3.9s18.1,7.9,24.7,17.5c6.6,9.6,10.3,19.4,11.2,29.5c0.9,10,0.7,20.4-0.6,31.2
		c-1.3,10.8-2.5,21.6-3.4,32.2c-0.9,10.7-1.9,21.4-2.9,32.1s-2,21.4-3,32.1s-2,21.4-3.1,32.1s-1.9,21.3-2.5,31.7s-2.5,21.8-5.6,34.2
		c-3.1,12.4,1,18.9,12.3,19.6c11.3,0.6,22.3,1.5,32.9,2.6c10.6,1.1,21.2,2.2,31.9,3.2c10.7,1,21.4,2,32.1,3s21.3,2.1,31.8,3.3
		c10.5,1.2,21.7,1.8,33.8,1.7c12.1-0.1,16.5,6.1,13.3,18.7c-3.2,12.6-5.1,24-5.6,34.3c-0.5,10.3-1.5,21-2.8,32.1s-1.6,21-0.9,29.8
		s8.1,12.4,22.1,10.7c14.1-1.7,21.2,3.1,21.6,14.5c0.3,11.3,1.2,17.2,2.8,17.5c1.5,0.3,1.1,4.3-1.3,11.8s-7.6,12.6-15.7,15.4
		c-8.1,2.8-17.2,5.8-27.4,8.9c-10.2,3.2-18.2,9.1-24.1,17.9c-4.6,6.8-6.7,14.4-6.5,22.6c1.8,18.8,6.5,37,9.5,55.5
		c4.4,27.2,9.1,31.7-21.9,33.5c-36.9,2.1-72.5,8.3-108.1,18.4c-23,6.5-17.7,22.7-13.4,40.4c4.5,18.8,6.5,37.9,9.7,56.8
		c6.2,36.1,12.3,72.2,18.3,108.3c5.9,36,26.6,68.2-4,105.2c-11.6,14.1-14,33.8-35,42.1c-19.1,7.5-35.8,0.5-53.7-1.1
		c-66.9-5.9-51.6,9.9-49.7,64.9c0.4,11,12.4,48.9-6.7,52.4c-19.7,3.6-24.4,8.4-38.6,21.4"/>

		<image style="overflow:visible;enable-background:new    ;" width="2082" height="1904" xlink:href="../../img/angel/Angel_cart.png"  transform="matrix(0.1296 0 0 0.1296 808.3411 152.2842)">
	</image>

		<image style="overflow:visible;enable-background:new    ;" width="447" height="877" xlink:href="../../img/angel/Angel_earbuds.png"  transform="matrix(0.322 0 0 0.322 1432.8719 113.1863)">
	</image>
</g>
</svg>
