<?xml version="1.0" encoding="utf-8"?>
<!-- Generator: Adobe Illustrator 19.1.0, SVG Export Plug-In . SVG Version: 6.00 Build 0)  -->
<svg version="1.1" id="path_container" xmlns="http://www.w3.org/2000/svg" xmlns:xlink="http://www.w3.org/1999/xlink" x="0px"
	 y="0px" viewBox="654 -1859.8 1920 4511.8" style="enable-background:new 654 -1859.8 1920 4511.8;" xml:space="preserve">
<style type="text/css">
	.st0{fill:none;stroke:#999999;stroke-width:2;stroke-linecap:round;stroke-linejoin:round;stroke-dasharray:1,5.6693;}
	.st1{fill:none;}
	.st2{font-family:'Roboto-BoldItalic';}
	.st3{font-size:18px;}
	.st4{font-family:'Roboto-Bold';}
	.st5{font-family:'Roboto-Regular';}
	.st6{font-family:'Roboto-Italic';}
	.st7{fill:#D7DED5;}
	.st8{fill:#144C5B;}
	.st9{font-family:'ZillaSlab-Medium';}
	.st10{fill:none;stroke:#B2B2B2;stroke-width:0.5;stroke-linecap:round;stroke-linejoin:round;}
	.st11{fill:none;stroke:#000000;stroke-linecap:round;stroke-linejoin:round;}
	.st12{font-family:'Roboto-Light';}
	.st13{font-size:36px;}
	.st14{fill:none;stroke:#000000;stroke-width:0.4325;stroke-miterlimit:10;}
	.st15{font-size:14px;}
	.st16{fill:none;stroke:#000000;stroke-width:1.4173;stroke-linecap:round;stroke-linejoin:round;}
</style>
<style>@import url('../svg_styles.css')</style>
<g id="content">
	<line class="st0" x1="683.7" y1="-694.7" x2="2537.3" y2="-694.7"/>
	<line class="st0" x1="683.7" y1="1811.8" x2="2537.3" y2="1811.8"/>
	<line class="st0" x1="683.7" y1="598.2" x2="2537.3" y2="598.2"/>
	<rect x="1449.7" y="991.9" class="st1" width="361.5" height="63.6"/>
	<text transform="matrix(1 0 0 1 1465.0408 1007.2898)" class="st2 st3">“Ahí,”</text>
	<text transform="matrix(1 0 0 1 1510.3407 1007.2898)" class="st4 st3"> </text>
	<text transform="matrix(1 0 0 1 1514.8407 1007.2898)" class="st5 st3">Angel points at an indoor market that </text>
	<text transform="matrix(1 0 0 1 1520.1406 1028.8898)" class="st5 st3">he frequents. It’s one of the oldest in </text>
	<text transform="matrix(1 0 0 1 1456.7407 1050.4897)" class="st5 st3">Brooklyn, and specializes in Latino products.</text>
	<rect x="1351.7" y="1182.7" class="st1" width="415.3" height="75.8"/>
	<text transform="matrix(1 0 0 1 1375.1492 1198.1106)" class="st2 st3">“My cinematic flair, From my boot to derrièeeere”</text>
	<text transform="matrix(1 0 0 1 1767.0491 1198.1106)" class="st4 st3"> </text>
	<text transform="matrix(1 0 0 1 1364.4491 1219.7106)" class="st5 st3">Angels sings a song from the musical </text>
	<text transform="matrix(1 0 0 1 1669.5491 1219.7106)" class="st6 st3">Kinky Boots</text>
	<text transform="matrix(1 0 0 1 1762.2491 1219.7106)" class="st5 st3">. </text>
	<text transform="matrix(1 0 0 1 1407.1492 1241.3105)" class="st5 st3">He’s studying to be become a Broadway star.</text>
	<rect x="1202.9" y="1669.2" class="st1" width="334.5" height="87.2"/>
	<text transform="matrix(1 0 0 1 1263.6824 1684.5984)" class="st2 st3">“¿Cuándo te vas a la universidad?”</text>
	<text transform="matrix(1 0 0 1 1537.3823 1684.5984)" class="st4 st3"> </text>
	<text transform="matrix(1 0 0 1 1289.0823 1706.1985)" class="st5 st3">Violeta, the Mexican lady at the </text>
	<text transform="matrix(1 0 0 1 1215.0823 1727.7983)" class="st5 st3">redemption center, asks Angel about the </text>
	<text transform="matrix(1 0 0 1 1223.2822 1749.3984)" class="st5 st3">college. He dreams of attending Ithaca.</text>
	<g>
		<rect x="1677.9" y="-653.7" class="st1" width="426.4" height="79.2"/>
		<text transform="matrix(1 0 0 1 1677.8521 -638.3318)" class="st2 st3">“This is from BJ’s”</text>
		<text transform="matrix(1 0 0 1 1826.052 -638.3318)" class="st5 st3"> Angel talks about his carrito. </text>
		<text transform="matrix(1 0 0 1 1677.8521 -616.7317)" class="st5 st3">The “classic” Home Depot model is too small for him.</text>
	</g>
	<g>
		<rect x="1677.9" y="-340.2" class="st1" width="387.3" height="79.2"/>
		<text transform="matrix(1 0 0 1 1677.8521 -324.7639)" class="st5 st3">Angel points at Bravo market where he used to </text>
		<text transform="matrix(1 0 0 1 1677.8521 -303.164)" class="st5 st3">redeem cans and bottles: </text>
		<text transform="matrix(1 0 0 1 1884.252 -303.164)" class="st2 st3">“We would give them </text>
		<text transform="matrix(1 0 0 1 1677.8521 -281.564)" class="st2 st3">to a person, not a machine.”</text>
		<text transform="matrix(1 0 0 1 1900.052 -281.564)" class="st5 st3"> </text>
	</g>
	<g>
		<rect x="1803.1" y="-9.5" class="st1" width="383.4" height="79.2"/>
		<text transform="matrix(1 0 0 1 1803.0826 5.8655)" class="st2 st3">“No tengo tiempo,”</text>
		<text transform="matrix(1 0 0 1 1953.7826 5.8655)" class="st5 st3"> Angel passes by an empty </text>
		<text transform="matrix(1 0 0 1 1803.0826 27.4654)" class="st5 st3">can but doesn’t pick it up. He collects only from </text>
		<text transform="matrix(1 0 0 1 1803.0826 49.0655)" class="st5 st3">one restaurant because he doesn’t have time.</text>
	</g>
	<g>
		<rect x="1322.2" y="-217.9" class="st1" width="397.9" height="76.3"/>
		<text transform="matrix(1 0 0 1 1334.1376 -202.4685)" class="st2 st3">“Buenos días!”</text>
		<text transform="matrix(1 0 0 1 1450.6376 -202.4685)" class="st5 st3">Angel greets a woman who works </text>
		<text transform="matrix(1 0 0 1 1371.8376 -180.8686)" class="st5 st3">at the mexican restaurant where he collects </text>
		<text transform="matrix(1 0 0 1 1351.6376 -159.2685)" class="st5 st3">empty bottles: </text>
		<text transform="matrix(1 0 0 1 1470.0376 -159.2685)" class="st2 st3">“They keep them aside for me.”</text>
	</g>
	<g>
		<rect x="1300" y="-140.6" class="st1" width="385.5" height="76.3"/>
		<text transform="matrix(1 0 0 1 1312.2385 -125.1826)" class="st2 st3">“Siempre me chocava con eso,” </text>
		<text transform="matrix(1 0 0 1 1567.6385 -125.1826)" class="st5 st3">Angel express</text>
		<text transform="matrix(1 0 0 1 1680.5386 -125.1826)" class="st5 st3">-</text>
		<text transform="matrix(1 0 0 1 1335.6385 -103.5827)" class="st5 st3">es empathy, after I hit my head, and glue my </text>
		<text transform="matrix(1 0 0 1 1313.6385 -81.9826)" class="st5 st3">hair, on a golden stick fly trap in a dark storage </text>
	</g>
	<rect x="1637.5" y="459.8" class="st1" width="415.4" height="74.4"/>
	<text transform="matrix(1 0 0 1 1637.4828 475.2214)" class="st2 st3">“Cuarenta y siete,” </text>
	<text transform="matrix(1 0 0 1 1789.2828 475.2214)" class="st5 st3">At the redemption center, Angel </text>
	<text transform="matrix(1 0 0 1 1637.4828 496.8214)" class="st5 st3">gives 47 unsorted cans to a Mexican lady, Josefa, </text>
	<text transform="matrix(1 0 0 1 1637.4828 518.4214)" class="st5 st3">who pays him the 5 cents and sorts them.</text>
	<rect x="1901.8" y="913.2" class="st1" width="400.9" height="74.4"/>
	<text transform="matrix(1 0 0 1 1901.8495 928.6174)" class="st5 st3">Angel bumps into his grandma’s neighbor, Cookie, </text>
	<text transform="matrix(1 0 0 1 1901.8495 950.2174)" class="st5 st3">who was his babysitter: </text>
	<text transform="matrix(1 0 0 1 2093.4495 950.2174)" class="st2 st3">“She was so sweet.”</text>
	<g>
		<path d="M1860.3-157.8h-14.7V-174h14.7V-157.8z M1853-168.1c-1.2,0-2.1,0.9-2.1,2.1s0.9,2.1,2.1,2.1s2.1-0.9,2.1-2.1
			S1854.1-168.1,1853-168.1z"/>
		<g>
			<path d="M1860.3-174.1h-2c0-5-2.5-9.2-5.4-9.2s-5.4,4.2-5.4,9.2h-2c0-6.3,3.2-11.2,7.4-11.2S1860.3-180.4,1860.3-174.1z"/>
		</g>
	</g>
	<g>
		<path d="M1483.3,1157.8h-14.7v-16.2h14.7V1157.8z M1475.9,1147.6c-1.2,0-2.1,0.9-2.1,2.1c0,1.2,0.9,2.1,2.1,2.1
			c1.2,0,2.1-0.9,2.1-2.1C1478,1148.5,1477.1,1147.6,1475.9,1147.6z"/>
		<g>
			<path d="M1483.3,1141.6h-2c0-5-2.5-9.2-5.4-9.2c-2.9,0-5.4,4.2-5.4,9.2h-2c0-6.3,3.2-11.2,7.4-11.2
				C1480.1,1130.3,1483.3,1135.3,1483.3,1141.6z"/>
		</g>
	</g>
	
		<image style="overflow:visible;enable-background:new    ;" width="150" height="106" xlink:href="../../img/angel/Comment.png"  transform="matrix(0.409 0 0 0.409 1817.1742 999.8163)">
	</image>
	
		<image style="overflow:visible;enable-background:new    ;" width="150" height="106" xlink:href="../../img/angel/Comment.png"  transform="matrix(0.409 0 0 0.409 1772.9941 1173.6373)">
	</image>
	
		<image style="overflow:visible;enable-background:new    ;" width="123" height="150" xlink:href="../../img/angel/Hand.png"  transform="matrix(0.3608 0 0 0.3608 1580.8798 461.6918)">
	</image>
	
		<image style="overflow:visible;enable-background:new    ;" width="123" height="150" xlink:href="../../img/angel/Hand.png"  transform="matrix(0.3608 0 0 0.3608 1845.2466 906.0879)">
	</image>
	
		<image style="overflow:visible;enable-background:new    ;" width="123" height="150" xlink:href="../../img/angel/Hand.png"  transform="matrix(0.3608 0 0 0.3608 1547.6295 1685.1492)">
	</image>
	
		<image style="overflow:visible;enable-background:new    ;" width="123" height="150" xlink:href="../../img/angel/Hand.png"  transform="matrix(0.3608 0 0 0.3608 1734.6481 -206.7726)">
	</image>
	
		<image style="overflow:visible;enable-background:new    ;" width="150" height="131" xlink:href="../../img/angel/Cart.png"  transform="matrix(0.5175 0 0 0.5175 1413.4015 -758.786)">
	</image>
	
		<image style="overflow:visible;enable-background:new    ;" width="150" height="106" xlink:href="../../img/angel/Comment.png"  transform="matrix(0.409 0 0 0.409 1610.4674 -671.6526)">
	</image>
	
		<image style="overflow:visible;enable-background:new    ;" width="150" height="106" xlink:href="../../img/angel/Comment.png"  transform="matrix(0.409 0 0 0.409 1610.4674 -341.0847)">
	</image>
	
		<image style="overflow:visible;enable-background:new    ;" width="150" height="106" xlink:href="../../img/angel/Comment.png"  transform="matrix(0.409 0 0 0.409 1733.6986 -10.4554)">
	</image>
	
		<image style="overflow:visible;enable-background:new    ;" width="150" height="106" xlink:href="../../img/angel/Comment.png"  transform="matrix(0.409 0 0 0.409 1703.0549 -142.1837)">
	</image>
	
		<image class="cameraImage" style="overflow:visible;enable-background:new    ;" width="150" height="115" xlink:href="../../img/angel/Camera.png"  transform="matrix(0.377 0 0 0.377 1703.0261 -93.2797)">
	</image>
	
		<image class="cameraImage" style="overflow:visible;enable-background:new    ;" width="150" height="115" xlink:href="../../img/angel/Camera.png"  transform="matrix(0.377 0 0 0.377 1775.3927 1226.8536)">
	</image>
	
		<image style="overflow:visible;enable-background:new    ;" width="122" height="150" xlink:href="../../img/angel/trash_bag-5.png"  transform="matrix(0.4893 0 0 0.4893 1986.9429 -230.4981)">
	</image>
	
		<image style="overflow:visible;enable-background:new    ;" width="122" height="150" xlink:href="../../img/angel/trash_bag-5.png"  transform="matrix(0.4893 0 0 0.4893 1492.7101 1086.4347)">
	</image>
	
		<image style="overflow:visible;enable-background:new    ;" width="122" height="150" xlink:href="../../img/angel/trash_bag-5.png"  transform="matrix(0.4893 0 0 0.4893 1927.304 -230.4981)">
	</image>
	
		<image style="overflow:visible;enable-background:new    ;" width="122" height="150" xlink:href="../../img/angel/trash_bag-5.png"  transform="matrix(0.4893 0 0 0.4893 1867.6653 -230.4981)">
	</image>
	
		<image style="overflow:visible;enable-background:new    ;" width="122" height="150" xlink:href="../../img/angel/trash_bag-5.png"  transform="matrix(0.4893 0 0 0.4893 838.7443 508.5079)">
	</image>
	
		<image style="overflow:visible;enable-background:new    ;" width="122" height="150" xlink:href="../../img/angel/trash_bag-1.png"  transform="matrix(0.4893 0 0 0.4893 898.3831 508.5079)">
	</image>
	
		<image style="overflow:visible;enable-background:new    ;" width="122" height="150" xlink:href="../../img/angel/trash_bag-5.png"  transform="matrix(0.4893 0 0 0.4893 779.1055 508.5079)">
	</image>
	
		<image style="overflow:visible;enable-background:new    ;" width="122" height="150" xlink:href="../../img/angel/trash_bag-5.png"  transform="matrix(0.4893 0 0 0.4893 719.4667 508.5079)">
	</image>
	
		<image style="overflow:visible;enable-background:new    ;" width="122" height="150" xlink:href="../../img/angel/trash_bag-5.png"  transform="matrix(0.4893 0 0 0.4893 838.7443 1725.6307)">
	</image>
	
		<image style="overflow:visible;enable-background:new    ;" width="122" height="150" xlink:href="../../img/angel/trash_bag-5.png"  transform="matrix(0.4893 0 0 0.4893 898.3831 1725.6307)">
	</image>
	
		<image style="overflow:visible;enable-background:new    ;" width="122" height="150" xlink:href="../../img/angel/trash_bag-2.png"  transform="matrix(0.4893 0 0 0.4893 958.0219 1725.6307)">
	</image>
	
		<image style="overflow:visible;enable-background:new    ;" width="122" height="150" xlink:href="../../img/angel/trash_bag-5.png"  transform="matrix(0.4893 0 0 0.4893 779.1055 1725.6307)">
	</image>
	
		<image style="overflow:visible;enable-background:new    ;" width="122" height="150" xlink:href="../../img/angel/trash_bag-5.png"  transform="matrix(0.4893 0 0 0.4893 719.4667 1725.6307)">
	</image>
	
		<image style="overflow:visible;enable-background:new    ;" width="49" height="150" xlink:href="../../img/angel/Glass.png"  transform="matrix(0.3916 0 0 0.3916 1867.7186 -149.87)">
	</image>
	
		<image style="overflow:visible;enable-background:new    ;" width="49" height="150" xlink:href="../../img/angel/Glass.png"  transform="matrix(0.3916 0 0 0.3916 1889.6624 -149.87)">
	</image>
	
		<image style="overflow:visible;enable-background:new    ;" width="49" height="150" xlink:href="../../img/angel/Glass.png"  transform="matrix(0.3916 0 0 0.3916 1911.6062 -149.87)">
	</image>
	
		<image style="overflow:visible;enable-background:new    ;" width="49" height="150" xlink:href="../../img/angel/Glass.png"  transform="matrix(0.3916 0 0 0.3916 1933.55 -149.87)">
	</image>
	
		<image style="overflow:visible;enable-background:new    ;" width="49" height="150" xlink:href="../../img/angel/Glass.png"  transform="matrix(0.3916 0 0 0.3916 1955.4939 -149.87)">
	</image>
	
		<image style="overflow:visible;enable-background:new    ;" width="49" height="150" xlink:href="../../img/angel/Glass.png"  transform="matrix(0.3916 0 0 0.3916 1977.4377 -149.87)">
	</image>
	
		<image style="overflow:visible;enable-background:new    ;" width="49" height="150" xlink:href="../../img/angel/Glass.png"  transform="matrix(0.3916 0 0 0.3916 1999.3815 -149.87)">
	</image>
	
		<image style="overflow:visible;enable-background:new    ;" width="49" height="150" xlink:href="../../img/angel/Glass.png"  transform="matrix(0.3916 0 0 0.3916 2021.3254 -149.87)">
	</image>
	
		<image style="overflow:visible;enable-background:new    ;" width="49" height="150" xlink:href="../../img/angel/Glass.png"  transform="matrix(0.3916 0 0 0.3916 2043.2692 -149.87)">
	</image>
	
		<image style="overflow:visible;enable-background:new    ;" width="49" height="150" xlink:href="../../img/angel/Glass.png"  transform="matrix(0.3916 0 0 0.3916 2065.2131 -149.87)">
	</image>
	
		<image style="overflow:visible;enable-background:new    ;" width="49" height="150" xlink:href="../../img/angel/Glass.png"  transform="matrix(0.3916 0 0 0.3916 2087.157 -149.87)">
	</image>
	
		<image style="overflow:visible;enable-background:new    ;" width="49" height="150" xlink:href="../../img/angel/Glass.png"  transform="matrix(0.3916 0 0 0.3916 2109.1008 -149.87)">
	</image>
	
		<image style="overflow:visible;enable-background:new    ;" width="49" height="150" xlink:href="../../img/angel/Glass.png"  transform="matrix(0.3916 0 0 0.3916 2131.0447 -149.87)">
	</image>
	
		<image style="overflow:visible;enable-background:new    ;" width="49" height="150" xlink:href="../../img/angel/Glass.png"  transform="matrix(0.3916 0 0 0.3916 2152.9883 -149.87)">
	</image>
	
		<image style="overflow:visible;enable-background:new    ;" width="49" height="150" xlink:href="../../img/angel/Glass.png"  transform="matrix(0.3916 0 0 0.3916 2174.9321 -149.87)">
	</image>
	
		<image style="overflow:visible;enable-background:new    ;" width="49" height="150" xlink:href="../../img/angel/Glass.png"  transform="matrix(0.3916 0 0 0.3916 1557.8196 1098.6187)">
	</image>
	
		<image style="overflow:visible;enable-background:new    ;" width="49" height="150" xlink:href="../../img/angel/Glass.png"  transform="matrix(0.3916 0 0 0.3916 1579.7635 1098.6187)">
	</image>
	
		<image style="overflow:visible;enable-background:new    ;" width="49" height="150" xlink:href="../../img/angel/Glass.png"  transform="matrix(0.3916 0 0 0.3916 1601.7072 1098.6187)">
	</image>
	
		<image style="overflow:visible;enable-background:new    ;" width="49" height="150" xlink:href="../../img/angel/Glass.png"  transform="matrix(0.3916 0 0 0.3916 1623.651 1098.6187)">
	</image>
	
		<image style="overflow:visible;enable-background:new    ;" width="49" height="150" xlink:href="../../img/angel/Glass.png"  transform="matrix(0.3916 0 0 0.3916 1645.5948 1098.6187)">
	</image>
	
		<image style="overflow:visible;enable-background:new    ;" width="49" height="150" xlink:href="../../img/angel/Glass.png"  transform="matrix(0.3916 0 0 0.3916 1667.5387 1098.6187)">
	</image>
	
		<image style="overflow:visible;enable-background:new    ;" width="49" height="150" xlink:href="../../img/angel/Glass.png"  transform="matrix(0.3916 0 0 0.3916 1689.4825 1098.6187)">
	</image>
	
		<image style="overflow:visible;enable-background:new    ;" width="49" height="150" xlink:href="../../img/angel/Glass.png"  transform="matrix(0.3916 0 0 0.3916 1711.4263 1098.6187)">
	</image>
	
		<image style="overflow:visible;enable-background:new    ;" width="49" height="150" xlink:href="../../img/angel/Glass.png"  transform="matrix(0.3916 0 0 0.3916 1733.3702 1098.6187)">
	</image>
	
		<image style="overflow:visible;enable-background:new    ;" width="49" height="150" xlink:href="../../img/angel/Glass.png"  transform="matrix(0.3916 0 0 0.3916 1755.314 1098.6187)">
	</image>
	
		<image style="overflow:visible;enable-background:new    ;" width="49" height="150" xlink:href="../../img/angel/Glass.png"  transform="matrix(0.3916 0 0 0.3916 1777.2578 1098.6187)">
	</image>
	
		<image style="overflow:visible;enable-background:new    ;" width="49" height="150" xlink:href="../../img/angel/Glass.png"  transform="matrix(0.3916 0 0 0.3916 1799.2017 1098.6187)">
	</image>
	
		<image style="overflow:visible;enable-background:new    ;" width="49" height="150" xlink:href="../../img/angel/Glass.png"  transform="matrix(0.3916 0 0 0.3916 1821.1455 1098.6187)">
	</image>
	
		<image style="overflow:visible;enable-background:new    ;" width="49" height="150" xlink:href="../../img/angel/Glass.png"  transform="matrix(0.3916 0 0 0.3916 1843.0894 1098.6187)">
	</image>
	
		<image style="overflow:visible;enable-background:new    ;" width="49" height="150" xlink:href="../../img/angel/Glass.png"  transform="matrix(0.3916 0 0 0.3916 1865.0331 1098.6187)">
	</image>
	
		<image style="overflow:visible;enable-background:new    ;" width="150" height="131" xlink:href="../../img/angel/Cart.png"  transform="matrix(0.3416 0 0 0.3416 1452.348 472.0113)">
	</image>
	
		<image style="overflow:visible;enable-background:new    ;" width="150" height="131" xlink:href="../../img/angel/Cart.png"  transform="matrix(0.3416 0 0 0.3416 1493.8583 1767.0767)">
	</image>
	<rect x="900.7" y="-664.3" class="st7" width="283.5" height="138.1"/>
	<rect x="900.7" y="-369.6" class="st7" width="283.5" height="138.1"/>
	<rect x="900.7" y="-197.1" class="st7" width="283.5" height="138.1"/>
	<rect x="900.7" y="-24.5" class="st7" width="283.5" height="138.1"/>
	<rect x="900.7" y="614.4" class="st7" width="283.5" height="138.1"/>
	<rect x="918.6" y="-644.3" class="st1" width="242.4" height="105.5"/>
	<text transform="matrix(1 0 0 1 918.6084 -631.8967)" class="st8 st9 st3">Each canner has their own </text>
	<text transform="matrix(1 0 0 1 918.6084 -610.2966)" class="st8 st9 st3">cart. They look all the same, </text>
	<text transform="matrix(1 0 0 1 918.6084 -588.6967)" class="st8 st9 st3">but they’re not. They’re </text>
	<text transform="matrix(1 0 0 1 918.6084 -567.0967)" class="st8 st9 st3">personalized with extras, like </text>
	<text transform="matrix(1 0 0 1 918.6084 -545.4967)" class="st8 st9 st3">stronger wheels or gadgets.</text>
	<rect x="918.6" y="-349.6" class="st1" width="248.2" height="105.5"/>
	<text transform="matrix(1 0 0 1 918.6084 -337.2395)" class="st8 st9 st3">Many canners express </text>
	<text transform="matrix(1 0 0 1 918.6084 -315.6394)" class="st8 st9 st3">frustration with reverse </text>
	<text transform="matrix(1 0 0 1 918.6084 -294.0395)" class="st8 st9 st3">vending machines. They accept </text>
	<text transform="matrix(1 0 0 1 918.6084 -272.4395)" class="st8 st9 st3">only a limited amount of pieces </text>
	<text transform="matrix(1 0 0 1 918.6084 -250.8395)" class="st8 st9 st3">and get jammed very easily.</text>
	<rect x="918.6" y="-177.1" class="st1" width="236.1" height="105.5"/>
	<text transform="matrix(1 0 0 1 918.6084 -164.6964)" class="st8 st9 st3">Angel sorts the glass on site, </text>
	<text transform="matrix(1 0 0 1 918.6084 -143.0965)" class="st8 st9 st3">to avoid the mess at the </text>
	<text transform="matrix(1 0 0 1 918.6084 -121.4964)" class="st8 st9 st3">redemption center. Usually </text>
	<text transform="matrix(1 0 0 1 918.6084 -99.8964)" class="st8 st9 st3">canners do a rough sorting </text>
	<text transform="matrix(1 0 0 1 918.6084 -78.2964)" class="st8 st9 st3">while picking, by material.</text>
	<rect x="918.6" y="-4.5" class="st1" width="259.1" height="105.5"/>
	<text transform="matrix(1 0 0 1 918.6084 7.8467)" class="st8 st9 st3">Like for many canners, Angel’s </text>
	<text transform="matrix(1 0 0 1 918.6084 29.4466)" class="st8 st9 st3">life is very busy. He studies and </text>
	<text transform="matrix(1 0 0 1 918.6084 51.0467)" class="st8 st9 st3">helps at home with chores. The </text>
	<text transform="matrix(1 0 0 1 918.6084 72.6466)" class="st8 st9 st3">money he earns canning goes to </text>
	<text transform="matrix(1 0 0 1 918.6084 94.2467)" class="st8 st9 st3">his abuela (grandma).</text>
	<rect x="918.6" y="634.4" class="st1" width="233.9" height="105.5"/>
	<text transform="matrix(1 0 0 1 918.6084 646.7847)" class="st8 st9 st3">Canners make deals among </text>
	<text transform="matrix(1 0 0 1 918.6084 668.3846)" class="st8 st9 st3">themselves. They exchange </text>
	<text transform="matrix(1 0 0 1 918.6084 689.9846)" class="st8 st9 st3">items in order to maximize </text>
	<text transform="matrix(1 0 0 1 918.6084 711.5847)" class="st8 st9 st3">profits with sorted bottles </text>
	<text transform="matrix(1 0 0 1 918.6084 733.1847)" class="st8 st9 st3">and cans.</text>
	<path class="st10" d="M726.3,772.3c6.3-1.2,12.7-1.3,19.1-2.1c9.3-1.1,11.3,0,8.9-10.3c-2.7-12.3-4.1-24.6-4.1-37.2
		c0-8.2,5.8-7.9,12-8.2c6.6-0.3,13-1.4,19.5-2.1c12.4-1.3,24.8-2.7,37.2-4.1c12.4-1.4,24.9,2.4,34.1-11.1c3.5-5.1,9.8-7.8,10.5-15.4
		c0.7-7-3.2-11.8-5.4-17.5c-8.2-21.4-1.6-17.9,16.7-22.4c3.7-0.9,16.2-0.5,16.6-7.1c0.3-6.4-2.5-11.6-4.4-17.2"/>
	<path class="st10" d="M857.2,645c-1.6,0.5-17.8,4.1-18.7,6.7c-1.4,4.1,1.1,7,1.9,10.5c0.7,3.4,0.9,6.8,1.4,10.2
		c1.9,15,4.7,28.3-14.3,32.9c-13.6,3.3-27.4,3.6-41.1,5.3c-6.9,0.9-13.9,1.6-20.8,2.7c-4,0.6-18-2.5-17.6,5.2
		c0.8,13.8,3.6,27.4,5.1,41.1c0.4,3.5,0.7,6.9,1.3,10.4c0.6,3.2,3.8,6.1,0,9.4c-3.5,3-7,0.9-10.5,1.1c-3.5,0.2-6.9,0.8-10.3,1.3
		c-2.9,0.4-18,0.5-19,5.5c-0.8,4,3.3,7,0.9,11.3c-2,3.5-5.4,2.5-8.2,3.7c-1.2,0.5,1.3,0.3,1.9-0.1c3.6-2,4.4-4.7,4.9-8.4
		c1-9.3-0.6-18.9,12-21.2"/>
	<path class="st10" d="M874.8-640c-21,4.9-14.7,16.4-6.2,31.1c10.1,17.2-13.3,18.3-25.5,20.6c-13.6,2.5-27.4,3.6-41,5.4
		c-13.7,1.8-27.3,4.2-41.1,5.2c-14.8,1.1-30.8-0.3-28.9,20.2c0.7,7.5,7.7,32,1.4,40.4c-5.3,7.1-18,6.1-18.1,18.9
		c0,2.6-1.1,3.9-3.1,5.2c-0.2,0.2-0.3,0.3-0.3,0.6c0.1,3.2,3.8-0.3,3.8-2.9c-0.1-3.1-5.1-17.2-1.3-20.5c6.2-5.2,12.9-3.2,19.5-4.2"
		/>
	<path class="st10" d="M733.9-519.9c3.1-0.5,16.7-3,18.5-7.2c1.7-4-0.7-6.9-1.4-10.3c-0.7-3.4-1-6.9-1.3-10.3
		c-1.9-18.6-11.6-25.9,13.6-28.8c13.7-1.6,27.4-3.5,40.9-6.4c6.8-1.5,13.6-2.9,20.4-4.4c4-0.9,16.8,0.2,17.5-7
		c0.8-8,5.2-12.8,10-18.2c4.7-5.4,9.5-9.4,6.6-17.8c-1.7-5-5.6-15.1,2.1-17.7c6.9-2.3,14-2.8,21-4.2c8.2-1.7,9.4-1.9,6.3-10.2
		c-1.4-3.8-4.5-6.7-2.9-11.5c0.5-1.5,1.5,0.6,1.7,1.6c1,3.3,1.6,6.8,2.8,10.1c3.5,9.4-6.1,8.7-12.2,10.2c-6.8,1.6-13.6,3.2-20.3,5.1
		"/>
	<path class="st10" d="M857.2-647.2c-1.6,0.5-17.8,4.1-18.7,6.7c-1.4,4.1,1.1,7,1.9,10.5c0.7,3.4,0.9,6.8,1.4,10.2
		c1.9,15,4.7,28.3-14.3,32.9c-13.6,3.3-27.4,3.6-41.1,5.3c-6.9,0.9-13.9,1.6-20.8,2.7c-4,0.6-18-2.5-17.6,5.2
		c0.8,13.8,3.6,27.4,5.1,41.1c0.4,3.5,0.7,6.9,1.3,10.4c0.6,3.2,3.8,6.1,0,9.4c-3.5,3-7,0.9-10.5,1.1c-3.5,0.2-6.9,0.8-10.3,1.3
		c-2.9,0.4-18,0.5-19,5.5c-0.8,4,3.3,7,0.9,11.3c-2,3.5-5.4,2.5-8.2,3.7c-1.2,0.5,1.3,0.3,1.9-0.1c3.6-2,4.4-4.7,4.9-8.4
		c1-9.3-0.6-18.9,12-21.2"/>
	<path class="st10" d="M726.3-519.9c6.3-1.2,12.7-1.3,19.1-2.1c9.3-1.1,11.3,0,8.9-10.3c-2.7-12.3-4.1-24.6-4.1-37.2
		c0-8.2,5.8-7.9,12-8.2c6.6-0.3,13-1.4,19.5-2.1c12.4-1.3,24.8-2.7,37.2-4.1c12.4-1.4,24.9,2.4,34.1-11.1c3.5-5.1,9.8-7.8,10.5-15.4
		c0.7-7-3.2-11.8-5.4-17.5c-8.2-21.4-1.6-17.9,16.7-22.4c3.7-0.9,16.2-0.5,16.6-7.1c0.3-6.4-2.5-11.6-4.4-17.2"/>
	<path class="st11" d="M874.8,652.2c-21,4.9-14.7,16.4-6.2,31.1c10.1,17.2-13.3,18.3-25.5,20.6c-13.6,2.5-27.4,3.6-41,5.4
		c-13.7,1.8-27.3,4.2-41.1,5.2c-14.8,1.1-30.8-0.3-28.9,20.2c0.7,7.5,7.7,32,1.4,40.4c-5.3,7.1-18,6.1-18.1,18.9
		c0,2.6-1.1,3.9-3.1,5.2c-0.2,0.2-0.3,0.3-0.3,0.6c0.1,3.2,3.8-0.3,3.8-2.9c-0.1-3.1-5.1-17.2-1.3-20.5c6.2-5.2,12.9-3.2,19.5-4.2"
		/>
	<path class="st11" d="M733.9,772.3c3.1-0.5,16.7-3,18.5-7.2c1.7-4-0.7-6.9-1.4-10.3c-0.7-3.4-1-6.9-1.3-10.3
		c-1.9-18.6-11.6-25.9,13.6-28.8c13.7-1.6,27.4-3.5,40.9-6.4c6.8-1.5,13.6-2.9,20.4-4.4c4-0.9,16.8,0.2,17.5-7
		c0.8-8,5.2-12.8,10-18.2c4.7-5.4,9.5-9.4,6.6-17.8c-1.7-5-5.6-15.1,2.1-17.7c6.9-2.3,14-2.8,21-4.2c8.2-1.7,9.4-1.9,6.3-10.2
		c-1.4-3.8-4.5-6.7-2.9-11.5c0.5-1.5,1.5,0.6,1.7,1.6c1,3.3,1.6,6.8,2.8,10.1c3.5,9.4-6.1,8.7-12.2,10.2c-6.8,1.6-13.6,3.2-20.3,5.1
		"/>
	<path class="st11" d="M874.8,1869.3c-21,4.9-14.7,16.4-6.2,31.1c10.1,17.2-13.3,18.3-25.5,20.6c-13.6,2.5-27.4,3.6-41,5.4
		c-13.7,1.8-27.3,4.2-41.1,5.2c-14.8,1.1-30.8-0.3-28.9,20.2c0.7,7.5,7.7,32,1.4,40.4c-5.3,7.1-18,6.1-18.1,18.9
		c0,2.6-1.1,3.9-3.1,5.2c-0.2,0.2-0.3,0.3-0.3,0.6c0.1,3.2,3.8-0.3,3.8-2.9c-0.1-3.1-5.1-17.2-1.3-20.5c6.2-5.2,12.9-3.2,19.5-4.2"
		/>
	<path class="st11" d="M733.9,1989.4c3.1-0.5,16.7-3,18.5-7.2c1.7-4-0.7-6.9-1.4-10.3c-0.7-3.4-1-6.9-1.3-10.3
		c-1.9-18.6-11.6-25.9,13.6-28.8c13.7-1.6,27.4-3.5,40.9-6.4c6.8-1.5,13.6-2.9,20.4-4.4c4-0.9,16.8,0.2,17.5-7
		c0.8-8,5.2-12.8,10-18.2c4.7-5.4,9.5-9.4,6.6-17.8c-1.7-5-5.6-15.1,2.1-17.7c6.9-2.3,14-2.8,21-4.2c8.2-1.7,9.4-1.9,6.3-10.2
		c-1.4-3.8-4.5-6.7-2.9-11.5c0.5-1.5,1.5,0.6,1.7,1.6c1,3.3,1.6,6.8,2.8,10.1c3.5,9.4-6.1,8.7-12.2,10.2c-6.8,1.6-13.6,3.2-20.3,5.1
		"/>
	<path class="st11" d="M726.3,1989.4c6.3-1.2,12.7-1.3,19.1-2.1c9.3-1.1,11.3,0,8.9-10.3c-2.7-12.3-4.1-24.6-4.1-37.2
		c0-8.2,5.8-7.9,12-8.2c6.6-0.3,13-1.4,19.5-2.1c12.4-1.3,24.8-2.7,37.2-4.1c12.4-1.4,24.9,2.4,34.1-11.1c3.5-5.1,9.8-7.8,10.5-15.4
		c0.7-7-3.2-11.8-5.4-17.5c-8.2-21.4-1.6-17.9,16.7-22.4c3.7-0.9,16.2-0.5,16.6-7.1c0.3-6.4-2.5-11.6-4.4-17.2"/>
	<path class="st11" d="M857.2,1862.1c-1.6,0.5-17.8,4.1-18.7,6.7c-1.4,4.1,1.1,7,1.9,10.5c0.7,3.4,0.9,6.8,1.4,10.2
		c1.9,15,4.7,28.3-14.3,32.9c-13.6,3.3-27.4,3.6-41.1,5.3c-6.9,0.9-13.9,1.6-20.8,2.7c-4,0.6-18-2.5-17.6,5.2
		c0.8,13.8,3.6,27.4,5.1,41.1c0.4,3.5,0.7,6.9,1.3,10.4c0.6,3.2,3.8,6.1,0,9.4c-3.5,3-7,0.9-10.5,1.1c-3.5,0.2-6.9,0.8-10.3,1.3
		c-2.9,0.4-18,0.5-19,5.5c-0.8,4,3.3,7,0.9,11.3c-2,3.5-5.4,2.5-8.2,3.7c-1.2,0.5,1.3,0.3,1.9-0.1c3.6-2,4.4-4.7,4.9-8.4
		c1-9.3-0.6-18.9,12-21.2"/>
	<text transform="matrix(1 0 0 1 729.09 -671.8323)" class="st4 st3">Start: </text>
	<text transform="matrix(1 0 0 1 778.19 -671.8323)" class="st12 st3">7:22 am</text>
	<text transform="matrix(1 0 0 1 729.09 620.3225)" class="st4 st3">1/2 mile: </text>
	<text transform="matrix(1 0 0 1 805.59 620.3225)" class="st12 st3">8:12 am</text>
	<text transform="matrix(1 0 0 1 729.09 1837.4451)" class="st4 st3">1 mile: </text>
	<text transform="matrix(1 0 0 1 788.49 1837.4451)" class="st12 st3">8:35 am</text>
	<g>
		<text transform="matrix(1 0 0 1 1478.9645 -1432.8784)" class="st4 st3">BJ’s big cart for big boxes</text>
	</g>
	<g>
		<rect x="2012" y="-1448.2" class="st1" width="293.8" height="550"/>
		<text transform="matrix(1 0 0 1 2017.1636 -1432.8184)" class="st4 st3">Earbuds to listen to music and sing</text>
	</g>
	<text transform="matrix(1 0 0 1 728.8378 -1666.8181)" class="st4 st13">Canning with Angel</text>
	<g>
		<rect x="728.8" y="-1605.4" class="st1" width="455.3" height="191.8"/>
		<text transform="matrix(1 0 0 1 728.8382 -1589.9958)" class="st5 st3">Angel collects lots of different things. When he helps his </text>
		<text transform="matrix(1 0 0 1 728.8382 -1568.3958)" class="st5 st3">grandma, he collects empty beer bottles. When he sings, </text>
		<text transform="matrix(1 0 0 1 728.8382 -1546.7959)" class="st5 st3">wearing a tutù, it’s rounds of applause. Angel is still a </text>
		<text transform="matrix(1 0 0 1 728.8382 -1525.1958)" class="st5 st3">teenager but has the strength of someone who has lived </text>
		<text transform="matrix(1 0 0 1 728.8382 -1503.5959)" class="st5 st3">ten lives. He deals with loss, and a complex identity: that </text>
		<text transform="matrix(1 0 0 1 728.8382 -1481.9958)" class="st5 st3">of a Latino, queer, member of the Pentecostal church;  </text>
		<text transform="matrix(1 0 0 1 728.8382 -1460.3958)" class="st5 st3">a believer in dreams. His biggest being becoming a </text>
		<text transform="matrix(1 0 0 1 728.8382 -1438.7959)" class="st5 st3">Broadway star.</text>
	</g>
	<path class="st14" d="M1723-1618.3c-1.1,0.5-42.3,0-42.3,0"/>
	<rect x="1727" y="-1633.4" class="st1" width="101.9" height="39.8"/>
	<text transform="matrix(1 0 0 1 1727.0081 -1622.853)" class="st5 st15">Rope to keep </text>
	<text transform="matrix(1 0 0 1 1727.0081 -1605.853)" class="st5 st15">the boxes still</text>
	<path id="path" class="st16" d="M1458.8-694.8c7,62.8,42.6,48.7,88.3,28.8c53.5-23.3,48.7,45.2,50.9,81.3
		c2.6,40.5,0.9,80.9,1.3,121.3c0.3,40.4,2.5,80.8,0.8,121.3c-1.9,43.4-11.7,89.6,48.8,91.2c22.1,0.6,95.9-11,118,10.2
		c18.7,18,11.5,54.5,48.8,59.3c7.4,1,11,4.6,14.1,10.9c0.4,0.8,0.9,1.1,1.8,1.2c9.4,0.9,3.7,10.8-3.5,13.7
		c-8.4,3.4-52.3,5.9-56.7,20.2c-6.9,22.7,6.3,38.4,11,57.3c0.7,3.8,1.4,7.6,1.9,11.3c1.6,10.5,2.3,21.5,2.1,33.1
		c-0.2,11.6-6.4,17.8-18.6,18.7c-12.2,0.9-23.4,2.6-33.6,5.3c-10.2,2.7-20.4,5.3-30.7,7.9c-10.2,2.6-21.4,4.6-33.5,6
		s-18.6,6.3-19.6,14.8c-1,8.4-0.1,18.1,2.7,28.9c2.8,10.9,5.3,21.5,7.5,31.9c2.2,10.4,4.4,20.9,6.7,31.4s4.5,21,6.6,31.5
		s3.9,21.1,5.3,31.7c1.5,10.6,3,21.3,4.6,31.9c1.6,10.7,3.1,21.2,4.3,31.6c1.2,10.4,3.6,21.5,7.2,33.2s0.3,19.7-9.8,24
		c-10.1,4.3-18,10.9-23.7,19.8c-5.7,8.9-11.2,18.3-16.3,28c-5.2,9.7-11.2,18-18,24.7s-15.9,9.7-27.1,9.1
		c-11.3-0.7-21.8,1.4-31.5,6.2c-9.7,4.8-13,13.1-9.9,24.8c3.2,11.7,5.1,22.7,5.9,33.1s2.3,21.3,4.4,32.6c2.1,11.4-3,16.9-15.4,16.7
		c-12.4-0.3-22.8,0.1-31.1,1s-12.3,2.1-12.1,3.5s1.5,2.2,3.9,2.3c2.3,0.2,5.8-0.3,10.5-1.3s13.6-1.9,26.7-2.7
		c13.1-0.8,19.1,4.7,17.9,16.5c-1.2,11.8-1.7,22.9-1.5,33.5c0.2,10.6,0.2,21.2,0.1,32.1c-0.1,7.8,0,15.5,0.3,23.1
		c0.2,2.9,0.4,5.9,0.7,8.8c0.9,10.4,1.2,21.8,0.7,34.1c-0.4,12.3,5.7,17.9,18.3,16.8c12.6-1.1,24.1-1,34.5,0.2
		c10.4,1.2,21,2.2,31.9,2.8c10.9,0.6,21.3,1.9,31.2,3.9s18.1,7.9,24.7,17.5s10.3,19.4,11.2,29.5c0.9,10,0.7,20.4-0.6,31.2
		c-1.3,10.8-2.5,21.6-3.4,32.2c-0.9,10.7-1.9,21.4-2.9,32.1c-1,10.7-2,21.4-3,32.1c-1,10.7-2,21.4-3.1,32.1
		c-1.1,10.7-1.9,21.3-2.5,31.7s-2.5,21.8-5.6,34.2s1,18.9,12.3,19.6c11.3,0.6,22.3,1.5,32.9,2.6s21.2,2.2,31.9,3.2
		c10.7,1,21.4,2,32.1,3s21.3,2.1,31.8,3.3s21.7,1.8,33.8,1.7c12.1-0.1,16.5,6.1,13.3,18.7c-3.2,12.6-5.1,24-5.6,34.3
		s-1.5,21-2.8,32.1s-1.6,21-0.9,29.8s8.1,12.4,22.1,10.7c14.1-1.7,21.2,3.1,21.6,14.5c0.3,11.3,1.2,17.2,2.8,17.5
		c1.5,0.3,1.1,4.3-1.3,11.8s-7.6,12.6-15.7,15.4c-8.1,2.8-17.2,5.8-27.4,8.9c-10.2,3.2-18.2,9.1-24.1,17.9
		c-4.6,6.8-6.7,14.4-6.5,22.6c1.8,18.8,6.5,37,9.5,55.5c4.4,27.2,9.1,31.7-21.9,33.5c-36.9,2.1-72.5,8.3-108.1,18.4
		c-23,6.5-17.7,22.7-13.4,40.4c4.5,18.8,6.5,37.9,9.7,56.8c6.2,36.1,12.3,72.2,18.3,108.3c5.9,36,26.6,68.2-4,105.2
		c-11.6,14.1-14,33.8-35,42.1c-19.1,7.5-35.8,0.5-53.7-1.1c-66.9-5.9-51.6,9.9-49.7,64.9c0.4,11,12.4,48.9-6.7,52.4
		c-19.7,3.6-24.4,8.4-38.6,21.4"/>
	<path id="bkg_path" class="st16" d="M1458.8-694.8c7,62.8,42.6,48.7,88.3,28.8c53.5-23.3,48.7,45.2,50.9,81.3
		c2.6,40.5,0.9,80.9,1.3,121.3c0.3,40.4,2.5,80.8,0.8,121.3c-1.9,43.4-11.7,89.6,48.8,91.2c22.1,0.6,95.9-11,118,10.2
		c18.7,18,11.5,54.5,48.8,59.3c7.4,1,11,4.6,14.1,10.9c0.4,0.8,0.9,1.1,1.8,1.2c9.4,0.9,3.7,10.8-3.5,13.7
		c-8.4,3.4-52.3,5.9-56.7,20.2c-6.9,22.7,6.3,38.4,11,57.3c0.7,3.8,1.4,7.6,1.9,11.3c1.6,10.5,2.3,21.5,2.1,33.1
		c-0.2,11.6-6.4,17.8-18.6,18.7c-12.2,0.9-23.4,2.6-33.6,5.3c-10.2,2.7-20.4,5.3-30.7,7.9c-10.2,2.6-21.4,4.6-33.5,6
		s-18.6,6.3-19.6,14.8c-1,8.4-0.1,18.1,2.7,28.9c2.8,10.9,5.3,21.5,7.5,31.9c2.2,10.4,4.4,20.9,6.7,31.4s4.5,21,6.6,31.5
		s3.9,21.1,5.3,31.7c1.5,10.6,3,21.3,4.6,31.9c1.6,10.7,3.1,21.2,4.3,31.6c1.2,10.4,3.6,21.5,7.2,33.2s0.3,19.7-9.8,24
		c-10.1,4.3-18,10.9-23.7,19.8c-5.7,8.9-11.2,18.3-16.3,28c-5.2,9.7-11.2,18-18,24.7s-15.9,9.7-27.1,9.1
		c-11.3-0.7-21.8,1.4-31.5,6.2c-9.7,4.8-13,13.1-9.9,24.8c3.2,11.7,5.1,22.7,5.9,33.1s2.3,21.3,4.4,32.6c2.1,11.4-3,16.9-15.4,16.7
		c-12.4-0.3-22.8,0.1-31.1,1s-12.3,2.1-12.1,3.5s1.5,2.2,3.9,2.3c2.3,0.2,5.8-0.3,10.5-1.3s13.6-1.9,26.7-2.7
		c13.1-0.8,19.1,4.7,17.9,16.5c-1.2,11.8-1.7,22.9-1.5,33.5c0.2,10.6,0.2,21.2,0.1,32.1c-0.1,7.8,0,15.5,0.3,23.1
		c0.2,2.9,0.4,5.9,0.7,8.8c0.9,10.4,1.2,21.8,0.7,34.1c-0.4,12.3,5.7,17.9,18.3,16.8c12.6-1.1,24.1-1,34.5,0.2
		c10.4,1.2,21,2.2,31.9,2.8c10.9,0.6,21.3,1.9,31.2,3.9s18.1,7.9,24.7,17.5s10.3,19.4,11.2,29.5c0.9,10,0.7,20.4-0.6,31.2
		c-1.3,10.8-2.5,21.6-3.4,32.2c-0.9,10.7-1.9,21.4-2.9,32.1c-1,10.7-2,21.4-3,32.1c-1,10.7-2,21.4-3.1,32.1
		c-1.1,10.7-1.9,21.3-2.5,31.7s-2.5,21.8-5.6,34.2s1,18.9,12.3,19.6c11.3,0.6,22.3,1.5,32.9,2.6s21.2,2.2,31.9,3.2
		c10.7,1,21.4,2,32.1,3s21.3,2.1,31.8,3.3s21.7,1.8,33.8,1.7c12.1-0.1,16.5,6.1,13.3,18.7c-3.2,12.6-5.1,24-5.6,34.3
		s-1.5,21-2.8,32.1s-1.6,21-0.9,29.8s8.1,12.4,22.1,10.7c14.1-1.7,21.2,3.1,21.6,14.5c0.3,11.3,1.2,17.2,2.8,17.5
		c1.5,0.3,1.1,4.3-1.3,11.8s-7.6,12.6-15.7,15.4c-8.1,2.8-17.2,5.8-27.4,8.9c-10.2,3.2-18.2,9.1-24.1,17.9
		c-4.6,6.8-6.7,14.4-6.5,22.6c1.8,18.8,6.5,37,9.5,55.5c4.4,27.2,9.1,31.7-21.9,33.5c-36.9,2.1-72.5,8.3-108.1,18.4
		c-23,6.5-17.7,22.7-13.4,40.4c4.5,18.8,6.5,37.9,9.7,56.8c6.2,36.1,12.3,72.2,18.3,108.3c5.9,36,26.6,68.2-4,105.2
		c-11.6,14.1-14,33.8-35,42.1c-19.1,7.5-35.8,0.5-53.7-1.1c-66.9-5.9-51.6,9.9-49.7,64.9c0.4,11,12.4,48.9-6.7,52.4
		c-19.7,3.6-24.4,8.4-38.6,21.4"/>
	
		<image style="overflow:visible;enable-background:new    ;" width="150" height="137" xlink:href="../../img/angel/Angel_cart.png"  transform="matrix(1.7999 0 0 1.7999 1462.2623 -1707.4297)">
	</image>
	
		<image style="overflow:visible;enable-background:new    ;" width="76" height="150" xlink:href="../../img/angel/Angel_earbuds.png"  transform="matrix(1.8849 0 0 1.8849 2087.2117 -1746.7864)">
	</image>
</g>
</svg>
