<?xml version="1.0" encoding="utf-8"?>
<!-- Generator: Adobe Illustrator 19.1.0, SVG Export Plug-In . SVG Version: 6.00 Build 0)  -->
<svg version="1.1" id="data_illustrations" xmlns="http://www.w3.org/2000/svg" xmlns:xlink="http://www.w3.org/1999/xlink" x="0px"
	 y="0px" viewBox="0 0 1368 936" style="enable-background:new 0 0 1368 936;" xml:space="preserve">
<style type="text/css">
	.st0{fill:#333333;}
	.st1{font-family:'Roboto-Regular';}
	.st2{font-size:18px;}
</style>
<style>@import url('../legend_styles.css')</style>
<g>
	
		<image style="overflow:visible;" width="6000" height="4000" xlink:href="../../img/angel/data_page/Angel_Jan_2017.png"  transform="matrix(6.367606e-02 0 0 6.367606e-02 -12.6663 23.0148)">
	</image>
	
		<image style="overflow:visible;" width="6000" height="4000" xlink:href="../../img/angel/data_page/Angel-Feb_2017.png"  transform="matrix(6.367606e-02 0 0 6.367606e-02 369.39 23.0148)">
	</image>
	
		<image style="overflow:visible;" width="6000" height="4000" xlink:href="../../img/angel/data_page/Angel_march_2017.png"  transform="matrix(6.367606e-02 0 0 6.367606e-02 751.4464 23.0148)">
	</image>
	
		<image style="overflow:visible;" width="6000" height="4000" xlink:href="../../img/angel/data_page/Angel_april_2018.png"  transform="matrix(6.367606e-02 0 0 6.367606e-02 1133.5028 23.0148)">
	</image>
</g>
<g>
	
		<image style="overflow:visible;" width="6000" height="4000" xlink:href="../../img/angel/data_page/Angel_may_2017.png"  transform="matrix(6.367606e-02 0 0 6.367606e-02 -12.6663 326.4914)">
	</image>
	
		<image style="overflow:visible;" width="6000" height="4000" xlink:href="../../img/angel/data_page/Angel_June_2017.png"  transform="matrix(6.367606e-02 0 0 6.367606e-02 369.39 326.4914)">
	</image>
	
		<image style="overflow:visible;" width="6000" height="4000" xlink:href="../../img/angel/data_page/Angel_July_2017.png"  transform="matrix(6.367606e-02 0 0 6.367606e-02 751.4464 326.4914)">
	</image>
	
		<image style="overflow:visible;" width="6000" height="4000" xlink:href="../../img/angel/data_page/Angel_August_2017.png"  transform="matrix(6.367606e-02 0 0 6.367606e-02 1133.5028 326.4914)">
	</image>
</g>
<g>
	
		<image style="overflow:visible;" width="6000" height="4000" xlink:href="../../img/angel/data_page/Angel_Sept_2017.png"  transform="matrix(6.367606e-02 0 0 6.367606e-02 -12.6663 629.968)">
	</image>
	
		<image style="overflow:visible;" width="6000" height="4000" xlink:href="../../img/angel/data_page/Angel_Oct_2017.png"  transform="matrix(6.367606e-02 0 0 6.367606e-02 369.39 629.968)">
	</image>
	
		<image style="overflow:visible;" width="6000" height="4000" xlink:href="../../img/angel/data_page/Angel_nov_2017.png"  transform="matrix(6.367606e-02 0 0 6.367606e-02 751.4464 629.968)">
	</image>
	
		<image style="overflow:visible;" width="6000" height="4000" xlink:href="../../img/angel/data_page/Angel_dec_2017.png"  transform="matrix(6.367606e-02 0 0 6.367606e-02 1133.5028 629.968)">
	</image>
</g>
<g>
	<text transform="matrix(1 0 0 1 30.3898 42.5534)" class="st0 st1 st2">January</text>
</g>
<g>
	<text transform="matrix(1 0 0 1 412.4457 42.5534)" class="st0 st1 st2">February</text>
</g>
<g>
	<text transform="matrix(1 0 0 1 796.6296 42.5534)" class="st0 st1 st2">March</text>
</g>
<g>
	<text transform="matrix(1 0 0 1 1176.5592 42.5534)" class="st0 st1 st2">April</text>
</g>
<g>
	<text transform="matrix(1 0 0 1 30.3898 342.4913)" class="st0 st1 st2">May</text>
</g>
<g>
	<text transform="matrix(1 0 0 1 412.4457 342.4913)" class="st0 st1 st2">June</text>
</g>
<g>
	<text transform="matrix(1 0 0 1 796.6296 342.4913)" class="st0 st1 st2">July</text>
</g>
<g>
	<text transform="matrix(1 0 0 1 1176.5592 342.4913)" class="st0 st1 st2">August</text>
</g>
<g>
	<text transform="matrix(1 0 0 1 30.3898 644.6991)" class="st0 st1 st2">September</text>
</g>
<g>
	<text transform="matrix(1 0 0 1 412.4457 644.6991)" class="st0 st1 st2">October</text>
</g>
<g>
	<text transform="matrix(1 0 0 1 796.6296 644.6991)" class="st0 st1 st2">November</text>
</g>
<g>
	<text transform="matrix(1 0 0 1 1176.5592 644.6991)" class="st0 st1 st2">December</text>
</g>
<g>
	<text transform="matrix(1 0 0 1 30.3898 266.7228)" class="st0 st1 st2">$280.05</text>
</g>
<g>
	<text transform="matrix(1 0 0 1 412.4457 266.7228)" class="st0 st1 st2">$221.60</text>
</g>
<g>
	<text transform="matrix(1 0 0 1 796.6296 266.7228)" class="st0 st1 st2">$276.50</text>
</g>
<g>
	<text transform="matrix(1 0 0 1 1176.5592 266.7228)" class="st0 st1 st2">$284.20</text>
</g>
<g>
	<text transform="matrix(1 0 0 1 30.3898 568.6608)" class="st0 st1 st2">$307.55</text>
</g>
<g>
	<text transform="matrix(1 0 0 1 412.4457 568.6608)" class="st0 st1 st2">$278.30</text>
</g>
<g>
	<text transform="matrix(1 0 0 1 796.6296 568.6608)" class="st0 st1 st2">$297.00</text>
</g>
<g>
	<text transform="matrix(1 0 0 1 1176.5592 568.6608)" class="st0 st1 st2">$264.50</text>
</g>
<g>
	<text transform="matrix(1 0 0 1 30.3898 871.8685)" class="st0 st1 st2">$238.25</text>
</g>
<g>
	<text transform="matrix(1 0 0 1 412.4457 871.8685)" class="st0 st1 st2">$261.10</text>
</g>
<g>
	<text transform="matrix(1 0 0 1 796.6296 871.8685)" class="st0 st1 st2">$184.15</text>
</g>
<g>
	<text transform="matrix(1 0 0 1 1176.5592 871.8685)" class="st0 st1 st2">$248.65</text>
</g>
</svg>
