<?xml version="1.0" encoding="utf-8"?>
<!-- Generator: Adobe Illustrator 22.1.0, SVG Export Plug-In . SVG Version: 6.00 Build 0)  -->
<svg version="1.1" id="Layer_1" xmlns="http://www.w3.org/2000/svg" xmlns:xlink="http://www.w3.org/1999/xlink" x="0px" y="0px"
	 viewBox="0 0 389.8 1080" style="enable-background:new 0 0 389.8 1080;" xml:space="preserve">
<style type="text/css">
	.st0{font-family:'Roboto-Regular';}
	.st1{font-size:16.8px;}
	.st2{fill:none;stroke:#000000;stroke-width:2;}
	.st3{opacity:0.5;}
	.st4{opacity:0.1797;fill:#883AB5;enable-background:new    ;}
	.st5{opacity:0.1797;fill:#2AC0FF;enable-background:new    ;}
	.st6{fill:none;stroke:#000000;stroke-width:2;stroke-linejoin:round;}
	.st7{fill:none;stroke:#7C7C7C;stroke-miterlimit:10;stroke-dasharray:1,2;}
	.st8{font-family:'Roboto-BoldItalic';}
	.st9{font-size:17.5343px;}
	.st10{font-family:'Roboto-Bold';}
	.st11{font-size:14px;}
	.st12{fill:#999999;}
	.st13{fill:#D7DED5;}
	.st14{font-size:16px;}
	.st15{font-size:10px;}
	.st16{fill:none;stroke:#999999;stroke-width:0.75;stroke-miterlimit:10;}
</style>
<style>@import url('../svg_styles.css')</style>
<g id="header">

		<image style="overflow:visible;enable-background:new    ;" width="1780" height="1645" xlink:href="../../img/angel/legend/Angel.png"  transform="matrix(-0.186 0 0 0.186 344.9986 52.1151)">
	</image>

		<image style="visibility:hidden;overflow:visible;enable-background:new    ;" width="150" height="19" id="sc-image" xlink:href="../../img/angel/legend/Soundcloud.png"  transform="matrix(1.8432 0 0 1.4368 40.92 398.4835)">
	</image>
</g>
<g id="data_legend_icons">
	<text transform="matrix(1 0 0 1 50.9579 578.8649)" class="st0 st1">Cans</text>
	<text transform="matrix(1 0 0 1 50.9576 632.38)" class="st0 st1">Glass</text>
	<text transform="matrix(1 0 0 1 50.9579 685.8945)" class="st0 st1">Plastic</text>
	<text transform="matrix(1 0 0 1 50.9581 756.2896)" class="st0 st1">10 unsorted items</text>
	<text transform="matrix(1 0 0 1 50.9581 772.0896)" class="st0 st1">Each one can be redeemed for 5 cents</text>
	<text transform="matrix(1 0 0 1 50.9579 824.2896)" class="st0 st1">10 sorted items</text>
	<text transform="matrix(1 0 0 1 50.9579 840.0896)" class="st0 st1">Each one can be redeemed for 6 or 6.5 cents</text>

		<image style="overflow:visible;enable-background:new    ;" width="97" height="150" xlink:href="../../img/angel/legend/Can.png"  transform="matrix(0.2374 0 0 0.2374 7.0586 555.6447)">
	</image>

		<image style="overflow:visible;enable-background:new    ;" width="49" height="150" xlink:href="../../img/angel/legend/Glass.png"  transform="matrix(0.3537 0 0 0.3537 9.906 596.4195)">
	</image>

		<image style="overflow:visible;enable-background:new    ;" width="59" height="150" xlink:href="../../img/angel/legend/Plastic.png"  transform="matrix(0.3405 0 0 0.3405 8.5271 654.0634)">
	</image>

		<image style="overflow:visible;enable-background:new    ;" width="32" height="150" xlink:href="../../img/angel/legend/DataViz_legend_dots.png"  transform="matrix(0.5895 -4.718178e-02 4.718178e-02 0.5895 8.7375 744.1202)">
	</image>
</g>
<g id="legend_icons">
	<polyline class="st2" points="71.8,901.1 71.8,914.3 22.3,914.3 22.4,901.1 	"/>
	<g class="st3">
		<path class="st4" d="M211.6,1021.2c13.6,0.1,27.2-0.1,40.8,0.2c1,0,0.7-1.2,0.6-1.7c-0.2-0.7-1.8-2.5-2.6-2.5
			c-6.8-0.5-13.7-0.4-20.5-0.4c-6.7,0-13.3-0.1-20-0.2C207.6,1016.7,210.1,1021.2,211.6,1021.2z"/>
		<path class="st4" d="M211.9,1019.7c13.7,0.1,27.2-0.1,40.9,0.2c0.6,0,0.8-1.1,0.7-1.6c-0.2-0.6-1.3-1.2-1.9-1.2
			c-13.7-0.6-27.4-0.1-41-0.4c-0.6,0-1.1,1.2-0.8,1.7C209.8,1019.1,211.3,1019.6,211.9,1019.7z"/>
		<path class="st4" d="M216.9,1025.2c13.7,0,27.5,0,41.2,0c1.9,0-0.6-2.6-0.7-2.6c-1.4-1.3-3.5-3.2-5.5-3.5
			c-6.6-0.6-13.4-0.4-20-0.4c-6.7,0-13.4,0-20.2-0.2c-1.9-0.1,0.2,2.5,0.4,2.8c1,1.1,1.9,2,3,2.9
			C215.5,1024.7,216.2,1025.1,216.9,1025.2z"/>
		<path class="st4" d="M215.4,1022c13.7,0.1,27.4-0.1,41,0.1c1.1,0,1.4-0.8,0.8-1.7c-0.7-0.6-1.6-1.1-2.5-1.4
			c-0.8-0.5-1.8-0.8-2.8-1.1c-6.7-0.5-13.4-0.2-20.3-0.2c-6.7,0-13.6,0-20.3-0.2c-1.1,0-1.6,0.6-1,1.6c0.7,0.6,1.4,1.2,2.3,1.7
			C213.7,1021.2,214.5,1021.6,215.4,1022z"/>
		<path class="st4" d="M211,1020c13.7-0.1,27.4,0,41,0c0.6,0,1.3-1.8,1.6-1.8c-13.7,0-27.4,0-41,0C211.9,1018.2,211.3,1020,211,1020
			z"/>
		<path class="st4" d="M212.5,1024.7c13.7,0.1,27.4-0.1,40.9,0.1c2.4,0-1.2-5.3-2.6-5.4c-6.6-0.6-13.2-0.2-19.8-0.2
			c-6.7,0-13.3,0-20-0.2c-1.3,0-1.2,1.2-0.8,2C210.4,1021.9,211.4,1024.7,212.5,1024.7z"/>
		<path class="st4" d="M210.2,1021.9c7.2,0.1,14.5,0.1,21.7,0.1c6.1,0,12.4-0.1,18.5,0.2c1.3,0.1,2.3-2.3,0.7-2.3
			c-13.4,0.1-26.9,0.1-40.3,0.1c-0.6,0-1.4,0.2-1.6,0.8C209.2,1021.4,209.6,1021.9,210.2,1021.9z"/>
	</g>
	<g class="st3">
		<path class="st5" d="M35.5,1020.9c12.5,0.1,25,0,37.4,0.1c1.2,0,0.7-1.6,0.4-2c-0.7-1-1.7-2.2-2.9-2.4c-2.8-0.4-5.6-0.1-8.4-0.1
			c-4,0-7.9,0-11.8,0c-5.5,0-11-0.1-16.4-0.2C31.4,1016.2,34.1,1020.9,35.5,1020.9z"/>
		<path class="st5" d="M35.9,1019.2c12.5,0.1,25-0.1,37.4,0.1c0.7,0,1-1.3,0.7-1.7c-0.4-0.7-1.8-1.1-2.5-1.1c-6.1-0.2-12.4,0-18.6,0
			c-6.1,0-12.4,0-18.5-0.1c-0.6,0-1.1,1.2-0.8,1.7S35.2,1019.2,35.9,1019.2z"/>
		<path class="st5" d="M40.9,1024.9c12.5,0,25.1,0,37.6,0c1.9,0-0.5-2.5-0.6-2.6c-1.3-1.3-3.4-3.4-5.3-3.7c-1.8-0.2-3.8-0.1-5.8-0.1
			c-4.3,0-8.5,0-12.8,0c-6.1,0-12.2-0.1-18.5-0.2c-1.9-0.1,0.2,2.5,0.4,2.8c1,1.1,1.9,2,3,2.9C39.5,1024.4,40.1,1024.8,40.9,1024.9z
			"/>
		<path class="st5" d="M39.4,1021.5c12.5,0.1,25,0,37.6,0.1c1.1,0,1.6-0.8,0.8-1.7c-0.7-0.6-1.6-1.1-2.4-1.6s-1.8-0.8-2.6-1.1
			c-1.9-0.1-3.8,0-5.8-0.1c-4.3,0-8.6,0-12.8,0c-6.1,0-12.4-0.1-18.5-0.2c-1.1,0-1.6,0.6-1,1.6c0.7,0.6,1.4,1.2,2.3,1.7
			C37.7,1020.8,38.5,1021.3,39.4,1021.5z"/>
		<path class="st5" d="M34.9,1019.6c12.5,0,25,0,37.4,0c0.6,0,1.3-1.8,1.6-1.8c-12.5,0-25,0-37.4,0
			C35.9,1017.8,35.2,1019.6,34.9,1019.6z"/>
		<path class="st5" d="M36.5,1024.3c12.5,0.1,25-0.1,37.4,0.1c2.5,0-0.8-5.4-2.3-5.6c-1.8-0.2-3.8,0-5.6,0c-4.3,0-8.5,0-12.8,0
			c-6.1,0-12.1,0-18.2-0.2c-1.3,0-1.2,1.2-0.8,2C34.3,1021.4,35.4,1024.3,36.5,1024.3z"/>
		<path class="st5" d="M34.2,1021.4c6.1,0.1,12.1,0.1,18.2,0.1c4.3,0,8.6,0,12.8,0c1.9,0,4-0.1,5.9,0.1c0.5,0,1.6-0.4,1.7-0.8
			c0.1-0.4-0.1-1.3-0.6-1.2c-2.8,0.2-5.8,0-8.5,0c-4,0-7.9,0-11.8,0c-5.6,0-11.3,0-16.9,0c-0.6,0-1.4,0.2-1.6,0.8
			C33.1,1021,33.6,1021.4,34.2,1021.4z"/>
	</g>
	<g>
		<path d="M203.6,870.8c8.9,0,17.9,0,26.8,0c2.2,0,5.8-0.7,6.8-3c1-2.2-0.8-3.5-2.9-3.5c-8.9,0-17.9,0-26.8,0c-2.2,0-5.8,0.7-6.8,3
			C199.7,869.5,201.5,870.8,203.6,870.8L203.6,870.8z"/>
	</g>
	<g>
		<path d="M204.9,913.1c8.9,0,17.9,0,26.8,0c1.4,0,3.6-2.2,1.3-2.2c-8.9,0-17.9,0-26.8,0C204.8,911,202.6,913.1,204.9,913.1
			L204.9,913.1z"/>
	</g>
	<line class="st2" x1="22.3" y1="867.3" x2="71.5" y2="867.3"/>
	<path class="st6" d="M65.8,952.2c3.7,0,6.8,3,6.8,6.8s-3,6.8-6.8,6.8l-36-0.2c-3.7,0-6.8-3-6.8-6.8s3-6.8,6.8-6.8"/>
	<line class="st7" x1="22.9" y1="1008.2" x2="22.9" y2="1031"/>
	<line class="st7" x1="204.7" y1="1007.8" x2="204.7" y2="1030.6"/>
	<path d="M48.4,1017.8c-8.6,0-17.4,0-26,0v2.2c8.3,0,16.6,0,24.7,0C48.5,1020,50.8,1017.8,48.4,1017.8z"/>
	<path d="M230.2,1017.9c-8.6,0-17.4,0-26,0v2.2c8.3,0,16.6,0,24.7,0C230.3,1020,232.6,1017.9,230.2,1017.9z"/>
	<g>
		<path d="M221.9,977.4h-17.6V958h17.6V977.4z M213.1,965.2c-1.4,0-2.5,1.1-2.5,2.5s1.1,2.5,2.5,2.5s2.5-1.1,2.5-2.5
			S214.4,965.2,213.1,965.2z"/>
		<g>
			<path d="M221.9,957.9h-2.4c0-6-3-11-6.5-11s-6.5,5-6.5,11h-2.4c0-7.6,3.8-13.4,8.9-13.4C218,944.4,221.9,950.4,221.9,957.9z"/>
		</g>
	</g>
	<g>
		<text transform="matrix(1 0 0 1 68.6572 698.7793)" class="st8 st1">1 Glass</text>
	</g>
	<g>
		<text transform="matrix(1 0 0 1 257.4941 696.7793)" class="st8 st1">1 Plastic</text>
	</g>
	<g>
		<text transform="matrix(1 0 0 1 259.4941 755.9785)" class="st8 st1">Trash bag</text>
		<text transform="matrix(1 0 0 1 259.4941 776.1387)" class="st8 st1">= 150 items</text>
	</g>
	<g>
		<text transform="matrix(0.9581 0 0 1 69.6572 768.249)" class="st8 st9">1 Can</text>
	</g>
	<g>
		<text transform="matrix(1 0 0 1 90.6572 871.4482)" class="st8 st1">Ground</text>
	</g>
	<g>
		<text transform="matrix(1 0 0 1 90.6715 913.9757)" class="st8 st1">Bin</text>
	</g>
	<g>
		<text transform="matrix(1 0 0 1 93.6715 961.3234)" class="st8 st1">Bag</text>
	</g>
	<g>
		<text transform="matrix(1 0 0 1 90.6572 1014.4268)" class="st8 st1">Connected</text>
		<text transform="matrix(1 0 0 1 90.6572 1034.5859)" class="st8 st1">to residence</text>
	</g>
	<g>
		<text transform="matrix(1 0 0 1 264.4941 1015.4268)" class="st8 st1">Connected</text>
		<text transform="matrix(1 0 0 1 264.4941 1035.5859)" class="st8 st1">to business</text>
	</g>
	<g>
		<text transform="matrix(1 0 0 1 263.4941 958.8203)" class="st8 st1">Needs someone</text>
		<text transform="matrix(1 0 0 1 263.4941 978.9805)" class="st8 st1">to get in</text>
	</g>
	<g>
		<text transform="matrix(1 0 0 1 264.4941 869.4473)" class="st8 st1">Private</text>
	</g>
	<g>
		<text transform="matrix(1 0 0 1 263.4941 917.1328)" class="st8 st1">Public</text>
	</g>
	<text transform="matrix(1 0 0 1 76.6567 557.2969)" class="st8 st1">Angel’s</text>
	<text transform="matrix(1 0 0 1 76.6567 577.457)" class="st8 st1">comments</text>
	<text transform="matrix(1 0 0 1 73.6567 494.8965)" class="st8 st1">Observations</text>
	<g>
		<text transform="matrix(1 0 0 1 264.4941 557.2959)" class="st8 st1">Angel’s</text>
		<text transform="matrix(1 0 0 1 264.4941 577.4561)" class="st8 st1">encounters</text>
	</g>

		<image style="overflow:visible;enable-background:new    ;" width="123" height="150" xlink:href="../../img/angel/legend/Hand.png"  transform="matrix(0.287 0 0 0.287 210.0345 540.1849)">
	</image>

		<image style="overflow:visible;enable-background:new    ;" width="150" height="106" xlink:href="../../img/angel/legend/Comment.png"  transform="matrix(0.3522 0 0 0.3522 16.9724 542.039)">
	</image>
	<text transform="matrix(1 0 0 1 19.917 637.168)" class="st10 st11">ITEMS</text>
	<text transform="matrix(1 0 0 1 14.3169 832.3672)" class="st10 st11">LOCATIONS</text>

		<image style="overflow:visible;enable-background:new    ;" width="49" height="150" xlink:href="../../img/angel/legend/Glass.png"  transform="matrix(0.3916 0 0 0.3916 34.0275 661.0457)">
	</image>

		<image style="overflow:visible;enable-background:new    ;" width="97" height="150" xlink:href="../../img/angel/legend/Can.png"  transform="matrix(0.24 0 0 0.24 33.9788 741.8134)">
	</image>

		<image style="overflow:visible;enable-background:new    ;" width="59" height="150" xlink:href="../../img/angel/legend/Plastic.png"  transform="matrix(0.4006 0 0 0.4006 212.9657 658.365)">
	</image>

		<image style="overflow:visible;enable-background:new    ;" width="122" height="150" xlink:href="../../img/angel/legend/trash_bag-5.png"  transform="matrix(0.3427 0 0 0.3427 204.9823 731.0144)">
	</image>
	<g>
		<text transform="matrix(1 0 0 1 260.4941 486.5791)" class="st8 st1">Visual notes</text>
		<text transform="matrix(1 0 0 1 260.4941 504.7793)" class="st12 st8 st11">CLICK TO VIEW</text>
	</g>
	<rect x="14" y="472" class="st13" width="48" height="35"/>

		<image style="overflow:visible;enable-background:new    ;" width="150" height="115" xlink:href="../../img/angel/legend/Camera.png"  transform="matrix(0.3077 0 0 0.3077 198.9494 472.0659)">
	</image>
</g>
<g>
	<text transform="matrix(1 0 0 1 40.6502 457.8654)" class="st12 st8 st14">&gt;</text>
	<text transform="matrix(1 0 0 1 49.1502 457.8654)" class="st12 st8 st15"> OPEN SCRIPT</text>
</g>
<line class="st16" x1="40.2" y1="460" x2="351.2" y2="460"/>
</svg>
