<?xml version="1.0" encoding="utf-8"?>
<!-- Generator: Adobe Illustrator 19.1.0, SVG Export Plug-In . SVG Version: 6.00 Build 0)  -->
<svg version="1.1" xmlns="http://www.w3.org/2000/svg" xmlns:xlink="http://www.w3.org/1999/xlink" x="0px" y="0px"
	 viewBox="0 0 389.8 1080" style="enable-background:new 0 0 389.8 1080;" xml:space="preserve">
<style type="text/css">
	.st0{fill:#999999;}
	.st1{font-family:'AmaticSC-Regular';}
	.st2{font-size:32px;}
	.st3{font-family:'Roboto-Regular';}
	.st4{font-size:13.1545px;}
	.st5{fill:none;stroke:#000000;stroke-width:2;}
	.st6{opacity:0.5;}
	.st7{opacity:0.1797;fill:#883AB5;}
	.st8{opacity:0.1797;fill:#2AC0FF;}
	.st9{fill:none;stroke:#000000;stroke-width:2;stroke-linejoin:round;}
	.st10{fill:none;stroke:#7C7C7C;stroke-miterlimit:10;stroke-dasharray:1,2;}
	.st11{font-family:'Roboto-BoldItalic';}
	.st12{font-size:12px;}
	.st13{font-family:'Roboto-Bold';}
	.st14{font-size:10px;}
	.st15{fill:#D7DED5;}
</style>
<style>@import url('../legend_styles.css')</style>
<g id="header">
	
		<image style="overflow:visible;" width="3560" height="3291" xlink:href="../../img/angel/legend/Angel.png"  transform="matrix(-9.296372e-02 0 0 9.296372e-02 344.9754 52.09)">
	</image>
	<polygon class="st0" points="42,444 67,457 42,469.9 	"/>
	<text transform="matrix(1 0 0 1 82.8134 468.9994)" class="st1 st2">Meet Angel</text>
	
		<image style="overflow:visible;" width="602" height="79" xlink:href="../../img/angel/legend/Soundcloud.png"  transform="matrix(0.459 0 0 0.3578 41 398)">
	</image>
</g>
<g id="data_legend_icons">
	<text transform="matrix(1 0 0 1 88.9579 588.8649)" class="st3 st4">Cans</text>
	<text transform="matrix(1 0 0 1 88.9576 642.38)" class="st3 st4">Glass</text>
	<text transform="matrix(1 0 0 1 88.9579 695.8945)" class="st3 st4">Plastic</text>
	<text transform="matrix(1 0 0 1 88.9581 753.2896)"><tspan x="0" y="0" class="st3 st4">10 unsorted items</tspan><tspan x="0" y="15.8" class="st3 st4">Each one can be redeemed for 5 cents</tspan></text>
	<text transform="matrix(1 0 0 1 88.9579 821.2896)"><tspan x="0" y="0" class="st3 st4">10 sorted items</tspan><tspan x="0" y="15.8" class="st3 st4">Each one can be redeemed for 6 or 6.5 cents</tspan></text>
	
		<image style="overflow:visible;" width="243" height="375" xlink:href="../../img/angel/legend/Can.png"  transform="matrix(9.488724e-02 0 0 9.488724e-02 45.0419 555.6555)">
	</image>
	
		<image style="overflow:visible;" width="194" height="592" xlink:href="../../img/angel/legend/Plastic.png"  transform="matrix(8.958174e-02 0 0 8.958174e-02 47.8812 596.4276)">
	</image>
	
		<image style="overflow:visible;" width="216" height="551" xlink:href="../../img/angel/legend/Plastic.png"  transform="matrix(9.272574e-02 0 0 9.272574e-02 46.5563 654.0519)">
	</image>
	
		<image style="overflow:visible;" width="158" height="726" xlink:href="../../img/angel/legend/DataViz_legend_dots.png"  transform="matrix(0.1217 -9.739679e-03 9.739679e-03 0.1217 46.5591 744.1739)">
	</image>
</g>
<g id="legend_icons">
	<polyline class="st5" points="85.2,885.1 85.2,896.1 44,896.1 44.1,885.1 	"/>
	<g class="st6">
		<path class="st7" d="M212.6,997.2c11.3,0.1,22.7-0.1,34,0.2c0.8,0,0.6-1,0.5-1.4c-0.2-0.6-1.5-2.1-2.2-2.1
			c-5.7-0.4-11.4-0.3-17.1-0.3c-5.6,0-11.1-0.1-16.7-0.2C209.2,993.4,211.3,997.2,212.6,997.2z"/>
		<path class="st7" d="M212.8,995.9c11.4,0.1,22.7-0.1,34.1,0.2c0.5,0,0.7-0.9,0.6-1.3c-0.2-0.5-1.1-1-1.6-1
			c-11.4-0.5-22.8-0.1-34.2-0.3c-0.5,0-0.9,1-0.7,1.4C211.1,995.4,212.3,995.8,212.8,995.9z"/>
		<path class="st7" d="M217,1000.5c11.4,0,22.9,0,34.3,0c1.6,0-0.5-2.2-0.6-2.2c-1.2-1.1-2.9-2.7-4.6-2.9
			c-5.5-0.5-11.2-0.3-16.7-0.3c-5.6,0-11.2,0-16.8-0.2c-1.6-0.1,0.2,2.1,0.3,2.3c0.8,0.9,1.6,1.7,2.5,2.4
			C215.8,1000.1,216.4,1000.4,217,1000.5z"/>
		<path class="st7" d="M215.7,997.8c11.4,0.1,22.8-0.1,34.2,0.1c0.9,0,1.2-0.7,0.7-1.4c-0.6-0.5-1.3-0.9-2.1-1.2
			c-0.7-0.4-1.5-0.7-2.3-0.9c-5.6-0.4-11.2-0.2-16.9-0.2c-5.6,0-11.3,0-16.9-0.2c-0.9,0-1.3,0.5-0.8,1.3c0.6,0.5,1.2,1,1.9,1.4
			C214.3,997.2,215,997.5,215.7,997.8z"/>
		<path class="st7" d="M212.1,996.2c11.4-0.1,22.8,0,34.2,0c0.5,0,1.1-1.5,1.3-1.5c-11.4,0-22.8,0-34.2,0
			C212.8,994.7,212.3,996.2,212.1,996.2z"/>
		<path class="st7" d="M213.3,1000.1c11.4,0.1,22.8-0.1,34.1,0.1c2,0-1-4.4-2.2-4.5c-5.5-0.5-11-0.2-16.5-0.2
			c-5.6,0-11.1,0-16.7-0.2c-1.1,0-1,1-0.7,1.7C211.6,997.7,212.4,1000.1,213.3,1000.1z"/>
		<path class="st7" d="M211.4,997.7c6,0.1,12.1,0.1,18.1,0.1c5.1,0,10.3-0.1,15.4,0.2c1.1,0.1,1.9-1.9,0.6-1.9
			c-11.2,0.1-22.4,0.1-33.6,0.1c-0.5,0-1.2,0.2-1.3,0.7C210.6,997.3,210.9,997.7,211.4,997.7z"/>
	</g>
	<g class="st6">
		<path class="st8" d="M55,996.6c10.4,0.1,20.8,0,31.2,0.1c1,0,0.6-1.3,0.3-1.7c-0.6-0.8-1.4-1.8-2.4-2c-2.3-0.3-4.7-0.1-7-0.1
			c-3.3,0-6.6,0-9.8,0c-4.6,0-9.2-0.1-13.7-0.2C51.6,992.7,53.8,996.6,55,996.6z"/>
		<path class="st8" d="M55.3,995.2c10.4,0.1,20.8-0.1,31.2,0.1c0.6,0,0.8-1.1,0.6-1.4c-0.3-0.6-1.5-0.9-2.1-0.9
			c-5.1-0.2-10.3,0-15.5,0c-5.1,0-10.3,0-15.4-0.1c-0.5,0-0.9,1-0.7,1.4C53.6,994.7,54.7,995.2,55.3,995.2z"/>
		<path class="st8" d="M59.5,999.9c10.4,0,20.9,0,31.3,0c1.6,0-0.4-2.1-0.5-2.2c-1.1-1.1-2.8-2.8-4.4-3.1c-1.5-0.2-3.2-0.1-4.8-0.1
			c-3.6,0-7.1,0-10.7,0c-5.1,0-10.2-0.1-15.4-0.2c-1.6-0.1,0.2,2.1,0.3,2.3c0.8,0.9,1.6,1.7,2.5,2.4
			C58.3,999.5,58.8,999.8,59.5,999.9z"/>
		<path class="st8" d="M58.2,997.1c10.4,0.1,20.8,0,31.3,0.1c0.9,0,1.3-0.7,0.7-1.4c-0.6-0.5-1.3-0.9-2-1.3
			c-0.7-0.4-1.5-0.7-2.2-0.9c-1.6-0.1-3.2,0-4.8-0.1c-3.6,0-7.2,0-10.7,0c-5.1,0-10.3-0.1-15.4-0.2c-0.9,0-1.3,0.5-0.8,1.3
			c0.6,0.5,1.2,1,1.9,1.4C56.8,996.5,57.5,996.9,58.2,997.1z"/>
		<path class="st8" d="M54.5,995.5c10.4,0,20.8,0,31.2,0c0.5,0,1.1-1.5,1.3-1.5c-10.4,0-20.8,0-31.2,0
			C55.3,994,54.7,995.5,54.5,995.5z"/>
		<path class="st8" d="M55.8,999.4c10.4,0.1,20.8-0.1,31.2,0.1c2.1,0-0.7-4.5-1.9-4.7c-1.5-0.2-3.2,0-4.7,0c-3.6,0-7.1,0-10.7,0
			c-5.1,0-10.1,0-15.2-0.2c-1.1,0-1,1-0.7,1.7C54,997,54.9,999.4,55.8,999.4z"/>
		<path class="st8" d="M53.9,997c5.1,0.1,10.1,0.1,15.2,0.1c3.6,0,7.2,0,10.7,0c1.6,0,3.3-0.1,4.9,0.1c0.4,0,1.3-0.3,1.4-0.7
			c0.1-0.3-0.1-1.1-0.5-1c-2.3,0.2-4.8,0-7.1,0c-3.3,0-6.6,0-9.8,0c-4.7,0-9.4,0-14.1,0c-0.5,0-1.2,0.2-1.3,0.7
			C53,996.7,53.4,997,53.9,997z"/>
	</g>
	<g>
		<path d="M206.7,859.3c7.4,0,14.9,0,22.3,0c1.8,0,4.8-0.6,5.7-2.5c0.8-1.8-0.7-2.9-2.4-2.9c-7.4,0-14.9,0-22.3,0
			c-1.8,0-4.8,0.6-5.7,2.5C203.5,858.2,205,859.3,206.7,859.3L206.7,859.3z"/>
	</g>
	<g>
		<path d="M207.8,897.1c7.4,0,14.9,0,22.3,0c1.2,0,3-1.8,1.1-1.8c-7.4,0-14.9,0-22.3,0C207.7,895.3,205.9,897.1,207.8,897.1
			L207.8,897.1z"/>
	</g>
	<line class="st5" x1="44" y1="856.9" x2="85" y2="856.9"/>
	<path class="st9" d="M78.6,925.7c3.1,0,5.7,2.5,5.7,5.7s-2.5,5.7-5.7,5.7l-30-0.2c-3.1,0-5.7-2.5-5.7-5.7s2.5-5.7,5.7-5.7"/>
	<line class="st10" x1="44.5" y1="986" x2="44.5" y2="1005"/>
	<line class="st10" x1="203.5" y1="986" x2="203.5" y2="1005"/>
	<path d="M65.7,994c-7.2,0-14.5,0-21.7,0v1.8c6.9,0,13.8,0,20.6,0C65.8,995.8,67.7,994,65.7,994z"/>
	<path d="M224.7,994.4c-7.2,0-14.5,0-21.7,0v1.8c6.9,0,13.8,0,20.6,0C224.8,996.2,226.7,994.4,224.7,994.4z"/>
	<g>
		<path d="M227.8,951.5h-14.7v-16.2h14.7V951.5z M220.5,941.3c-1.2,0-2.1,0.9-2.1,2.1c0,1.2,0.9,2.1,2.1,2.1s2.1-0.9,2.1-2.1
			C222.6,942.2,221.6,941.3,220.5,941.3z"/>
		<g>
			<path d="M227.8,935.2h-2c0-5-2.5-9.2-5.4-9.2s-5.4,4.2-5.4,9.2h-2c0-6.3,3.2-11.2,7.4-11.2S227.8,929,227.8,935.2z"/>
		</g>
	</g>
	<g>
		<text transform="matrix(1 0 0 1 102.6715 700.8654)" class="st11 st12">1 Glass</text>
	</g>
	<g>
		<text transform="matrix(1 0 0 1 260.4123 700.8654)" class="st11 st12">1 Plastic</text>
	</g>
	<g>
		<text transform="matrix(1 0 0 1 260.4123 768.8654)"><tspan x="0" y="0" class="st11 st12">Trash bag</tspan><tspan x="0" y="14.4" class="st11 st12">= 150 items</tspan></text>
	</g>
	<g>
		<text transform="matrix(1 0 0 1 102.6715 769.3234)" class="st11 st12">1 Can</text>
	</g>
	<g>
		<text transform="matrix(1 0 0 1 102.6715 860.629)" class="st11 st12">Ground</text>
	</g>
	<g>
		<text transform="matrix(1 0 0 1 102.6715 898.9757)" class="st11 st12">Bin</text>
	</g>
	<g>
		<text transform="matrix(1 0 0 1 102.6715 937.3234)" class="st11 st12">Bag</text>
	</g>
	<g>
		<text transform="matrix(1 0 0 1 102.6714 994.8993)"><tspan x="0" y="0" class="st11 st12">Connected</tspan><tspan x="0" y="14.4" class="st11 st12">to residence</tspan></text>
	</g>
	<g>
		<text transform="matrix(1 0 0 1 260.4121 994.8993)"><tspan x="0" y="0" class="st11 st12">Connected</tspan><tspan x="0" y="14.4" class="st11 st12">to business</tspan></text>
	</g>
	<g>
		<text transform="matrix(1 0 0 1 260.4121 937.3235)"><tspan x="0" y="0" class="st11 st12">Needs someone</tspan><tspan x="0" y="14.4" class="st11 st12">to get in</tspan></text>
	</g>
	<g>
		<text transform="matrix(1 0 0 1 260.4123 860.6287)" class="st11 st12">Private</text>
	</g>
	<g>
		<text transform="matrix(1 0 0 1 260.4123 898.9754)" class="st11 st12">Public</text>
	</g>
	<text transform="matrix(1 0 0 1 102.6712 589.0924)"><tspan x="0" y="0" class="st11 st12">Angel’s</tspan><tspan x="0" y="14.4" class="st11 st12">comments</tspan></text>
	<text transform="matrix(1 0 0 1 102.6712 523.0924)" class="st11 st12">Observations</text>
	<g>
		<text transform="matrix(1 0 0 1 260.4122 589.092)"><tspan x="0" y="0" class="st11 st12">Angel’s</tspan><tspan x="0" y="14.4" class="st11 st12">encounters</tspan></text>
	</g>
	
		<image style="overflow:visible;" width="1030" height="1252" xlink:href="../../img/angel/legend/Hand.png"  transform="matrix(3.433530e-02 0 0 3.433530e-02 213 567.2132)">
	</image>
	
		<image style="overflow:visible;" width="1058" height="750" xlink:href="../../img/angel/legend/Comment.png"  transform="matrix(4.988550e-02 0 0 4.988550e-02 37 570)">
	</image>
	<text transform="matrix(1 0 0 1 40 654)" class="st13 st14">ITEMS</text>
	<text transform="matrix(1 0 0 1 41 837)" class="st13 st14">LOCATIONS</text>
	
		<image style="overflow:visible;" width="194" height="592" xlink:href="../../img/angel/legend/Glass.png"  transform="matrix(9.918366e-02 0 0 9.918366e-02 45 668.0546)">
	</image>
	
		<image style="overflow:visible;" width="243" height="375" xlink:href="../../img/angel/legend/Can.png"  transform="matrix(9.595792e-02 0 0 9.595792e-02 42.9619 747.8243)">
	</image>
	
		<image style="overflow:visible;" width="216" height="551" xlink:href="../../img/angel/legend/Plastic.png"  transform="matrix(0.1091 0 0 0.1091 215 667.3515)">
	</image>
	
		<image style="overflow:visible;" width="973" height="1198" xlink:href="../../img/angel/legend/trash_bag-5.png"  transform="matrix(4.292977e-02 0 0 4.292977e-02 206 736)">
	</image>
	<g>
		<text transform="matrix(1 0 0 1 260.4123 522.8654)"><tspan x="0" y="0" class="st11 st12">Visual notes</tspan><tspan x="0" y="13" class="st0 st11 st14">CLICK TO VIEW</tspan></text>
	</g>
	<rect x="42" y="507" class="st15" width="48" height="35"/>
	
		<image style="overflow:visible;" width="1709" height="1318" xlink:href="../../img/angel/legend/Camera.png"  transform="matrix(2.695115e-02 0 0 2.695115e-02 204 507)">
	</image>
</g>
</svg>
