<?xml version="1.0" encoding="utf-8"?>
<!-- Generator: Adobe Illustrator 19.1.0, SVG Export Plug-In . SVG Version: 6.00 Build 0)  -->
<svg version="1.1" xmlns="http://www.w3.org/2000/svg" xmlns:xlink="http://www.w3.org/1999/xlink" x="0px" y="0px"
	 viewBox="0 0 1371.1 951.7" style="enable-background:new 0 0 1371.1 951.7;" xml:space="preserve">
<style type="text/css">
	@font-face{
	  font-family: Roboto-Regular;
	  src: url('../../fonts/Roboto-Regular.ttf');
	}
	.st0{fill:#999999;}
	.st1{fill:#333333;}
	.st2{font-family:'Roboto-Regular';}
	.st3{font-size:18px;}
</style>
<style>@import url('../svg_styles.css')</style>
<g id="Legend_text">
</g>
<g id="Legend_x5F_img">
</g>
<g id="Portrait">
</g>
<g id="data_illustrations">
	<g>
		
			<image style="overflow:visible;" width="6000" height="4000" xlink:href="../../img/morena/data_page/Morena-2017-January.png"  transform="matrix(6.367606e-02 0 0 6.367606e-02 -23.3716 30.8818)">
		</image>
		
			<image style="overflow:visible;" width="6000" height="4000" xlink:href="../../img/morena/data_page/Morena-2017-February.png"  transform="matrix(6.367606e-02 0 0 6.367606e-02 358.6848 30.8818)">
		</image>
		
			<image style="overflow:visible;" width="6000" height="4000" xlink:href="../../img/morena/data_page/Morena-2017-March.png"  transform="matrix(6.367606e-02 0 0 6.367606e-02 740.7411 30.8818)">
		</image>
		
			<image style="overflow:visible;" width="6000" height="4000" xlink:href="../../img/morena/data_page/Morena-2017-April.png"  transform="matrix(6.367606e-02 0 0 6.367606e-02 1122.7975 30.8818)">
		</image>
	</g>
	<g>
		
			<image style="overflow:visible;" width="6000" height="4000" xlink:href="../../img/morena/data_page/Morena-2017-May.png"  transform="matrix(6.367606e-02 0 0 6.367606e-02 -23.3716 334.3584)">
		</image>
		
			<image style="overflow:visible;" width="6000" height="4000" xlink:href="../../img/morena/data_page/Morena-2017-June.png"  transform="matrix(6.367606e-02 0 0 6.367606e-02 358.6848 334.3584)">
		</image>
		
			<image style="overflow:visible;" width="6000" height="4000" xlink:href="../../img/morena/data_page/Morena-2017-July.png"  transform="matrix(6.367606e-02 0 0 6.367606e-02 740.7411 334.3584)">
		</image>
		
			<image style="overflow:visible;" width="6000" height="4000" xlink:href="../../img/morena/data_page/Morena-2017-August_.png"  transform="matrix(6.367606e-02 0 0 6.367606e-02 1122.7975 334.3584)">
		</image>
	</g>
	<g>
		
			<image style="overflow:visible;" width="6000" height="4000" xlink:href="../../img/morena/data_page/Morena-2017-September_.png"  transform="matrix(6.367606e-02 0 0 6.367606e-02 -23.3716 637.835)">
		</image>
		
			<image style="overflow:visible;" width="6000" height="4000" xlink:href="../../img/morena/data_page/Morena-2017-October_.png"  transform="matrix(6.367606e-02 0 0 6.367606e-02 358.6848 637.835)">
		</image>
		
			<image style="overflow:visible;" width="6000" height="4000" xlink:href="../../img/morena/data_page/Morena-2017-November_.png"  transform="matrix(6.367606e-02 0 0 6.367606e-02 740.7411 637.835)">
		</image>
		
			<image style="overflow:visible;" width="6000" height="4000" xlink:href="../../img/morena/data_page/Morena-2017-December_.png"  transform="matrix(6.367606e-02 0 0 6.367606e-02 1122.7975 637.835)">
		</image>
	</g>
</g>
<g id="data_Text">
	<g>
		<text transform="matrix(1 0 0 1 19.6844 50.4203)" class="st1 st2 st3">January</text>
	</g>
	<g>
		<text transform="matrix(1 0 0 1 401.7405 50.4203)" class="st1 st2 st3">February</text>
	</g>
	<g>
		<text transform="matrix(1 0 0 1 785.9246 50.4203)" class="st1 st2 st3">March</text>
	</g>
	<g>
		<text transform="matrix(1 0 0 1 1165.854 50.4203)" class="st1 st2 st3">April</text>
	</g>
	<g>
		<text transform="matrix(1 0 0 1 19.6844 350.3582)" class="st1 st2 st3">May</text>
	</g>
	<g>
		<text transform="matrix(1 0 0 1 401.7405 350.3582)" class="st1 st2 st3">June</text>
	</g>
	<g>
		<text transform="matrix(1 0 0 1 785.9246 350.3582)" class="st1 st2 st3">July</text>
	</g>
	<g>
		<text transform="matrix(1 0 0 1 1165.854 350.3582)" class="st1 st2 st3">August</text>
	</g>
	<g>
		<text transform="matrix(1 0 0 1 19.6844 652.566)" class="st1 st2 st3">September</text>
	</g>
	<g>
		<text transform="matrix(1 0 0 1 401.7405 652.566)" class="st1 st2 st3">October</text>
	</g>
	<g>
		<text transform="matrix(1 0 0 1 785.9246 652.566)" class="st1 st2 st3">November</text>
	</g>
	<g>
		<text transform="matrix(1 0 0 1 1165.854 652.566)" class="st1 st2 st3">December</text>
	</g>
	<g>
		<text transform="matrix(1 0 0 1 19.6844 274.5898)" class="st1 st2 st3">$591.30</text>
	</g>
	<g>
		<text transform="matrix(1 0 0 1 401.7405 274.5898)" class="st1 st2 st3">$605.85</text>
	</g>
	<g>
		<text transform="matrix(1 0 0 1 785.9246 274.5898)" class="st1 st2 st3">$699.45</text>
	</g>
	<g>
		<text transform="matrix(1 0 0 1 1165.854 274.5898)" class="st1 st2 st3">$705.15</text>
	</g>
	<g>
		<text transform="matrix(1 0 0 1 19.6844 576.5277)" class="st1 st2 st3">$948.45</text>
	</g>
	<g>
		<text transform="matrix(1 0 0 1 401.7405 576.5277)" class="st1 st2 st3">$930.00</text>
	</g>
	<g>
		<text transform="matrix(1 0 0 1 785.9246 576.5277)" class="st1 st2 st3">$1,185.45</text>
	</g>
	<g>
		<text transform="matrix(1 0 0 1 1165.854 576.5277)" class="st1 st2 st3">$1,177.80</text>
	</g>
	<g>
		<text transform="matrix(1 0 0 1 19.6844 879.7355)" class="st1 st2 st3">$1,180.55</text>
	</g>
	<g>
		<text transform="matrix(1 0 0 1 401.7405 879.7355)" class="st1 st2 st3">$1,085.45</text>
	</g>
	<g>
		<text transform="matrix(1 0 0 1 785.9246 879.7355)" class="st1 st2 st3">$1,878.80</text>
	</g>
	<g>
		<text transform="matrix(1 0 0 1 1165.854 879.7355)" class="st1 st2 st3">$924.75</text>
	</g>
</g>
</svg>
