<svg id="legendSVG" version="1.1" xmlns="http://www.w3.org/2000/svg" xmlns:xlink="http://www.w3.org/1999/xlink" x="0px" y="0px"
  viewBox="0 350 389.8 700.8" style="enable-background:new 0 0 389.8 1027.8;" xml:space="preserve">
<style type="text/css">
 .st00{font-family:'Roboto', sans-serif;}
 .st01{font-size:30px;}
 .st02{fill:#999999;}
 .st03{font-family:'Amatic SC',cursive;}
 .st04{fill:none;stroke:#7C7C7C;stroke-miterlimit:10;}
 .st05{fill:none;stroke:#7C7C7C;stroke-miterlimit:10;stroke-dasharray:1,2;}
 .st06{fill:none;stroke:#000000;stroke-linejoin:round;}
 .st07{opacity:0.5;}
 .st08{opacity:0.1797;fill:#883AB5;}
 .st09{opacity:0.1797;fill:#2AC0FF;}
 .st010{opacity:0.1797;fill:#EAD61B;}
 .st011{font-family:'Roboto', sans-serif;}
 .st012{font-size:13.1545px;}
 .st013{font-size:12px;}
 .st014{fill:none;}
</style>
<g id="titles">
 <text transform="matrix(1 0 0 1 42.4769 402.8072)" class="st00 st01">Canning with Morena</text>
 <g id="sound">
   <polygon id="play" class="playpause st02" points="42.7,501.1 72.1,516.3 42.7,531.6"/>
   <polygon id="stop" class="playpause st02" points="42.7,501.1 72.1,501.1 72.1,531.6 42.7,531.6"/>
   <text transform="matrix(1 0 0 1 84.829 524.8068)" class="st03 st01">Meet Morena</text>
 </g>
</g>

 
<!--        <image id="portrait" style="overflow:visible;" width="4000" height="4000" xlink:href="../../img/morena/Morena.png"  transform="matrix(8.675000e-02 0 0 8.675000e-02 -9.428759e-06 55.8074)">
 </image> -->

<g id="legend_x5F_items">
 
   <image style="overflow:visible;" width="1058" height="750" xlink:href="../../img/morena/Comment.png"  transform="matrix(4.988550e-02 0 0 4.988550e-02 36.99 552.3994)">
 </image>
 <g>
   <g>
     <line class="st04" x1="207.5" y1="865.8" x2="207.5" y2="866.8"/>
     <line class="st05" x1="207.5" y1="868.8" x2="207.5" y2="891.8"/>
     <line class="st04" x1="207.5" y1="893.8" x2="207.5" y2="893.8"/>
   </g>
 </g>
 <polyline class="st06" points="250.4,743 250.3,761 222.7,760.9 182.8,761 182.9,743   "/>
 <g class="st07">
   <path class="st08" d="M56.6,980.1c11.3,0.1,22.7-0.1,34,0.2c0.8,0,0.6-1,0.5-1.4c-0.2-0.6-1.5-2.1-2.2-2.1
     c-5.7-0.4-11.4-0.3-17.1-0.3c-5.6,0-11.1-0.1-16.7-0.2C53.2,976.2,55.3,980,56.6,980.1z"/>
   <path class="st08" d="M56.8,978.7c11.4,0.1,22.7-0.1,34.1,0.2c0.5,0,0.7-0.9,0.6-1.3c-0.2-0.5-1.1-1-1.6-1
     c-11.4-0.5-22.8-0.1-34.2-0.3c-0.5,0-0.9,1-0.7,1.4C55.1,978.2,56.3,978.7,56.8,978.7z"/>
   <path class="st08" d="M61,983.3c11.4,0,22.9,0,34.3,0c1.6,0-0.5-2.2-0.6-2.2c-1.2-1.1-2.9-2.7-4.6-2.9c-5.5-0.5-11.2-0.3-16.7-0.3
     c-5.6,0-11.2,0-16.8-0.2c-1.6-0.1,0.2,2.1,0.3,2.3c0.8,0.9,1.6,1.7,2.5,2.4C59.8,982.9,60.4,983.2,61,983.3z"/>
   <path class="st08" d="M59.7,980.6c11.4,0.1,22.8-0.1,34.2,0.1c0.9,0,1.2-0.7,0.7-1.4c-0.6-0.5-1.3-0.9-2.1-1.2
     c-0.7-0.4-1.5-0.7-2.3-0.9c-5.6-0.4-11.2-0.2-16.9-0.2c-5.6,0-11.3,0-16.9-0.2c-0.9,0-1.3,0.5-0.8,1.3c0.6,0.5,1.2,1,1.9,1.4
     C58.3,980,59,980.3,59.7,980.6z"/>
   <path class="st08" d="M56.1,979c11.4-0.1,22.8,0,34.2,0c0.5,0,1.1-1.5,1.3-1.5c-11.4,0-22.8,0-34.2,0C56.8,977.5,56.3,979,56.1,979
     z"/>
   <path class="st08" d="M57.3,982.9c11.4,0.1,22.8-0.1,34.1,0.1c2,0-1-4.4-2.2-4.5c-5.5-0.5-11-0.2-16.5-0.2c-5.6,0-11.1,0-16.7-0.2
     c-1.1,0-1,1-0.7,1.7C55.6,980.5,56.4,982.9,57.3,982.9z"/>
   <path class="st08" d="M55.4,980.5c6,0.1,12.1,0.1,18.1,0.1c5.1,0,10.3-0.1,15.4,0.2c1.1,0.1,1.9-1.9,0.6-1.9
     C78.3,979,67.1,979,56,979c-0.5,0-1.2,0.2-1.3,0.7C54.6,980.1,54.9,980.5,55.4,980.5z"/>
 </g>
 <g class="st07">
   <path class="st09" d="M58,953.4c10.4,0.1,20.8,0,31.2,0.1c1,0,0.6-1.3,0.3-1.7c-0.6-0.8-1.4-1.8-2.4-2c-2.3-0.3-4.7-0.1-7-0.1
     c-3.3,0-6.6,0-9.8,0c-4.6,0-9.2-0.1-13.7-0.2C54.6,949.5,56.8,953.4,58,953.4z"/>
   <path class="st09" d="M58.3,952c10.4,0.1,20.8-0.1,31.2,0.1c0.6,0,0.8-1.1,0.6-1.4c-0.3-0.6-1.5-0.9-2.1-0.9
     c-5.1-0.2-10.3,0-15.5,0c-5.1,0-10.3,0-15.4-0.1c-0.5,0-0.9,1-0.7,1.4C56.6,951.5,57.7,952,58.3,952z"/>
   <path class="st09" d="M62.5,956.7c10.4,0,20.9,0,31.3,0c1.6,0-0.4-2.1-0.5-2.2c-1.1-1.1-2.8-2.8-4.4-3.1c-1.5-0.2-3.2-0.1-4.8-0.1
     c-3.6,0-7.1,0-10.7,0c-5.1,0-10.2-0.1-15.4-0.2c-1.6-0.1,0.2,2.1,0.3,2.3c0.8,0.9,1.6,1.7,2.5,2.4
     C61.3,956.3,61.8,956.6,62.5,956.7z"/>
   <path class="st09" d="M61.2,953.9c10.4,0.1,20.8,0,31.3,0.1c0.9,0,1.3-0.7,0.7-1.4c-0.6-0.5-1.3-0.9-2-1.3
     c-0.7-0.4-1.5-0.7-2.2-0.9c-1.6-0.1-3.2,0-4.8-0.1c-3.6,0-7.2,0-10.7,0c-5.1,0-10.3-0.1-15.4-0.2c-0.9,0-1.3,0.5-0.8,1.3
     c0.6,0.5,1.2,1,1.9,1.4C59.8,953.3,60.5,953.7,61.2,953.9z"/>
   <path class="st09" d="M57.5,952.3c10.4,0,20.8,0,31.2,0c0.5,0,1.1-1.5,1.3-1.5c-10.4,0-20.8,0-31.2,0
     C58.3,950.8,57.7,952.3,57.5,952.3z"/>
   <path class="st09" d="M58.8,956.2c10.4,0.1,20.8-0.1,31.2,0.1c2.1,0-0.7-4.5-1.9-4.7c-1.5-0.2-3.2,0-4.7,0c-3.6,0-7.1,0-10.7,0
     c-5.1,0-10.1,0-15.2-0.2c-1.1,0-1,1-0.7,1.7C57,953.8,57.9,956.2,58.8,956.2z"/>
   <path class="st09" d="M56.9,953.8c5.1,0.1,10.1,0.1,15.2,0.1c3.6,0,7.2,0,10.7,0c1.6,0,3.3-0.1,4.9,0.1c0.4,0,1.3-0.3,1.4-0.7
     c0.1-0.3-0.1-1.1-0.5-1c-2.3,0.2-4.8,0-7.1,0c-3.3,0-6.6,0-9.8,0c-4.7,0-9.4,0-14.1,0c-0.5,0-1.2,0.2-1.3,0.7
     C56,953.5,56.4,953.8,56.9,953.8z"/>
 </g>
 <g>
   <path class="st010" d="M166.7,879.8c8.9-0.1,17.9-0.5,26.8-0.6c0.6-0.2,1.1-0.6,1.3-1.3c0.2-0.8-0.1-1.5-0.7-2.1
     c-1-1.5-2.8-3.7-4.8-3.7c-8.6-0.1-17.2,0.3-25.8,0.2c-0.7,0.1-1.2,0.5-1.5,1.1c-0.3,0.8-0.1,1.5,0.4,2.2
     C163.2,876.9,164.9,879.8,166.7,879.8z"/>
   <path class="st010" d="M167.3,877c9-0.1,17.9-0.5,26.9-0.7c1.1,0,1.5-2.2,1.1-2.9c-0.7-1.2-2.9-1.6-4.1-1.6
     c-8.8,0.1-17.6,0.4-26.3,0.5c-1.1,0-1.7,2-1.4,2.8C163.9,876.3,166.1,877,167.3,877z"/>
   <path class="st010" d="M175.7,886.3c9-0.3,18.1-0.6,27.1-0.9c0.8-0.1,1.2-0.6,1.1-1.4c-0.4-1.3-1.1-2.3-2.3-3
     c-1.8-1.6-3.6-3-5.5-4.4c-1-1-2.1-1.5-3.5-1.5c-8.7-0.1-17.4,0.4-26.2,0.2c-0.8,0.1-1.2,0.5-1.3,1.3c0.3,1.3,0.9,2.3,2,3.2
     c1.6,1.7,3.3,3.3,5.1,4.8C173.3,885.5,174.4,886.1,175.7,886.3z"/>
   <path class="st010" d="M173.2,880.9c9-0.2,18-0.5,27-0.7c1.8,0,2.6-1.4,1.4-2.8c-1.3-1-2.7-1.8-4.2-2.5c-1.4-0.8-3-1.3-4.5-1.7
     c-8.8,0-17.6,0.4-26.4,0.3c-1.7,0-2.7,1.2-1.6,2.7c1.2,1.1,2.5,2,3.9,2.8C170.2,879.7,171.7,880.4,173.2,880.9z"/>
   <path class="st010" d="M166.4,878c1.5-0.2,2.9-0.4,4.4-0.6c2.8-0.4,5.7-0.3,8.5-0.4c4.5-0.1,9-0.3,13.5-0.4c0.6,0,1.1-1.1,1.4-1.5
     c-0.1,0.1,1.2-1.8,0.9-1.8c-4.5,0.1-9,0.4-13.5,0.4c-2.9,0.1-5.9,0-8.8,0.4c-1.3,0.2-2.7,0.4-4,0.5c-0.4,0.1-1.1,1.3-1.3,1.5
     C167.5,876.3,166.4,878,166.4,878z"/>
   <path class="st010" d="M168.3,885.3c9-0.2,17.9-0.5,26.9-0.7c0.7-0.1,1.2-0.4,1.5-1c0.2-0.9,0-1.8-0.6-2.6
     c-0.8-1.4-1.7-2.7-2.7-3.9c-0.5-0.9-1.2-1.4-2.2-1.5c-8.6,0-17.1,0.4-25.7,0.4c-2.2,0-1.9,2-1.4,3.4c0.6,1.5,1.3,2.9,2.1,4.2
     C166.8,884.5,167.4,885.1,168.3,885.3z"/>
   <path class="st010" d="M164.4,880.5c4.7,0,9.3,0,13.9-0.1c4-0.1,8-0.2,12-0.2c0.8,0,2.4-0.8,2.7-1.6c0.2-0.6-0.3-1.9-1.1-1.9
     c-8.8,0.4-17.7,0.8-26.5,0.8c-0.8,0-2.4,0.4-2.5,1.4C162.8,880,163.5,880.5,164.4,880.5z"/>
 </g>
 <g>
   <path d="M46.7,881.1c7.4,0,14.9,0,22.3,0c1.8,0,4.8-0.6,5.7-2.5c0.8-1.8-0.7-2.9-2.4-2.9c-7.4,0-14.9,0-22.3,0
     c-1.8,0-4.8,0.6-5.7,2.5C43.5,880,45,881.1,46.7,881.1L46.7,881.1z"/>
 </g>
 <g>
   <path d="M47.8,910.1c7.4,0,14.9,0,22.3,0c1.2,0,3-1.8,1.1-1.8c-7.4,0-14.9,0-22.3,0C47.7,908.3,45.9,910.1,47.8,910.1L47.8,910.1z
     "/>
 </g>
 <line class="st06" x1="182.9" y1="642.7" x2="250.3" y2="642.8"/>
 <path class="st06" d="M249.5,694c3.1,0,5.7,2.5,5.7,5.7s-2.5,5.7-5.7,5.7l-68-0.2c-3.1,0-5.7-2.5-5.7-5.7s2.5-5.7,5.7-5.7"/>
 <path d="M184.4,875.8c-1.7,0-5,0.6-5.7,2.5c-0.7,1.8,0.6,2.8,2.4,2.9c8.9,0.2,17.9,0.3,26.8,0.5v-5.4
   C200.1,876.1,192.3,875.9,184.4,875.8z"/>
 <line class="st05" x1="47.5" y1="942.8" x2="47.5" y2="961.8"/>
 <line class="st05" x1="47.5" y1="968.8" x2="47.5" y2="987.8"/>
 <path d="M68.7,950.8c-7.2,0-14.5,0-21.7,0v1.8c6.9,0,13.8,0,20.6,0C68.8,952.6,70.7,950.8,68.7,950.8z"/>
 <path d="M68.7,977.2c-7.2,0-14.5,0-21.7,0v1.8c6.9,0,13.8,0,20.6,0C68.8,979,70.7,977.2,68.7,977.2z"/>
 <text transform="matrix(1 0 0 1 89.7687 649.3628)" class="st011 st012">Cans</text>
 <text transform="matrix(1 0 0 1 89.7687 702.8779)" class="st011 st012">Glass</text>
 <g>
   <text transform="matrix(1 0 0 1 120.6714 951.7067)" class="st011 st013">Connected to residential building</text>
 </g>
 <g>
   <text transform="matrix(1 0 0 1 120.6714 984.026)" class="st011 st013">Connected to business</text>
 </g>
 <g>
   <text transform="matrix(1 0 0 1 268.4122 756.392)" class="st011 st013">Bin</text>
 </g>
 <g>
   <text transform="matrix(1 0 0 1 268.412 702.8781)" class="st011 st013">Bag</text>
 </g>
 <g>
   <text transform="matrix(1 0 0 1 268.4123 646.4541)" class="st011 st013">Ground</text>
 </g>
 <g>
   <text transform="matrix(1 0 0 1 89.4641 878.4361)" class="st011 st013">Private</text>
 </g>
 <g>
   <text transform="matrix(1 0 0 1 89.4641 912.2955)" class="st011 st013">Public</text>
 </g>
 <g>
   <rect x="230" y="871.5" class="st014" width="188" height="75.8"/>
   <text transform="matrix(1 0 0 1 229.9999 881.5499)" class="st011 st013">Needs someone to get in</text>
 </g>
 <text transform="matrix(1 0 0 1 89.7688 756.3925)" class="st011 st012">Plastic</text>
 <text transform="matrix(1 0 0 1 89.7689 809.9075)" class="st011 st012">Trash bag</text>
 
   <image style="overflow:visible;" width="243" height="375" xlink:href="../../img/morena/Can.png"  transform="matrix(9.488724e-02 0 0 9.488724e-02 45.8528 616.1534)">
 </image>
 
   <image style="overflow:visible;" width="194" height="592" xlink:href="../../img/morena/Glass.png"  transform="matrix(8.958174e-02 0 0 8.958174e-02 48.6922 656.9255)">
 </image>
 
   <image style="overflow:visible;" width="903" height="1034" xlink:href="../../img/morena/Bag_gray.png"  transform="matrix(5.155308e-02 0 0 5.155308e-02 31.684 776.9944)">
 </image>
 <text transform="matrix(1 0 0 1 89.7688 574.8998)" class="st011 st013">Morena’s comments</text>
 <g>
   <text transform="matrix(1 0 0 1 268.4122 574.8994)" class="st011 st013">Encounters</text>
 </g>
 
   <image style="overflow:visible;" width="1030" height="1252" xlink:href="../../img/morena/Hand.png"  transform="matrix(3.433530e-02 0 0 3.433530e-02 221.6004 549.6126)">
 </image>
 <g>
   <rect x="182.8" y="784.6" class="st014" width="162.1" height="60.3"/>
   <text transform="matrix(1 0 0 1 182.8206 794.6461)"><tspan x="0" y="0" class="st011 st013">During the collection, canners’ </tspan><tspan x="0" y="14.4" class="st011 st013">units of measurement is a trash </tspan><tspan x="0" y="28.8" class="st011 st013">bag which on average contains </tspan><tspan x="0" y="43.2" class="st011 st013">150 items. </tspan></text>
 </g>
 
   <image style="overflow:visible;" width="216" height="551" xlink:href="../../img/morena/Plastic.png"  transform="matrix(9.029038e-02 0 0 9.029038e-02 47.6302 715.9324)">
 </image>
</g>
</svg>