<?xml version="1.0" encoding="utf-8"?>
<!-- Generator: Adobe Illustrator 19.1.0, SVG Export Plug-In . SVG Version: 6.00 Build 0)  -->
<svg id="legend" version="1.1" xmlns="http://www.w3.org/2000/svg" xmlns:xlink="http://www.w3.org/1999/xlink" x="0px" y="0px"
	 viewBox="-110 -144 389.8 1080" style="enable-background:new -110 -144 389.8 1080;" xml:space="preserve">
<style type="text/css">
	.st0{display:none;}
	.st1{display:inline;}
	.st2{font-family:'Roboto-BoldItalic';}
	.st3{font-size:12px;}
	.st4{font-family:'Roboto-Bold';}
	.st5{font-size:10px;}
	.st6{fill:#999999;}
	.st7{display:inline;fill:#D7DED5;}
	.st8{display:inline;fill:none;stroke:#000000;stroke-width:2;}
	.st9{display:inline;opacity:0.5;}
	.st10{opacity:0.1797;fill:#883AB5;enable-background:new    ;}
	.st11{opacity:0.1797;fill:#2AC0FF;enable-background:new    ;}
	.st12{display:inline;fill:none;stroke:#000000;stroke-width:2;stroke-linejoin:round;}
	.st13{display:inline;fill:none;stroke:#7C7C7C;stroke-miterlimit:10;stroke-dasharray:1,2;}
	.st14{font-family:'AmaticSC-Regular';}
	.st15{font-size:32px;}
	.st16{font-family:'Roboto-Regular';}
	.st17{font-size:13.1545px;}
</style>
<style>@import url('../svg_styles.css')</style>
<g id="legend_icons">
	<g class="st1">
		<text transform="matrix(1 0 0 1 -7.3285 556.8654)" class="st2 st3">1 Glass</text>
	</g>
	<g class="st1">
		<text transform="matrix(1 0 0 1 150.4123 556.8654)" class="st2 st3">1 Plastic</text>
	</g>
	<g class="st1">
		<text transform="matrix(1 0 0 1 150.4123 624.8654)" class="st2 st3">Trash bag</text>
		<text transform="matrix(1 0 0 1 150.4123 639.2654)" class="st2 st3">= 150 items</text>
	</g>
	<g class="st1">
		<text transform="matrix(1 0 0 1 -7.3285 625.3234)" class="st2 st3">1 Can</text>
	</g>
	<g class="st1">
		<text transform="matrix(1 0 0 1 -7.3285 716.629)" class="st2 st3">Ground</text>
	</g>
	<g class="st1">
		<text transform="matrix(1 0 0 1 -7.3285 754.9757)" class="st2 st3">Bin</text>
	</g>
	<g class="st1">
		<text transform="matrix(1 0 0 1 -7.3285 793.3234)" class="st2 st3">Bag</text>
	</g>
	<g class="st1">
		<text transform="matrix(1 0 0 1 -7.3286 850.8993)" class="st2 st3">Connected</text>
		<text transform="matrix(1 0 0 1 -7.3286 865.2993)" class="st2 st3">to residence</text>
	</g>
	<g class="st1">
		<text transform="matrix(1 0 0 1 150.4121 850.8993)" class="st2 st3">Connected</text>
		<text transform="matrix(1 0 0 1 150.4121 865.2993)" class="st2 st3">to business</text>
	</g>
	<g class="st1">
		<text transform="matrix(1 0 0 1 150.4121 793.3235)" class="st2 st3">Needs someone</text>
		<text transform="matrix(1 0 0 1 150.4121 807.7235)" class="st2 st3">to get in</text>
	</g>
	<g class="st1">
		<text transform="matrix(1 0 0 1 150.4123 716.6287)" class="st2 st3">Private</text>
	</g>
	<g class="st1">
		<text transform="matrix(1 0 0 1 150.4123 754.9754)" class="st2 st3">Public</text>
	</g>
	<text transform="matrix(1 0 0 1 -7.3288 445.0924)" class="st1 st2 st3">Morena’s</text>
	<text transform="matrix(1 0 0 1 -7.3288 459.4924)" class="st1 st2 st3">comments</text>
	<text transform="matrix(1 0 0 1 -7.3288 379.0924)" class="st1 st2 st3">Observations</text>
	<g class="st1">
		<text transform="matrix(1 0 0 1 150.4122 445.092)" class="st2 st3">Morena’s</text>
		<text transform="matrix(1 0 0 1 150.4122 459.492)" class="st2 st3">encounters</text>
	</g>
	
		<image style="display:inline;overflow:visible;enable-background:new    ;" width="123" height="150" xlink:href="../../img/morena/legend/Hand.png"  transform="matrix(0.287 0 0 0.287 103.0345 423.1849)">
	</image>
	
		<image style="display:inline;overflow:visible;enable-background:new    ;" width="150" height="106" xlink:href="../../img/morena/legend/Comment.png"  transform="matrix(0.3522 0 0 0.3522 -73.0276 426.039)">
	</image>
	<text transform="matrix(1 0 0 1 -70 510)" class="st1 st4 st5">ITEMS</text>
	<text transform="matrix(1 0 0 1 -69 693)" class="st1 st4 st5">LOCATIONS</text>
	
		<image style="display:inline;overflow:visible;enable-background:new    ;" width="49" height="150" xlink:href="../../img/morena/legend/Glass.png"  transform="matrix(0.3916 0 0 0.3916 -64.9725 524.0457)">
	</image>
	
		<image style="display:inline;overflow:visible;enable-background:new    ;" width="97" height="150" xlink:href="../../img/morena/legend/Can.png"  transform="matrix(0.24 0 0 0.24 -67.0212 603.8134)">
	</image>
	
		<image style="display:inline;overflow:visible;enable-background:new    ;" width="59" height="150" xlink:href="../../img/morena/legend/Plastic.png"  transform="matrix(0.4006 0 0 0.4006 104.9657 523.365)">
	</image>
	
		<image style="display:inline;overflow:visible;enable-background:new    ;" width="122" height="150" xlink:href="../../img/morena/legend/trash_bag-5.png"  transform="matrix(0.3427 0 0 0.3427 95.9823 592.0144)">
	</image>
	<g class="st1">
		<text transform="matrix(1 0 0 1 150.4123 378.8654)" class="st2 st3">Visual notes</text>
		<text transform="matrix(1 0 0 1 150.4123 391.8654)" class="st6 st2 st5">CLICK TO VIEW</text>
	</g>
	<rect x="-68" y="363" class="st7" width="48" height="35"/>
	
		<image style="display:inline;overflow:visible;enable-background:new    ;" width="150" height="115" xlink:href="../../img/morena/legend/Camera.png"  transform="matrix(0.3077 0 0 0.3077 93.9494 363.0659)">
	</image>
	<polyline class="st8" points="-24.8,741.1 -24.8,752.1 -66,752.1 -65.9,741.1 	"/>
	<g class="st9">
		<path class="st10" d="M102.6,853.2c11.3,0.1,22.7-0.1,34,0.2c0.8,0,0.6-1,0.5-1.4c-0.2-0.6-1.5-2.1-2.2-2.1
			c-5.7-0.4-11.4-0.3-17.1-0.3c-5.6,0-11.1-0.1-16.7-0.2C99.2,849.4,101.3,853.2,102.6,853.2z"/>
		<path class="st10" d="M102.8,851.9c11.4,0.1,22.7-0.1,34.1,0.2c0.5,0,0.7-0.9,0.6-1.3c-0.2-0.5-1.1-1-1.6-1
			c-11.4-0.5-22.8-0.1-34.2-0.3c-0.5,0-0.9,1-0.7,1.4C101.1,851.4,102.3,851.8,102.8,851.9z"/>
		<path class="st10" d="M107,856.5c11.4,0,22.9,0,34.3,0c1.6,0-0.5-2.2-0.6-2.2c-1.2-1.1-2.9-2.7-4.6-2.9
			c-5.5-0.5-11.2-0.3-16.7-0.3c-5.6,0-11.2,0-16.8-0.2c-1.6-0.1,0.2,2.1,0.3,2.3c0.8,0.9,1.6,1.7,2.5,2.4
			C105.8,856.1,106.4,856.4,107,856.5z"/>
		<path class="st10" d="M105.7,853.8c11.4,0.1,22.8-0.1,34.2,0.1c0.9,0,1.2-0.7,0.7-1.4c-0.6-0.5-1.3-0.9-2.1-1.2
			c-0.7-0.4-1.5-0.7-2.3-0.9c-5.6-0.4-11.2-0.2-16.9-0.2c-5.6,0-11.3,0-16.9-0.2c-0.9,0-1.3,0.5-0.8,1.3c0.6,0.5,1.2,1,1.9,1.4
			C104.3,853.2,105,853.5,105.7,853.8z"/>
		<path class="st10" d="M102.1,852.2c11.4-0.1,22.8,0,34.2,0c0.5,0,1.1-1.5,1.3-1.5c-11.4,0-22.8,0-34.2,0
			C102.8,850.7,102.3,852.2,102.1,852.2z"/>
		<path class="st10" d="M103.3,856.1c11.4,0.1,22.8-0.1,34.1,0.1c2,0-1-4.4-2.2-4.5c-5.5-0.5-11-0.2-16.5-0.2
			c-5.6,0-11.1,0-16.7-0.2c-1.1,0-1,1-0.7,1.7C101.6,853.7,102.4,856.1,103.3,856.1z"/>
		<path class="st10" d="M101.4,853.7c6,0.1,12.1,0.1,18.1,0.1c5.1,0,10.3-0.1,15.4,0.2c1.1,0.1,1.9-1.9,0.6-1.9
			c-11.2,0.1-22.4,0.1-33.6,0.1c-0.5,0-1.2,0.2-1.3,0.7C100.6,853.3,100.9,853.7,101.4,853.7z"/>
	</g>
	<g class="st9">
		<path class="st11" d="M-55,852.6c10.4,0.1,20.8,0,31.2,0.1c1,0,0.6-1.3,0.3-1.7c-0.6-0.8-1.4-1.8-2.4-2c-2.3-0.3-4.7-0.1-7-0.1
			c-3.3,0-6.6,0-9.8,0c-4.6,0-9.2-0.1-13.7-0.2C-58.4,848.7-56.2,852.6-55,852.6z"/>
		<path class="st11" d="M-54.7,851.2c10.4,0.1,20.8-0.1,31.2,0.1c0.6,0,0.8-1.1,0.6-1.4c-0.3-0.6-1.5-0.9-2.1-0.9
			c-5.1-0.2-10.3,0-15.5,0c-5.1,0-10.3,0-15.4-0.1c-0.5,0-0.9,1-0.7,1.4S-55.3,851.2-54.7,851.2z"/>
		<path class="st11" d="M-50.5,855.9c10.4,0,20.9,0,31.3,0c1.6,0-0.4-2.1-0.5-2.2c-1.1-1.1-2.8-2.8-4.4-3.1
			c-1.5-0.2-3.2-0.1-4.8-0.1c-3.6,0-7.1,0-10.7,0c-5.1,0-10.2-0.1-15.4-0.2c-1.6-0.1,0.2,2.1,0.3,2.3c0.8,0.9,1.6,1.7,2.5,2.4
			C-51.7,855.5-51.2,855.8-50.5,855.9z"/>
		<path class="st11" d="M-51.8,853.1c10.4,0.1,20.8,0,31.3,0.1c0.9,0,1.3-0.7,0.7-1.4c-0.6-0.5-1.3-0.9-2-1.3
			c-0.7-0.4-1.5-0.7-2.2-0.9c-1.6-0.1-3.2,0-4.8-0.1c-3.6,0-7.2,0-10.7,0c-5.1,0-10.3-0.1-15.4-0.2c-0.9,0-1.3,0.5-0.8,1.3
			c0.6,0.5,1.2,1,1.9,1.4C-53.2,852.5-52.5,852.9-51.8,853.1z"/>
		<path class="st11" d="M-55.5,851.5c10.4,0,20.8,0,31.2,0c0.5,0,1.1-1.5,1.3-1.5c-10.4,0-20.8,0-31.2,0
			C-54.7,850-55.3,851.5-55.5,851.5z"/>
		<path class="st11" d="M-54.2,855.4c10.4,0.1,20.8-0.1,31.2,0.1c2.1,0-0.7-4.5-1.9-4.7c-1.5-0.2-3.2,0-4.7,0c-3.6,0-7.1,0-10.7,0
			c-5.1,0-10.1,0-15.2-0.2c-1.1,0-1,1-0.7,1.7C-56,853-55.1,855.4-54.2,855.4z"/>
		<path class="st11" d="M-56.1,853c5.1,0.1,10.1,0.1,15.2,0.1c3.6,0,7.2,0,10.7,0c1.6,0,3.3-0.1,4.9,0.1c0.4,0,1.3-0.3,1.4-0.7
			c0.1-0.3-0.1-1.1-0.5-1c-2.3,0.2-4.8,0-7.1,0c-3.3,0-6.6,0-9.8,0c-4.7,0-9.4,0-14.1,0c-0.5,0-1.2,0.2-1.3,0.7
			C-57,852.7-56.6,853-56.1,853z"/>
	</g>
	<g class="st1">
		<path d="M96.7,715.3c7.4,0,14.9,0,22.3,0c1.8,0,4.8-0.6,5.7-2.5c0.8-1.8-0.7-2.9-2.4-2.9c-7.4,0-14.9,0-22.3,0
			c-1.8,0-4.8,0.6-5.7,2.5C93.5,714.2,95,715.3,96.7,715.3L96.7,715.3z"/>
	</g>
	<g class="st1">
		<path d="M97.8,753.1c7.4,0,14.9,0,22.3,0c1.2,0,3-1.8,1.1-1.8c-7.4,0-14.9,0-22.3,0C97.7,751.3,95.9,753.1,97.8,753.1L97.8,753.1z
			"/>
	</g>
	<line class="st8" x1="-66" y1="712.9" x2="-25" y2="712.9"/>
	<path class="st12" d="M-31.4,781.7c3.1,0,5.7,2.5,5.7,5.7s-2.5,5.7-5.7,5.7l-30-0.2c-3.1,0-5.7-2.5-5.7-5.7s2.5-5.7,5.7-5.7"/>
	<line class="st13" x1="-65.5" y1="842" x2="-65.5" y2="861"/>
	<line class="st13" x1="93.5" y1="842" x2="93.5" y2="861"/>
	<path class="st1" d="M-44.3,850c-7.2,0-14.5,0-21.7,0v1.8c6.9,0,13.8,0,20.6,0C-44.2,851.8-42.3,850-44.3,850z"/>
	<path class="st1" d="M114.7,850.4c-7.2,0-14.5,0-21.7,0v1.8c6.9,0,13.8,0,20.6,0C114.8,852.2,116.7,850.4,114.7,850.4z"/>
	<g class="st1">
		<path d="M117.8,807.5h-14.7v-16.2h14.7V807.5z M110.5,797.3c-1.2,0-2.1,0.9-2.1,2.1c0,1.2,0.9,2.1,2.1,2.1s2.1-0.9,2.1-2.1
			S111.6,797.3,110.5,797.3z"/>
		<g>
			<path d="M117.8,791.2h-2c0-5-2.5-9.2-5.4-9.2s-5.4,4.2-5.4,9.2h-2c0-6.3,3.2-11.2,7.4-11.2S117.8,785,117.8,791.2z"/>
		</g>
	</g>
</g>
<g id="header">
	<!-- <polygon class="st6" points="-68,300 -43,313 -68,325.9 	"/>
	<text transform="matrix(1 0 0 1 -34.6422 324.9994)" class="st14 st15">Meet Morena</text> -->
	
		<image id="sc-image" style="visibility:hidden;overflow:visible;enable-background:new    ;" width="150" height="19" xlink:href="../../img/morena/legend/Soundcloud.png"  transform="matrix(1.8432 0 0 1.4368 -69.08 254.4835)">
	</image>
		<image style="overflow:visible;enable-background:new    ;" width="806" height="1072" xlink:href="../../img/morena/legend/Morena.png"  transform="matrix(-0.336 0 0 0.336 204.9248 -119.0566)">
	</image>
</g>
<g id="data_legend_icons">
	<text transform="matrix(1 0 0 1 -22.8236 429.9655)" class="st16 st17">Cans</text>
	<text transform="matrix(1 0 0 1 -22.8238 483.4807)" class="st16 st17">Glass</text>
	<text transform="matrix(1 0 0 1 -22.8236 536.9951)" class="st16 st17">Plastic</text>
	<text transform="matrix(1 0 0 1 -22.8234 594.3903)" class="st16 st17">10 unsorted items</text>
	<text transform="matrix(1 0 0 1 -22.8234 610.1903)" class="st16 st17">Each one can be redeemed for 5 cents</text>
	<text transform="matrix(1 0 0 1 -22.8236 662.3903)" class="st16 st17">10 sorted items</text>
	<text transform="matrix(1 0 0 1 -22.8236 678.1903)" class="st16 st17">Each one can be redeemed for 6 or 6.5 cents</text>
	
		<image style="overflow:visible;enable-background:new    ;" width="97" height="150" xlink:href="../../img/morena/legend/Can.png"  transform="matrix(0.2374 0 0 0.2374 -66.7229 396.7454)">
	</image>
	
		<image style="overflow:visible;enable-background:new    ;" width="49" height="150" xlink:href="../../img/morena/legend/Glass.png"  transform="matrix(0.3537 0 0 0.3537 -63.8754 437.5202)">
	</image>
	
		<image style="overflow:visible;enable-background:new    ;" width="59" height="150" xlink:href="../../img/morena/legend/Plastic.png"  transform="matrix(0.3405 0 0 0.3405 -65.2544 495.164)">
	</image>
	
		<image style="overflow:visible;enable-background:new    ;" width="158" height="726" xlink:href="../../img/morena/legend/DataViz_legend_dots.png"  transform="matrix(0.1217 -9.739679e-03 9.739679e-03 0.1217 -65.2223 585.2745)">
	</image>
</g>
</svg>
